<?xml version="1.0" encoding="utf-8"?>
<svg x="18.75pt" y="18.725pt" width="30px" height="1.5rem" viewBox="0 0 66 43"  xmlns="http://www.w3.org/2000/svg" xmlns:xlink="http://www.w3.org/1999/xlink">
  <path id="Path 16" style="fill:#000000;fill-opacity:1;fill-rule:nonzero;opacity:1;stroke:none;" d="M593.725,424.836 C593.716,424.999,593.708,425.162,593.7,425.325 C593.7,425.325,593.725,424.575,593.725,424.575 C593.725,424.661,593.725,424.748,593.725,424.836 z M125,292.7 C125,292.7,125.025,292.7,125.025,292.7 C142.275,292.7,156.275,278.7,156.275,261.45 C156.275,248.1,147.9,236.7,136.125,232.225 C136.125,232.225,135.9,232.15,135.9,232.15 C135.9,232.15,60.9,204.3,60.9,204.3 C57.675,203.05,53.925,202.35,50,202.35 C32.75,202.35,18.75,216.35,18.75,233.6 C18.75,246.95,27.125,258.35,38.9,262.825 C38.9,262.825,39.125,262.9,39.125,262.9 C39.125,262.9,114.125,290.75,114.125,290.75 C117.35,291.975,121.1,292.7,125,292.7 z M177.9,147.1 C183.55,152.7,191.325,156.175,199.925,156.175 C217.175,156.175,231.175,142.175,231.175,124.925 C231.175,116.325,227.7,108.55,222.1,102.9 C222.1,102.9,147.1,27.9,147.1,27.9 C141.45,22.275,133.675,18.825,125.075,18.825 C107.825,18.825,93.825,32.825,93.825,50.075 C93.825,58.675,97.3,66.45,102.9,72.1 C102.9,72.1,177.9,147.1,177.9,147.1 z M779.3,222.7 C774.75,210.7,763.35,202.325,750,202.325 C746.1,202.325,742.35,203.05,738.9,204.35 C738.9,204.35,739.125,204.275,739.125,204.275 C739.125,204.275,664.125,232.125,664.125,232.125 C652.125,236.675,643.75,248.075,643.75,261.425 C643.75,278.675,657.75,292.675,675,292.675 C675,292.675,675.025,292.675,675.025,292.675 C678.925,292.675,682.675,291.95,686.125,290.65 C686.125,290.65,685.9,290.725,685.9,290.725 C685.9,290.725,760.9,262.875,760.9,262.875 C772.9,258.325,781.25,246.925,781.25,233.575 C781.25,229.675,780.525,225.925,779.225,222.475 C779.225,222.475,779.3,222.7,779.3,222.7 z M600,156.25 C600,156.25,600.05,156.25,600.05,156.25 C608.675,156.25,616.475,152.75,622.125,147.1 C622.125,147.1,697.125,72.1,697.125,72.1 C702.775,66.45,706.275,58.625,706.275,50 C706.275,32.725,692.275,18.725,675,18.725 C666.35,18.725,658.55,22.225,652.875,27.9 C652.875,27.9,577.875,102.9,577.875,102.9 C572.225,108.55,568.725,116.375,568.725,125 C568.725,142.25,582.725,156.25,599.975,156.25 C599.975,156.25,600,156.25,600,156.25 z"/>
</svg>
