<svg viewBox="0 0 12535 8071" fill="none" xmlns="http://www.w3.org/2000/svg">
    <g clip-path="url(#clip0_4725_6156)">
        <path d="M3001.46 3613.1L2642.03 3584.27L2940.09 3565.04L3238.15 3574.65L3001.46 3613.1Z" fill="#0A5C89" />
        <path
            d="M1251 3531.28L1087.87 3484.75L886.106 3506.27L543.472 3454.92L488.143 3319L291.421 3347.54L181.083 3319L-353 3389.85V4836L1251 4836V3531.28Z"
            fill="#76B8CB" />
        <path
            d="M1251 3531.28L1087.87 3484.75L886.106 3506.27L543.472 3454.92L488.143 3319L291.421 3347.54L181.083 3319L-353 3389.85V4836L1251 4836V3531.28Z"
            fill="#76B8CB" />
        <path
            d="M1251 3531.28L1087.87 3484.75L886.106 3506.27L543.472 3454.92L488.143 3319L291.421 3347.54L181.083 3319L-353 3389.85V4836L1251 4836V3531.28Z"
            fill="#76B8CB" />
        <path
            d="M1251 3531.28L1087.87 3484.75L886.106 3506.27L543.472 3454.92L488.143 3319L291.421 3347.54L181.083 3319L-353 3389.85V4836L1251 4836V3531.28Z"
            fill="#76B8CB" />
        <path
            d="M183.445 3728L1030 3698.93L1548.81 3508.47L1207.22 3319H1126.35V3341.05L1064.42 3364.1L1055.83 3385.18L1038.64 3379.15L990.439 3385.18L976.65 3396.2V3382.15L944.423 3379.15L875.153 3405.23L859.671 3423.23L646.338 3491.42L560.272 3506.46L532.753 3527.5L462.219 3535.53L346.939 3596.67H317.663L183.445 3728Z"
            fill="#76B8CB" />
        <path
            d="M183.445 3728L1030 3698.93L1548.81 3508.47L1207.22 3319H1126.35V3341.05L1064.42 3364.1L1055.83 3385.18L1038.64 3379.15L990.439 3385.18L976.65 3396.2V3382.15L944.423 3379.15L875.153 3405.23L859.671 3423.23L646.338 3491.42L560.272 3506.46L532.753 3527.5L462.219 3535.53L346.939 3596.67H317.663L183.445 3728Z"
            fill="#76B8CB" />
        <path
            d="M183.445 3728L1030 3698.93L1548.81 3508.47L1207.22 3319H1126.35V3341.05L1064.42 3364.1L1055.83 3385.18L1038.64 3379.15L990.439 3385.18L976.65 3396.2V3382.15L944.423 3379.15L875.153 3405.23L859.671 3423.23L646.338 3491.42L560.272 3506.46L532.753 3527.5L462.219 3535.53L346.939 3596.67H317.663L183.445 3728Z"
            fill="#76B8CB" />
        <path
            d="M183.445 3728L1030 3698.93L1548.81 3508.47L1207.22 3319H1126.35V3341.05L1064.42 3364.1L1055.83 3385.18L1038.64 3379.15L990.439 3385.18L976.65 3396.2V3382.15L944.423 3379.15L875.153 3405.23L859.671 3423.23L646.338 3491.42L560.272 3506.46L532.753 3527.5L462.219 3535.53L346.939 3596.67H317.663L183.445 3728Z"
            fill="#76B8CB" />
        <path
            d="M3115 3765.74L2254.63 3590.69L2210.31 3547.93L2184.35 3540.79V3529.51L2167.05 3519.41H2145.43L2054.6 3477.23L1960.53 3452.88L1955.12 3436.25L1928.09 3426.15V3396.44L1903.21 3392.29V3370.9H1890.24L1879.44 3346.54L1884.84 3331.69L1832.93 3323.38V3307.34L1797.26 3297.83V3267.54L1723.73 3219.42L1649.12 3230.71L1563.7 3277.63L1498.83 3296.64L1436.11 3357.24L1443.68 3372.68L1412.32 3398.82L1417.73 3467.14L1374.48 3501.59L1364.74 3519.41L1292.3 3559.21L1237.16 3621.59L938.727 3708.32L565.693 3752.87L332.873 3849.71L148.331 3914.66V4835.71H3113.37L3115 3765.74"
            fill="#76B8CB" />
        <path
            d="M3115 3765.74L2254.63 3590.69L2210.31 3547.93L2184.35 3540.79V3529.51L2167.05 3519.41H2145.43L2054.6 3477.23L1960.53 3452.88L1955.12 3436.25L1928.09 3426.15V3396.44L1903.21 3392.29V3370.9H1890.24L1879.44 3346.54L1884.84 3331.69L1832.93 3323.38V3307.34L1797.26 3297.83V3267.54L1723.73 3219.42L1649.12 3230.71L1563.7 3277.63L1498.83 3296.64L1436.11 3357.24L1443.68 3372.68L1412.32 3398.82L1417.73 3467.14L1374.48 3501.59L1364.74 3519.41L1292.3 3559.21L1237.16 3621.59L938.727 3708.32L565.693 3752.87L332.873 3849.71L148.331 3914.66V4835.71H3113.37L3115 3765.74"
            fill="#76B8CB" />
        <path
            d="M3115 3765.74L2254.63 3590.69L2210.31 3547.93L2184.35 3540.79V3529.51L2167.05 3519.41H2145.43L2054.6 3477.23L1960.53 3452.88L1955.12 3436.25L1928.09 3426.15V3396.44L1903.21 3392.29V3370.9H1890.24L1879.44 3346.54L1884.84 3331.69L1832.93 3323.38V3307.34L1797.26 3297.83V3267.54L1723.73 3219.42L1649.12 3230.71L1563.7 3277.63L1498.83 3296.64L1436.11 3357.24L1443.68 3372.68L1412.32 3398.82L1417.73 3467.14L1374.48 3501.59L1364.74 3519.41L1292.3 3559.21L1237.16 3621.59L938.727 3708.32L565.693 3752.87L332.873 3849.71L148.331 3914.66V4835.71H3113.37L3115 3765.74"
            fill="#76B8CB" />
        <path
            d="M3115 3765.74L2254.63 3590.69L2210.31 3547.93L2184.35 3540.79V3529.51L2167.05 3519.41H2145.43L2054.6 3477.23L1960.53 3452.88L1955.12 3436.25L1928.09 3426.15V3396.44L1903.21 3392.29V3370.9H1890.24L1879.44 3346.54L1884.84 3331.69L1832.93 3323.38V3307.34L1797.26 3297.83V3267.54L1723.73 3219.42L1649.12 3230.71L1563.7 3277.63L1498.83 3296.64L1436.11 3357.24L1443.68 3372.68L1412.32 3398.82L1417.73 3467.14L1374.48 3501.59L1364.74 3519.41L1292.3 3559.21L1237.16 3621.59L938.727 3708.32L565.693 3752.87L332.873 3849.71L148.331 3914.66V4835.71H3113.37L3115 3765.74"
            fill="#76B8CB" />
        <g filter="url(#filter0_d_4725_6156)">
            <g clip-path="url(#clip1_4725_6156)">
                <path d="M1732.59 4364.57H1654.21V4858.69H1732.59V4364.57Z" fill="#52A1C4" />
                <path d="M137.184 4366.2H58.8052V4860.32H137.184V4366.2Z" fill="#52A1C4" />
                <path d="M1534.2 4329.62H1455.82V4823.74H1534.2V4329.62Z" fill="#52A1C4" />
                <path d="M316.69 4303.84H238.312V4797.96H316.69V4303.84Z" fill="#52A1C4" />
                <path d="M1654.54 4375.6H1732.59L1693.55 4200.27L1654.54 4375.6Z" fill="#13536F" />
                <path d="M59.1279 4374.17H137.182L98.1643 4198.83L59.1279 4374.17Z" fill="#13536F" />
                <path d="M1456.14 4335.6H1534.2L1495.18 4160.26L1456.14 4335.6Z" fill="#13536F" />
                <path d="M238.636 4309.81H316.689L277.672 4134.48L238.636 4309.81Z" fill="#13536F" />
                <path
                    d="M292.507 4501.19H263.832V4368.03C264.807 4352.03 273.218 4341.59 279.125 4341.79C284.956 4341.99 292.316 4352.63 292.507 4368.03V4501.19Z"
                    fill="#13536F" />
                <path
                    d="M1710.97 4568.93H1682.29V4435.78C1683.27 4419.78 1691.68 4409.34 1697.59 4409.54C1703.42 4409.74 1710.78 4420.37 1710.97 4435.78V4568.93Z"
                    fill="#13536F" />
                <path
                    d="M1504.51 4521.11H1475.83V4387.96C1476.81 4371.96 1485.22 4361.52 1491.13 4361.72C1496.96 4361.92 1504.32 4372.56 1504.51 4387.96V4521.11Z"
                    fill="#13536F" />
                <path
                    d="M112.809 4580.88H84.1343V4447.73C85.1092 4431.73 93.5206 4421.29 99.4277 4421.49C105.258 4421.69 112.618 4432.33 112.809 4447.73V4580.88Z"
                    fill="#13536F" />
                <path d="M598.377 4084.77H462.648V4708.4H598.377V4084.77Z" fill="#4796B8" />
                <path d="M474.118 4025V3964.01H587.347V4023L609.847 4023.1V4088.75H454.887V4025H474.118Z"
                    fill="#4796B8" />
                <path d="M474.118 3964.01H587.346L532.424 3760L474.118 3964.01Z" fill="#285F77" />
                <path d="M587.347 4023L609.847 4023.1L598.587 3991.23L587.347 4023Z" fill="#285F77" />
                <path d="M474.118 4025H454.887L464.502 3991.13L474.118 4025Z" fill="#285F77" />
                <path d="M537.202 3758.01H527.644V3781.92H537.202V3758.01Z" fill="#285F77" />
                <path d="M588.817 3955.26H472.205V3967.22H588.817V3955.26Z" fill="#154053" />
                <path
                    d="M531.468 4069.83C554.167 4069.83 572.569 4049.38 572.569 4024.16C572.569 3998.94 554.167 3978.49 531.468 3978.49C508.768 3978.49 490.367 3998.94 490.367 4024.16C490.367 4049.38 508.768 4069.83 531.468 4069.83Z"
                    fill="white" stroke="#285F77" stroke-width="11.2145" stroke-miterlimit="10" />
                <path d="M532.059 4024L515.428 4045.02" stroke="#285F77" stroke-width="2.80361"
                    stroke-miterlimit="10" />
                <path d="M530.264 4024.66L554.408 4032.97" stroke="#285F77" stroke-width="2.80361"
                    stroke-miterlimit="10" />
                <path
                    d="M531.467 4026.99C532.523 4026.99 533.379 4026.1 533.379 4025C533.379 4023.9 532.523 4023 531.467 4023C530.411 4023 529.555 4023.9 529.555 4025C529.555 4026.1 530.411 4026.99 531.467 4026.99Z"
                    fill="#3884B3" />
                <path d="M432.06 4086.76L451.177 4106.69H613.459L629.651 4086.76" fill="#154053" />
                <path d="M460.735 4081.08L465.151 4088.75H595.909L598.375 4081.08H460.735Z" fill="#154053" />
                <path d="M533.378 3664.37H531.466V3758.01H533.378V3664.37Z" fill="#2E315B" />
                <path
                    d="M586.904 3698.24C581.781 3695.85 572.376 3692.26 560.141 3692.26C554.54 3692.26 544.542 3693.02 533.377 3698.24V3666.36C541.636 3667.6 551.271 3668.47 562.053 3668.35C571.267 3668.25 579.602 3667.46 586.904 3666.36V3698.24Z"
                    fill="#285F77" />
                <path
                    d="M523.82 4417.5H495.145V4284.35C496.12 4268.35 504.531 4257.91 510.438 4258.11C516.269 4258.31 523.629 4268.95 523.82 4284.35V4417.5Z"
                    fill="#285F77" />
                <path
                    d="M569.7 4417.5H541.025V4284.35C542 4268.35 550.411 4257.91 556.318 4258.11C562.149 4258.31 569.509 4268.95 569.7 4284.35V4417.5Z"
                    fill="#285F77" />
                <path d="M523.82 4423.48H495.145V4441.41H523.82V4423.48Z" fill="#285F77" />
                <path d="M569.7 4423.48H541.025V4441.41H569.7V4423.48Z" fill="#285F77" />
                <path d="M535.29 4112.66H529.555V4154.51H535.29V4112.66Z" fill="#285F77" />
                <path d="M546.76 4112.66H541.025V4154.51H546.76V4112.66Z" fill="#285F77" />
                <path d="M558.23 4112.66H552.495V4154.51H558.23V4112.66Z" fill="#285F77" />
                <path d="M569.7 4112.66H563.965V4154.51H569.7V4112.66Z" fill="#285F77" />
                <path d="M581.17 4112.66H575.435V4154.51H581.17V4112.66Z" fill="#285F77" />
                <path d="M592.64 4112.66H586.905V4154.51H592.64V4112.66Z" fill="#285F77" />
                <path
                    d="M490.863 4238.94H503.327V4173.11C502.887 4169.53 499.829 4166.96 496.598 4167.21C493.692 4167.45 491.245 4169.9 490.863 4173.11V4238.94Z"
                    fill="#285F77" />
                <path
                    d="M513.803 4238.94H526.267V4173.11C525.827 4169.53 522.768 4166.96 519.538 4167.21C516.632 4167.45 514.185 4169.9 513.803 4173.11V4238.94Z"
                    fill="#285F77" />
                <path
                    d="M536.743 4238.94H549.207V4173.11C548.768 4169.53 545.709 4166.96 542.478 4167.21C539.572 4167.45 537.125 4169.9 536.743 4173.11V4238.94Z"
                    fill="#285F77" />
                <path
                    d="M561.596 4238.94H574.06V4173.11C573.62 4169.53 570.561 4166.96 567.331 4167.21C564.425 4167.45 561.978 4169.9 561.596 4173.11V4238.94Z"
                    fill="#285F77" />
                <path d="M523.82 4112.66H518.085V4154.51H523.82V4112.66Z" fill="#285F77" />
                <path d="M512.35 4112.66H506.615V4154.51H512.35V4112.66Z" fill="#285F77" />
                <path d="M500.88 4112.66H495.145V4154.51H500.88V4112.66Z" fill="#285F77" />
                <path d="M489.41 4112.66H483.675V4154.51H489.41V4112.66Z" fill="#285F77" />
                <path d="M477.94 4112.66H472.205V4154.51H477.94V4112.66Z" fill="#285F77" />
                <path
                    d="M474.117 4708.4H587.939C589.181 4694.25 590.5 4662.24 578.418 4626.89C563.985 4584.71 539.382 4563.85 530.359 4556.98C521.967 4562.83 498.95 4580.75 484.345 4618.74C468.918 4658.89 472.55 4696.27 474.117 4708.4Z"
                    fill="#840DD1" />
                <path
                    d="M483.676 4708.4H577.463C578.476 4695.75 579.585 4667.1 569.606 4635.48C557.716 4597.74 537.433 4579.07 530.015 4572.91C523.114 4578.15 504.131 4594.19 492.107 4628.16C479.394 4664.07 482.395 4697.54 483.676 4708.4Z"
                    fill="#A11AE8" />
                <path opacity="0.29"
                    d="M492.355 4708.4H569.357C570.198 4697.04 571.097 4671.36 562.915 4642.97C553.146 4609.11 536.515 4592.38 530.397 4586.86C524.72 4591.56 509.14 4605.95 499.275 4636.43C488.838 4668.65 491.304 4698.65 492.355 4708.4Z"
                    fill="#7D26B5" />
                <path d="M1494.93 4611.73H314.797V4859.83H1494.93V4611.73Z" fill="#52A1C3" />
                <path d="M1303.76 4611.73H123.629V4859.83H1303.76V4611.73Z" fill="#52A1C3" />
                <path d="M314.797 4618.32H123.629V4859.82H314.797V4618.32Z" fill="#52A1C4" />
                <path d="M1688.66 4611.73H1484.74V4859.83H1688.66V4611.73Z" fill="#52A1C4" />
                <path d="M1686.12 4613.92H1494.95V4859.83H1686.12V4613.92Z" fill="#52A1C4" />
                <path d="M1568.86 4489.33L1533.99 4612.49L309.674 4613.92L216.594 4477.8L1568.86 4489.33Z"
                    fill="#407C96" />
                <path opacity="0.24" d="M314.797 4618.32H289.314V4859.83H314.797V4618.32Z" fill="#093F91" />
                <path opacity="0.24" d="M149.112 4618.32H123.629V4859.83H149.112V4618.32Z" fill="#093F91" />
                <path opacity="0.24" d="M1512.63 4618.32H1487.15V4859.83H1512.63V4618.32Z" fill="#093F91" />
                <path opacity="0.24" d="M1688.66 4618.32H1663.18V4859.83H1688.66V4618.32Z" fill="#093F91" />
                <path d="M212.025 4449.27L118.544 4618.32H322.444L212.025 4449.27Z" fill="#13536F" />
                <path d="M1580.58 4449.27L1484.78 4618.32H1693.77L1580.58 4449.27Z" fill="#13536F" />
                <path d="M383.617 4407.54H358.135V4523.9H383.617V4407.54Z" fill="#13536F" />
                <path opacity="0.26" d="M200.096 4668.81H166.967V4640.08L183.541 4627.09L200.096 4640.08V4668.81Z"
                    fill="#004DC0" fill-opacity="0.3" />
                <path opacity="0.26" d="M268.916 4668.81H235.787V4640.08L252.361 4627.09L268.916 4640.08V4668.81Z"
                    fill="#004DC0" fill-opacity="0.3" />
                <path opacity="0.48" d="M1576.5 4681.98H1543.37V4653.27L1559.95 4640.28L1576.5 4653.27V4681.98Z"
                    fill="#004DC0" fill-opacity="0.3" />
                <path opacity="0.48" d="M1637.68 4681.98H1604.55V4653.27L1621.12 4640.28L1637.68 4653.27V4681.98Z"
                    fill="#004DC0" fill-opacity="0.3" />
                <path opacity="0.48" d="M365.782 4668.81H332.652V4640.08L349.207 4627.09L365.782 4640.08V4668.81Z"
                    fill="#4D98B8" />
                <path opacity="0.48" d="M437.144 4668.81H404.015V4640.08L420.589 4627.09L437.144 4640.08V4668.81Z"
                    fill="#4D98B8" />
                <path opacity="0.48" d="M503.422 4668.81H470.292V4640.08L486.848 4627.09L503.422 4640.08V4668.81Z"
                    fill="#4D98B8" />
                <path opacity="0.48" d="M569.7 4668.81H536.551V4640.08L553.125 4627.09L569.7 4640.08V4668.81Z"
                    fill="#4D98B8" />
                <path opacity="0.48" d="M638.52 4668.81H605.372V4640.08L621.946 4627.09L638.52 4640.08V4668.81Z"
                    fill="#4D98B8" />
                <path opacity="0.48" d="M1472.01 4681.98H1438.86V4653.27L1455.44 4640.28L1472.01 4653.27V4681.98Z"
                    fill="#4D98B8" />
                <path opacity="0.48" d="M1403.19 4681.98H1370.04V4653.27L1386.62 4640.28L1403.19 4653.27V4681.98Z"
                    fill="#4D98B8" />
                <path opacity="0.26" d="M202.657 4761.02H159.319V4717.07L180.979 4703.94L202.657 4718.38V4761.02Z"
                    fill="#2E3192" fill-opacity="0.5" />
                <path opacity="0.26" d="M276.563 4761.02H233.245V4717.07L254.904 4703.94L276.563 4718.38V4761.02Z"
                    fill="#2E3192" fill-opacity="0.5" />
                <path opacity="0.48" d="M1642.78 4756.64H1599.44V4712.68L1621.12 4699.55L1642.78 4714V4756.64Z"
                    fill="#2E3192" fill-opacity="0.5" />
                <path opacity="0.48" d="M1584.15 4756.64H1540.83V4712.68L1562.49 4699.55L1584.15 4714V4756.64Z"
                    fill="#2E3192" fill-opacity="0.5" />
                <path opacity="0.06" d="M370.885 4756.64H327.547V4712.68L349.206 4699.55L370.885 4714V4756.64Z"
                    fill="black" />
                <path opacity="0.06" d="M439.704 4756.64H396.367V4712.68L418.026 4699.55L439.704 4714V4756.64Z"
                    fill="black" />
                <path opacity="0.06" d="M503.421 4756.64H460.083V4712.68L481.762 4699.55L503.421 4714V4756.64Z"
                    fill="black" />
                <path opacity="0.06" d="M574.784 4756.64H531.466V4712.68L553.125 4699.55L574.784 4714V4756.64Z"
                    fill="black" />
                <path opacity="0.06" d="M1477.09 4756.64H1433.78V4712.68L1455.43 4699.55L1477.09 4714V4756.64Z"
                    fill="black" />
                <path opacity="0.06" d="M643.605 4754.45H600.286V4710.49L621.945 4697.36L643.605 4711.79V4754.45Z"
                    fill="black" />
                <path opacity="0.06" d="M1408.27 4756.64H1364.96V4712.68L1386.61 4699.55L1408.27 4714V4756.64Z"
                    fill="black" />
                <path opacity="0.31" d="M643.605 4756.64H600.286V4712.68L621.945 4699.55L643.605 4714V4756.64Z"
                    fill="#087ED6" fill-opacity="0.06" />
                <path opacity="0.26"
                    d="M276.564 4859.83H243.435V4813.72C245.729 4792.14 252.363 4776.56 258.728 4776.4C265.152 4776.24 272.913 4791.68 276.564 4813.72V4859.83Z"
                    fill="#89877A" />
                <path opacity="0.26"
                    d="M197.554 4859.83H164.425V4813.72C166.719 4792.14 173.352 4776.56 179.718 4776.4C186.141 4776.24 193.903 4791.68 197.554 4813.72V4859.83Z"
                    fill="#89877A" />
                <path opacity="0.26"
                    d="M1641.48 4861.65H1608.36V4815.55C1610.65 4793.97 1617.28 4778.39 1623.65 4778.23C1630.07 4778.07 1637.83 4793.51 1641.48 4815.55V4861.65Z"
                    fill="#6A28AF" />
                <path opacity="0.26"
                    d="M1574.43 4861.65H1541.3V4815.55C1543.6 4793.97 1550.23 4778.39 1556.6 4778.23C1563.02 4778.07 1570.78 4793.51 1574.43 4815.55V4861.65Z"
                    fill="#6A28AF" />
                <path opacity="0.04"
                    d="M365.782 4859.83H332.652V4813.72C334.946 4792.14 341.58 4776.56 347.946 4776.4C354.369 4776.24 362.13 4791.68 365.782 4813.72V4859.83Z"
                    fill="black" />
                <path opacity="0.04"
                    d="M434.602 4859.83H401.472V4813.72C403.766 4792.14 410.4 4776.56 416.766 4776.4C423.189 4776.24 430.95 4791.68 434.602 4813.72V4859.83Z"
                    fill="black" />
                <path opacity="0.04"
                    d="M500.881 4859.83H467.751V4813.72C470.045 4792.14 476.679 4776.56 483.045 4776.4C489.468 4776.24 497.229 4791.68 500.881 4813.72V4859.83Z"
                    fill="black" />
                <path opacity="0.04"
                    d="M569.701 4859.83H536.571V4813.72C538.865 4792.14 545.499 4776.56 551.865 4776.4C558.288 4776.24 566.049 4791.68 569.701 4813.72V4859.83Z"
                    fill="black" />
                <path opacity="0.04"
                    d="M638.521 4859.83H605.392V4813.72C607.686 4792.14 614.319 4776.56 620.685 4776.4C627.108 4776.24 634.87 4791.68 638.521 4813.72V4859.83Z"
                    fill="black" />
                <path opacity="0.04"
                    d="M1472.01 4859.83H1438.88V4813.72C1441.17 4792.14 1447.81 4776.56 1454.17 4776.4C1460.6 4776.24 1468.36 4791.68 1472.01 4813.72V4859.83Z"
                    fill="black" />
                <path opacity="0.04"
                    d="M1398.09 4859.83H1364.96V4813.72C1367.25 4792.14 1373.88 4776.56 1380.25 4776.4C1386.67 4776.24 1394.44 4791.68 1398.09 4813.72V4859.83Z"
                    fill="black" />
                <path d="M876.752 4133.31L1127.91 4133.33L998.698 3971.2L876.752 4133.31Z" fill="#285F77" />
                <path d="M1127.28 4187.04H1083.92V4129.64L1105.6 4106.39L1127.28 4129.1V4187.04Z" fill="#367793" />
                <path d="M920.111 4187.04H876.754V4132.77L898.432 4110.79L920.111 4132.25V4187.04Z" fill="#367793" />
                <path d="M1083.92 4187.04H1040.56V4129.64L1062.24 4106.39L1083.92 4129.1V4187.04Z" fill="#367793" />
                <path d="M963.485 4187.04H920.109V4132.77L941.807 4110.79L963.485 4132.25V4187.04Z" fill="#367793" />
                <path d="M1040.57 4222.23H961.078V4128.56L1000.82 4084.39L1040.57 4129.64V4222.23Z" fill="#367793" />
                <path d="M1256.6 4399.37H749.387V4569.29H1256.6V4399.37Z" fill="#51889F" />
                <path
                    d="M1126.74 4189.97H877.288C876.993 4189.97 876.753 4190.22 876.753 4190.53V4255.4C876.753 4255.71 876.993 4255.96 877.288 4255.96H1126.74C1127.04 4255.96 1127.28 4255.71 1127.28 4255.4V4190.53C1127.28 4190.22 1127.04 4189.97 1126.74 4189.97Z"
                    fill="#51889F" />
                <path d="M1324.81 4636.25H667.195V4859.82H1324.81V4636.25Z" fill="#51889F" />
                <path d="M1127.28 4209.04H1083.92V4151.64L1105.6 4128.38L1127.28 4151.1V4209.04Z" fill="#51889F" />
                <path d="M920.11 4209.04H876.753V4154.77L898.431 4132.79L920.11 4154.25V4209.04Z" fill="#51889F" />
                <path d="M1083.92 4209.04H1040.56V4151.64L1062.24 4128.38L1083.92 4151.1V4209.04Z" fill="#51889F" />
                <path d="M963.484 4209.04H920.108V4154.77L941.806 4132.79L963.484 4154.25V4209.04Z" fill="#51889F" />
                <path d="M1042.01 4249.21H960.073V4152.54L1001.04 4106.95L1042.01 4153.65V4249.21Z" fill="#51889F" />
                <path d="M747.734 4564.67L667.195 4636.25H1324.81L1254.63 4564.67H747.734Z" fill="#285F77" />
                <path d="M876.161 4250.23L748.231 4402.07L1254.88 4402.95L1125.39 4247.66L876.161 4250.23Z"
                    fill="#285F77" />
                <path d="M999.597 3991.69L1002.01 3788.13" stroke="#13536F" stroke-width="11.2145"
                    stroke-miterlimit="10" />
                <path d="M1028.52 3861.44H980.059L1002.29 3881.5L1028.52 3861.44Z" fill="#13536F" />
                <path d="M1025.9 3922.83H977.46L999.674 3942.89L1025.9 3922.83Z" fill="#13536F" />
                <path opacity="0.37" d="M1018.94 4246.16H984.533V4168.09L1001.74 4130.6L1018.94 4168.67V4246.16Z"
                    fill="#52A1C4" />
                <path opacity="0.37" d="M1080.12 4246.16H1045.71V4182.9L1062.91 4152.51L1080.12 4183.36V4246.16Z"
                    fill="#52A1C4" />
                <path opacity="0.37" d="M957.769 4246.16H923.359V4182.9L940.564 4152.51L957.769 4183.36V4246.16Z"
                    fill="#52A1C4" />
                <path opacity="0.37" d="M1122.17 4246.16H1095.41V4203.08L1108.79 4182.4L1122.17 4203.4V4246.16Z"
                    fill="#52A1C4" />
                <path opacity="0.37" d="M909.977 4246.16H883.214V4203.08L896.596 4182.4L909.977 4203.4V4246.16Z"
                    fill="#52A1C4" />
                <path opacity="0.49"
                    d="M1155.67 4568.93C1153.56 4556.24 1135.1 4446.95 1113.71 4447.39C1092.52 4447.83 1079.81 4555.76 1078.3 4568.93H1155.65H1155.67Z"
                    fill="#285F77" />
                <path opacity="0.49"
                    d="M1040.87 4568.93C1038.77 4553.99 1020.3 4425.24 998.91 4425.75C977.729 4426.27 965.016 4553.41 963.506 4568.93H1040.85H1040.87Z"
                    fill="#285F77" />
                <path opacity="0.49"
                    d="M1256.98 4570.92C1254.88 4560.74 1236.42 4472.94 1215.02 4473.3C1193.84 4473.65 1181.13 4560.34 1179.62 4570.92H1256.97H1256.98Z"
                    fill="#285F77" />
                <path opacity="0.49"
                    d="M929.075 4566.94C926.973 4554.25 908.506 4444.96 887.114 4445.4C865.933 4445.84 853.22 4553.77 851.71 4566.94H929.056H929.075Z"
                    fill="#285F77" />
                <path opacity="0.49"
                    d="M825.845 4564.94C823.743 4554.76 805.276 4466.96 783.884 4467.32C762.703 4467.67 749.99 4554.36 748.48 4564.94H825.826H825.845Z"
                    fill="#285F77" />
                <path opacity="0.32" d="M909.979 4252.25H923.36L848.633 4398.33L830.357 4398.29L909.979 4252.25Z"
                    fill="#407C96" />
                <path opacity="0.32" d="M1094.97 4251.08H1081.59L1156.3 4397.14L1174.58 4397.12L1094.97 4251.08Z"
                    fill="#407C96" />
                <path opacity="0.32" d="M957.771 4252.25H984.534L925.559 4399L898.433 4398.4L957.771 4252.25Z"
                    fill="#407C96" />
                <path opacity="0.32" d="M1047.43 4252.25H1020.66L1079.64 4399L1106.77 4398.4L1047.43 4252.25Z"
                    fill="#407C96" />
                <g opacity="0.6">
                    <path opacity="0.37" d="M951.078 4819.98H906.154V4756.72L928.616 4726.33L951.078 4757.17V4819.98Z"
                        fill="#3D748B" />
                    <path opacity="0.37" d="M1033.43 4819.98H958.554V4712.3L996.003 4660.58L1033.43 4713.1V4819.98Z"
                        fill="#3D748B" />
                    <path opacity="0.37" d="M1085.85 4817.98H1040.93V4754.72L1063.39 4724.34L1085.85 4755.18V4817.98Z"
                        fill="#3D748B" />
                </g>
                <path d="M1173.79 4533.07H1127.91V4859.83H1173.79V4533.07Z" fill="#52A1C4" />
                <path d="M772.338 4598.82H726.458V4857.83H772.338V4598.82Z" fill="#52A1C4" />
                <path d="M1268.17 4600.96H1222.29V4859.98H1268.17V4600.96Z" fill="#52A1C4" />
                <path d="M871.745 4533.07H825.865V4859.83H871.745V4533.07Z" fill="#52A1C4" />
                <path d="M825.462 4535.06H871.342L848.402 4435.44L825.462 4535.06Z" fill="#13536F" />
                <path d="M725.978 4600.91H772.797L749.387 4498.17L725.978 4600.91Z" fill="#13536F" />
                <path d="M1127.49 4535.06H1173.37L1150.43 4435.44L1127.49 4535.06Z" fill="#13536F" />
                <path d="M1223.07 4604.8H1268.95L1246.01 4505.17L1223.07 4604.8Z" fill="#13536F" />
                <path d="M818.678 4413.32H772.798V4572.72H818.678V4413.32Z" fill="#52A1C3" />
                <path d="M1234.4 4407.11H1187.8V4572.16H1234.4V4407.11Z" fill="#52A1C3" />
                <path d="M963.497 4405.12H917.617V4574.48H963.497V4405.12Z" fill="#52A1C3" />
                <path d="M1080.09 4403.33H1034.21V4572.68H1080.09V4403.33Z" fill="#52A1C3" />
                <path d="M1187.8 4414.96H1234.4L1211.1 4312.79L1187.8 4414.96Z" fill="#13536F" />
                <path d="M1034.2 4408.11H1080.08L1057.14 4308.49L1034.2 4408.11Z" fill="#13536F" />
                <path d="M917.157 4408.11H963.037L940.097 4308.49L917.157 4408.11Z" fill="#13536F" />
                <path d="M772.548 4413.52H818.428L795.488 4313.9L772.548 4413.52Z" fill="#13536F" />
            </g>
        </g>
        <rect x="2168.63" y="2408.38" width="1087.06" height="4594.59" fill="url(#paint0_linear_4725_6156)" />
        <rect x="2244.61" y="2568.58" width="134.421" height="147.386" fill="#D9D9D9" />
        <rect x="2449.16" y="2568.58" width="134.421" height="147.386" fill="#D9D9D9" />
        <rect x="2647.87" y="2568.58" width="134.421" height="147.386" fill="#D9D9D9" />
        <rect x="2852.42" y="2568.58" width="134.421" height="147.386" fill="#D9D9D9" />
        <rect x="3051.13" y="2568.58" width="134.421" height="147.386" fill="#D9D9D9" />
        <g filter="url(#filter1_i_4725_6156)">
            <rect x="2244.61" y="2568.58" width="134.421" height="147.386" fill="#095EAE" />
            <rect x="2449.16" y="2568.58" width="134.421" height="147.386" fill="#095EAE" />
            <rect x="2647.87" y="2568.58" width="134.421" height="147.386" fill="#095EAE" />
            <rect x="2852.43" y="2568.58" width="134.421" height="147.386" fill="#095EAE" />
            <rect x="3051.13" y="2568.58" width="134.421" height="147.386" fill="#095EAE" />
        </g>
        <g filter="url(#filter2_i_4725_6156)">
            <rect x="2244.61" y="2805.68" width="134.421" height="147.386" fill="#095EAE" />
            <rect x="2449.16" y="2805.68" width="134.421" height="147.386" fill="#095EAE" />
            <rect x="2647.87" y="2805.68" width="134.421" height="147.386" fill="#095EAE" />
            <rect x="2852.43" y="2805.68" width="134.421" height="147.386" fill="#095EAE" />
            <rect x="3051.13" y="2805.68" width="134.421" height="147.386" fill="#095EAE" />
        </g>
        <g filter="url(#filter3_i_4725_6156)">
            <rect x="2244.61" y="3062.01" width="134.421" height="147.386" fill="#095EAE" />
            <rect x="2449.16" y="3062.01" width="134.421" height="147.386" fill="#095EAE" />
            <rect x="2647.87" y="3062.01" width="134.421" height="147.386" fill="#095EAE" />
            <rect x="2852.43" y="3062.01" width="134.421" height="147.386" fill="#095EAE" />
            <rect x="3051.13" y="3062.01" width="134.421" height="147.386" fill="#095EAE" />
        </g>
        <rect x="2244.61" y="3299.11" width="134.421" height="147.386" fill="#D9D9D9" />
        <rect x="2449.16" y="3299.11" width="134.421" height="147.386" fill="#D9D9D9" />
        <rect x="2647.87" y="3299.11" width="134.421" height="147.386" fill="#D9D9D9" />
        <rect x="2852.43" y="3299.11" width="134.421" height="147.386" fill="#D9D9D9" />
        <rect x="3051.13" y="3299.11" width="134.421" height="147.386" fill="#D9D9D9" />
        <g filter="url(#filter4_i_4725_6156)">
            <rect x="2244.61" y="3299.11" width="134.421" height="147.386" fill="#095EAE" />
            <rect x="2449.16" y="3299.11" width="134.421" height="147.386" fill="#095EAE" />
            <rect x="2647.87" y="3299.11" width="134.421" height="147.386" fill="#095EAE" />
            <rect x="2852.43" y="3299.11" width="134.421" height="147.386" fill="#095EAE" />
            <rect x="3051.13" y="3299.11" width="134.421" height="147.386" fill="#095EAE" />
        </g>
        <rect x="2244.61" y="3536.21" width="134.421" height="147.386" fill="#D9D9D9" />
        <rect x="2449.16" y="3536.21" width="134.421" height="147.386" fill="#D9D9D9" />
        <rect x="2647.87" y="3536.21" width="134.421" height="147.386" fill="#D9D9D9" />
        <rect x="2852.43" y="3536.21" width="134.421" height="147.386" fill="#D9D9D9" />
        <rect x="3051.13" y="3536.21" width="134.421" height="147.386" fill="#D9D9D9" />
        <g filter="url(#filter5_i_4725_6156)">
            <rect x="2244.61" y="3536.21" width="134.421" height="147.386" fill="#095EAE" />
            <rect x="2449.16" y="3536.21" width="134.421" height="147.386" fill="#095EAE" />
            <rect x="2647.87" y="3536.21" width="134.421" height="147.386" fill="#095EAE" />
            <rect x="2852.43" y="3536.21" width="134.421" height="147.386" fill="#095EAE" />
            <rect x="3051.13" y="3536.21" width="134.421" height="147.386" fill="#095EAE" />
        </g>
        <g filter="url(#filter6_i_4725_6156)">
            <rect x="2244.61" y="3792.53" width="134.421" height="147.386" fill="#095EAE" />
            <rect x="2449.16" y="3792.53" width="134.421" height="147.386" fill="#095EAE" />
            <rect x="2647.87" y="3792.53" width="134.421" height="147.386" fill="#095EAE" />
            <rect x="2852.43" y="3792.53" width="134.421" height="147.386" fill="#095EAE" />
            <rect x="3051.13" y="3792.53" width="134.421" height="147.386" fill="#095EAE" />
        </g>
        <g filter="url(#filter7_i_4725_6156)">
            <rect x="2244.61" y="3792.53" width="134.421" height="147.386" fill="#095EAE" />
            <rect x="2449.16" y="3792.53" width="134.421" height="147.386" fill="#095EAE" />
            <rect x="2647.87" y="3792.53" width="134.421" height="147.386" fill="#095EAE" />
            <rect x="2852.43" y="3792.53" width="134.421" height="147.386" fill="#095EAE" />
            <rect x="3051.13" y="3792.53" width="134.421" height="147.386" fill="#095EAE" />
        </g>
        <path d="M2171.55 4391.68V2401.98L1964.08 2514.12V4391.68H2171.55Z" fill="#193D51" />
        <rect x="-281.584" y="5032.22" width="1901.89" height="1329.39" fill="url(#paint1_linear_4725_6156)" />
        <path d="M1634.34 4833.17H-281.584V5044.64L1634.34 5502.82V4833.17Z" fill="#38788B" />
        <path d="M1636.79 5516.3L-281.586 5042.89" stroke="#4B8799" stroke-width="40.0521" />
        <path d="M-280.113 7832.82V5657.28L2694.68 6741.26L5821.42 7832.82H-280.113Z" fill="#3D849A" />
        <path d="M4296.04 7361.83L-280.113 5746.01V5689.65V5625.24L4407.08 7268.91L4296.04 7361.83Z" fill="#38788B" />
        <path d="M3185.55 3404.84L2869.96 3379.21L3100.81 3324.74L3393.03 3363.19L3185.55 3404.84Z" fill="#D9D9D9" />
        <path d="M3109.58 3372.8V2818.5" stroke="#1A446C" stroke-width="8.90048" />
        <path d="M2186.16 4347.77L1554.97 4266.73V6756.37L2186.16 6836.37V4347.77Z" fill="#2F6787" />
        <path d="M2183.67 4323.5L2646.24 4205.39V6697.41L2183.67 6824.97V4323.5Z" fill="#407C96" />
        <path d="M2186.16 4350.03L1557.89 4266.73L2175.52 4151.38L2647.86 4203.14L2186.16 4350.03Z" fill="#D9D9D9" />
        <path d="M2105.32 4507.66L1643.89 4442.11" stroke="#6394AC" stroke-width="22.2512" />
        <path d="M2101.99 4693.11L1640.57 4627.56" stroke="#6394AC" stroke-width="22.2512" />
        <path d="M2098.63 4880.6L1637.2 4815.05" stroke="#6394AC" stroke-width="22.2512" />
        <path d="M2095.26 5068.08L1633.83 5002.53" stroke="#6394AC" stroke-width="22.2512" />
        <path d="M2091.89 5255.57L1630.46 5190.02" stroke="#6394AC" stroke-width="22.2512" />
        <path d="M2091.31 5419.76L1629.88 5354.21" stroke="#6394AC" stroke-width="22.2512" />
        <path d="M2087.98 5605.21L1626.55 5539.66" stroke="#6394AC" stroke-width="22.2512" />
        <path d="M2084.62 5792.69L1623.19 5727.14" stroke="#6394AC" stroke-width="22.2512" />
        <path d="M2081.25 5980.18L1619.82 5914.63" stroke="#6394AC" stroke-width="22.2512" />
        <path d="M2077.88 6167.67L1616.45 6102.12" stroke="#6394AC" stroke-width="22.2512" />
        <path d="M2556.78 7207.2L3235.75 7391.33V3684.54L2556.78 3600.02V7207.2Z" fill="#1A446C" />
        <path d="M3235.75 7391.33V3684.54L3816.74 3506.44V7198.04L3235.75 7391.33Z" fill="#407C96" />
        <path d="M3238.02 3687.56L2554.36 3600.02L3238.02 3491.35L3814.46 3536.63L3238.02 3687.56Z" fill="#97C4D2" />
        <path d="M2625.13 4145.14V3832.46L3110.43 3909.21V4221.89L2625.13 4145.14Z" fill="#97C4D2" />
        <path d="M2620.58 4147.98V3829.61L3110.44 3900.68V4224.73L2620.58 4147.98Z"
            fill="url(#paint2_linear_4725_6156)" />
        <path d="M2620.58 4636.9V4318.53L3110.44 4389.6V4713.65L2620.58 4636.9Z" fill="url(#paint3_linear_4725_6156)" />
        <path d="M2620.58 5125.82V4807.45L3110.44 4878.52V5202.57L2620.58 5125.82Z"
            fill="url(#paint4_linear_4725_6156)" />
        <path d="M2620.58 6103.66V5785.29L3110.44 5856.35V6180.41L2620.58 6103.66Z"
            fill="url(#paint5_linear_4725_6156)" />
        <path d="M2620.58 6592.58V6274.21L3110.44 6345.27V6669.32L2620.58 6592.58Z"
            fill="url(#paint6_linear_4725_6156)" />
        <path d="M2620.58 7081.5V6763.13L3110.44 6834.19V7158.25L2620.58 7081.5Z"
            fill="url(#paint7_linear_4725_6156)" />
        <path d="M2620.58 5614.74V5296.37L3110.44 5367.43V5691.49L2620.58 5614.74Z"
            fill="url(#paint8_linear_4725_6156)" />
        <path d="M2725.38 3784.13V7166.77" stroke="#1A446C" stroke-width="33.541" />
        <path d="M2866.65 3784.13V7166.77" stroke="#1A446C" stroke-width="33.541" />
        <path d="M2998.79 3823.93V7206.57" stroke="#1A446C" stroke-width="33.541" />
        <path d="M3184.46 3600.29V3401.64L3390.22 3363.19V3536.21L3184.46 3600.29Z" fill="#69AAC6" />
        <path d="M2868.12 3561.84V3372.8L3184.47 3401.64V3600.29L2868.12 3561.84Z" fill="#1A446C" />
        <path d="M4999.16 2799.6L4204.31 2900.4V7810.39H4999.16V2799.6Z" fill="#69AAC6" />
        <path d="M3428.31 2832.12L4204.31 2903.65V7810.39H3428.31V2832.12Z" fill="#196F97" />
        <path d="M3425.17 2832.12L4210.59 2757.33L5002.3 2799.6L4210.59 2906.9L3425.17 2832.12Z" fill="white" />
        <g filter="url(#filter8_d_4725_6156)">
            <path d="M4812.93 7605.54V2997.95" stroke="#14628D" stroke-width="19.7681" />
        </g>
        <g filter="url(#filter9_d_4725_6156)">
            <path d="M4564.73 7605.54L4545.88 3004.45" stroke="#14628D" stroke-width="19.7681" />
        </g>
        <g filter="url(#filter10_d_4725_6156)">
            <path d="M4313.4 7605.54V3001.2" stroke="#14628D" stroke-width="19.7681" />
        </g>
        <g filter="url(#filter11_d_4725_6156)">
            <path d="M3509.13 7602.29V2997.95" stroke="#14628D" stroke-width="19.7681" />
        </g>
        <g filter="url(#filter12_d_4725_6156)">
            <path d="M3760.46 7608.79V3004.45" stroke="#14628D" stroke-width="19.7681" />
        </g>
        <g filter="url(#filter13_d_4725_6156)">
            <path d="M4015.96 7627V3022.66" stroke="#14628D" stroke-width="19.7681" />
        </g>
        <path d="M3193.57 7489.42L-279.181 6238.79L-279.268 6406.57L2898.41 7522.32L3193.57 7489.42Z" fill="#706E6E" />
        <path d="M4345.93 7522.28L-280.113 5849.52L-280.324 6251.88L4125.58 7822.48L4345.93 7522.28Z" fill="#8B8B8B" />
        <path d="M-215.018 6077.58L3308.94 7324.01" stroke="#F5A800" stroke-width="4.45024" />
        <path d="M1984.51 7647.04C2638.56 6528.69 3769.98 6784.11 4011.42 7647.04L1984.51 7647.04Z" fill="#1D5D7C" />
        <path d="M1795.95 7970.42C3898.61 6409.92 5185.1 6766.32 5961.27 7970.41L1795.95 7970.42Z" fill="#1E6689" />
        <path d="M2983.23 7970.42L-677 7970.41L-439.106 7864.14C998.374 7167.73 1659.21 7096.87 2983.23 7970.42Z"
            fill="#1E6689" />
        <path d="M3055.39 7968.48C3487.18 7230.15 4234.14 7398.78 4393.54 7968.48L3055.39 7968.48Z" fill="#2C6D8D" />
        <path d="M4400.1 7970.42C4643.51 7528.28 5064.59 7629.26 5154.45 7970.42L4400.1 7970.42Z" fill="#2C6D8D" />
    </g>
    <defs>
        <filter id="filter0_d_4725_6156" x="43.8526" y="3664.37" width="1703.69" height="1452.5"
            filterUnits="userSpaceOnUse" color-interpolation-filters="sRGB">
            <feFlood flood-opacity="0" result="BackgroundImageFix" />
            <feColorMatrix in="SourceAlpha" type="matrix" values="0 0 0 0 0 0 0 0 0 0 0 0 0 0 0 0 0 0 127 0"
                result="hardAlpha" />
            <feOffset dy="14.9526" />
            <feGaussianBlur stdDeviation="7.47631" />
            <feComposite in2="hardAlpha" operator="out" />
            <feColorMatrix type="matrix" values="0 0 0 0 0 0 0 0 0 0 0 0 0 0 0 0 0 0 0.25 0" />
            <feBlend mode="normal" in2="BackgroundImageFix" result="effect1_dropShadow_4725_6156" />
            <feBlend mode="normal" in="SourceGraphic" in2="effect1_dropShadow_4725_6156" result="shape" />
        </filter>
        <filter id="filter1_i_4725_6156" x="2244.61" y="2568.58" width="940.945" height="147.386"
            filterUnits="userSpaceOnUse" color-interpolation-filters="sRGB">
            <feFlood flood-opacity="0" result="BackgroundImageFix" />
            <feBlend mode="normal" in="SourceGraphic" in2="BackgroundImageFix" result="shape" />
            <feColorMatrix in="SourceAlpha" type="matrix" values="0 0 0 0 0 0 0 0 0 0 0 0 0 0 0 0 0 0 127 0"
                result="hardAlpha" />
            <feOffset dy="17.801" />
            <feComposite in2="hardAlpha" operator="arithmetic" k2="-1" k3="1" />
            <feColorMatrix type="matrix" values="0 0 0 0 0.388125 0 0 0 0 0.580128 0 0 0 0 0.675 0 0 0 1 0" />
            <feBlend mode="normal" in2="shape" result="effect1_innerShadow_4725_6156" />
        </filter>
        <filter id="filter2_i_4725_6156" x="2244.61" y="2805.68" width="940.945" height="147.386"
            filterUnits="userSpaceOnUse" color-interpolation-filters="sRGB">
            <feFlood flood-opacity="0" result="BackgroundImageFix" />
            <feBlend mode="normal" in="SourceGraphic" in2="BackgroundImageFix" result="shape" />
            <feColorMatrix in="SourceAlpha" type="matrix" values="0 0 0 0 0 0 0 0 0 0 0 0 0 0 0 0 0 0 127 0"
                result="hardAlpha" />
            <feOffset dy="17.801" />
            <feComposite in2="hardAlpha" operator="arithmetic" k2="-1" k3="1" />
            <feColorMatrix type="matrix" values="0 0 0 0 0.388125 0 0 0 0 0.580128 0 0 0 0 0.675 0 0 0 1 0" />
            <feBlend mode="normal" in2="shape" result="effect1_innerShadow_4725_6156" />
        </filter>
        <filter id="filter3_i_4725_6156" x="2244.61" y="3062.01" width="940.945" height="147.386"
            filterUnits="userSpaceOnUse" color-interpolation-filters="sRGB">
            <feFlood flood-opacity="0" result="BackgroundImageFix" />
            <feBlend mode="normal" in="SourceGraphic" in2="BackgroundImageFix" result="shape" />
            <feColorMatrix in="SourceAlpha" type="matrix" values="0 0 0 0 0 0 0 0 0 0 0 0 0 0 0 0 0 0 127 0"
                result="hardAlpha" />
            <feOffset dy="17.801" />
            <feComposite in2="hardAlpha" operator="arithmetic" k2="-1" k3="1" />
            <feColorMatrix type="matrix" values="0 0 0 0 0.388125 0 0 0 0 0.580128 0 0 0 0 0.675 0 0 0 1 0" />
            <feBlend mode="normal" in2="shape" result="effect1_innerShadow_4725_6156" />
        </filter>
        <filter id="filter4_i_4725_6156" x="2244.61" y="3299.11" width="940.945" height="147.386"
            filterUnits="userSpaceOnUse" color-interpolation-filters="sRGB">
            <feFlood flood-opacity="0" result="BackgroundImageFix" />
            <feBlend mode="normal" in="SourceGraphic" in2="BackgroundImageFix" result="shape" />
            <feColorMatrix in="SourceAlpha" type="matrix" values="0 0 0 0 0 0 0 0 0 0 0 0 0 0 0 0 0 0 127 0"
                result="hardAlpha" />
            <feOffset dy="17.801" />
            <feComposite in2="hardAlpha" operator="arithmetic" k2="-1" k3="1" />
            <feColorMatrix type="matrix" values="0 0 0 0 0.388125 0 0 0 0 0.580128 0 0 0 0 0.675 0 0 0 1 0" />
            <feBlend mode="normal" in2="shape" result="effect1_innerShadow_4725_6156" />
        </filter>
        <filter id="filter5_i_4725_6156" x="2244.61" y="3536.21" width="940.945" height="147.386"
            filterUnits="userSpaceOnUse" color-interpolation-filters="sRGB">
            <feFlood flood-opacity="0" result="BackgroundImageFix" />
            <feBlend mode="normal" in="SourceGraphic" in2="BackgroundImageFix" result="shape" />
            <feColorMatrix in="SourceAlpha" type="matrix" values="0 0 0 0 0 0 0 0 0 0 0 0 0 0 0 0 0 0 127 0"
                result="hardAlpha" />
            <feOffset dy="17.801" />
            <feComposite in2="hardAlpha" operator="arithmetic" k2="-1" k3="1" />
            <feColorMatrix type="matrix" values="0 0 0 0 0.388125 0 0 0 0 0.580128 0 0 0 0 0.675 0 0 0 1 0" />
            <feBlend mode="normal" in2="shape" result="effect1_innerShadow_4725_6156" />
        </filter>
        <filter id="filter6_i_4725_6156" x="2244.61" y="3792.53" width="940.945" height="147.386"
            filterUnits="userSpaceOnUse" color-interpolation-filters="sRGB">
            <feFlood flood-opacity="0" result="BackgroundImageFix" />
            <feBlend mode="normal" in="SourceGraphic" in2="BackgroundImageFix" result="shape" />
            <feColorMatrix in="SourceAlpha" type="matrix" values="0 0 0 0 0 0 0 0 0 0 0 0 0 0 0 0 0 0 127 0"
                result="hardAlpha" />
            <feOffset dy="17.801" />
            <feComposite in2="hardAlpha" operator="arithmetic" k2="-1" k3="1" />
            <feColorMatrix type="matrix" values="0 0 0 0 0.388125 0 0 0 0 0.580128 0 0 0 0 0.675 0 0 0 1 0" />
            <feBlend mode="normal" in2="shape" result="effect1_innerShadow_4725_6156" />
        </filter>
        <filter id="filter7_i_4725_6156" x="2244.61" y="3792.53" width="940.945" height="147.386"
            filterUnits="userSpaceOnUse" color-interpolation-filters="sRGB">
            <feFlood flood-opacity="0" result="BackgroundImageFix" />
            <feBlend mode="normal" in="SourceGraphic" in2="BackgroundImageFix" result="shape" />
            <feColorMatrix in="SourceAlpha" type="matrix" values="0 0 0 0 0 0 0 0 0 0 0 0 0 0 0 0 0 0 127 0"
                result="hardAlpha" />
            <feOffset dy="17.801" />
            <feComposite in2="hardAlpha" operator="arithmetic" k2="-1" k3="1" />
            <feColorMatrix type="matrix" values="0 0 0 0 0.388125 0 0 0 0 0.580128 0 0 0 0 0.675 0 0 0 1 0" />
            <feBlend mode="normal" in2="shape" result="effect1_innerShadow_4725_6156" />
        </filter>
        <filter id="filter8_d_4725_6156" x="4803.04" y="2997.95" width="29.6516" height="4607.59"
            filterUnits="userSpaceOnUse" color-interpolation-filters="sRGB">
            <feFlood flood-opacity="0" result="BackgroundImageFix" />
            <feColorMatrix in="SourceAlpha" type="matrix" values="0 0 0 0 0 0 0 0 0 0 0 0 0 0 0 0 0 0 127 0"
                result="hardAlpha" />
            <feOffset dx="9.88406" />
            <feComposite in2="hardAlpha" operator="out" />
            <feColorMatrix type="matrix" values="0 0 0 0 1 0 0 0 0 1 0 0 0 0 1 0 0 0 0.25 0" />
            <feBlend mode="normal" in2="BackgroundImageFix" result="effect1_dropShadow_4725_6156" />
            <feBlend mode="normal" in="SourceGraphic" in2="effect1_dropShadow_4725_6156" result="shape" />
        </filter>
        <filter id="filter9_d_4725_6156" x="4536" y="3004.41" width="48.5022" height="4601.17"
            filterUnits="userSpaceOnUse" color-interpolation-filters="sRGB">
            <feFlood flood-opacity="0" result="BackgroundImageFix" />
            <feColorMatrix in="SourceAlpha" type="matrix" values="0 0 0 0 0 0 0 0 0 0 0 0 0 0 0 0 0 0 127 0"
                result="hardAlpha" />
            <feOffset dx="9.88406" />
            <feComposite in2="hardAlpha" operator="out" />
            <feColorMatrix type="matrix" values="0 0 0 0 1 0 0 0 0 1 0 0 0 0 1 0 0 0 0.25 0" />
            <feBlend mode="normal" in2="BackgroundImageFix" result="effect1_dropShadow_4725_6156" />
            <feBlend mode="normal" in="SourceGraphic" in2="effect1_dropShadow_4725_6156" result="shape" />
        </filter>
        <filter id="filter10_d_4725_6156" x="4303.51" y="3001.2" width="29.6516" height="4604.34"
            filterUnits="userSpaceOnUse" color-interpolation-filters="sRGB">
            <feFlood flood-opacity="0" result="BackgroundImageFix" />
            <feColorMatrix in="SourceAlpha" type="matrix" values="0 0 0 0 0 0 0 0 0 0 0 0 0 0 0 0 0 0 127 0"
                result="hardAlpha" />
            <feOffset dx="9.88406" />
            <feComposite in2="hardAlpha" operator="out" />
            <feColorMatrix type="matrix" values="0 0 0 0 1 0 0 0 0 1 0 0 0 0 1 0 0 0 0.25 0" />
            <feBlend mode="normal" in2="BackgroundImageFix" result="effect1_dropShadow_4725_6156" />
            <feBlend mode="normal" in="SourceGraphic" in2="effect1_dropShadow_4725_6156" result="shape" />
        </filter>
        <filter id="filter11_d_4725_6156" x="3499.24" y="2997.95" width="29.6516" height="4604.34"
            filterUnits="userSpaceOnUse" color-interpolation-filters="sRGB">
            <feFlood flood-opacity="0" result="BackgroundImageFix" />
            <feColorMatrix in="SourceAlpha" type="matrix" values="0 0 0 0 0 0 0 0 0 0 0 0 0 0 0 0 0 0 127 0"
                result="hardAlpha" />
            <feOffset dx="9.88406" />
            <feComposite in2="hardAlpha" operator="out" />
            <feColorMatrix type="matrix" values="0 0 0 0 0.141176 0 0 0 0 0.141176 0 0 0 0 0.145098 0 0 0 1 0" />
            <feBlend mode="normal" in2="BackgroundImageFix" result="effect1_dropShadow_4725_6156" />
            <feBlend mode="normal" in="SourceGraphic" in2="effect1_dropShadow_4725_6156" result="shape" />
        </filter>
        <filter id="filter12_d_4725_6156" x="3750.58" y="3004.45" width="29.6516" height="4604.34"
            filterUnits="userSpaceOnUse" color-interpolation-filters="sRGB">
            <feFlood flood-opacity="0" result="BackgroundImageFix" />
            <feColorMatrix in="SourceAlpha" type="matrix" values="0 0 0 0 0 0 0 0 0 0 0 0 0 0 0 0 0 0 127 0"
                result="hardAlpha" />
            <feOffset dx="9.88406" />
            <feComposite in2="hardAlpha" operator="out" />
            <feColorMatrix type="matrix" values="0 0 0 0 0.141176 0 0 0 0 0.141176 0 0 0 0 0.145098 0 0 0 1 0" />
            <feBlend mode="normal" in2="BackgroundImageFix" result="effect1_dropShadow_4725_6156" />
            <feBlend mode="normal" in="SourceGraphic" in2="effect1_dropShadow_4725_6156" result="shape" />
        </filter>
        <filter id="filter13_d_4725_6156" x="4006.07" y="3022.66" width="29.6516" height="4604.34"
            filterUnits="userSpaceOnUse" color-interpolation-filters="sRGB">
            <feFlood flood-opacity="0" result="BackgroundImageFix" />
            <feColorMatrix in="SourceAlpha" type="matrix" values="0 0 0 0 0 0 0 0 0 0 0 0 0 0 0 0 0 0 127 0"
                result="hardAlpha" />
            <feOffset dx="9.88406" />
            <feComposite in2="hardAlpha" operator="out" />
            <feColorMatrix type="matrix" values="0 0 0 0 0.141176 0 0 0 0 0.141176 0 0 0 0 0.145098 0 0 0 1 0" />
            <feBlend mode="normal" in2="BackgroundImageFix" result="effect1_dropShadow_4725_6156" />
            <feBlend mode="normal" in="SourceGraphic" in2="effect1_dropShadow_4725_6156" result="shape" />
        </filter>
        <linearGradient id="paint0_linear_4725_6156" x1="2224.15" y1="2491.69" x2="3250.18" y2="5289.57"
            gradientUnits="userSpaceOnUse">
            <stop stop-color="#51A0D1" />
            <stop offset="1" stop-color="#053A56" />
        </linearGradient>
        <linearGradient id="paint1_linear_4725_6156" x1="-59.2097" y1="4576.25" x2="1434.35" y2="5736.21"
            gradientUnits="userSpaceOnUse">
            <stop stop-color="#0C7EBC" />
            <stop offset="1" stop-color="#114491" />
        </linearGradient>
        <linearGradient id="paint2_linear_4725_6156" x1="2865.51" y1="3829.61" x2="2865.51" y2="4224.73"
            gradientUnits="userSpaceOnUse">
            <stop stop-color="#0E0030" />
            <stop offset="1" stop-color="#0C7EBC" />
        </linearGradient>
        <linearGradient id="paint3_linear_4725_6156" x1="2865.51" y1="4318.53" x2="2865.51" y2="4713.65"
            gradientUnits="userSpaceOnUse">
            <stop stop-color="#0E0030" />
            <stop offset="1" stop-color="#0C7EBC" />
        </linearGradient>
        <linearGradient id="paint4_linear_4725_6156" x1="2865.51" y1="4807.45" x2="2865.51" y2="5202.57"
            gradientUnits="userSpaceOnUse">
            <stop stop-color="#0E0030" />
            <stop offset="1" stop-color="#0C7EBC" />
        </linearGradient>
        <linearGradient id="paint5_linear_4725_6156" x1="2865.51" y1="5785.29" x2="2865.51" y2="6180.41"
            gradientUnits="userSpaceOnUse">
            <stop stop-color="#0E0030" />
            <stop offset="1" stop-color="#0C7EBC" />
        </linearGradient>
        <linearGradient id="paint6_linear_4725_6156" x1="2865.51" y1="6274.21" x2="2865.51" y2="6669.32"
            gradientUnits="userSpaceOnUse">
            <stop stop-color="#0E0030" />
            <stop offset="1" stop-color="#0C7EBC" />
        </linearGradient>
        <linearGradient id="paint7_linear_4725_6156" x1="2865.51" y1="6763.13" x2="2865.51" y2="7158.25"
            gradientUnits="userSpaceOnUse">
            <stop stop-color="#0E0030" />
            <stop offset="1" stop-color="#0C7EBC" />
        </linearGradient>
        <linearGradient id="paint8_linear_4725_6156" x1="2865.51" y1="5296.37" x2="2865.51" y2="5691.49"
            gradientUnits="userSpaceOnUse">
            <stop stop-color="#0E0030" />
            <stop offset="1" stop-color="#0C7EBC" />
        </linearGradient>
        <clipPath id="clip0_4725_6156">
            <rect width="12534.9" height="8070.2" fill="white" />
        </clipPath>
        <clipPath id="clip1_4725_6156">
            <rect width="1673.79" height="1422.59" fill="white" transform="translate(58.8052 3664.37)" />
        </clipPath>
    </defs>
</svg>