<svg viewBox="0 0 1920 244" fill="none" xmlns="http://www.w3.org/2000/svg">
<g clip-path="url(#clip0_4028_8171)">
<rect width="1920" height="244" fill="#D5DBE2"/>
<path d="M706 47V-33M1200 47V-33" stroke="black" stroke-width="20"/>
<rect x="548" y="42" width="823" height="128" rx="5" fill="black" fill-opacity="0.77" stroke="black" stroke-width="10"/>
<line x1="588" y1="164.816" x2="588" y2="47.1881" stroke="#313131" stroke-opacity="0.82" stroke-width="20"/>
<line x1="631" y1="164.816" x2="631" y2="47.1881" stroke="#313131" stroke-opacity="0.82" stroke-width="20"/>
<line x1="674" y1="164.816" x2="674" y2="47.1881" stroke="#313131" stroke-opacity="0.82" stroke-width="20"/>
<line x1="717" y1="164.816" x2="717" y2="47.1881" stroke="#313131" stroke-opacity="0.82" stroke-width="20"/>
<line x1="760" y1="164.816" x2="760" y2="47.1881" stroke="#313131" stroke-opacity="0.82" stroke-width="20"/>
<line x1="803" y1="164.816" x2="803" y2="47.1881" stroke="#313131" stroke-opacity="0.82" stroke-width="20"/>
<line x1="846" y1="164.816" x2="846" y2="47.1881" stroke="#313131" stroke-opacity="0.82" stroke-width="20"/>
<line x1="889" y1="164.816" x2="889" y2="47.1881" stroke="#313131" stroke-opacity="0.82" stroke-width="20"/>
<line x1="932" y1="164.816" x2="932" y2="47.1881" stroke="#313131" stroke-opacity="0.82" stroke-width="20"/>
<line x1="975" y1="164.816" x2="975" y2="47.1881" stroke="#313131" stroke-opacity="0.82" stroke-width="20"/>
<line x1="1018" y1="164.816" x2="1018" y2="47.1881" stroke="#313131" stroke-opacity="0.82" stroke-width="20"/>
<line x1="1061" y1="164.816" x2="1061" y2="47.1881" stroke="#313131" stroke-opacity="0.82" stroke-width="20"/>
<line x1="1104" y1="164.816" x2="1104" y2="47.1881" stroke="#313131" stroke-opacity="0.82" stroke-width="20"/>
<line x1="1147" y1="164.816" x2="1147" y2="47.1881" stroke="#313131" stroke-opacity="0.82" stroke-width="20"/>
<line x1="1190" y1="164.816" x2="1190" y2="47.1881" stroke="#313131" stroke-opacity="0.82" stroke-width="20"/>
<line x1="1233" y1="164.816" x2="1233" y2="47.1881" stroke="#313131" stroke-opacity="0.82" stroke-width="20"/>
<line x1="1276" y1="164.816" x2="1276" y2="47.1881" stroke="#313131" stroke-opacity="0.82" stroke-width="20"/>
<line x1="1319" y1="164.816" x2="1319" y2="47.1881" stroke="#313131" stroke-opacity="0.82" stroke-width="20"/>
<line x1="553.025" y1="70" x2="1364.03" y2="72.0399" stroke="#282E3A" stroke-width="20"/>
<line x1="553.025" y1="111" x2="1364.03" y2="113.04" stroke="#282E3A" stroke-width="20"/>
<line x1="553.025" y1="152" x2="1364.03" y2="154.04" stroke="#282E3A" stroke-width="20"/>
<path d="M742.447 125.432V102.284H746.083V105.56H749.323V108.8H752.635V118.556H755.515V102.284H759.187V125.432H755.515V122.192H752.275V118.916H748.963V109.16H746.083V125.432H742.447ZM766.114 125.432V122.192H762.838V112.076H766.114V108.8H776.266V112.076H779.578V115.64H775.906V112.4H766.474V115.28H773.026V118.916H766.474V121.832H775.906V118.52H779.578V122.156H776.266V125.432H766.114ZM783.931 125.432V121.832H787.207V118.556H790.447V115.64H787.207V112.4H783.931V108.8H787.567V112.076H790.807V115.28H793.759V112.076H796.999V108.8H800.671V112.4H797.359V115.64H794.119V118.556H797.359V121.832H800.671V125.432H796.999V122.192H793.759V118.916H790.807V122.192H787.567V125.432H783.931ZM810.451 125.432V122.192H807.211V112.4H803.935V108.8H807.211V102.284H810.811V108.8H820.675V112.4H810.811V121.832H820.315V118.556H823.951V122.192H820.675V125.432H810.451ZM838.782 125.432V122.192H835.506V118.556H839.142V121.832H848.574V115.64H838.782V112.4H835.506V105.56H838.782V102.284H848.934V105.56H852.246V109.16H848.574V105.92H839.142V112.076H848.934V115.28H852.246V122.192H848.934V125.432H838.782ZM861.674 125.432V122.192H858.434V112.4H855.158V108.8H858.434V102.284H862.034V108.8H871.898V112.4H862.034V121.832H871.538V118.556H875.174V122.192H871.898V125.432H861.674ZM881.707 125.432V122.192H878.431V112.076H881.707V108.8H891.859V112.076H895.171V121.832H898.447V125.432H894.811V122.192H891.859V125.432H881.707ZM882.067 121.832H891.499V112.4H882.067V121.832ZM905.338 125.432V122.192H902.098V112.4H898.822V108.8H902.098V102.284H905.698V108.8H915.562V112.4H905.698V121.832H915.202V118.556H918.838V122.192H915.562V125.432H905.338ZM923.185 125.432V108.8H926.821V125.432H923.185ZM923.185 105.92V102.284H926.821V105.92H923.185ZM933.739 125.432V122.192H930.463V112.076H933.739V108.8H943.891V112.076H947.203V122.192H943.891V125.432H933.739ZM934.099 121.832H943.531V112.4H934.099V121.832ZM951.556 125.432V108.8H964.984V112.076H968.296V125.432H964.624V112.4H955.192V125.432H951.556ZM979.857 125.432V108.8H983.493V125.432H979.857ZM979.857 105.92V102.284H983.493V105.92H979.857ZM987.838 125.432V121.832H1000.91V118.916H991.114V115.64H987.838V112.076H991.114V108.8H1004.58V112.4H991.474V115.28H1001.27V118.556H1004.58V122.192H1001.27V125.432H987.838ZM1019.41 125.432V122.192H1016.14V108.8H1019.77V121.832H1029.21V108.8H1032.88V122.192H1029.57V125.432H1019.41ZM1039.81 125.432V122.192H1036.53V105.56H1039.81V102.284H1049.96V105.56H1053.27V122.192H1049.96V125.432H1039.81ZM1040.17 121.832H1049.6V105.92H1040.17V121.832ZM1064.14 125.432V122.192H1060.9V112.4H1057.62V108.8H1060.9V102.284H1064.5V108.8H1074.36V112.4H1064.5V121.832H1074V118.556H1077.64V122.192H1074.36V125.432H1064.14ZM1085.97 125.432V122.192H1082.73V112.4H1079.45V108.8H1082.73V102.284H1086.33V108.8H1096.19V112.4H1086.33V121.832H1095.83V118.556H1099.47V122.192H1096.19V125.432H1085.97ZM1106 125.432V122.192H1102.73V112.076H1106V108.8H1116.16V112.076H1119.47V121.832H1122.74V125.432H1119.11V122.192H1116.16V125.432H1106ZM1106.36 121.832H1115.8V112.4H1106.36V121.832ZM1126 125.432V108.8H1129.64V121.832H1135.83V108.8H1139.43V121.832H1145.66V108.8H1149.26V122.192H1146.02V125.432H1139.07V122.192H1136.19V125.432H1126ZM1155.79 125.432V122.192H1152.51V112.076H1155.79V108.8H1165.94V112.076H1169.25V121.832H1172.53V125.432H1168.89V122.192H1165.94V125.432H1155.79ZM1156.15 121.832H1165.58V112.4H1156.15V121.832Z" fill="#F8AB2F"/>
<rect width="1920" height="7" fill="black"/>
</g>
<defs>
<clipPath id="clip0_4028_8171">
<rect width="1920" height="244" fill="white"/>
</clipPath>
</defs>
</svg>
