<?xml version="1.0" encoding="UTF-8" standalone="no"?>
<svg version="1.1" width="100%" height="100%" id="svg6" viewBox="0 0 416.14038 127.99345"
   sodipodi:docname="c42bae35f1a140d240ac22b699f50a99.cdr" xmlns:inkscape="http://www.inkscape.org/namespaces/inkscape"
   xmlns:sodipodi="http://sodipodi.sourceforge.net/DTD/sodipodi-0.dtd" xmlns="http://www.w3.org/2000/svg"
   xmlns:svg="http://www.w3.org/2000/svg">
   <defs id="defs10" />
   <sodipodi:namedview id="namedview8" pagecolor="#ffffff" bordercolor="#666666" borderopacity="1.0"
      inkscape:pageshadow="2" inkscape:pageopacity="0.0" inkscape:pagecheckerboard="0" />
   <path
      d="m 0,0.01314291 c 21.3299,0 42.6699,0 63.9998,0 C 64.12,9.4533429 63.7098,18.903143 64.3,28.323243 65.27,17.733343 72.2699,8.2831429 81.5998,3.4231429 c 6.8601,-3.45989999 15.01,-4.37999999 22.4501,-2.3799 8.1199,1.9701 15.05,7.5798 19.45,14.5899001 5.8699,9.61 6,22.36 0.3699,32.11 -4.36,7.34 -11.4999,13.18 -19.8598,15.2501 -2.0101,0.3201 -4.51,1.6299 -6.12,-0.43 -0.5301,0.9598 -0.9601,1.98 -1.41,2.9801 l 1.3499,-2.5302 c 3.5501,1.94 7.7201,2.0301 11.33,3.8199 8.9499,4.1905 16.06,12.5501 18.08,22.3104 1.4,6.1801 0.82,12.779997 -1.5001,18.669797 -4.72,11.8301 -16.9098,20.4302 -29.7598,20.1498 -15.6501,0.3501 -30.4501,-12.6799 -31.57,-28.389497 -0.8601,9.439597 -0.2702,18.949897 -0.4301,28.419897 -21.31,-0.0304 -42.6197,-0.0701 -63.93,-0.0202 C 0.0799,85.313243 0,42.663143 0,0.01314291 Z M 63.9998,55.973243 c 0.21,12.1298 -0.47,24.2799 0.3801,36.3799 1.1299,-13.97 12.9799,-26 26.75,-27.9499 1.11,-0.2101 4.14,1.2299 3.57,-0.8802 -15.0999,0.6503 -29.13,-12.8199 -30.2899,-27.7897 -0.73,6.7198 -0.29,13.5 -0.4102,20.2399 z"
      style="fill:#2dac3f;fill-rule:evenodd" id="path2" />
   <path
      d="m 377.8999,42.913243 c 4.11,-4.2701 10.2901,-5.7399 16.03,-5.8502 6.11,-0.0697 12.78,1.33 17.1601,5.9001 3.3998,3.49 4.4299,9.4901 1.4099,13.5399 -1.9199,3.1601 -5.47,4.5502 -8.7301,5.8601 3.78,0.9799 7.6702,2.55 10.0902,5.7699 3.4699,4.5904 2.88,11.5699 -1.0902,15.6699 -4.5199,4.7705 -11.3899,6.3 -17.7398,6.4301 -6.4701,0.0499 -13.5102,-1.2699 -18.3402,-5.9096 -4.3699,-4.0604 -5.22,-11.4103 -1.58,-16.2 2.45,-3.2202 6.34,-4.7903 10.1401,-5.7702 -3.31,-1.3 -6.91,-2.7 -8.8401,-5.91 -3.0099,-4.0601 -1.9398,-10.0601 1.4901,-13.53 z m 13.3901,3.5798 c -3.5201,1.2303 -4.9802,5.9602 -2.88,9.0102 3.3298,5.1801 13.49,3.2001 13.1598,-3.5299 -0.0499,-5.04 -6.1699,-7.31 -10.2798,-5.4803 z m -0.9902,21.8401 c -3.7998,1.5404 -5.1398,6.8301 -2.5699,10.0103 4.03,5.4397 15.19,3.2397 14.8499,-4.2905 -0.22,-5.9001 -7.67,-8.0697 -12.28,-5.7198 z m -242.46,-30.05 c 4.3002,0 8.6001,0 12.89,0 0.0102,16.91 -0.01,33.8102 0.0201,50.7101 -4.31,0.0303 -8.6099,0.0201 -12.92,0.0201 0.01,-16.9104 -0.01,-33.8202 0.01,-50.7302 z m 28.66,3.23 c 9.68,-6.15 23.9902,-5.5199 32.1301,2.9702 3.42,3.5198 5.04,8.3599 5.4301,13.1697 -4.14,0 -8.2701,0.0102 -12.4002,-0.0099 -0.68,-2.4999 -1.3598,-5.15 -3.34,-6.9599 -3.6998,-3.5699 -10.1798,-3.9299 -14.0298,-0.4201 -3.53,3.1901 -4.5902,8.2001 -4.68,12.7701 -0.0502,4.68 0.72,9.8101 4.0399,13.3699 4.0399,4.5 12.1799,3.99 15.7099,-0.8898 1.3002,-1.6302 1.7402,-3.7103 2.4202,-5.6302 4.1199,0.0102 8.24,0.0102 12.3599,0.0102 -0.4799,5.6597 -2.84,11.3199 -7.41,14.8697 -7.7599,6.09 -19.0701,6.52 -27.83,2.4103 -7.6601,-3.6 -11.78,-12.0501 -12.2599,-20.2102 -0.8801,-9.2999 1.6699,-19.98 9.8598,-25.45 z m 58.9002,-2.9599 c 7.8599,-2.0701 16.89,-1.3102 23.59,3.5799 5.6698,4.1201 8.6998,11.05 9.28,17.9002 0.8099,8.2196 -0.9601,17.31 -7.0701,23.26 -6.31,6.1897 -15.9801,7.5897 -24.3599,5.83 -6.7801,-1.3901 -12.85,-5.9902 -15.6801,-12.3602 -3.3001,-7.3698 -3.46,-16.0098 -1.0199,-23.66 2.2399,-7.01 8.1199,-12.7099 15.26,-14.5499 z m 4.0298,10.11 c -4.61,1.7799 -7.0299,6.7199 -7.5799,11.3701 -0.6599,5.3498 -0.1199,11.3598 3.4501,15.6498 3.67,4.5 11.12,4.9402 15.37,1.0199 3.5198,-3.1898 4.6499,-8.17 4.71,-12.75 0.0298,-4.5997 -0.9501,-9.5998 -4.31,-12.9798 -2.96,-3.03 -7.75,-3.8302 -11.6402,-2.31 z m 35.4501,-10.4 c 3.41,0.0301 6.8099,0.0301 10.22,0 7.31,9.9 14.4499,19.9298 21.81,29.7899 0.08,-9.9301 -0.0499,-19.8598 0.08,-29.7899 4.0501,0.0301 8.1,0.0199 12.1501,0.0099 0.0298,16.92 0.0199,33.8298 0.0199,50.7402 -3.3999,0 -6.7899,0 -10.1801,0 -7.2998,-10.0103 -14.55,-20.0702 -21.8699,-30.0702 -0.1,10.0202 -0.0201,20.0401 -0.0499,30.0702 -4.0801,0 -8.1501,0 -12.23,0 0.03,-16.92 -0.0601,-33.84 0.0499,-50.7501 z m 54.8801,5.58 c 4.5,-5.0902 11.7099,-6.69 18.2599,-6.3502 5.7901,0.2302 12.0399,2.0603 15.7,6.84 2.0801,2.5402 2.6799,5.8301 3.1099,8.9802 -3.9699,0.0198 -7.9398,0.03 -11.8998,0 -1.3601,-6.0199 -9.3501,-7.1901 -13.9601,-4.32 -2.7899,1.6299 -2.4599,6.2399 0.72,7.2198 7.1101,2.9203 15.7099,2.1501 21.89,7.3202 7.0001,6.0599 4.68,18.6197 -3.1601,22.93 -7.5999,4.2801 -17.21,4.33 -25.2898,1.4199 -5.8102,-2.05 -9.8,-7.6598 -10.0401,-13.79 3.9399,-0.03 7.8801,-0.0102 11.8199,-0.0499 2.38,6.2 11.0002,7.2097 16.0702,3.9201 2.6399,-1.6699 2.4299,-6.1302 -0.6701,-7.1898 -6.81,-2.9602 -15.0701,-2.1206 -21.1499,-6.9202 -6.2801,-4.5502 -6.4102,-14.4701 -1.4,-20.0101 z"
      style="fill:#333333;fill-rule:evenodd" id="path4" />
</svg>