<svg viewBox="0 0 5002 2084" fill="none" xmlns="http://www.w3.org/2000/svg">
<path d="M4294.38 1669.22C4539.61 1683.9 4628.41 1670.45 4747.05 1628.73L49.7456 790.438L58.766 891.302C58.766 891.302 4049.15 1654.53 4294.38 1669.22Z" fill="#212121"/>
<path d="M4894.45 1447.82C5087.17 1643.33 4992.62 1694.8 4460.01 1640.72L545.848 878.55L516.739 553.063L3530.92 877.869L4103.57 826.656L4894.45 1447.82Z" fill="#C1D4DD"/>
<path d="M1496.7 661.034C1294.11 630.801 6.66988 501.6 6.66988 501.6L106.698 424.874C106.698 424.874 3759.68 674.851 4061.04 781.339C4362.4 887.826 4489.33 1038.35 4717.84 1302.23L4385.37 1395.82L3852.9 1035.74C3669.36 914.492 1699.3 691.266 1496.7 661.034Z" fill="white"/>
<path d="M547.236 878.427L518.225 554.031L9.81689 498.238L37.1734 804.132L547.236 878.427Z" fill="#C1D4DD"/>
<path d="M2906.12 1114.2L3085.29 1375.29L3182.26 1394.69C3111.3 1262.4 3138.95 1118.59 2964.41 1072.02L24.041 580.15L27.5945 619.885L2906.12 1114.2Z" fill="#5B5B5B"/>
<rect x="2789.84" y="893.531" width="54.9498" height="122.748" rx="9.88406" transform="rotate(-5.11045 2789.84 893.531)" fill="#5B5B5B"/>
<rect x="2671.34" y="879.482" width="54.9498" height="122.748" rx="9.88406" transform="rotate(-5.11045 2671.34 879.482)" fill="#5B5B5B"/>
<rect x="2559.69" y="864.818" width="54.9498" height="116.61" rx="9.88406" transform="rotate(-5.11045 2559.69 864.818)" fill="#5B5B5B"/>
<rect x="2440.66" y="844.655" width="54.9498" height="116.61" rx="9.88406" transform="rotate(-5.11045 2440.66 844.655)" fill="#5B5B5B"/>
<rect x="2322.17" y="830.605" width="54.9498" height="116.61" rx="9.88406" transform="rotate(-5.11045 2322.17 830.605)" fill="#5B5B5B"/>
<rect x="2210.52" y="815.941" width="54.9498" height="116.61" rx="9.88406" transform="rotate(-5.11045 2210.52 815.941)" fill="#5B5B5B"/>
<rect x="1868.18" y="766.454" width="54.9498" height="116.61" rx="9.88406" transform="rotate(-5.11045 1868.18 766.454)" fill="#5B5B5B"/>
<rect x="1979.83" y="781.116" width="54.9498" height="116.61" rx="9.88406" transform="rotate(-5.11045 1979.83 781.116)" fill="#5B5B5B"/>
<rect x="2098.87" y="801.28" width="54.9498" height="116.61" rx="9.88406" transform="rotate(-5.11045 2098.87 801.28)" fill="#5B5B5B"/>
<rect width="33.1094" height="73.9606" rx="5.95554" transform="matrix(0.996387 -0.0849243 0.0838757 0.996476 1459.73 730.964)" fill="#5B5B5B"/>
<rect width="33.1094" height="73.9606" rx="5.95554" transform="matrix(0.996387 -0.0849243 0.0838757 0.996476 1392.51 721.848)" fill="#5B5B5B"/>
<rect width="33.1094" height="73.9606" rx="5.95554" transform="matrix(0.996387 -0.0849243 0.0838757 0.996476 1321.17 713.082)" fill="#5B5B5B"/>
<rect width="33.1094" height="70.2626" rx="5.95554" transform="matrix(0.996387 -0.0849243 0.0838757 0.996476 1253.95 703.966)" fill="#5B5B5B"/>
<rect width="33.1094" height="70.2626" rx="5.95554" transform="matrix(0.996387 -0.0849243 0.0838757 0.996476 1182.29 691.516)" fill="#5B5B5B"/>
<rect width="33.1094" height="70.2626" rx="5.95554" transform="matrix(0.996387 -0.0849243 0.0838757 0.996476 1110.95 682.751)" fill="#5B5B5B"/>
<rect width="33.1094" height="70.2626" rx="5.95554" transform="matrix(0.996387 -0.0849243 0.0838757 0.996476 1043.73 673.634)" fill="#5B5B5B"/>
<rect width="33.1094" height="70.2626" rx="5.95554" transform="matrix(0.996387 -0.0849243 0.0838757 0.996476 837.632 642.952)" fill="#5B5B5B"/>
<rect width="33.1094" height="70.2626" rx="5.95554" transform="matrix(0.996387 -0.0849243 0.0838757 0.996476 904.85 652.068)" fill="#5B5B5B"/>
<rect width="33.1094" height="70.2626" rx="5.95554" transform="matrix(0.996387 -0.0849243 0.0838757 0.996476 976.506 664.518)" fill="#5B5B5B"/>
<rect width="21.0999" height="47.1334" rx="3.79533" transform="matrix(0.996387 -0.0849243 0.0838757 0.996476 500.564 598.269)" fill="#5B5B5B"/>
<rect width="21.0999" height="47.1334" rx="3.79533" transform="matrix(0.996387 -0.0849243 0.0838757 0.996476 457.728 592.459)" fill="#5B5B5B"/>
<rect width="21.0999" height="47.1334" rx="3.79533" transform="matrix(0.996387 -0.0849243 0.0838757 0.996476 412.259 586.872)" fill="#5B5B5B"/>
<rect width="21.0999" height="44.7767" rx="3.79533" transform="matrix(0.996387 -0.0849243 0.0838757 0.996476 369.42 581.063)" fill="#5B5B5B"/>
<rect width="21.0999" height="44.7767" rx="3.79533" transform="matrix(0.996387 -0.0849243 0.0838757 0.996476 323.759 573.13)" fill="#5B5B5B"/>
<rect width="21.0999" height="44.7767" rx="3.79533" transform="matrix(0.996387 -0.0849243 0.0838757 0.996476 278.294 567.544)" fill="#5B5B5B"/>
<rect width="21.0999" height="44.7767" rx="3.79533" transform="matrix(0.996387 -0.0849243 0.0838757 0.996476 235.455 561.734)" fill="#5B5B5B"/>
<rect width="21.0999" height="44.7767" rx="3.79533" transform="matrix(0.996387 -0.0849243 0.0838757 0.996476 104.116 542.181)" fill="#5B5B5B"/>
<rect width="21.0999" height="44.7767" rx="3.79533" transform="matrix(0.996387 -0.0849243 0.0838757 0.996476 146.955 547.99)" fill="#5B5B5B"/>
<rect width="21.0999" height="44.7767" rx="3.79533" transform="matrix(0.996387 -0.0849243 0.0838757 0.996476 192.619 555.924)" fill="#5B5B5B"/>
<path d="M1729.54 1105.43L1691.54 680.581C1780.49 616.271 1836.2 589.624 1946.19 559.218" stroke="#9CB1BB" stroke-width="2.47101"/>
<path d="M658.887 893.089L630.001 570.102C718.93 519.306 774.353 497.878 883.326 472.495" stroke="#9CB1BB" stroke-width="2.47101"/>
<path d="M3975.29 1117.18L4570.98 1609.23C4867.48 1610.92 4920.64 1639.58 4971.62 1539.51C4901.1 1459.55 4807.72 1326.18 4673.23 1248.86L3975.29 1117.18Z" fill="white"/>
<path d="M4895.71 1450.79C4895.71 1450.79 4440.61 1605.48 4421.72 1625.66C4402.84 1645.83 4749.98 1685.61 4895.71 1656.51C5027.56 1625.75 5031.9 1577.86 4895.71 1450.79Z" fill="#971A1A"/>
<path d="M4499.02 1575.61C4874.47 1662.79 5049.88 1653.12 4894.46 1447.82L4499.02 1575.61Z" fill="white"/>
<path d="M4359.06 1337.03C4359.06 1337.03 4242.49 1290.46 4067.5 1145.9C3892.52 1001.34 4379.99 951.532 4379.99 951.532C4513.42 1050.91 4590.49 1123.59 4675.14 1247.15L4359.06 1337.03Z" fill="#09273F"/>
<path d="M3048.95 1246.23L30.3157 727.475L20.7485 620.498L4243.44 1339.67C4243.44 1339.67 4652.91 1547.17 4715.28 1620.97C4756.62 1669.88 4472 1643.58 4472 1643.58L3179.47 1394.77L3124.74 1322.64L3048.95 1246.23Z" fill="#971A1A"/>
<rect x="3268.12" y="970.315" width="63.7453" height="406.263" rx="17.2971" transform="rotate(-5.11045 3268.12 970.315)" stroke="#636566" stroke-width="4.94203"/>
<rect x="566.152" y="618.7" width="19.6268" height="125.086" rx="5.32569" transform="rotate(-5.11045 566.152 618.7)" stroke="#58656B" stroke-width="1.52162"/>
<rect x="725.468" y="632.699" width="19.6268" height="125.086" rx="5.32569" transform="rotate(-5.11045 725.468 632.699)" stroke="#58656B" stroke-width="1.52162"/>
<rect x="1553.09" y="746.551" width="31.1374" height="198.446" rx="8.44906" transform="rotate(-5.11045 1553.09 746.551)" stroke="#636566" stroke-width="2.41402"/>
<rect x="1805.84" y="768.76" width="31.1374" height="198.446" rx="8.44906" transform="rotate(-5.11045 1805.84 768.76)" stroke="#636566" stroke-width="2.41402"/>
</svg>
