<svg viewBox="0 0 12535 8071" fill="none" xmlns="http://www.w3.org/2000/svg">
    <g clip-path="url(#clip0_4725_6156)">
        <path
            d="M9106.69 5610.98C9337.98 5625.54 9421.75 5612.2 9533.63 5570.78L4649.14 4659.75V4778.93C4649.14 4778.93 8875.33 5596.35 9106.62 5610.98H9106.69Z"
            fill="#212121" />
        <path
            d="M9673.73 5389.07C9855.86 5582.44 9766.51 5633.37 9263.15 5579.87L5563.76 4825.96L5536.27 4504.01L8385.04 4825.32L8926.27 4774.65L9673.73 5389.07Z"
            fill="#C1D4DD" />
        <path
            d="M6462.41 4610.75C6383.93 4598.5 6064 4567 5713.79 4524.88C5209.76 4464.26 4643 4390.01 4643 4390.01L4854.7 4329C4854.7 4329 8601.22 4624.43 8886.07 4729.75C9166.38 4833.41 9287.02 4979.26 9496.57 5232.62L9506.82 5245.01L9192.58 5337.56L8689.34 4981.38C8515.87 4861.47 6653.93 4640.61 6462.41 4610.75Z"
            fill="white" />
        <path d="M5565.04 4825.83L5537.61 4504.97L4643 4390.01V4672.59L5565.04 4825.83Z" fill="#C1D4DD" />
        <path
            d="M7829.89 5093.65L7971.95 5318.04L8054.79 5334.09C7987.61 5203.84 8016.99 5063.93 7851.77 5018.1L4643 4512.04V4556.78L7396.02 5021.6L7829.89 5093.65Z"
            fill="#5B5B5B" />
        <path
            d="M7727.04 4836.82L7693.91 4839.92C7688.78 4840.4 7684.99 4845.14 7685.45 4850.51L7694.12 4952.03C7694.58 4957.4 7699.11 4961.36 7704.24 4960.88L7737.37 4957.78C7742.5 4957.3 7746.29 4952.56 7745.83 4947.19L7737.16 4845.67C7736.7 4840.3 7732.17 4836.34 7727.04 4836.82Z"
            fill="#5B5B5B" />
        <path
            d="M7615.05 4822.92L7581.92 4826.02C7576.79 4826.5 7573 4831.24 7573.46 4836.61L7582.14 4938.13C7582.59 4943.5 7587.13 4947.46 7592.26 4946.98L7625.38 4943.88C7630.51 4943.4 7634.3 4938.66 7633.84 4933.29L7625.17 4831.77C7624.71 4826.4 7620.18 4822.44 7615.05 4822.92Z"
            fill="#5B5B5B" />
        <path
            d="M7509.48 4808.43L7476.36 4811.53C7471.23 4812.01 7467.44 4816.75 7467.9 4822.12L7476.05 4917.56C7476.51 4922.93 7481.04 4926.9 7486.17 4926.42L7519.3 4923.31C7524.43 4922.83 7528.22 4918.09 7527.76 4912.72L7519.6 4817.28C7519.15 4811.91 7514.61 4807.95 7509.48 4808.43Z"
            fill="#5B5B5B" />
        <path
            d="M7396.98 4788.43L7363.85 4791.53C7358.72 4792.01 7354.94 4796.75 7355.39 4802.12L7363.55 4897.56C7364.01 4902.93 7368.54 4906.89 7373.67 4906.41L7406.8 4903.31C7411.93 4902.83 7415.71 4898.09 7415.26 4892.72L7407.1 4797.28C7406.64 4791.91 7402.11 4787.95 7396.98 4788.43Z"
            fill="#5B5B5B" />
        <path
            d="M7284.99 4774.58L7251.87 4777.68C7246.73 4778.16 7242.95 4782.9 7243.41 4788.27L7251.56 4883.71C7252.02 4889.08 7256.55 4893.05 7261.68 4892.57L7294.81 4889.47C7299.94 4888.99 7303.73 4884.24 7303.27 4878.87L7295.11 4783.43C7294.65 4778.06 7290.12 4774.1 7284.99 4774.58Z"
            fill="#5B5B5B" />
        <path
            d="M7179.49 4760.07L7146.37 4763.17C7141.24 4763.65 7137.45 4768.39 7137.91 4773.76L7146.06 4869.2C7146.52 4874.57 7151.05 4878.53 7156.18 4878.05L7189.31 4874.95C7194.44 4874.47 7198.23 4869.73 7197.77 4864.36L7189.62 4768.92C7189.16 4763.55 7184.63 4759.59 7179.49 4760.07Z"
            fill="#5B5B5B" />
        <path
            d="M6855.93 4711.11L6822.8 4714.21C6817.67 4714.69 6813.89 4719.43 6814.34 4724.8L6822.5 4820.24C6822.96 4825.61 6827.49 4829.57 6832.62 4829.09L6865.75 4825.99C6870.88 4825.51 6874.66 4820.77 6874.21 4815.4L6866.05 4719.96C6865.59 4714.59 6861.06 4710.63 6855.93 4711.11Z"
            fill="#5B5B5B" />
        <path
            d="M6961.49 4725.62L6928.37 4728.72C6923.24 4729.2 6919.45 4733.95 6919.91 4739.32L6928.06 4834.76C6928.52 4840.13 6933.05 4844.09 6938.18 4843.61L6971.31 4840.51C6976.44 4840.03 6980.23 4835.29 6979.77 4829.92L6971.62 4734.48C6971.16 4729.11 6966.63 4725.14 6961.49 4725.62Z"
            fill="#5B5B5B" />
        <path
            d="M7073.93 4745.56L7040.8 4748.66C7035.67 4749.14 7031.89 4753.88 7032.35 4759.25L7040.5 4854.69C7040.96 4860.06 7045.49 4864.03 7050.62 4863.55L7083.75 4860.45C7088.88 4859.97 7092.67 4855.23 7092.21 4849.86L7084.05 4754.42C7083.59 4749.05 7079.06 4745.08 7073.93 4745.56Z"
            fill="#5B5B5B" />
        <path
            d="M6433.08 4679.46L6453.02 4677.67C6456.09 4677.41 6458.85 4679.79 6459.1 4683.06L6464.01 4744.2C6464.25 4747.41 6461.98 4750.3 6458.85 4750.56L6438.91 4752.36C6435.84 4752.61 6433.08 4750.24 6432.84 4746.96L6427.93 4685.82C6427.68 4682.61 6429.95 4679.72 6433.08 4679.46Z"
            fill="#5B5B5B" />
        <path
            d="M6369.57 4670.41L6389.52 4668.61C6392.59 4668.36 6395.35 4670.73 6395.59 4674.01L6400.5 4735.15C6400.75 4738.36 6398.48 4741.25 6395.35 4741.51L6375.4 4743.31C6372.34 4743.56 6369.58 4741.19 6369.33 4737.91L6364.42 4676.77C6364.18 4673.56 6366.45 4670.67 6369.57 4670.41Z"
            fill="#5B5B5B" />
        <path
            d="M6302.13 4661.74L6322.08 4659.94C6325.14 4659.69 6327.91 4662.06 6328.15 4665.34L6333.06 4726.48C6333.31 4729.69 6331.04 4732.58 6327.91 4732.84L6307.96 4734.64C6304.89 4734.89 6302.13 4732.52 6301.89 4729.24L6296.98 4668.1C6296.73 4664.89 6299 4662 6302.13 4661.74Z"
            fill="#5B5B5B" />
        <path
            d="M6238.56 4652.75L6258.5 4650.95C6261.57 4650.69 6264.33 4653.07 6264.58 4656.34L6269.18 4713.89C6269.42 4717.1 6267.15 4719.99 6264.03 4720.25L6244.08 4722.04C6241.01 4722.3 6238.25 4719.93 6238.01 4716.65L6233.4 4659.11C6233.16 4655.89 6235.43 4653 6238.56 4652.75Z"
            fill="#5B5B5B" />
        <path
            d="M6170.88 4640.42L6190.82 4638.62C6193.89 4638.36 6196.65 4640.74 6196.9 4644.01L6201.5 4701.56C6201.75 4704.77 6199.48 4707.66 6196.35 4707.92L6176.4 4709.71C6173.34 4709.97 6170.57 4707.6 6170.33 4704.32L6165.73 4646.78C6165.48 4643.56 6167.75 4640.67 6170.88 4640.42Z"
            fill="#5B5B5B" />
        <path
            d="M6103.44 4631.75L6123.38 4629.95C6126.45 4629.7 6129.21 4632.07 6129.46 4635.35L6134.06 4692.89C6134.31 4696.1 6132.04 4698.99 6128.91 4699.25L6108.96 4701.05C6105.9 4701.31 6103.13 4698.93 6102.89 4695.65L6098.29 4638.11C6098.04 4634.9 6100.31 4632.01 6103.44 4631.75Z"
            fill="#5B5B5B" />
        <path
            d="M6039.93 4622.76L6059.87 4620.96C6062.94 4620.7 6065.7 4623.08 6065.94 4626.35L6070.55 4683.9C6070.79 4687.11 6068.52 4690 6065.39 4690.26L6045.45 4692.05C6042.38 4692.31 6039.62 4689.93 6039.37 4686.66L6034.77 4629.11C6034.53 4625.9 6036.8 4623.01 6039.93 4622.76Z"
            fill="#5B5B5B" />
        <path
            d="M5845.1 4592.38L5865.04 4590.58C5868.11 4590.32 5870.87 4592.7 5871.12 4595.97L5875.72 4653.52C5875.97 4656.73 5873.69 4659.62 5870.57 4659.88L5850.62 4661.67C5847.55 4661.93 5844.79 4659.55 5844.55 4656.28L5839.94 4598.73C5839.7 4595.52 5841.97 4592.63 5845.1 4592.38Z"
            fill="#5B5B5B" />
        <path
            d="M5908.61 4601.43L5928.56 4599.64C5931.63 4599.38 5934.39 4601.75 5934.63 4605.03L5939.23 4662.57C5939.48 4665.79 5937.21 4668.68 5934.08 4668.93L5914.14 4670.73C5911.07 4670.99 5908.31 4668.61 5908.06 4665.34L5903.46 4607.79C5903.21 4604.58 5905.48 4601.69 5908.61 4601.43Z"
            fill="#5B5B5B" />
        <path
            d="M5976.36 4613.7L5996.3 4611.9C5999.37 4611.64 6002.13 4614.02 6002.38 4617.3L6006.98 4674.84C6007.22 4678.05 6004.95 4680.94 6001.82 4681.2L5981.88 4683C5978.81 4683.25 5976.05 4680.88 5975.81 4677.6L5971.2 4620.06C5970.96 4616.85 5973.23 4613.96 5976.36 4613.7Z"
            fill="#5B5B5B" />
        <path
            d="M5500.02 4552.77L5519.96 4550.97C5523.03 4550.72 5525.79 4553.09 5526.03 4556.37L5530.94 4617.51C5531.19 4620.72 5528.92 4623.61 5525.79 4623.87L5505.84 4625.66C5502.78 4625.92 5500.02 4623.54 5499.77 4620.27L5494.86 4559.13C5494.62 4555.92 5496.89 4553.03 5500.02 4552.77Z"
            fill="#5B5B5B" />
        <path
            d="M5436.5 4543.72L5456.44 4541.92C5459.51 4541.67 5462.27 4544.04 5462.52 4547.32L5467.43 4608.46C5467.67 4611.67 5465.4 4614.56 5462.27 4614.82L5442.33 4616.61C5439.26 4616.87 5436.5 4614.49 5436.26 4611.22L5431.35 4550.08C5431.1 4546.87 5433.37 4543.98 5436.5 4543.72Z"
            fill="#5B5B5B" />
        <path
            d="M5369.07 4535.05L5389.01 4533.25C5392.08 4532.99 5394.84 4535.37 5395.09 4538.64L5400 4599.78C5400.24 4602.99 5397.97 4605.88 5394.84 4606.14L5374.9 4607.94C5371.83 4608.2 5369.07 4605.82 5368.82 4602.54L5363.91 4541.4C5363.67 4538.19 5365.94 4535.3 5369.07 4535.05Z"
            fill="#5B5B5B" />
        <path
            d="M5305.49 4526.06L5325.44 4524.26C5328.51 4524 5331.27 4526.38 5331.51 4529.65L5336.12 4587.2C5336.36 4590.41 5334.09 4593.3 5330.96 4593.56L5311.02 4595.36C5307.95 4595.61 5305.19 4593.24 5304.94 4589.96L5300.34 4532.42C5300.09 4529.21 5302.37 4526.32 5305.49 4526.06Z"
            fill="#5B5B5B" />
        <path
            d="M5237.81 4513.73L5257.75 4511.93C5260.82 4511.67 5263.58 4514.05 5263.83 4517.32L5268.43 4574.87C5268.67 4578.08 5266.4 4580.97 5263.28 4581.23L5243.33 4583.03C5240.26 4583.28 5237.5 4580.91 5237.26 4577.63L5232.65 4520.09C5232.41 4516.88 5234.68 4513.99 5237.81 4513.73Z"
            fill="#5B5B5B" />
        <path
            d="M5170.37 4505.06L5190.31 4503.26C5193.38 4503 5196.14 4505.38 5196.39 4508.65L5200.99 4566.2C5201.24 4569.41 5198.97 4572.3 5195.84 4572.55L5175.89 4574.35C5172.82 4574.61 5170.06 4572.23 5169.82 4568.96L5165.22 4511.41C5164.97 4508.2 5167.24 4505.31 5170.37 4505.06Z"
            fill="#5B5B5B" />
        <path
            d="M5106.86 4496.07L5126.8 4494.27C5129.87 4494.01 5132.63 4496.39 5132.88 4499.66L5137.48 4557.21C5137.73 4560.42 5135.46 4563.31 5132.33 4563.56L5112.38 4565.36C5109.32 4565.62 5106.55 4563.24 5106.31 4559.97L5101.71 4502.42C5101.46 4499.21 5103.73 4496.32 5106.86 4496.07Z"
            fill="#5B5B5B" />
        <path
            d="M4912.03 4465.69L4931.97 4463.89C4935.04 4463.63 4937.8 4466.01 4938.05 4469.28L4942.65 4526.83C4942.9 4530.04 4940.63 4532.93 4937.5 4533.18L4917.55 4534.98C4914.49 4535.24 4911.73 4532.86 4911.48 4529.59L4906.88 4472.04C4906.63 4468.83 4908.9 4465.94 4912.03 4465.69Z"
            fill="#5B5B5B" />
        <path
            d="M4975.54 4474.74L4995.48 4472.94C4998.55 4472.69 5001.31 4475.06 5001.56 4478.34L5006.16 4535.88C5006.41 4539.09 5004.14 4541.98 5001.01 4542.24L4981.06 4544.04C4978 4544.3 4975.23 4541.92 4974.99 4538.65L4970.39 4481.1C4970.14 4477.89 4972.41 4475 4975.54 4474.74Z"
            fill="#5B5B5B" />
        <path
            d="M5043.29 4487.01L5063.23 4485.21C5066.3 4484.95 5069.06 4487.33 5069.3 4490.61L5073.91 4548.15C5074.15 4551.36 5071.88 4554.25 5068.75 4554.51L5048.81 4556.31C5045.74 4556.56 5042.98 4554.19 5042.73 4550.91L5038.13 4493.37C5037.89 4490.16 5040.16 4487.27 5043.29 4487.01Z"
            fill="#5B5B5B" />
        <path d="M6682.46 5050.36L6646.56 4630.08C6730.63 4566.43 6803.35 4532.46 6907.3 4502.4" stroke="#9CB1BB"
            stroke-width="2.22883" />
        <path d="M5670.58 4840.34L5643.28 4520.83C5727.35 4470.61 5794.84 4440.81 5897.87 4415.7" stroke="#9CB1BB"
            stroke-width="2.22883" />
        <path
            d="M8805.01 5062.17L9368.08 5549.63C9648.32 5551.36 9698.58 5579.75 9746.75 5480.59C9680.11 5401.4 9591.81 5269.23 9464.66 5192.61L8805.01 5062.11V5062.17Z"
            fill="white" />
        <path d="M9300.09 5516.36C9654.95 5602.74 9820.76 5593.17 9673.85 5389.84L9300.09 5516.36Z" fill="white" />
        <path
            d="M9167.79 5280.01C9167.79 5280.01 9057.58 5233.9 8892.21 5090.68C8726.84 4947.47 9187.55 4898.21 9187.55 4898.21C9313.65 4996.66 9386.55 5068.66 9466.57 5191.07L9167.85 5280.08L9167.79 5280.01Z"
            fill="#09273F" />
        <path fill-rule="evenodd" clip-rule="evenodd"
            d="M4643 4620.84L7929.42 5191.38L8001.16 5266.73L8052.93 5337.86L9258.34 5578.61C9262.82 5579.57 9267.8 5580.59 9273.08 5581.55L9277.5 5582.45C9277.5 5582.45 9277.93 5582.45 9278.67 5582.58C9367.97 5598.04 9553.63 5610.89 9676.27 5599.45C9801.01 5569.15 9794.19 5517.45 9672.28 5386.94C9672.28 5386.94 9535.94 5441.52 9412.19 5487.86C9278.42 5399.47 9059.35 5283.73 9059.35 5283.73L4643 4544.15V4620.84Z"
            fill="#971A1A" />
        <path
            d="M8180.44 4912.67L8152.94 4915.25C8143.96 4916.09 8137.33 4924.39 8138.13 4933.78L8169.42 5300C8170.23 5309.4 8178.16 5316.33 8187.13 5315.49L8214.64 5312.92C8223.62 5312.08 8230.24 5303.78 8229.44 5294.38L8198.15 4928.17C8197.35 4918.77 8189.42 4911.83 8180.44 4912.67Z"
            stroke="#636566" stroke-width="4.45766" />
        <path
            d="M5596.39 4567.62L5587.96 4568.41C5585.19 4568.67 5583.15 4571.23 5583.39 4574.12L5593.03 4686.9C5593.28 4689.8 5595.72 4691.93 5598.49 4691.67L5606.92 4690.89C5609.69 4690.63 5611.73 4688.07 5611.49 4685.17L5601.85 4572.4C5601.6 4569.5 5599.16 4567.36 5596.39 4567.62Z"
            stroke="#58656B" stroke-width="1.34903" />
        <path
            d="M4845.41 4477.3L4836.95 4477.36C4834.17 4477.38 4831.93 4479.75 4831.95 4482.66L4832.69 4595.89C4832.71 4598.79 4834.98 4601.14 4837.76 4601.12L4846.23 4601.05C4849.01 4601.03 4851.24 4598.66 4851.22 4595.75L4850.48 4482.53C4850.46 4479.62 4848.19 4477.28 4845.41 4477.3Z"
            stroke="#58656B" stroke-width="1.34903" />
        <path
            d="M5746.95 4581.53L5738.51 4582.32C5735.74 4582.58 5733.7 4585.14 5733.95 4588.04L5743.58 4700.81C5743.83 4703.71 5746.28 4705.85 5749.04 4705.59L5757.48 4704.8C5760.25 4704.54 5762.29 4701.98 5762.04 4699.08L5752.41 4586.31C5752.16 4583.41 5749.71 4581.27 5746.95 4581.53Z"
            stroke="#58656B" stroke-width="1.34903" />
        <path
            d="M6537.11 4693.38L6523.66 4694.64C6519.27 4695.05 6516.03 4699.11 6516.43 4703.7L6531.71 4882.62C6532.11 4887.21 6535.98 4890.6 6540.37 4890.19L6553.82 4888.93C6558.2 4888.52 6561.44 4884.46 6561.05 4879.87L6545.76 4700.95C6545.37 4696.36 6541.5 4692.97 6537.11 4693.38Z"
            stroke="#636566" stroke-width="2.17017" />
        <path
            d="M6775.99 4715.34L6762.55 4716.6C6758.16 4717.01 6754.92 4721.07 6755.31 4725.66L6770.6 4904.58C6770.99 4909.17 6774.87 4912.56 6779.25 4912.15L6792.7 4910.89C6797.09 4910.48 6800.33 4906.42 6799.94 4901.83L6784.65 4722.91C6784.26 4718.32 6780.38 4714.93 6775.99 4715.34Z"
            stroke="#636566" stroke-width="2.17017" />
        <path
            d="M9411.15 5489.26L9499.39 5541.67C9527.25 5558.24 9560.88 5560.48 9590.52 5547.7L9746.75 5480.59C9733.12 5451.75 9696.43 5406.6 9670.96 5387.79"
            fill="white" />
        <path
            d="M9606.29 5565.55C9685.62 5565.55 9749.94 5534.41 9749.94 5496C9749.94 5457.58 9685.62 5426.44 9606.29 5426.44C9526.95 5426.44 9462.63 5457.58 9462.63 5496C9462.63 5534.41 9526.95 5565.55 9606.29 5565.55Z"
            fill="white" />
        <path d="M9690.11 5404.74L9619.54 5327.67L9665.57 5404.74H9690.11Z" fill="white" />
        <path d="M6554.46 4499.19L6008.33 4447.81L5900.94 4508.83L6437.87 4569.84L6554.46 4499.19Z" stroke="#9CB1BB"
            stroke-width="5.86534" />
        <path d="M6170.94 4540.94L6281.39 4473.5" stroke="#9CB1BB" stroke-width="5.86534" />
    </g>
    <defs>
        <clipPath id="clip0_4725_6156">
            <rect width="12534.9" height="8070.2" fill="white" />
        </clipPath>
    </defs>
</svg>