<svg viewBox="0 0 318 310" fill="none" xmlns="http://www.w3.org/2000/svg">
    <path d="M155.611 50.6916V36.2039" stroke="url(#paint0_linear_4689_6025)" stroke-width="7" stroke-miterlimit="10" />
    <path
        d="M155.349 126.093V169.782C155.349 169.814 155.357 169.846 155.373 169.874C155.389 169.902 155.411 169.925 155.439 169.942L193.945 193.049C193.973 193.066 194.006 193.075 194.039 193.075C194.072 193.075 194.104 193.067 194.133 193.051C194.162 193.034 194.185 193.011 194.202 192.983C194.219 192.954 194.228 192.922 194.228 192.888V146.638C194.228 146.604 194.219 146.571 194.202 146.542C194.185 146.513 194.159 146.489 194.13 146.473L155.623 125.922C155.594 125.907 155.561 125.899 155.529 125.9C155.496 125.901 155.464 125.911 155.436 125.928C155.409 125.945 155.386 125.97 155.371 125.999C155.355 126.027 155.348 126.06 155.349 126.093Z"
        stroke="url(#paint1_linear_4689_6025)" stroke-width="7" stroke-miterlimit="10" />
    <path d="M163.721 140.305V165.416L185.855 178.703V152.12L163.721 140.305Z" stroke="url(#paint2_linear_4689_6025)"
        stroke-width="7" stroke-miterlimit="10" />
    <path
        d="M155.348 125.951V169.834C155.348 169.851 155.344 169.868 155.336 169.884C155.327 169.899 155.315 169.912 155.3 169.921L116.629 193.135C116.613 193.144 116.596 193.149 116.578 193.15C116.56 193.15 116.542 193.145 116.526 193.136C116.51 193.127 116.497 193.115 116.488 193.099C116.479 193.083 116.475 193.065 116.475 193.047V146.596C116.475 146.577 116.48 146.559 116.489 146.543C116.499 146.527 116.512 146.514 116.528 146.505L155.199 125.864C155.214 125.856 155.231 125.851 155.249 125.851C155.266 125.851 155.283 125.857 155.298 125.865C155.313 125.874 155.326 125.886 155.334 125.901C155.343 125.916 155.348 125.933 155.348 125.951Z"
        stroke="url(#paint3_linear_4689_6025)" stroke-width="7" stroke-miterlimit="10" />
    <path d="M146.976 140.305V165.416L124.842 178.703V152.12L146.976 140.305Z" stroke="url(#paint4_linear_4689_6025)"
        stroke-width="7" stroke-miterlimit="10" />
    <path d="M194.228 188.838V171L203.948 165.119L213.667 181.98V292.294" stroke="url(#paint5_linear_4689_6025)"
        stroke-width="7" stroke-miterlimit="10" />
    <path d="M155.349 104.367V50.6918" stroke="url(#paint6_linear_4689_6025)" stroke-width="7" stroke-miterlimit="10" />
    <path d="M145.63 131.274V108.922L155.35 102.646L165.069 108.922V131.274" stroke="url(#paint7_linear_4689_6025)"
        stroke-width="7" stroke-miterlimit="10" />
    <path d="M116.471 188.263V171.004L106.75 165.123L97.0303 181.984V292.129" stroke="url(#paint8_linear_4689_6025)"
        stroke-width="7" stroke-miterlimit="10" />
    <path
        d="M185.232 120.302L194.227 125.783V146.527L165.067 61.4836V47.2386L155.348 50.6913L145.628 46.477V61.931L116.469 146.531V125.788L125.279 120.973"
        stroke="url(#paint9_linear_4689_6025)" stroke-width="7" stroke-miterlimit="10" />
    <path d="M194.227 193.225L213.666 203.723" stroke="url(#paint10_linear_4689_6025)" stroke-width="7"
        stroke-miterlimit="10" />
    <path d="M116.47 193.225L97.4951 204.466" stroke="url(#paint11_linear_4689_6025)" stroke-width="7"
        stroke-miterlimit="10" />
    <path d="M124.842 224.695V298.616" stroke="url(#paint12_linear_4689_6025)" stroke-width="7" stroke-miterlimit="10"
        stroke-linecap="round" />
    <path d="M134.97 242.137V300.87" stroke="url(#paint13_linear_4689_6025)" stroke-width="7" stroke-miterlimit="10"
        stroke-linecap="round" />
    <path d="M145.096 271.962V302.365" stroke="url(#paint14_linear_4689_6025)" stroke-width="7" stroke-miterlimit="10"
        stroke-linecap="round" />
    <path d="M185.606 224.695V299.928" stroke="url(#paint15_linear_4689_6025)" stroke-width="7" stroke-miterlimit="10"
        stroke-linecap="round" />
    <path d="M175.479 242.137V300.87" stroke="url(#paint16_linear_4689_6025)" stroke-width="7" stroke-miterlimit="10"
        stroke-linecap="round" />
    <path d="M165.353 271.962V302.365" stroke="url(#paint17_linear_4689_6025)" stroke-width="7" stroke-miterlimit="10"
        stroke-linecap="round" />
    <path d="M155.225 212.72V303.639" stroke="url(#paint18_linear_4689_6025)" stroke-width="7" stroke-miterlimit="10" />
    <path
        d="M156.634 214.063C156.634 214.851 155.998 215.48 155.225 215.48C154.451 215.48 153.815 214.851 153.815 214.063C153.815 213.276 154.451 212.646 155.225 212.646C155.998 212.646 156.634 213.276 156.634 214.063Z"
        fill="#22B9F7" stroke="url(#paint19_linear_4689_6025)" stroke-width="7" />
    <path
        d="M166.76 271.052C166.76 271.84 166.124 272.469 165.351 272.469C164.577 272.469 163.941 271.84 163.941 271.052C163.941 270.265 164.577 269.636 165.351 269.636C166.124 269.636 166.76 270.265 166.76 271.052Z"
        fill="#179AE5" stroke="url(#paint20_linear_4689_6025)" stroke-width="7" />
    <path
        d="M176.888 241.483C176.888 242.27 176.252 242.9 175.479 242.9C174.705 242.9 174.069 242.27 174.069 241.483C174.069 240.695 174.705 240.066 175.479 240.066C176.252 240.066 176.888 240.695 176.888 241.483Z"
        fill="#1CA9EE" stroke="url(#paint21_linear_4689_6025)" stroke-width="7" />
    <path
        d="M187.015 223.475C187.015 224.263 186.379 224.892 185.606 224.892C184.832 224.892 184.196 224.263 184.196 223.475C184.196 222.688 184.832 222.058 185.606 222.058C186.379 222.058 187.015 222.688 187.015 223.475Z"
        fill="#21B8F6" stroke="url(#paint22_linear_4689_6025)" stroke-width="7" />
    <path
        d="M146.505 271.052C146.505 271.84 145.869 272.469 145.096 272.469C144.323 272.469 143.687 271.84 143.687 271.052C143.687 270.265 144.323 269.636 145.096 269.636C145.869 269.636 146.505 270.265 146.505 271.052Z"
        fill="#18A0E9" stroke="url(#paint23_linear_4689_6025)" stroke-width="7" />
    <path
        d="M136.377 241.483C136.377 242.27 135.741 242.9 134.968 242.9C134.195 242.9 133.559 242.27 133.559 241.483C133.559 240.695 134.195 240.066 134.968 240.066C135.741 240.066 136.377 240.695 136.377 241.483Z"
        fill="#1EAFF1" stroke="url(#paint24_linear_4689_6025)" stroke-width="7" />
    <path
        d="M126.251 223.475C126.251 224.263 125.615 224.892 124.842 224.892C124.069 224.892 123.433 224.263 123.433 223.475C123.433 222.688 124.069 222.058 124.842 222.058C125.615 222.058 126.251 222.688 126.251 223.475Z"
        fill="#23BBF8" stroke="url(#paint25_linear_4689_6025)" stroke-width="7" />
    <path d="M116.47 298.835V216.37L155.348 193.273L194.226 216.37V298.835" stroke="url(#paint26_linear_4689_6025)"
        stroke-width="7" stroke-miterlimit="10" />
    <path d="M155.611 55.8217V8L172.431 22.9488V38.3971L155.611 23.386" stroke="url(#paint27_linear_4689_6025)"
        stroke-width="7" stroke-miterlimit="10" />
    <path
        d="M174.062 156.084V161.229C174.062 161.523 174.3 161.762 174.594 161.762H175.11C175.404 161.762 175.642 161.523 175.642 161.229V156.084C175.642 155.789 175.404 155.551 175.11 155.551H174.594C174.3 155.551 174.062 155.789 174.062 156.084Z"
        fill="#42C4E6" stroke="#4AC3DE" stroke-width="7" stroke-miterlimit="10" />
    <path
        d="M175.675 160.979L177.128 162.039L178.933 163.353C179.106 163.527 178.976 164.053 178.767 164.262C178.683 164.361 178.564 164.423 178.435 164.435C178.306 164.446 178.178 164.407 178.078 164.325L174.245 161.611C174.071 161.438 174.918 160.822 175.126 160.613L175.297 160.6C175.508 160.389 175.503 160.807 175.675 160.979Z"
        fill="#42C4E6" stroke="#39C5EE" stroke-width="7" />
    <path
        d="M133.843 156.082V161.227C133.843 161.521 134.081 161.76 134.375 161.76H134.891C135.185 161.76 135.424 161.521 135.424 161.227V156.082C135.424 155.787 135.185 155.549 134.891 155.549H134.375C134.081 155.549 133.843 155.787 133.843 156.082Z"
        stroke="#60BFCA" stroke-width="7" stroke-miterlimit="10" />
    <path
        d="M134.501 160.727L138.798 160.351C138.928 160.353 139.052 160.405 139.144 160.497C139.236 160.589 139.288 160.713 139.289 160.843L139.334 161.359C139.355 161.487 139.325 161.619 139.251 161.726C139.176 161.832 139.063 161.905 138.935 161.929L134.638 162.305C134.391 162.326 133.92 161.751 133.895 161.458L134.102 161.297C134.08 161.169 134.11 161.037 134.185 160.93C134.259 160.824 134.373 160.751 134.501 160.727Z"
        stroke="#60BFCA" stroke-width="7" />
    <path
        d="M248.803 27.7185C274.987 46.9066 294.386 73.9508 304.186 104.928C313.986 135.904 313.677 169.202 303.303 199.991C292.93 230.78 273.032 257.458 246.496 276.155C219.96 294.852 188.167 304.595 155.728 303.972C123.289 303.348 91.8926 292.389 66.0928 272.686C40.293 252.983 21.4322 225.56 12.2463 194.395C3.0604 163.23 4.02742 129.945 15.007 99.3677C25.9865 68.7904 46.4071 42.5115 73.3071 24.3439"
        stroke="white" stroke-width="12" stroke-miterlimit="10" stroke-linecap="round" />
    <path
        d="M248.803 27.7185C274.987 46.9066 294.386 73.9508 304.186 104.928C313.986 135.904 313.677 169.202 303.303 199.991C292.93 230.78 273.032 257.458 246.496 276.155C219.96 294.852 188.167 304.595 155.728 303.972C123.289 303.348 91.8926 292.389 66.0928 272.686C40.293 252.983 21.4322 225.56 12.2463 194.395C3.0604 163.23 4.02742 129.945 15.007 99.3677C25.9865 68.7904 46.4071 42.5115 73.3071 24.3439"
        stroke="url(#paint28_linear_4689_6025)" stroke-width="12" stroke-miterlimit="10" stroke-linecap="round" />
    <defs>
        <linearGradient id="paint0_linear_4689_6025" x1="156" y1="-4.5" x2="282.25" y2="57.0131"
            gradientUnits="userSpaceOnUse">
            <stop offset="0.205" stop-color="#FFA734" />
            <stop offset="0.6" stop-color="#27C8FF" />
            <stop offset="0.905" stop-color="#169AE5" />
        </linearGradient>
        <linearGradient id="paint1_linear_4689_6025" x1="152" y1="1.5" x2="256.686" y2="274.056"
            gradientUnits="userSpaceOnUse">
            <stop offset="0.205" stop-color="#FFA734" />
            <stop offset="0.6" stop-color="#27C8FF" />
            <stop offset="0.905" stop-color="#169AE5" />
        </linearGradient>
        <linearGradient id="paint2_linear_4689_6025" x1="154" y1="2.5" x2="254.32" y2="275.046"
            gradientUnits="userSpaceOnUse">
            <stop offset="0.205" stop-color="#FFA734" />
            <stop offset="0.6" stop-color="#27C8FF" />
            <stop offset="0.905" stop-color="#169AE5" />
        </linearGradient>
        <linearGradient id="paint3_linear_4689_6025" x1="152.5" y1="2" x2="250.961" y2="273.729"
            gradientUnits="userSpaceOnUse">
            <stop offset="0.205" stop-color="#FFA734" />
            <stop offset="0.6" stop-color="#27C8FF" />
            <stop offset="0.905" stop-color="#169AE5" />
        </linearGradient>
        <linearGradient id="paint4_linear_4689_6025" x1="153" y1="0.499998" x2="255.542" y2="272.261"
            gradientUnits="userSpaceOnUse">
            <stop offset="0.205" stop-color="#FFA734" />
            <stop offset="0.6" stop-color="#27C8FF" />
            <stop offset="0.905" stop-color="#169AE5" />
        </linearGradient>
        <linearGradient id="paint5_linear_4689_6025" x1="151.5" y1="-0.500002" x2="309.635" y2="161.031"
            gradientUnits="userSpaceOnUse">
            <stop offset="0.205" stop-color="#FFA734" />
            <stop offset="0.6" stop-color="#27C8FF" />
            <stop offset="0.905" stop-color="#169AE5" />
        </linearGradient>
        <linearGradient id="paint6_linear_4689_6025" x1="155" y1="-1.5" x2="196.341" y2="3.81182"
            gradientUnits="userSpaceOnUse">
            <stop offset="0.205" stop-color="#FFA734" />
            <stop offset="0.6" stop-color="#27C8FF" />
            <stop offset="0.905" stop-color="#169AE5" />
        </linearGradient>
        <linearGradient id="paint7_linear_4689_6025" x1="155" y1="9.0029e-07" x2="252.534" y2="277.075"
            gradientUnits="userSpaceOnUse">
            <stop offset="0.205" stop-color="#FFA734" />
            <stop offset="0.6" stop-color="#27C8FF" />
            <stop offset="0.905" stop-color="#169AE5" />
        </linearGradient>
        <linearGradient id="paint8_linear_4689_6025" x1="153.5" y1="2" x2="309.558" y2="163.659"
            gradientUnits="userSpaceOnUse">
            <stop offset="0.205" stop-color="#FFA734" />
            <stop offset="0.6" stop-color="#27C8FF" />
            <stop offset="0.905" stop-color="#169AE5" />
        </linearGradient>
        <linearGradient id="paint9_linear_4689_6025" x1="155" y1="-3.5" x2="248.604" y2="278.983"
            gradientUnits="userSpaceOnUse">
            <stop offset="0.205" stop-color="#FFA734" />
            <stop offset="0.6" stop-color="#27C8FF" />
            <stop offset="0.905" stop-color="#169AE5" />
        </linearGradient>
        <linearGradient id="paint10_linear_4689_6025" x1="156" y1="2.50001" x2="273.054" y2="255.359"
            gradientUnits="userSpaceOnUse">
            <stop offset="0.205" stop-color="#FFA734" />
            <stop offset="0.6" stop-color="#27C8FF" />
            <stop offset="0.905" stop-color="#169AE5" />
        </linearGradient>
        <linearGradient id="paint11_linear_4689_6025" x1="156.5" y1="2.49999" x2="268.423" y2="261.942"
            gradientUnits="userSpaceOnUse">
            <stop offset="0.205" stop-color="#FFA734" />
            <stop offset="0.6" stop-color="#27C8FF" />
            <stop offset="0.905" stop-color="#169AE5" />
        </linearGradient>
        <linearGradient id="paint12_linear_4689_6025" x1="159.5" y1="7" x2="153" y2="309.5"
            gradientUnits="userSpaceOnUse">
            <stop offset="0.205" stop-color="#FFA734" />
            <stop offset="0.6" stop-color="#27C8FF" />
            <stop offset="0.905" stop-color="#169AE5" />
        </linearGradient>
        <linearGradient id="paint13_linear_4689_6025" x1="154" y1="-1.49996" x2="191.007" y2="4.60918"
            gradientUnits="userSpaceOnUse">
            <stop offset="0.205" stop-color="#FFA734" />
            <stop offset="0.6" stop-color="#27C8FF" />
            <stop offset="0.905" stop-color="#169AE5" />
        </linearGradient>
        <linearGradient id="paint14_linear_4689_6025" x1="152" y1="2.00002" x2="222.235" y2="17.5331"
            gradientUnits="userSpaceOnUse">
            <stop offset="0.205" stop-color="#FFA734" />
            <stop offset="0.6" stop-color="#27C8FF" />
            <stop offset="0.905" stop-color="#169AE5" />
        </linearGradient>
        <linearGradient id="paint15_linear_4689_6025" x1="150.5" y1="-5.00003" x2="180.652" y2="-2.43201"
            gradientUnits="userSpaceOnUse">
            <stop offset="0.205" stop-color="#FFA734" />
            <stop offset="0.6" stop-color="#27C8FF" />
            <stop offset="0.905" stop-color="#169AE5" />
        </linearGradient>
        <linearGradient id="paint16_linear_4689_6025" x1="153.5" y1="-3.00001" x2="191.712" y2="1.34511"
            gradientUnits="userSpaceOnUse">
            <stop offset="0.205" stop-color="#FFA734" />
            <stop offset="0.6" stop-color="#27C8FF" />
            <stop offset="0.905" stop-color="#169AE5" />
        </linearGradient>
        <linearGradient id="paint17_linear_4689_6025" x1="154.5" y1="3.50003" x2="223.952" y2="19.3229"
            gradientUnits="userSpaceOnUse">
            <stop offset="0.205" stop-color="#FFA734" />
            <stop offset="0.6" stop-color="#27C8FF" />
            <stop offset="0.905" stop-color="#169AE5" />
        </linearGradient>
        <linearGradient id="paint18_linear_4689_6025" x1="151.5" y1="0.49999" x2="175.926" y2="2.16851"
            gradientUnits="userSpaceOnUse">
            <stop offset="0.205" stop-color="#FFA734" />
            <stop offset="0.6" stop-color="#27C8FF" />
            <stop offset="0.905" stop-color="#169AE5" />
        </linearGradient>
        <linearGradient id="paint19_linear_4689_6025" x1="150" y1="2.5" x2="246.696" y2="275.524"
            gradientUnits="userSpaceOnUse">
            <stop offset="0.205" stop-color="#FFA734" />
            <stop offset="0.6" stop-color="#27C8FF" />
            <stop offset="0.905" stop-color="#169AE5" />
        </linearGradient>
        <linearGradient id="paint20_linear_4689_6025" x1="157.5" y1="8.49999" x2="256.577" y2="273.725"
            gradientUnits="userSpaceOnUse">
            <stop offset="0.205" stop-color="#FFA734" />
            <stop offset="0.6" stop-color="#27C8FF" />
            <stop offset="0.905" stop-color="#169AE5" />
        </linearGradient>
        <linearGradient id="paint21_linear_4689_6025" x1="152" y1="-0.500002" x2="250.048" y2="273.57"
            gradientUnits="userSpaceOnUse">
            <stop offset="0.205" stop-color="#FFA734" />
            <stop offset="0.6" stop-color="#27C8FF" />
            <stop offset="0.905" stop-color="#169AE5" />
        </linearGradient>
        <linearGradient id="paint22_linear_4689_6025" x1="181" y1="34.5" x2="266.227" y2="273.376"
            gradientUnits="userSpaceOnUse">
            <stop offset="0.205" stop-color="#FFA734" />
            <stop offset="0.6" stop-color="#27C8FF" />
            <stop offset="0.905" stop-color="#169AE5" />
        </linearGradient>
        <linearGradient id="paint23_linear_4689_6025" x1="156" y1="3.50001" x2="247.599" y2="276.236"
            gradientUnits="userSpaceOnUse">
            <stop offset="0.205" stop-color="#FFA734" />
            <stop offset="0.6" stop-color="#27C8FF" />
            <stop offset="0.905" stop-color="#169AE5" />
        </linearGradient>
        <linearGradient id="paint24_linear_4689_6025" x1="155" y1="-1.49999" x2="252.451" y2="273.771"
            gradientUnits="userSpaceOnUse">
            <stop offset="0.205" stop-color="#FFA734" />
            <stop offset="0.6" stop-color="#27C8FF" />
            <stop offset="0.905" stop-color="#169AE5" />
        </linearGradient>
        <linearGradient id="paint25_linear_4689_6025" x1="155.5" y1="1.99998" x2="250.852" y2="276.976"
            gradientUnits="userSpaceOnUse">
            <stop offset="0.205" stop-color="#FFA734" />
            <stop offset="0.6" stop-color="#27C8FF" />
            <stop offset="0.905" stop-color="#169AE5" />
        </linearGradient>
        <linearGradient id="paint26_linear_4689_6025" x1="155" y1="3.5" x2="245.85" y2="276.238"
            gradientUnits="userSpaceOnUse">
            <stop offset="0.205" stop-color="#FFA734" />
            <stop offset="0.6" stop-color="#27C8FF" />
            <stop offset="0.905" stop-color="#169AE5" />
        </linearGradient>
        <linearGradient id="paint27_linear_4689_6025" x1="156" y1="-7.5" x2="278.175" y2="250.583"
            gradientUnits="userSpaceOnUse">
            <stop offset="0.205" stop-color="#FFA734" />
            <stop offset="0.6" stop-color="#27C8FF" />
            <stop offset="0.905" stop-color="#169AE5" />
        </linearGradient>
        <linearGradient id="paint28_linear_4689_6025" x1="159" y1="-26" x2="203.573" y2="336.232"
            gradientUnits="userSpaceOnUse">
            <stop offset="0.205" stop-color="#FFA734" />
            <stop offset="0.6" stop-color="#27C8FF" />
            <stop offset="0.905" stop-color="#169AE5" />
        </linearGradient>
    </defs>
</svg>