<svg width="914" height="732" viewBox="0 0 914 732" fill="none" xmlns="http://www.w3.org/2000/svg">
<path d="M472.911 471.987L444.44 483.798L913.954 731.342V660.967L472.911 471.987Z" fill="#6A9B9B"/>
<path d="M25.1117 37.1072L1.5459 21.646H482.134V37.1072H25.1117Z" fill="#9A9A9A"/>
<g filter="url(#filter0_d_4582_5839)">
<path d="M444.273 482.014V37.1076H475.179V482.014C463.625 485.782 456.809 485.432 444.273 482.014Z" fill="#CECECE"/>
</g>
<rect x="444.273" y="270.572" width="248.926" height="30.906" transform="rotate(-90 444.273 270.572)" fill="#CECECE"/>
<g filter="url(#filter1_d_4582_5839)">
<path d="M445.045 143.79L322.967 19.3269H356.168L445.045 111.112V143.79Z" fill="#CECECE"/>
</g>
<rect width="482.133" height="21.6457" fill="#CECECE"/>
<g filter="url(#filter2_d_4582_5839)">
<rect x="57.1768" y="29.377" width="20.0889" height="31.6955" fill="#191C42"/>
</g>
<g filter="url(#filter3_d_4582_5839)">
<rect x="282.017" y="29.377" width="20.0889" height="31.6955" fill="#191C42"/>
</g>
<g filter="url(#filter4_d_4582_5839)">
<rect x="1.5459" y="61.0721" width="330.694" height="119.825" fill="#434C83"/>
</g>
<rect x="119.761" y="75.761" width="203.207" height="98.1788" fill="#191C42"/>
<rect x="129.805" y="91.2218" width="182.345" height="21.6457" fill="#191C42"/>
<rect x="138.304" y="85.0376" width="166.12" height="21.6457" fill="white"/>
<rect x="138.304" y="114.414" width="166.12" height="21.6457" fill="white"/>
<rect x="138.304" y="143.79" width="166.12" height="21.6457" fill="white"/>
<g filter="url(#filter5_di_4582_5839)">
<ellipse cx="31.6827" cy="31.6914" rx="31.6827" ry="31.6914" transform="matrix(0.869555 0.493837 -0.493438 0.869781 45.2637 79.7068)" fill="white"/>
</g>
<path d="M36.3145 117.119L56.017 126.783L73.0153 105.91" stroke="#191C42" stroke-width="3.86002"/>
<g filter="url(#filter6_d_4582_5839)">
<path d="M146.091 101.534C145.757 101.534 145.43 101.477 145.111 101.364C144.797 101.256 144.509 101.089 144.249 100.863L144.905 100.067C145.062 100.2 145.241 100.305 145.443 100.384C145.644 100.462 145.86 100.502 146.091 100.502C146.435 100.502 146.747 100.411 147.027 100.229C147.307 100.042 147.531 99.8017 147.698 99.5069C147.87 99.2072 147.956 98.8879 147.956 98.5489V91.0245H148.988V98.5489C148.988 99.0795 148.857 99.5708 148.597 100.023C148.337 100.475 147.988 100.841 147.55 101.121C147.113 101.396 146.627 101.534 146.091 101.534ZM154.211 91.0245H155.493L159.251 101.342H158.153L157.35 99.131H152.361L151.558 101.342H150.459L154.211 91.0245ZM152.737 98.0993H156.967L154.852 92.2921L152.737 98.0993ZM160.628 101.342V91.0245H161.749L167.195 99.4774V91.0245H168.226V101.342H167.114L161.66 92.889V101.342H160.628ZM174.35 101.342V92.0563H173.245L173.539 91.0245H175.382V101.342H174.35ZM177.595 101.342L182.945 92.0563H176.851V91.0245H184.139V92.0563L178.774 101.342H177.595ZM188.854 96.4043H193.571V97.436H188.854V96.4043ZM202.888 101.534C202.063 101.534 201.351 101.332 200.751 100.929C200.152 100.526 199.69 99.9859 199.366 99.3079C199.046 98.625 198.887 97.8684 198.887 97.0381V91.0245H199.919V97.0381C199.919 97.667 200.034 98.2442 200.265 98.7699C200.496 99.2956 200.832 99.7157 201.275 100.03C201.717 100.345 202.255 100.502 202.888 100.502C203.537 100.502 204.08 100.345 204.517 100.03C204.959 99.7108 205.293 99.2883 205.519 98.7626C205.745 98.2369 205.858 97.662 205.858 97.0381V91.0245H206.89V97.0381C206.89 97.662 206.797 98.2467 206.61 98.792C206.428 99.3325 206.163 99.809 205.814 100.222C205.47 100.634 205.05 100.956 204.554 101.187C204.063 101.418 203.507 101.534 202.888 101.534ZM213.45 101.534C212.753 101.534 212.097 101.396 211.483 101.121C210.868 100.841 210.328 100.455 209.861 99.9638C209.395 99.4725 209.029 98.905 208.763 98.2614C208.498 97.6129 208.365 96.9202 208.365 96.1832C208.365 95.4463 208.498 94.756 208.763 94.1124C209.029 93.4638 209.395 92.8939 209.861 92.4026C210.328 91.9113 210.868 91.5281 211.483 91.253C212.097 90.9729 212.753 90.8329 213.45 90.8329C214.153 90.8329 214.811 90.9729 215.425 91.253C216.039 91.5281 216.58 91.9113 217.047 92.4026C217.513 92.8939 217.877 93.4638 218.137 94.1124C218.403 94.756 218.535 95.4463 218.535 96.1832C218.535 96.9202 218.403 97.6129 218.137 98.2614C217.877 98.905 217.513 99.4725 217.047 99.9638C216.58 100.455 216.039 100.841 215.425 101.121C214.811 101.396 214.153 101.534 213.45 101.534ZM213.45 100.502C214.015 100.502 214.541 100.389 215.027 100.163C215.519 99.9319 215.949 99.6174 216.317 99.2195C216.69 98.8215 216.98 98.3622 217.187 97.8414C217.398 97.3206 217.504 96.7679 217.504 96.1832C217.504 95.5937 217.398 95.0385 217.187 94.5177C216.975 93.992 216.683 93.5326 216.31 93.1396C215.941 92.7416 215.511 92.4297 215.02 92.2037C214.534 91.9777 214.01 91.8647 213.45 91.8647C212.885 91.8647 212.357 91.9801 211.866 92.211C211.379 92.437 210.95 92.749 210.576 93.147C210.208 93.5449 209.918 94.0043 209.707 94.5251C209.5 95.0458 209.397 95.5986 209.397 96.1832C209.397 96.7777 209.503 97.3353 209.714 97.8561C209.925 98.3769 210.215 98.8363 210.584 99.2342C210.957 99.6322 211.387 99.9442 211.873 100.17C212.365 100.391 212.89 100.502 213.45 100.502ZM227.217 91.0245V92.0563H223.679V101.342H222.647V92.0563H219.117V91.0245H227.217ZM236.5 91.0245V92.0563H232.963V101.342H231.931V92.0563H228.401V91.0245H236.5ZM240.155 91.0245H241.438L245.196 101.342H244.098L243.295 99.131H238.306L237.502 101.342H236.404L240.155 91.0245ZM238.681 98.0993H242.912L240.796 92.2921L238.681 98.0993ZM253.021 91.0245H254.053V101.342H253.021V96.3306H247.605V101.342H246.573V91.0245H247.605V95.2989H253.021V91.0245ZM259.285 91.0245H260.567L264.325 101.342H263.227L262.424 99.131H257.435L256.631 101.342H255.533L259.285 91.0245ZM257.811 98.0993H262.041L259.926 92.2921L257.811 98.0993ZM269.988 101.534C269.291 101.534 268.635 101.396 268.021 101.121C267.407 100.841 266.866 100.458 266.399 99.9712C265.938 99.4799 265.574 98.91 265.309 98.2614C265.048 97.6129 264.918 96.9202 264.918 96.1832C264.918 95.4463 265.048 94.7535 265.309 94.105C265.574 93.4565 265.938 92.889 266.399 92.4026C266.866 91.9113 267.407 91.5281 268.021 91.253C268.635 90.9729 269.291 90.8329 269.988 90.8329C270.824 90.8329 271.592 91.027 272.295 91.4151C272.998 91.8032 273.58 92.3191 274.042 92.9627L273.128 93.4565C272.764 92.9701 272.302 92.5844 271.742 92.2995C271.187 92.0096 270.603 91.8647 269.988 91.8647C269.423 91.8647 268.895 91.9801 268.404 92.211C267.918 92.437 267.49 92.749 267.122 93.147C266.753 93.5449 266.466 94.0043 266.259 94.5251C266.053 95.0458 265.95 95.5986 265.95 96.1832C265.95 96.7777 266.053 97.3353 266.259 97.8561C266.471 98.3769 266.761 98.8363 267.129 99.2342C267.502 99.6322 267.932 99.9442 268.419 100.17C268.91 100.391 269.433 100.502 269.988 100.502C270.627 100.502 271.219 100.357 271.764 100.067C272.315 99.7722 272.769 99.389 273.128 98.9173L274.042 99.4111C273.58 100.055 272.998 100.571 272.295 100.959C271.592 101.342 270.824 101.534 269.988 101.534ZM282.187 101.342H280.853L277.471 96.7065L276.594 97.7603V101.342H275.562V91.0245H276.594V96.1537L280.89 91.0245H282.239L278.149 95.8958L282.187 101.342ZM287.117 101.342L292.467 92.0563H286.372V91.0245H293.661V92.0563L288.296 101.342H287.117Z" fill="#1A2399"/>
</g>
<g filter="url(#filter7_d_4582_5839)">
<path d="M142.967 130.875C143.075 131.042 143.232 131.17 143.438 131.258C143.635 131.356 143.866 131.405 144.131 131.405C144.357 131.405 144.578 131.302 144.794 131.096C145.02 130.899 145.133 130.56 145.133 130.079V119.025H146.312V130.226C146.312 130.629 146.258 130.978 146.15 131.273C146.052 131.568 145.905 131.813 145.708 132.01C145.512 132.206 145.271 132.349 144.986 132.437C144.711 132.535 144.401 132.585 144.057 132.585C143.802 132.585 143.556 132.54 143.32 132.452C143.075 132.373 142.868 132.275 142.701 132.157C142.524 132.049 142.397 131.946 142.318 131.848L142.967 130.875ZM149.662 126.247L150.104 125.068H154.673L155.115 126.247H149.662ZM152.359 121.353L150.62 125.451L150.502 125.716L148.969 129.342H147.569L152.359 118.509L157.149 129.342H155.749L154.245 125.805L154.128 125.51L152.359 121.353ZM166.216 119.025H167.469V129.858L159.657 121.663V129.342H158.404V118.509L166.216 126.704V119.025ZM174.252 121.059V119.761L177.789 118.877V129.342H176.536V120.381L174.252 121.059ZM180.887 121.515C180.887 121.024 181.01 120.582 181.256 120.189C181.511 119.786 181.85 119.467 182.273 119.231C182.705 118.995 183.191 118.877 183.732 118.877C184.272 118.877 184.754 118.995 185.176 119.231C185.609 119.467 185.948 119.786 186.193 120.189C186.449 120.582 186.576 121.024 186.576 121.515C186.576 121.918 186.508 122.282 186.37 122.606C186.233 122.921 186.036 123.191 185.781 123.417C185.535 123.643 185.235 123.815 184.881 123.933C184.538 124.051 184.154 124.11 183.732 124.11C183.309 124.11 182.921 124.051 182.567 123.933C182.224 123.815 181.924 123.643 181.668 123.417C181.423 123.191 181.231 122.921 181.094 122.606C180.956 122.282 180.887 121.918 180.887 121.515ZM182.081 121.663C182.081 121.987 182.155 122.272 182.302 122.518C182.459 122.763 182.661 122.955 182.906 123.093C183.162 123.23 183.437 123.299 183.732 123.299C184.027 123.299 184.297 123.23 184.542 123.093C184.798 122.955 184.999 122.763 185.147 122.518C185.304 122.272 185.383 121.987 185.383 121.663C185.383 121.339 185.309 121.049 185.162 120.793C185.024 120.538 184.832 120.341 184.587 120.204C184.341 120.056 184.056 119.983 183.732 119.983C183.417 119.983 183.132 120.056 182.877 120.204C182.631 120.341 182.435 120.538 182.287 120.793C182.15 121.049 182.081 121.339 182.081 121.663ZM180.519 126.541C180.519 126.07 180.602 125.652 180.769 125.289C180.946 124.915 181.182 124.606 181.477 124.36C181.781 124.105 182.125 123.913 182.508 123.785C182.902 123.658 183.309 123.594 183.732 123.594C184.154 123.594 184.557 123.658 184.94 123.785C185.333 123.913 185.677 124.105 185.972 124.36C186.277 124.606 186.513 124.915 186.68 125.289C186.857 125.652 186.945 126.07 186.945 126.541C186.945 126.944 186.861 127.323 186.694 127.676C186.537 128.03 186.311 128.345 186.016 128.62C185.731 128.895 185.392 129.111 184.999 129.268C184.616 129.416 184.194 129.489 183.732 129.489C183.27 129.489 182.843 129.416 182.45 129.268C182.066 129.111 181.727 128.895 181.433 128.62C181.148 128.345 180.922 128.03 180.755 127.676C180.597 127.323 180.519 126.944 180.519 126.541ZM181.713 126.394C181.713 126.817 181.806 127.175 181.993 127.47C182.189 127.765 182.44 127.991 182.744 128.148C183.059 128.305 183.388 128.384 183.732 128.384C184.076 128.384 184.4 128.305 184.705 128.148C185.019 127.991 185.27 127.765 185.456 127.47C185.653 127.175 185.751 126.817 185.751 126.394C185.751 126.021 185.653 125.687 185.456 125.392C185.27 125.087 185.019 124.846 184.705 124.67C184.4 124.493 184.076 124.404 183.732 124.404C183.388 124.404 183.059 124.493 182.744 124.67C182.44 124.846 182.189 125.087 181.993 125.392C181.806 125.687 181.713 126.021 181.713 126.394ZM192.247 126.394V125.289H195.194V126.394H192.247ZM200.792 119.025H202.045V125.952C202.045 126.659 202.236 127.229 202.62 127.662C203.003 128.094 203.563 128.31 204.3 128.31C205.037 128.31 205.597 128.094 205.98 127.662C206.363 127.229 206.555 126.659 206.555 125.952V119.025H207.808V125.952C207.808 126.463 207.724 126.935 207.557 127.367C207.4 127.799 207.164 128.173 206.85 128.487C206.545 128.801 206.177 129.047 205.744 129.224C205.312 129.401 204.83 129.489 204.3 129.489C203.769 129.489 203.288 129.401 202.855 129.224C202.423 129.047 202.05 128.801 201.735 128.487C201.431 128.173 201.195 127.799 201.028 127.367C200.871 126.935 200.792 126.463 200.792 125.952V119.025ZM210.829 124.183C210.829 124.959 210.996 125.652 211.33 126.261C211.674 126.871 212.141 127.352 212.73 127.706C213.32 128.06 213.988 128.236 214.735 128.236C215.491 128.236 216.16 128.06 216.739 127.706C217.329 127.352 217.791 126.871 218.125 126.261C218.469 125.652 218.641 124.959 218.641 124.183C218.641 123.407 218.469 122.714 218.125 122.105C217.791 121.496 217.329 121.014 216.739 120.661C216.16 120.307 215.491 120.13 214.735 120.13C213.988 120.13 213.32 120.307 212.73 120.661C212.141 121.014 211.674 121.496 211.33 122.105C210.996 122.714 210.829 123.407 210.829 124.183ZM209.502 124.183C209.502 123.427 209.63 122.729 209.886 122.09C210.151 121.442 210.519 120.882 210.991 120.41C211.463 119.929 212.018 119.555 212.657 119.29C213.295 119.015 213.988 118.877 214.735 118.877C215.491 118.877 216.184 119.015 216.813 119.29C217.452 119.555 218.007 119.929 218.479 120.41C218.95 120.882 219.314 121.442 219.569 122.09C219.835 122.729 219.967 123.427 219.967 124.183C219.967 124.93 219.835 125.628 219.569 126.276C219.314 126.925 218.95 127.49 218.479 127.971C218.007 128.443 217.452 128.816 216.813 129.091C216.184 129.357 215.491 129.489 214.735 129.489C213.988 129.489 213.295 129.357 212.657 129.091C212.018 128.816 211.463 128.443 210.991 127.971C210.519 127.49 210.151 126.925 209.886 126.276C209.63 125.628 209.502 124.93 209.502 124.183ZM220.259 120.204V119.025H226.817V120.204H224.164V129.342H222.912V120.204H220.259ZM227.556 120.204V119.025H234.115V120.204H231.462V129.342H230.209V120.204H227.556ZM234.959 126.247L235.401 125.068H239.97L240.412 126.247H234.959ZM237.656 121.353L235.917 125.451L235.799 125.716L234.266 129.342H232.866L237.656 118.509L242.446 129.342H241.046L239.542 125.805L239.425 125.51L237.656 121.353ZM244.394 124.331V123.151H251.469V124.331H244.394ZM250.629 119.025H251.881V129.342H250.629V119.025ZM243.701 119.025H244.954V129.342H243.701V119.025ZM255.225 126.247L255.667 125.068H260.236L260.678 126.247H255.225ZM257.922 121.353L256.183 125.451L256.065 125.716L254.532 129.342H253.132L257.922 118.509L262.712 129.342H261.312L259.809 125.805L259.691 125.51L257.922 121.353ZM264.258 124.183C264.258 124.979 264.435 125.682 264.789 126.291C265.152 126.9 265.624 127.377 266.204 127.721C266.784 128.065 267.412 128.236 268.09 128.236C268.582 128.236 269.029 128.173 269.432 128.045C269.844 127.917 270.218 127.74 270.552 127.514C270.886 127.278 271.171 127.008 271.407 126.704V128.354C270.974 128.738 270.503 129.023 269.992 129.209C269.481 129.396 268.847 129.489 268.09 129.489C267.373 129.489 266.7 129.362 266.071 129.106C265.452 128.841 264.907 128.472 264.435 128.001C263.964 127.519 263.595 126.954 263.33 126.306C263.064 125.657 262.932 124.95 262.932 124.183C262.932 123.417 263.064 122.709 263.33 122.061C263.595 121.412 263.964 120.852 264.435 120.381C264.907 119.899 265.452 119.531 266.071 119.275C266.7 119.01 267.373 118.877 268.09 118.877C268.847 118.877 269.481 118.97 269.992 119.157C270.503 119.344 270.974 119.629 271.407 120.012V121.663C271.171 121.358 270.886 121.093 270.552 120.867C270.218 120.631 269.844 120.449 269.432 120.322C269.029 120.194 268.582 120.13 268.09 120.13C267.412 120.13 266.784 120.302 266.204 120.646C265.624 120.99 265.152 121.466 264.789 122.076C264.435 122.675 264.258 123.377 264.258 124.183ZM273.611 119.025H274.864V129.342H273.611V119.025ZM278.917 119.025H280.465L275.999 123.859L280.686 129.342H279.138L274.481 123.888L278.917 119.025ZM285.627 120.204V119.025H292.849L287.912 129.342H286.6L290.977 120.204H285.627Z" fill="#191C42"/>
</g>
<g filter="url(#filter8_d_4582_5839)">
<path d="M145.121 159.489C144.787 159.489 144.443 159.445 144.089 159.357C143.745 159.278 143.485 159.19 143.308 159.091C143.308 158.826 143.342 158.63 143.411 158.502C143.49 158.374 143.588 158.31 143.706 158.31C143.745 158.31 143.912 158.354 144.207 158.443C144.502 158.531 144.816 158.575 145.15 158.575C146.31 158.575 146.889 157.932 146.889 156.645V149.025H147.951V156.645C147.951 157.529 147.695 158.227 147.184 158.738C146.683 159.239 145.995 159.489 145.121 159.489ZM157.071 159.342C156.805 158.123 156.555 157.126 156.319 156.35H151.308C151.072 157.126 150.821 158.123 150.556 159.342H149.465C149.976 157.239 150.531 155.372 151.131 153.741C151.73 152.1 152.443 150.528 153.268 149.025H154.373C155.189 150.518 155.896 152.085 156.496 153.726C157.095 155.357 157.65 157.229 158.161 159.342H157.071ZM156.068 155.466C155.469 153.559 154.717 151.771 153.813 150.1C152.909 151.771 152.158 153.559 151.558 155.466H156.068ZM167.228 157.323C167.228 157.627 167.237 157.986 167.257 158.399C167.277 158.674 167.287 158.856 167.287 158.944C167.287 159.209 167.159 159.342 166.903 159.342H166.166V158.546C166.166 157.976 165.975 157.431 165.592 156.91L160.713 150.484V159.342H159.652V149.025H160.507C160.634 149.025 160.733 149.044 160.801 149.083C160.88 149.113 160.968 149.192 161.067 149.319L166.166 156.026V149.025H167.228V157.323ZM177.991 158.531V159.342H173.51V158.531H175.308V150.248C175.053 150.464 174.758 150.656 174.424 150.823C174.1 150.98 173.815 151.059 173.569 151.059C173.392 151.059 173.255 151.014 173.156 150.926C173.068 150.828 173.024 150.715 173.024 150.587C173.024 150.489 173.048 150.4 173.097 150.322C173.49 150.282 173.908 150.155 174.35 149.938C174.792 149.712 175.21 149.408 175.603 149.025H176.266V158.531H177.991ZM183.164 149.025C184.412 149.025 185.311 149.422 185.861 150.218C186.411 151.014 186.687 152.041 186.687 153.299C186.687 154.429 186.461 155.466 186.009 156.409C185.566 157.342 184.972 158.084 184.225 158.634C183.488 159.175 182.707 159.445 181.882 159.445C181.39 159.445 181.145 159.17 181.145 158.62C182.275 158.62 183.223 158.286 183.989 157.617C184.766 156.939 185.286 156.035 185.552 154.905C185.277 155.131 184.928 155.323 184.505 155.48C184.083 155.637 183.655 155.716 183.223 155.716C182.545 155.716 181.95 155.583 181.439 155.318C180.938 155.043 180.55 154.66 180.275 154.168C180 153.667 179.862 153.088 179.862 152.429C179.862 151.791 180.005 151.211 180.29 150.69C180.585 150.169 180.983 149.761 181.484 149.467C181.985 149.172 182.545 149.025 183.164 149.025ZM183.223 154.846C183.754 154.846 184.225 154.743 184.638 154.537C185.06 154.321 185.419 154.031 185.714 153.667C185.724 153.589 185.729 153.466 185.729 153.299C185.729 152.297 185.532 151.481 185.139 150.852C184.746 150.213 184.078 149.894 183.134 149.894C182.398 149.894 181.828 150.14 181.425 150.631C181.022 151.113 180.82 151.712 180.82 152.429C180.82 153.245 181.027 153.854 181.439 154.257C181.852 154.65 182.447 154.846 183.223 154.846ZM192.316 154.375H197.622V155.259H192.316V154.375ZM207.561 159.489C206.215 159.489 205.212 159.175 204.554 158.546C203.906 157.907 203.581 156.939 203.581 155.642V149.025H204.642V155.79C204.642 156.743 204.878 157.445 205.35 157.897C205.822 158.349 206.559 158.575 207.561 158.575C208.573 158.575 209.31 158.354 209.772 157.912C210.234 157.46 210.464 156.753 210.464 155.79V149.025H211.526V155.642C211.526 156.959 211.206 157.932 210.568 158.561C209.929 159.18 208.927 159.489 207.561 159.489ZM217.76 159.489C216.375 159.489 215.309 159.027 214.562 158.104C213.825 157.18 213.457 155.854 213.457 154.124C213.457 152.434 213.825 151.137 214.562 150.233C215.309 149.329 216.375 148.877 217.76 148.877C219.146 148.877 220.207 149.329 220.944 150.233C221.691 151.137 222.064 152.434 222.064 154.124C222.064 155.854 221.691 157.18 220.944 158.104C220.207 159.027 219.146 159.489 217.76 159.489ZM217.76 158.546C218.822 158.546 219.622 158.178 220.163 157.441C220.703 156.694 220.974 155.588 220.974 154.124C220.974 151.255 219.903 149.82 217.76 149.82C215.618 149.82 214.547 151.255 214.547 154.124C214.547 155.588 214.818 156.694 215.358 157.441C215.898 158.178 216.699 158.546 217.76 158.546ZM230.417 149.025C230.456 149.201 230.476 149.319 230.476 149.378C230.476 149.545 230.431 149.678 230.343 149.776C230.255 149.865 230.122 149.909 229.945 149.909H227.233V159.342H226.172V149.909H222.988V149.025H230.417ZM238.29 149.025C238.329 149.201 238.349 149.319 238.349 149.378C238.349 149.545 238.305 149.678 238.216 149.776C238.128 149.865 237.995 149.909 237.818 149.909H235.106V159.342H234.045V149.909H230.862V149.025H238.29ZM245.606 159.342C245.341 158.123 245.09 157.126 244.855 156.35H239.843C239.607 157.126 239.357 158.123 239.092 159.342H238.001C238.512 157.239 239.067 155.372 239.666 153.741C240.266 152.1 240.978 150.528 241.804 149.025H242.909C243.725 150.518 244.432 152.085 245.031 153.726C245.631 155.357 246.186 157.229 246.697 159.342H245.606ZM244.604 155.466C244.005 153.559 243.253 151.771 242.349 150.1C241.445 151.771 240.693 153.559 240.094 155.466H244.604ZM255.675 149.025V159.342H254.614V154.478H249.249V159.342H248.187V149.025H249.249V153.594H254.614V149.025H255.675ZM264.764 159.342C264.499 158.123 264.248 157.126 264.013 156.35H259.001C258.765 157.126 258.515 158.123 258.25 159.342H257.159C257.67 157.239 258.225 155.372 258.824 153.741C259.424 152.1 260.136 150.528 260.962 149.025H262.067C262.883 150.518 263.59 152.085 264.189 153.726C264.789 155.357 265.344 157.229 265.855 159.342H264.764ZM263.762 155.466C263.163 153.559 262.411 151.771 261.507 150.1C260.603 151.771 259.851 153.559 259.252 155.466H263.762ZM271.266 159.489C269.861 159.489 268.77 159.027 267.994 158.104C267.227 157.18 266.844 155.873 266.844 154.183C266.844 152.483 267.227 151.176 267.994 150.263C268.76 149.339 269.851 148.877 271.266 148.877C271.836 148.877 272.366 148.975 272.858 149.172C273.349 149.359 273.772 149.639 274.125 150.012C274.066 150.199 273.983 150.341 273.875 150.439C273.767 150.538 273.644 150.587 273.506 150.587C273.369 150.587 273.241 150.543 273.123 150.454C272.592 150.042 271.964 149.835 271.236 149.835C270.156 149.835 269.335 150.204 268.775 150.941C268.215 151.678 267.935 152.758 267.935 154.183C267.935 155.598 268.215 156.674 268.775 157.411C269.335 158.148 270.156 158.517 271.236 158.517C271.698 158.517 272.111 158.453 272.475 158.325C272.848 158.197 273.216 157.986 273.58 157.691C273.708 157.701 273.816 157.755 273.904 157.853C273.993 157.942 274.037 158.055 274.037 158.192C274.037 158.418 273.904 158.63 273.639 158.826C273.383 159.023 273.04 159.185 272.607 159.312C272.185 159.43 271.738 159.489 271.266 159.489ZM283.48 159.298C283.284 159.406 283.073 159.46 282.847 159.46C282.67 159.46 282.527 159.425 282.419 159.357C282.321 159.298 282.218 159.185 282.11 159.018L279.869 155.392C279.643 155.028 279.402 154.788 279.147 154.67C278.901 154.542 278.508 154.478 277.968 154.478H277.393V159.342H276.332V149.025H277.393V153.564H278.263C278.44 153.564 278.572 153.569 278.661 153.579L282.139 149.025H283.362L279.604 153.874C280.017 154.1 280.41 154.503 280.783 155.082L283.48 159.298ZM294.375 149.025V149.526C293.294 151.353 292.537 152.921 292.105 154.227C291.683 155.524 291.432 156.876 291.353 158.281L291.294 159.342H290.823C290.4 159.342 290.194 159.126 290.204 158.693L290.218 158.178C290.258 156.88 290.543 155.51 291.073 154.065C291.614 152.611 292.341 151.216 293.255 149.879H288.995C288.582 149.879 288.376 149.698 288.376 149.334C288.376 149.246 288.391 149.142 288.42 149.025H294.375Z" fill="#1A2399"/>
</g>
<path d="M66.0094 560.712L48.0068 468.675H96.0137L127.608 531.2H137.02L111.516 486.182H146.521L174.873 531.135C177.892 531.058 183.148 530.916 190.027 530.727L159.023 476.678H181.224L219.854 529.898C222.836 529.815 225.901 529.729 229.033 529.641L181.224 457.67H204.529L256.48 528.869C258.66 528.807 260.847 528.745 263.038 528.683L211.53 457.67H229.033L291.542 527.877L301.543 527.593L235.034 457.67H257.537L315.045 514.193L327.196 526.865C329.21 526.807 331.163 526.752 333.048 526.698L341.549 535.702L335.845 535.884L362.052 563.213H336.548L310.485 536.693L300.838 537.001L327.547 563.213H291.542L270.539 537.967L263.31 538.229L281.54 563.213H254.536L236.3 539.208L226.859 539.55L244.035 563.213H211.53L193.528 540.758L181.224 541.204L193.528 560.712H150.521L139.52 535.702H129.883L142.52 560.712H66.0094Z" fill="#80ABA8"/>
<path d="M210.53 485.682L289.041 483.181L282.541 475.677H210.53V485.682Z" fill="#80ABA8"/>
<g filter="url(#filter9_d_4582_5839)">
<rect width="7.70465" height="124.227" transform="matrix(0.998516 0.0544564 -0.0544281 0.998518 144.468 313.612)" fill="#6086A2"/>
</g>
<g filter="url(#filter10_d_4582_5839)">
<rect width="8.64549" height="147.311" transform="matrix(0.996921 0.0784083 -0.0783677 0.996925 206.044 315.613)" fill="#6086A2"/>
</g>
<rect x="61.582" y="459.832" width="145.155" height="19.8465" fill="#8EAABF"/>
<path d="M61.582 479.678H206.737V479.678C206.737 483.14 203.931 485.946 200.469 485.946H67.8493C64.388 485.946 61.582 483.14 61.582 479.678V479.678Z" fill="#6590A0"/>
<path d="M132.593 390.369H103.354L164.966 456.698H211.958L132.593 390.369Z" fill="#357DAF"/>
<rect x="164.966" y="456.698" width="46.9925" height="13.5792" fill="#154B6D"/>
<path d="M221.357 375.223L225.012 325.085L236.499 326.13L232.844 376.79L221.357 375.223Z" fill="#154B6D"/>
<path d="M215.092 437.374L217.702 393.503H228.667L226.057 438.941L215.092 437.374Z" fill="#154B6D"/>
<path d="M122.15 377.312V351.198L217.702 393.503L215.091 437.374L122.15 377.312Z" fill="#357DAF"/>
<path d="M127.894 338.141V315.684L225.012 325.085L221.357 375.223L127.894 338.141Z" fill="#357DAF"/>
<path d="M103.354 401.859V390.369L164.966 456.698V470.277L103.354 401.859Z" fill="#256791"/>
<path d="M99.1763 390.369H71.5029L107.531 456.698H154.523L99.1763 390.369Z" fill="#357DAF"/>
<rect x="107.53" y="456.698" width="46.9925" height="13.5792" fill="#154B6D"/>
<path d="M71.5029 407.082V390.369L107.531 456.698V469.755L71.5029 407.082Z" fill="#256791"/>
<path d="M66.2817 389.848H48.0068L56.3611 456.699H103.354L66.2817 389.848Z" fill="#357DAF"/>
<rect x="56.3613" y="456.698" width="46.9925" height="13.5792" fill="#154B6D"/>
<path d="M217.702 393.503L122.15 351.199L131.027 350.677L228.667 393.503H217.702Z" fill="#256790"/>
<path d="M79.335 485.946H97.0877V549.663C97.0877 552.548 94.7494 554.886 91.8649 554.886H84.5577C81.6733 554.886 79.335 552.548 79.335 549.663V485.946Z" fill="url(#paint0_linear_4582_5839)"/>
<path d="M164.966 485.946H182.719V549.663C182.719 552.548 180.38 554.886 177.496 554.886H170.189C167.304 554.886 164.966 552.548 164.966 549.663V485.946Z" fill="url(#paint1_linear_4582_5839)"/>
<ellipse cx="370.553" cy="585.222" rx="51.5073" ry="12.505" fill="#6A9B9B"/>
<path d="M321.046 584.359V460.708C349.37 465.153 365.25 465.681 393.575 460.708V584.359C368.484 594.026 352.776 594.534 321.046 584.359Z" fill="#145278"/>
<path d="M321.046 579.226V460.708L365.591 464.08C365.591 464.08 377.905 576.439 359.88 582.7C341.856 588.96 337.939 584.228 321.046 579.226Z" fill="#216B9C"/>
<ellipse cx="357.551" cy="459.747" rx="36.5052" ry="10.5662" fill="#529ACC"/>
<ellipse cx="356.971" cy="459.748" rx="20.8601" ry="4.80283" fill="#246B9F"/>
<rect x="325.615" y="507.775" width="7.99534" height="51.8706" rx="3.99767" fill="#498CB9"/>
<rect x="325.615" y="564.449" width="7.99534" height="10.5662" rx="3.99767" fill="#498CB9"/>
<defs>
<filter id="filter0_d_4582_5839" x="444.273" y="37.1075" width="37.6613" height="447.603" filterUnits="userSpaceOnUse" color-interpolation-filters="sRGB">
<feFlood flood-opacity="0" result="BackgroundImageFix"/>
<feColorMatrix in="SourceAlpha" type="matrix" values="0 0 0 0 0 0 0 0 0 0 0 0 0 0 0 0 0 0 127 0" result="hardAlpha"/>
<feOffset dx="6.75504"/>
<feComposite in2="hardAlpha" operator="out"/>
<feColorMatrix type="matrix" values="0 0 0 0 0.662745 0 0 0 0 0.639216 0 0 0 0 0.764706 0 0 0 1 0"/>
<feBlend mode="normal" in2="BackgroundImageFix" result="effect1_dropShadow_4582_5839"/>
<feBlend mode="normal" in="SourceGraphic" in2="effect1_dropShadow_4582_5839" result="shape"/>
</filter>
<filter id="filter1_d_4582_5839" x="321.423" y="19.3269" width="123.622" height="127.551" filterUnits="userSpaceOnUse" color-interpolation-filters="sRGB">
<feFlood flood-opacity="0" result="BackgroundImageFix"/>
<feColorMatrix in="SourceAlpha" type="matrix" values="0 0 0 0 0 0 0 0 0 0 0 0 0 0 0 0 0 0 127 0" result="hardAlpha"/>
<feOffset dx="-1.54401" dy="3.08802"/>
<feComposite in2="hardAlpha" operator="out"/>
<feColorMatrix type="matrix" values="0 0 0 0 0.603922 0 0 0 0 0.603922 0 0 0 0 0.603922 0 0 0 1 0"/>
<feBlend mode="normal" in2="BackgroundImageFix" result="effect1_dropShadow_4582_5839"/>
<feBlend mode="normal" in="SourceGraphic" in2="effect1_dropShadow_4582_5839" result="shape"/>
</filter>
<filter id="filter2_d_4582_5839" x="57.1768" y="29.377" width="23.1769" height="31.6956" filterUnits="userSpaceOnUse" color-interpolation-filters="sRGB">
<feFlood flood-opacity="0" result="BackgroundImageFix"/>
<feColorMatrix in="SourceAlpha" type="matrix" values="0 0 0 0 0 0 0 0 0 0 0 0 0 0 0 0 0 0 127 0" result="hardAlpha"/>
<feOffset dx="3.08802"/>
<feComposite in2="hardAlpha" operator="out"/>
<feColorMatrix type="matrix" values="0 0 0 0 0.0645295 0 0 0 0 0.0510937 0 0 0 0 0.454167 0 0 0 1 0"/>
<feBlend mode="normal" in2="BackgroundImageFix" result="effect1_dropShadow_4582_5839"/>
<feBlend mode="normal" in="SourceGraphic" in2="effect1_dropShadow_4582_5839" result="shape"/>
</filter>
<filter id="filter3_d_4582_5839" x="282.017" y="29.377" width="23.1769" height="31.6956" filterUnits="userSpaceOnUse" color-interpolation-filters="sRGB">
<feFlood flood-opacity="0" result="BackgroundImageFix"/>
<feColorMatrix in="SourceAlpha" type="matrix" values="0 0 0 0 0 0 0 0 0 0 0 0 0 0 0 0 0 0 127 0" result="hardAlpha"/>
<feOffset dx="3.08802"/>
<feComposite in2="hardAlpha" operator="out"/>
<feColorMatrix type="matrix" values="0 0 0 0 0.0645295 0 0 0 0 0.0510937 0 0 0 0 0.454167 0 0 0 1 0"/>
<feBlend mode="normal" in2="BackgroundImageFix" result="effect1_dropShadow_4582_5839"/>
<feBlend mode="normal" in="SourceGraphic" in2="effect1_dropShadow_4582_5839" result="shape"/>
</filter>
<filter id="filter4_d_4582_5839" x="1.5459" y="61.0721" width="335.325" height="124.457" filterUnits="userSpaceOnUse" color-interpolation-filters="sRGB">
<feFlood flood-opacity="0" result="BackgroundImageFix"/>
<feColorMatrix in="SourceAlpha" type="matrix" values="0 0 0 0 0 0 0 0 0 0 0 0 0 0 0 0 0 0 127 0" result="hardAlpha"/>
<feOffset dx="4.63203" dy="4.63203"/>
<feComposite in2="hardAlpha" operator="out"/>
<feColorMatrix type="matrix" values="0 0 0 0 0.0509804 0 0 0 0 0.054902 0 0 0 0 0.137255 0 0 0 1 0"/>
<feBlend mode="normal" in2="BackgroundImageFix" result="effect1_dropShadow_4582_5839"/>
<feBlend mode="normal" in="SourceGraphic" in2="effect1_dropShadow_4582_5839" result="shape"/>
</filter>
<filter id="filter5_di_4582_5839" x="21.6312" y="89.6724" width="67.2292" height="64.9461" filterUnits="userSpaceOnUse" color-interpolation-filters="sRGB">
<feFlood flood-opacity="0" result="BackgroundImageFix"/>
<feColorMatrix in="SourceAlpha" type="matrix" values="0 0 0 0 0 0 0 0 0 0 0 0 0 0 0 0 0 0 127 0" result="hardAlpha"/>
<feOffset dx="-3.86002" dy="-1.54401"/>
<feComposite in2="hardAlpha" operator="out"/>
<feColorMatrix type="matrix" values="0 0 0 0 0.0980392 0 0 0 0 0.109804 0 0 0 0 0.258824 0 0 0 1 0"/>
<feBlend mode="normal" in2="BackgroundImageFix" result="effect1_dropShadow_4582_5839"/>
<feBlend mode="normal" in="SourceGraphic" in2="effect1_dropShadow_4582_5839" result="shape"/>
<feColorMatrix in="SourceAlpha" type="matrix" values="0 0 0 0 0 0 0 0 0 0 0 0 0 0 0 0 0 0 127 0" result="hardAlpha"/>
<feOffset dx="1.54401" dy="-3.08802"/>
<feComposite in2="hardAlpha" operator="arithmetic" k2="-1" k3="1"/>
<feColorMatrix type="matrix" values="0 0 0 0 0.522222 0 0 0 0 0.558941 0 0 0 0 0.783333 0 0 0 1 0"/>
<feBlend mode="normal" in2="shape" result="effect2_innerShadow_4582_5839"/>
</filter>
<filter id="filter6_d_4582_5839" x="144.249" y="90.8329" width="150.412" height="11.7007" filterUnits="userSpaceOnUse" color-interpolation-filters="sRGB">
<feFlood flood-opacity="0" result="BackgroundImageFix"/>
<feColorMatrix in="SourceAlpha" type="matrix" values="0 0 0 0 0 0 0 0 0 0 0 0 0 0 0 0 0 0 127 0" result="hardAlpha"/>
<feOffset dx="1" dy="1"/>
<feComposite in2="hardAlpha" operator="out"/>
<feColorMatrix type="matrix" values="0 0 0 0 0 0 0 0 0 0 0 0 0 0 0 0 0 0 0.25 0"/>
<feBlend mode="normal" in2="BackgroundImageFix" result="effect1_dropShadow_4582_5839"/>
<feBlend mode="normal" in="SourceGraphic" in2="effect1_dropShadow_4582_5839" result="shape"/>
</filter>
<filter id="filter7_d_4582_5839" x="142.318" y="118.509" width="151.531" height="15.0758" filterUnits="userSpaceOnUse" color-interpolation-filters="sRGB">
<feFlood flood-opacity="0" result="BackgroundImageFix"/>
<feColorMatrix in="SourceAlpha" type="matrix" values="0 0 0 0 0 0 0 0 0 0 0 0 0 0 0 0 0 0 127 0" result="hardAlpha"/>
<feOffset dx="1" dy="1"/>
<feComposite in2="hardAlpha" operator="out"/>
<feColorMatrix type="matrix" values="0 0 0 0 0 0 0 0 0 0 0 0 0 0 0 0 0 0 0.25 0"/>
<feBlend mode="normal" in2="BackgroundImageFix" result="effect1_dropShadow_4582_5839"/>
<feBlend mode="normal" in="SourceGraphic" in2="effect1_dropShadow_4582_5839" result="shape"/>
</filter>
<filter id="filter8_d_4582_5839" x="143.308" y="148.877" width="152.067" height="11.6122" filterUnits="userSpaceOnUse" color-interpolation-filters="sRGB">
<feFlood flood-opacity="0" result="BackgroundImageFix"/>
<feColorMatrix in="SourceAlpha" type="matrix" values="0 0 0 0 0 0 0 0 0 0 0 0 0 0 0 0 0 0 127 0" result="hardAlpha"/>
<feOffset dx="1" dy="1"/>
<feComposite in2="hardAlpha" operator="out"/>
<feColorMatrix type="matrix" values="0 0 0 0 0 0 0 0 0 0 0 0 0 0 0 0 0 0 0.25 0"/>
<feBlend mode="normal" in2="BackgroundImageFix" result="effect1_dropShadow_4582_5839"/>
<feBlend mode="normal" in="SourceGraphic" in2="effect1_dropShadow_4582_5839" result="shape"/>
</filter>
<filter id="filter9_d_4582_5839" x="137.706" y="313.612" width="19.6778" height="124.462" filterUnits="userSpaceOnUse" color-interpolation-filters="sRGB">
<feFlood flood-opacity="0" result="BackgroundImageFix"/>
<feColorMatrix in="SourceAlpha" type="matrix" values="0 0 0 0 0 0 0 0 0 0 0 0 0 0 0 0 0 0 127 0" result="hardAlpha"/>
<feOffset dx="5.22275"/>
<feComposite in2="hardAlpha" operator="out"/>
<feColorMatrix type="matrix" values="0 0 0 0 0.396078 0 0 0 0 0.564706 0 0 0 0 0.627451 0 0 0 1 0"/>
<feBlend mode="normal" in2="BackgroundImageFix" result="effect1_dropShadow_4582_5839"/>
<feBlend mode="normal" in="SourceGraphic" in2="effect1_dropShadow_4582_5839" result="shape"/>
</filter>
<filter id="filter10_d_4582_5839" x="194.5" y="315.613" width="25.3858" height="147.536" filterUnits="userSpaceOnUse" color-interpolation-filters="sRGB">
<feFlood flood-opacity="0" result="BackgroundImageFix"/>
<feColorMatrix in="SourceAlpha" type="matrix" values="0 0 0 0 0 0 0 0 0 0 0 0 0 0 0 0 0 0 127 0" result="hardAlpha"/>
<feOffset dx="5.22275"/>
<feComposite in2="hardAlpha" operator="out"/>
<feColorMatrix type="matrix" values="0 0 0 0 0.396078 0 0 0 0 0.564706 0 0 0 0 0.627451 0 0 0 1 0"/>
<feBlend mode="normal" in2="BackgroundImageFix" result="effect1_dropShadow_4582_5839"/>
<feBlend mode="normal" in="SourceGraphic" in2="effect1_dropShadow_4582_5839" result="shape"/>
</filter>
<linearGradient id="paint0_linear_4582_5839" x1="88.2113" y1="485.946" x2="88.2113" y2="554.886" gradientUnits="userSpaceOnUse">
<stop stop-color="#8AAABB"/>
<stop offset="1" stop-color="#648F9F"/>
</linearGradient>
<linearGradient id="paint1_linear_4582_5839" x1="173.842" y1="485.946" x2="173.842" y2="554.886" gradientUnits="userSpaceOnUse">
<stop stop-color="#8AAABB"/>
<stop offset="1" stop-color="#618EA3"/>
</linearGradient>
</defs>
</svg>
