<svg width="1087" height="152" viewBox="0 0 1087 152" fill="none" xmlns="http://www.w3.org/2000/svg">
<g clip-path="url(#clip0_4025_4841)" filter="url(#filter0_d_4025_4841)">
<path d="M890.347 143.07C896.793 143.07 902.018 137.845 902.018 131.4C902.018 124.954 896.793 119.729 890.347 119.729C883.902 119.729 878.677 124.954 878.677 131.4C878.677 137.845 883.902 143.07 890.347 143.07Z" fill="url(#paint0_radial_4025_4841)" stroke="black" stroke-width="0.145883" stroke-miterlimit="10"/>
<path d="M846.874 143.07C853.319 143.07 858.544 137.845 858.544 131.4C858.544 124.954 853.319 119.729 846.874 119.729C840.428 119.729 835.203 124.954 835.203 131.4C835.203 137.845 840.428 143.07 846.874 143.07Z" fill="url(#paint1_radial_4025_4841)" stroke="black" stroke-width="0.145883" stroke-miterlimit="10"/>
<path d="M464.598 143.07C471.044 143.07 476.269 137.845 476.269 131.4C476.269 124.954 471.044 119.729 464.598 119.729C458.153 119.729 452.928 124.954 452.928 131.4C452.928 137.845 458.153 143.07 464.598 143.07Z" fill="url(#paint2_radial_4025_4841)" stroke="black" stroke-width="0.145883" stroke-miterlimit="10"/>
<path d="M421.125 143.07C427.57 143.07 432.795 137.845 432.795 131.4C432.795 124.954 427.57 119.729 421.125 119.729C414.679 119.729 409.454 124.954 409.454 131.4C409.454 137.845 414.679 143.07 421.125 143.07Z" fill="url(#paint3_radial_4025_4841)" stroke="black" stroke-width="0.145883" stroke-miterlimit="10"/>
<path d="M129.633 143.07C136.079 143.07 141.304 137.845 141.304 131.4C141.304 124.954 136.079 119.729 129.633 119.729C123.188 119.729 117.963 124.954 117.963 131.4C117.963 137.845 123.188 143.07 129.633 143.07Z" fill="url(#paint4_radial_4025_4841)" stroke="black" stroke-width="0.145883" stroke-miterlimit="10"/>
<path d="M86.1608 143.07C92.6063 143.07 97.8314 137.845 97.8314 131.4C97.8314 124.954 92.6063 119.729 86.1608 119.729C79.7153 119.729 74.4902 124.954 74.4902 131.4C74.4902 137.845 79.7153 143.07 86.1608 143.07Z" fill="url(#paint5_radial_4025_4841)" stroke="black" stroke-width="0.145883" stroke-miterlimit="10"/>
<path d="M954.162 132.625H4V6.52979L988.007 8.33289L1020.68 109.284L954.162 132.625Z" fill="#F8F8F6"/>
<path d="M988.007 8.33252C1100.63 22.3372 1081.65 132.624 1081.65 132.624H954.162L933.155 109.867L965.249 100.53V82.4409L1010.18 95.2785L962.915 38.6761L988.007 38.0926V8.33252Z" fill="url(#paint6_linear_4025_4841)"/>
<path d="M1000.26 23.5044C1000.26 23.5044 1064.45 24.6715 1077.87 82.4409H1020.91C1020.91 82.4409 1003.76 73.688 1000.26 23.5044Z" fill="#60636C"/>
<path d="M1008.67 65.04C1008.67 65.04 1044.94 66.6856 1057.9 82.4409H1020.91C1020.91 82.4409 1012.42 75.6545 1008.67 65.04Z" fill="#415151"/>
<path d="M949.903 43.4731H846.793V91.6261H949.903V43.4731Z" fill="url(#paint7_linear_4025_4841)"/>
<path d="M852.045 49.1743V81.852H894.112V49.1743H852.045Z" fill="url(#paint8_linear_4025_4841)"/>
<path d="M902.077 49.1743V81.852H944.144V49.1743H902.077Z" fill="url(#paint9_linear_4025_4841)"/>
<path d="M648.188 43.4731H545.078V91.6261H648.188V43.4731Z" fill="url(#paint10_linear_4025_4841)"/>
<path d="M550.33 49.1743V81.852H592.397V49.1743H550.33Z" fill="url(#paint11_linear_4025_4841)"/>
<path d="M600.361 49.1743V81.852H642.428V49.1743H600.361Z" fill="url(#paint12_linear_4025_4841)"/>
<path d="M470.999 43.4731H307.838V91.6261H470.999V43.4731Z" fill="url(#paint13_linear_4025_4841)"/>
<path d="M314.84 48.5498V81.2275H356.907V48.5498H314.84Z" fill="url(#paint14_linear_4025_4841)"/>
<path d="M370.124 48.5498V81.2275H412.191V48.5498H370.124Z" fill="url(#paint15_linear_4025_4841)"/>
<path d="M423.732 48.5498V81.2275H465.799V48.5498H423.732Z" fill="url(#paint16_linear_4025_4841)"/>
<path d="M773.256 43.4731H721.917V91.6261H773.256V43.4731Z" fill="url(#paint17_linear_4025_4841)"/>
<path d="M726.836 48.9756V81.6533H768.903V48.9756H726.836Z" fill="url(#paint18_linear_4025_4841)"/>
<path d="M236.227 43.4731H73.0664V91.6261H236.227V43.4731Z" fill="url(#paint19_linear_4025_4841)"/>
<path d="M80.0693 48.5498V81.2275H122.136V48.5498H80.0693Z" fill="url(#paint20_linear_4025_4841)"/>
<path d="M135.353 48.5498V81.2275H177.419V48.5498H135.353Z" fill="url(#paint21_linear_4025_4841)"/>
<path d="M188.962 48.5498V81.2275H231.029V48.5498H188.962Z" fill="url(#paint22_linear_4025_4841)"/>
<path fill-rule="evenodd" clip-rule="evenodd" d="M1003.29 123.656C1002.88 124.158 1002.31 124.443 1001.59 124.443C1000.42 124.473 999.409 123.463 999.345 122.267C999.409 121.006 1000.35 120.026 1001.52 119.997C1002.25 119.997 1002.94 120.341 1003.35 120.878L1007.19 120.814C1006.59 118.258 1004.23 116.432 1001.52 116.496C999.117 116.525 997.635 118.042 997.384 118.451C997.069 118.042 995.616 116.56 993.16 116.624C990.009 116.653 987.482 119.244 987.546 122.395C987.575 125.517 990.166 128.038 993.317 128.009C995.873 127.98 997.262 126.369 997.513 126.118C997.764 126.369 999.246 127.915 1001.67 127.886C1004.35 127.857 1006.59 126.089 1007.19 123.597H1007.16L1003.28 123.662L1003.29 123.656ZM993.294 124.537C992.033 124.566 991.024 123.556 990.989 122.331C990.989 121.1 991.969 120.096 993.195 120.061C994.426 120.032 995.435 121.006 995.5 122.331C995.47 123.527 994.49 124.537 993.294 124.537ZM1021.99 122.395C1022.24 120.627 1023.72 120.09 1025.3 120.09C1026.56 120.09 1028.24 120.341 1028.2 121.917C1028.2 122.203 1028.14 122.675 1028.07 123.084L1027.44 125.891C1027.38 126.142 1027.35 126.585 1027.35 126.836C1027.35 126.964 1027.38 127.122 1027.41 127.244H1025.49V126.55C1024.99 127.151 1024.16 127.431 1023.37 127.431C1021.83 127.431 1021.1 126.579 1021.1 125.605C1021.1 124.251 1022.11 123.428 1023.78 123.241C1025.58 123.02 1026.43 123.113 1026.43 122.203C1026.43 121.543 1025.71 121.351 1025.2 121.351C1024.54 121.351 1023.91 121.695 1023.78 122.389H1021.99L1021.99 122.395ZM1054.47 120.09C1056.4 120.09 1057.72 121.036 1057.72 123.055C1057.72 125.482 1056.21 127.437 1053.65 127.437C1051.73 127.437 1050.47 126.427 1050.47 124.443C1050.47 122.08 1051.98 120.09 1054.47 120.09ZM1043.81 120.277H1045.67L1045.48 121.129L1045.51 121.158C1045.96 120.4 1046.75 120.084 1047.6 120.084C1049.27 120.084 1050.25 121.158 1050.25 122.827C1050.25 125.132 1049.05 127.431 1046.46 127.431C1045.64 127.431 1044.79 127.087 1044.5 126.328H1044.48L1043.72 129.701H1041.83L1043.81 120.271V120.277ZM1012.94 119.396H1009.91L1010.29 117.628H1018.33L1017.95 119.396H1015.08L1013.41 127.25H1011.3L1012.94 119.396ZM1053.74 125.984C1055.19 125.984 1055.79 124.251 1055.79 123.049C1055.79 122.133 1055.41 121.537 1054.4 121.537C1052.98 121.537 1052.38 123.241 1052.38 124.438C1052.38 125.26 1052.85 125.984 1053.74 125.984H1053.74ZM1044.85 124.473C1044.85 125.389 1045.32 125.984 1046.24 125.984C1047.69 125.984 1048.32 124.315 1048.32 123.084C1048.32 122.232 1047.88 121.537 1046.97 121.537C1045.55 121.537 1044.85 123.271 1044.85 124.473H1044.85ZM1040.87 122.296C1040.87 121.73 1040.53 121.351 1039.8 121.351C1039.14 121.351 1038.63 121.537 1038.63 122.045C1038.63 122.36 1038.86 122.547 1039.49 122.769L1040.47 123.055C1041.48 123.399 1042.29 123.907 1042.29 125.074C1042.29 126.807 1040.59 127.437 1038.98 127.437C1037.62 127.437 1036.01 126.9 1036.01 125.26V124.974H1037.78V125.196C1037.78 125.861 1038.51 126.142 1039.17 126.142C1039.74 126.142 1040.37 125.955 1040.37 125.319C1040.37 124.817 1040.12 124.689 1039.67 124.531L1038.22 124.088C1037.25 123.772 1036.71 123.393 1036.71 122.29C1036.71 120.651 1038.44 120.084 1039.8 120.084C1041.31 120.084 1042.67 120.528 1042.67 122.29H1040.87V122.296ZM1029.71 120.277H1031.54L1031.32 121.252H1031.35C1031.98 120.464 1032.8 120.084 1033.77 120.084C1035.1 120.084 1035.82 120.744 1035.82 121.946C1035.82 122.232 1035.66 122.926 1035.63 123.142L1034.75 127.244H1032.86L1033.72 123.142C1033.74 122.95 1033.81 122.483 1033.81 122.29C1033.81 121.882 1033.34 121.596 1032.89 121.596C1031.73 121.596 1031.16 122.576 1030.94 123.521L1030.15 127.244H1028.26L1029.71 120.277ZM1026.05 123.901C1025.55 124.187 1024.98 124.187 1024.44 124.245C1023.68 124.309 1023.02 124.496 1023.02 125.383C1023.02 125.885 1023.5 126.142 1024.06 126.142C1025.26 126.142 1025.64 125.319 1025.86 124.566L1026.05 123.907L1026.05 123.901ZM1017.19 120.277H1019.02L1018.73 121.537H1018.76C1019.2 120.592 1020.15 120.084 1021.16 120.084C1021.38 120.084 1021.57 120.084 1021.76 120.114L1021.38 121.975C1021.09 121.911 1020.81 121.847 1020.56 121.847C1019.07 121.847 1018.57 122.95 1018.29 124.152L1017.66 127.244H1015.73L1017.18 120.277H1017.19Z" fill="white"/>
<path fill-rule="evenodd" clip-rule="evenodd" d="M594.626 27.2101C594.078 27.8811 593.325 28.2604 592.362 28.2604C590.81 28.3013 589.468 26.9592 589.38 25.3661C589.462 23.6856 590.722 22.3843 592.275 22.3434C593.237 22.3434 594.165 22.8044 594.708 23.5163L599.825 23.4346C599.026 20.0327 595.881 17.5993 592.269 17.6869C589.077 17.7277 587.104 19.7409 586.772 20.2894C586.352 19.7467 584.42 17.7686 581.147 17.8561C576.951 17.8969 573.59 21.3398 573.677 25.5353C573.718 29.6901 577.161 33.0454 581.357 33.0045C584.759 32.9637 586.603 30.8221 586.941 30.4837C587.28 30.8221 589.252 32.8762 592.479 32.8353C596.044 32.7945 599.026 30.4428 599.825 27.1284H599.785L594.62 27.2101H594.626ZM581.322 28.383C579.641 28.4238 578.299 27.0817 578.258 25.4478C578.258 23.8081 579.559 22.4718 581.193 22.4251C582.827 22.3843 584.175 23.6856 584.257 25.4478C584.216 27.0408 582.915 28.383 581.322 28.383ZM619.514 25.5295C619.852 23.1779 621.825 22.466 623.919 22.466C625.6 22.466 627.823 22.8044 627.782 24.8993C627.782 25.2786 627.701 25.9088 627.613 26.4515L626.773 30.1861C626.691 30.5245 626.645 31.1081 626.645 31.4465C626.645 31.6157 626.685 31.8258 626.726 31.995H624.165V31.073C623.493 31.8725 622.402 32.2459 621.352 32.2459C619.292 32.2459 618.329 31.1139 618.329 29.8126C618.329 28.0095 619.671 26.9183 621.895 26.6674C624.287 26.3756 625.419 26.4982 625.419 25.2844C625.419 24.4033 624.456 24.1524 623.785 24.1524C622.904 24.1524 622.064 24.6134 621.895 25.5353H619.502L619.514 25.5295ZM662.742 22.466C665.303 22.466 667.066 23.7264 667.066 26.4106C667.066 29.6434 665.052 32.2459 661.65 32.2459C659.089 32.2459 657.414 30.9038 657.414 28.2604C657.414 25.1152 659.427 22.466 662.742 22.466ZM648.556 22.7169H651.03L650.779 23.8489L650.82 23.8898C651.41 22.8803 652.46 22.4601 653.592 22.4601C655.815 22.4601 657.116 23.8898 657.116 26.113C657.116 29.1766 655.523 32.2401 652.081 32.2401C650.989 32.2401 649.857 31.7791 649.478 30.7696H649.437L648.428 35.2628H645.907L648.55 22.7169H648.556ZM607.47 21.544H603.443L603.945 19.1924H614.647L614.145 21.544H610.329L608.106 31.995H605.293L607.476 21.544H607.47ZM661.779 30.3145C663.71 30.3145 664.504 28.0037 664.504 26.4106C664.504 25.1911 664.002 24.3975 662.66 24.3975C660.769 24.3975 659.976 26.6616 659.976 28.2604C659.976 29.3516 660.606 30.3145 661.779 30.3145ZM649.945 28.3013C649.945 29.5209 650.575 30.3145 651.789 30.3145C653.72 30.3145 654.561 28.0912 654.561 26.4515C654.561 25.3194 653.971 24.3975 652.757 24.3975C650.867 24.3975 649.945 26.7082 649.945 28.3013ZM644.658 25.407C644.658 24.6542 644.197 24.1465 643.234 24.1465C642.353 24.1465 641.682 24.3975 641.682 25.0685C641.682 25.4887 641.974 25.7396 642.814 26.0313L644.115 26.4106C645.457 26.8716 646.549 27.5427 646.549 29.0949C646.549 31.4057 644.285 32.2401 642.143 32.2401C640.34 32.2401 638.198 31.5282 638.198 29.3458V28.9665H640.55V29.2583C640.55 30.1394 641.513 30.5187 642.394 30.5187C643.153 30.5187 643.987 30.2678 643.987 29.4275C643.987 28.7564 643.649 28.5872 643.065 28.3771L641.134 27.7878C639.832 27.3676 639.12 26.8658 639.12 25.3953C639.12 23.2129 641.431 22.4601 643.234 22.4601C645.247 22.4601 647.051 23.0495 647.051 25.3953H644.658V25.407ZM629.801 22.7227H632.235L631.943 24.024H631.984C632.824 22.9736 633.915 22.4718 635.217 22.4718C636.979 22.4718 637.942 23.3529 637.942 24.946C637.942 25.3253 637.732 26.2472 637.691 26.539L636.512 31.995H633.997L635.129 26.539C635.17 26.2881 635.257 25.6579 635.257 25.407C635.257 24.8643 634.627 24.485 634.038 24.485C632.486 24.485 631.733 25.7863 631.435 27.0467L630.385 32.0009H627.864L629.796 22.7286L629.801 22.7227ZM624.935 27.5485C624.264 27.9278 623.511 27.9278 622.793 28.0095C621.784 28.0912 620.903 28.348 620.903 29.5209C620.903 30.1919 621.533 30.5304 622.286 30.5304C623.879 30.5304 624.386 29.4392 624.678 28.4297L624.929 27.5485H624.935ZM613.142 22.7227H615.575L615.196 24.4033H615.236C615.826 23.1429 617.08 22.4718 618.428 22.4718C618.72 22.4718 618.971 22.4718 619.228 22.5127L618.726 24.9868C618.347 24.9051 617.973 24.8176 617.635 24.8176C615.662 24.8176 614.991 26.2881 614.612 27.8811L613.772 31.995H611.21L613.142 22.7169V22.7227Z" fill="url(#paint23_linear_4025_4841)"/>
<mask id="mask0_4025_4841" style="mask-type:luminance" maskUnits="userSpaceOnUse" x="59" y="84" width="872" height="49">
<path d="M930.529 84.7754H59.6104V132.917H930.529V84.7754Z" fill="white"/>
</mask>
<g mask="url(#mask0_4025_4841)">
<path d="M59.6104 100.081C59.6104 100.081 224.609 105.992 325.834 134.375C325.834 134.375 612.184 56.9114 923.638 134.375" stroke="#7F4D46" stroke-width="3.50118" stroke-miterlimit="10"/>
</g>
<path fill-rule="evenodd" clip-rule="evenodd" d="M33.3987 26.1593C32.8501 26.8304 32.0974 27.2096 31.1346 27.2096C29.5824 27.2505 28.2402 25.9084 28.1527 24.3153C28.2344 22.6348 29.4948 21.3335 31.047 21.2926C32.0098 21.2926 32.9377 21.7536 33.4803 22.4655L38.5979 22.3839C37.7985 18.9819 34.6532 16.5485 31.0412 16.6361C27.8493 16.6769 25.8769 18.6901 25.5443 19.2386C25.1242 18.6959 23.1927 16.7178 19.9191 16.8053C15.7235 16.8461 12.3624 20.289 12.4499 24.4846C12.4908 28.6393 15.9336 31.9946 20.1292 31.9537C23.5312 31.9129 25.3751 29.7713 25.7136 29.4329C26.052 29.7713 28.0243 31.8254 31.2513 31.7845C34.8166 31.7437 37.7985 29.392 38.5979 26.0776H38.5571L33.3928 26.1593H33.3987ZM20.0942 27.3322C18.4136 27.373 17.0715 26.0309 17.0306 24.397C17.0306 22.7573 18.3319 21.421 19.9658 21.3743C21.5997 21.3335 22.9476 22.6348 23.0293 24.397C22.9885 25.9901 21.6872 27.3322 20.0942 27.3322ZM58.2862 24.4787C58.6247 22.1271 60.597 21.4152 62.6919 21.4152C64.3724 21.4152 66.5957 21.7536 66.5548 23.8485C66.5548 24.2278 66.4731 24.858 66.3856 25.4007L65.5453 29.1353C65.4636 29.4737 65.417 30.0573 65.417 30.3957C65.417 30.5649 65.4578 30.775 65.4986 30.9442H62.937V30.0223C62.2659 30.8217 61.1747 31.1952 60.1243 31.1952C58.0645 31.1952 57.1017 30.0631 57.1017 28.7618C57.1017 26.9587 58.4438 25.8675 60.667 25.6166C63.0595 25.3248 64.1915 25.4474 64.1915 24.2336C64.1915 23.3525 63.2287 23.1016 62.5577 23.1016C61.6765 23.1016 60.8362 23.5626 60.667 24.4846H58.2745L58.2862 24.4787ZM101.514 21.4152C104.076 21.4152 105.838 22.6756 105.838 25.3599C105.838 28.5926 103.825 31.1952 100.423 31.1952C97.8612 31.1952 96.1865 29.853 96.1865 27.2096C96.1865 24.0644 98.1997 21.4152 101.514 21.4152ZM87.3285 21.6661H89.8027L89.5518 22.7982L89.5926 22.839C90.182 21.8295 91.2323 21.4094 92.3644 21.4094C94.5876 21.4094 95.8889 22.839 95.8889 25.0623C95.8889 28.1258 94.2959 31.1893 90.853 31.1893C89.7618 31.1893 88.6298 30.7283 88.2505 29.7188H88.2096L87.2001 34.212H84.6793L87.3227 21.6661H87.3285ZM46.2421 20.4932H42.2158L42.7176 18.1416H53.4196L52.9177 20.4932H49.1014L46.8782 30.9442H44.0656L46.248 20.4932H46.2421ZM100.551 29.2637C102.483 29.2637 103.276 26.9529 103.276 25.3599C103.276 24.1403 102.775 23.3467 101.432 23.3467C99.5418 23.3467 98.7482 25.6108 98.7482 27.2096C98.7482 28.3008 99.3784 29.2637 100.551 29.2637ZM88.7173 27.2505C88.7173 28.4701 89.3475 29.2637 90.5613 29.2637C92.4928 29.2637 93.333 27.0404 93.333 25.4007C93.333 24.2687 92.7437 23.3467 91.5299 23.3467C89.6393 23.3467 88.7173 25.6575 88.7173 27.2505ZM83.4305 24.3562C83.4305 23.6034 82.9695 23.0958 82.0067 23.0958C81.1256 23.0958 80.4545 23.3467 80.4545 24.0177C80.4545 24.4379 80.7463 24.6888 81.5866 24.9806L82.8879 25.3599C84.23 25.8208 85.3212 26.4919 85.3212 28.0441C85.3212 30.3549 83.0571 31.1893 80.9155 31.1893C79.1124 31.1893 76.9709 30.4774 76.9709 28.295V27.9157H79.3225V28.2075C79.3225 29.0886 80.2853 29.4679 81.1664 29.4679C81.925 29.4679 82.7595 29.217 82.7595 28.3767C82.7595 27.7056 82.421 27.5364 81.8375 27.3264L79.906 26.737C78.6047 26.3168 77.8928 25.815 77.8928 24.3445C77.8928 22.1621 80.2036 21.4094 82.0067 21.4094C84.0199 21.4094 85.823 21.9987 85.823 24.3445H83.4305V24.3562ZM68.5739 21.6719H71.0072L70.7154 22.9732H70.7563C71.5965 21.9229 72.6877 21.421 73.989 21.421C75.7513 21.421 76.7141 22.3022 76.7141 23.8952C76.7141 24.2745 76.504 25.1965 76.4632 25.4882L75.2845 30.9442H72.7694L73.9015 25.4882C73.9423 25.2373 74.0299 24.6071 74.0299 24.3562C74.0299 23.8135 73.3996 23.4342 72.8103 23.4342C71.2581 23.4342 70.5053 24.7355 70.2077 25.9959L69.1574 30.9501H66.6365L68.568 21.6778L68.5739 21.6719ZM63.7072 26.4977C63.0362 26.877 62.2834 26.877 61.5657 26.9587C60.5561 27.0404 59.675 27.2972 59.675 28.4701C59.675 29.1411 60.3052 29.4796 61.058 29.4796C62.651 29.4796 63.1587 28.3884 63.4505 27.3789L63.7014 26.4977H63.7072ZM51.9141 21.6719H54.3474L53.9681 23.3525H54.0089C54.5983 22.0921 55.8529 21.421 57.2008 21.421C57.4926 21.421 57.7435 21.421 58.0003 21.4619L57.4985 23.936C57.1192 23.8543 56.7457 23.7668 56.4072 23.7668C54.4349 23.7668 53.7639 25.2373 53.3846 26.8303L52.5443 30.9442H49.9826L51.9141 21.6661V21.6719Z" fill="url(#paint24_linear_4025_4841)"/>
<path d="M836.873 43.4731H782.628V132.625H836.873V43.4731Z" fill="url(#paint25_linear_4025_4841)"/>
<path d="M789.63 49.5007V100.589H803.331V49.3081L789.63 49.5007Z" fill="url(#paint26_linear_4025_4841)"/>
<path d="M816.829 49.5007V100.589H830.53V49.3081L816.829 49.5007Z" fill="url(#paint27_linear_4025_4841)"/>
<path d="M535.013 43.4731H480.768V132.625H535.013V43.4731Z" fill="url(#paint28_linear_4025_4841)"/>
<path d="M487.77 49.5007V100.589H501.471V49.3081L487.77 49.5007Z" fill="url(#paint29_linear_4025_4841)"/>
<path d="M514.968 49.5007V100.589H528.663V49.3081L514.968 49.5007Z" fill="url(#paint30_linear_4025_4841)"/>
<path d="M298.888 43.4731H244.643V132.625H298.888V43.4731Z" fill="url(#paint31_linear_4025_4841)"/>
<path d="M251.645 49.5007V100.589H265.34V49.3081L251.645 49.5007Z" fill="url(#paint32_linear_4025_4841)"/>
<path d="M278.838 49.5007V100.589H292.539V49.3081L278.838 49.5007Z" fill="url(#paint33_linear_4025_4841)"/>
<path d="M59.867 42.8896H5.62207V132.753H59.867V42.8896Z" fill="url(#paint34_linear_4025_4841)"/>
<path d="M12.624 48.964V100.461H26.3195V48.7656L12.624 48.964Z" fill="url(#paint35_linear_4025_4841)"/>
<path d="M39.8223 48.964V100.461H53.5177V48.7656L39.8223 48.964Z" fill="url(#paint36_linear_4025_4841)"/>
<path d="M712.353 43.4731H658.108V132.625H712.353V43.4731Z" fill="url(#paint37_linear_4025_4841)"/>
<path d="M692.31 49.5007V100.589H706.011V49.3081L692.31 49.5007Z" fill="url(#paint38_linear_4025_4841)"/>
<path d="M394.201 7.56255V0H432.866V7.63258" fill="url(#paint39_linear_4025_4841)"/>
<path d="M521.767 7.56255V0H629.136V7.63258" fill="url(#paint40_linear_4025_4841)"/>
<path d="M729.503 7.56255V0H768.168V7.63258" fill="url(#paint41_linear_4025_4841)"/>
<path d="M875.007 7.58594V2.49756H900.478V7.63262" fill="url(#paint42_linear_4025_4841)"/>
<path d="M917.96 7.58594V2.49756H943.431V7.63262" fill="url(#paint43_linear_4025_4841)"/>
</g>
<defs>
<filter id="filter0_d_4025_4841" x="0" y="0" width="1087" height="151.146" filterUnits="userSpaceOnUse" color-interpolation-filters="sRGB">
<feFlood flood-opacity="0" result="BackgroundImageFix"/>
<feColorMatrix in="SourceAlpha" type="matrix" values="0 0 0 0 0 0 0 0 0 0 0 0 0 0 0 0 0 0 127 0" result="hardAlpha"/>
<feOffset dy="4"/>
<feGaussianBlur stdDeviation="2"/>
<feComposite in2="hardAlpha" operator="out"/>
<feColorMatrix type="matrix" values="0 0 0 0 0 0 0 0 0 0 0 0 0 0 0 0 0 0 0.25 0"/>
<feBlend mode="normal" in2="BackgroundImageFix" result="effect1_dropShadow_4025_4841"/>
<feBlend mode="normal" in="SourceGraphic" in2="effect1_dropShadow_4025_4841" result="shape"/>
</filter>
<radialGradient id="paint0_radial_4025_4841" cx="0" cy="0" r="1" gradientUnits="userSpaceOnUse" gradientTransform="translate(890.347 131.4) scale(11.6706)">
<stop offset="0.5" stop-color="#583E4B"/>
<stop offset="1" stop-color="#2A2414"/>
</radialGradient>
<radialGradient id="paint1_radial_4025_4841" cx="0" cy="0" r="1" gradientUnits="userSpaceOnUse" gradientTransform="translate(846.874 0.29203) scale(0.291765)">
<stop offset="0.5" stop-color="#583E4B"/>
<stop offset="1" stop-color="#2A2414"/>
</radialGradient>
<radialGradient id="paint2_radial_4025_4841" cx="0" cy="0" r="1" gradientUnits="userSpaceOnUse" gradientTransform="translate(464.598 0.29203) scale(0.291765)">
<stop offset="0.5" stop-color="#583E4B"/>
<stop offset="1" stop-color="#2A2414"/>
</radialGradient>
<radialGradient id="paint3_radial_4025_4841" cx="0" cy="0" r="1" gradientUnits="userSpaceOnUse" gradientTransform="translate(421.125 0.29203) scale(0.291765)">
<stop offset="0.5" stop-color="#583E4B"/>
<stop offset="1" stop-color="#2A2414"/>
</radialGradient>
<radialGradient id="paint4_radial_4025_4841" cx="0" cy="0" r="1" gradientUnits="userSpaceOnUse" gradientTransform="translate(129.633 0.29203) scale(0.291765)">
<stop offset="0.5" stop-color="#583E4B"/>
<stop offset="1" stop-color="#2A2414"/>
</radialGradient>
<radialGradient id="paint5_radial_4025_4841" cx="0" cy="0" r="1" gradientUnits="userSpaceOnUse" gradientTransform="translate(86.1608 0.29203) scale(0.291765)">
<stop offset="0.5" stop-color="#583E4B"/>
<stop offset="1" stop-color="#2A2414"/>
</radialGradient>
<linearGradient id="paint6_linear_4025_4841" x1="1008" y1="70.4785" x2="1008" y2="-79.2204" gradientUnits="userSpaceOnUse">
<stop stop-color="#D2233C"/>
<stop offset="1" stop-color="#EF233C"/>
</linearGradient>
<linearGradient id="paint7_linear_4025_4841" x1="898.348" y1="91.6261" x2="898.348" y2="43.4731" gradientUnits="userSpaceOnUse">
<stop stop-color="#464F4C"/>
<stop offset="1" stop-color="#656563"/>
</linearGradient>
<linearGradient id="paint8_linear_4025_4841" x1="873.075" y1="81.852" x2="873.075" y2="49.1743" gradientUnits="userSpaceOnUse">
<stop stop-color="#7F8078"/>
<stop offset="1" stop-color="#959186"/>
</linearGradient>
<linearGradient id="paint9_linear_4025_4841" x1="923.108" y1="0.000213435" x2="923.108" y2="0.000213435" gradientUnits="userSpaceOnUse">
<stop stop-color="#7F8078"/>
<stop offset="1" stop-color="#959186"/>
</linearGradient>
<linearGradient id="paint10_linear_4025_4841" x1="596.633" y1="0.000132919" x2="596.633" y2="0.000132919" gradientUnits="userSpaceOnUse">
<stop stop-color="#464F4C"/>
<stop offset="1" stop-color="#656563"/>
</linearGradient>
<linearGradient id="paint11_linear_4025_4841" x1="571.366" y1="0.000213435" x2="571.366" y2="0.000213435" gradientUnits="userSpaceOnUse">
<stop stop-color="#7F8078"/>
<stop offset="1" stop-color="#959186"/>
</linearGradient>
<linearGradient id="paint12_linear_4025_4841" x1="621.398" y1="0.000213435" x2="621.398" y2="0.000213435" gradientUnits="userSpaceOnUse">
<stop stop-color="#7F8078"/>
<stop offset="1" stop-color="#959186"/>
</linearGradient>
<linearGradient id="paint13_linear_4025_4841" x1="389.415" y1="0.000132919" x2="389.415" y2="0.000132919" gradientUnits="userSpaceOnUse">
<stop stop-color="#464F4C"/>
<stop offset="1" stop-color="#656563"/>
</linearGradient>
<linearGradient id="paint14_linear_4025_4841" x1="335.87" y1="81.2275" x2="335.87" y2="48.5498" gradientUnits="userSpaceOnUse">
<stop stop-color="#7F8078"/>
<stop offset="1" stop-color="#959186"/>
</linearGradient>
<linearGradient id="paint15_linear_4025_4841" x1="391.154" y1="81.2275" x2="391.154" y2="48.5498" gradientUnits="userSpaceOnUse">
<stop stop-color="#7F8078"/>
<stop offset="1" stop-color="#959186"/>
</linearGradient>
<linearGradient id="paint16_linear_4025_4841" x1="444.763" y1="81.2275" x2="444.763" y2="48.5498" gradientUnits="userSpaceOnUse">
<stop stop-color="#7F8078"/>
<stop offset="1" stop-color="#959186"/>
</linearGradient>
<linearGradient id="paint17_linear_4025_4841" x1="747.586" y1="0.000132919" x2="747.586" y2="0.000132919" gradientUnits="userSpaceOnUse">
<stop stop-color="#464F4C"/>
<stop offset="1" stop-color="#656563"/>
</linearGradient>
<linearGradient id="paint18_linear_4025_4841" x1="747.872" y1="81.6533" x2="747.872" y2="48.9756" gradientUnits="userSpaceOnUse">
<stop stop-color="#7F8078"/>
<stop offset="1" stop-color="#959186"/>
</linearGradient>
<linearGradient id="paint19_linear_4025_4841" x1="154.65" y1="0.000132919" x2="154.65" y2="0.000132919" gradientUnits="userSpaceOnUse">
<stop stop-color="#464F4C"/>
<stop offset="1" stop-color="#656563"/>
</linearGradient>
<linearGradient id="paint20_linear_4025_4841" x1="101.106" y1="81.2275" x2="101.106" y2="48.5498" gradientUnits="userSpaceOnUse">
<stop stop-color="#7F8078"/>
<stop offset="1" stop-color="#959186"/>
</linearGradient>
<linearGradient id="paint21_linear_4025_4841" x1="156.389" y1="81.2275" x2="156.389" y2="48.5498" gradientUnits="userSpaceOnUse">
<stop stop-color="#7F8078"/>
<stop offset="1" stop-color="#959186"/>
</linearGradient>
<linearGradient id="paint22_linear_4025_4841" x1="209.998" y1="81.2275" x2="209.998" y2="48.5498" gradientUnits="userSpaceOnUse">
<stop stop-color="#7F8078"/>
<stop offset="1" stop-color="#959186"/>
</linearGradient>
<linearGradient id="paint23_linear_4025_4841" x1="620.377" y1="35.2686" x2="620.377" y2="17.681" gradientUnits="userSpaceOnUse">
<stop stop-color="#D2233C"/>
<stop offset="1" stop-color="#EF233C"/>
</linearGradient>
<linearGradient id="paint24_linear_4025_4841" x1="59.144" y1="34.2178" x2="59.144" y2="16.6302" gradientUnits="userSpaceOnUse">
<stop stop-color="#D2233C"/>
<stop offset="1" stop-color="#EF233C"/>
</linearGradient>
<linearGradient id="paint25_linear_4025_4841" x1="809.75" y1="132.625" x2="809.75" y2="0.000143606" gradientUnits="userSpaceOnUse">
<stop stop-color="#464F4C"/>
<stop offset="1" stop-color="#656563"/>
</linearGradient>
<linearGradient id="paint26_linear_4025_4841" x1="796.481" y1="100.589" x2="796.481" y2="49.3081" gradientUnits="userSpaceOnUse">
<stop stop-color="#6A6A62"/>
<stop offset="1" stop-color="#91928A"/>
</linearGradient>
<linearGradient id="paint27_linear_4025_4841" x1="823.68" y1="-0.000204143" x2="823.68" y2="-0.000204143" gradientUnits="userSpaceOnUse">
<stop stop-color="#6A6A62"/>
<stop offset="1" stop-color="#91928A"/>
</linearGradient>
<linearGradient id="paint28_linear_4025_4841" x1="507.89" y1="132.625" x2="507.89" y2="0.000143606" gradientUnits="userSpaceOnUse">
<stop stop-color="#464F4C"/>
<stop offset="1" stop-color="#656563"/>
</linearGradient>
<linearGradient id="paint29_linear_4025_4841" x1="494.62" y1="-0.000204143" x2="494.62" y2="-0.000204143" gradientUnits="userSpaceOnUse">
<stop stop-color="#6A6A62"/>
<stop offset="1" stop-color="#91928A"/>
</linearGradient>
<linearGradient id="paint30_linear_4025_4841" x1="521.818" y1="-0.000204143" x2="521.818" y2="-0.000204143" gradientUnits="userSpaceOnUse">
<stop stop-color="#6A6A62"/>
<stop offset="1" stop-color="#91928A"/>
</linearGradient>
<linearGradient id="paint31_linear_4025_4841" x1="271.759" y1="132.625" x2="271.759" y2="0.000143606" gradientUnits="userSpaceOnUse">
<stop stop-color="#464F4C"/>
<stop offset="1" stop-color="#656563"/>
</linearGradient>
<linearGradient id="paint32_linear_4025_4841" x1="258.489" y1="-0.000204143" x2="258.489" y2="-0.000204143" gradientUnits="userSpaceOnUse">
<stop stop-color="#6A6A62"/>
<stop offset="1" stop-color="#91928A"/>
</linearGradient>
<linearGradient id="paint33_linear_4025_4841" x1="285.689" y1="-0.000204143" x2="285.689" y2="-0.000204143" gradientUnits="userSpaceOnUse">
<stop stop-color="#6A6A62"/>
<stop offset="1" stop-color="#91928A"/>
</linearGradient>
<linearGradient id="paint34_linear_4025_4841" x1="32.7387" y1="132.753" x2="32.7387" y2="42.8896" gradientUnits="userSpaceOnUse">
<stop stop-color="#464F4C"/>
<stop offset="1" stop-color="#656563"/>
</linearGradient>
<linearGradient id="paint35_linear_4025_4841" x1="19.4747" y1="100.461" x2="19.4747" y2="48.7656" gradientUnits="userSpaceOnUse">
<stop stop-color="#6A6A62"/>
<stop offset="1" stop-color="#91928A"/>
</linearGradient>
<linearGradient id="paint36_linear_4025_4841" x1="46.6671" y1="100.461" x2="46.6671" y2="48.7656" gradientUnits="userSpaceOnUse">
<stop stop-color="#6A6A62"/>
<stop offset="1" stop-color="#91928A"/>
</linearGradient>
<linearGradient id="paint37_linear_4025_4841" x1="685.231" y1="132.625" x2="685.231" y2="0.000143606" gradientUnits="userSpaceOnUse">
<stop stop-color="#464F4C"/>
<stop offset="1" stop-color="#656563"/>
</linearGradient>
<linearGradient id="paint38_linear_4025_4841" x1="699.16" y1="-0.000204143" x2="699.16" y2="-0.000204143" gradientUnits="userSpaceOnUse">
<stop stop-color="#6A6A62"/>
<stop offset="1" stop-color="#91928A"/>
</linearGradient>
<linearGradient id="paint39_linear_4025_4841" x1="413.534" y1="7.63258" x2="413.534" y2="0" gradientUnits="userSpaceOnUse">
<stop stop-color="#4C5447"/>
<stop offset="1" stop-color="#4A3D1B"/>
</linearGradient>
<linearGradient id="paint40_linear_4025_4841" x1="575.451" y1="0" x2="575.451" y2="0" gradientUnits="userSpaceOnUse">
<stop stop-color="#4C5447"/>
<stop offset="1" stop-color="#4A3D1B"/>
</linearGradient>
<linearGradient id="paint41_linear_4025_4841" x1="748.835" y1="0" x2="748.835" y2="0" gradientUnits="userSpaceOnUse">
<stop stop-color="#4C5447"/>
<stop offset="1" stop-color="#4A3D1B"/>
</linearGradient>
<linearGradient id="paint42_linear_4025_4841" x1="887.739" y1="4.93162e-05" x2="887.739" y2="2.49756" gradientUnits="userSpaceOnUse">
<stop stop-color="#4C5447"/>
<stop offset="1" stop-color="#4A3D1B"/>
</linearGradient>
<linearGradient id="paint43_linear_4025_4841" x1="930.693" y1="4.93162e-05" x2="930.693" y2="2.49756" gradientUnits="userSpaceOnUse">
<stop stop-color="#4C5447"/>
<stop offset="1" stop-color="#4A3D1B"/>
</linearGradient>
<clipPath id="clip0_4025_4841">
<rect width="1079" height="143.146" fill="white" transform="translate(4)"/>
</clipPath>
</defs>
</svg>
