<svg viewBox="0 0 2284 246" fill="none" xmlns="http://www.w3.org/2000/svg">
<path d="M1953.94 245.18C1964.99 245.18 1973.94 236.225 1973.94 225.18C1973.94 214.134 1964.99 205.18 1953.94 205.18C1942.89 205.18 1933.94 214.134 1933.94 225.18C1933.94 236.225 1942.89 245.18 1953.94 245.18Z" fill="url(#paint0_radial_4059_1459)" stroke="black" stroke-width="0.25" stroke-miterlimit="10"/>
<path d="M1879.44 245.18C1890.49 245.18 1899.44 236.225 1899.44 225.18C1899.44 214.134 1890.49 205.18 1879.44 205.18C1868.39 205.18 1859.44 214.134 1859.44 225.18C1859.44 236.225 1868.39 245.18 1879.44 245.18Z" fill="url(#paint1_radial_4059_1459)" stroke="black" stroke-width="0.25" stroke-miterlimit="10"/>
<path d="M1224.33 245.18C1235.38 245.18 1244.33 236.225 1244.33 225.18C1244.33 214.134 1235.38 205.18 1224.33 205.18C1213.28 205.18 1204.33 214.134 1204.33 225.18C1204.33 236.225 1213.28 245.18 1224.33 245.18Z" fill="url(#paint2_radial_4059_1459)" stroke="black" stroke-width="0.25" stroke-miterlimit="10"/>
<path d="M1149.83 245.18C1160.88 245.18 1169.83 236.225 1169.83 225.18C1169.83 214.134 1160.88 205.18 1149.83 205.18C1138.78 205.18 1129.83 214.134 1129.83 225.18C1129.83 236.225 1138.78 245.18 1149.83 245.18Z" fill="url(#paint3_radial_4059_1459)" stroke="black" stroke-width="0.25" stroke-miterlimit="10"/>
<path d="M650.3 245.18C661.346 245.18 670.3 236.225 670.3 225.18C670.3 214.134 661.346 205.18 650.3 205.18C639.254 205.18 630.3 214.134 630.3 225.18C630.3 236.225 639.254 245.18 650.3 245.18Z" fill="url(#paint4_radial_4059_1459)" stroke="black" stroke-width="0.25" stroke-miterlimit="10"/>
<path d="M575.8 245.18C586.846 245.18 595.8 236.225 595.8 225.18C595.8 214.134 586.846 205.18 575.8 205.18C564.754 205.18 555.8 214.134 555.8 225.18C555.8 236.225 564.754 245.18 575.8 245.18Z" fill="url(#paint5_radial_4059_1459)" stroke="black" stroke-width="0.25" stroke-miterlimit="10"/>
<g clip-path="url(#clip0_4059_1459)">
<path d="M2059.37 228H65L53 168L121 41.5002L161 15.0889H2130.41L2199 188.017L2059.37 228Z" fill="#F8F8F6"/>
<path d="M523.5 172C523.5 172 417.5 172 354.5 188.5C291.5 205 255 238 255 238" stroke="#7F4D46" stroke-width="6"/>
</g>
<path d="M401.7 74H225V156.52H401.7V74Z" fill="url(#paint6_linear_4059_1459)"/>
<path d="M234 83.77V139.77H306.09V83.77H234Z" fill="url(#paint7_linear_4059_1459)"/>
<path d="M319.74 83.77V139.77H391.83V83.77H319.74Z" fill="url(#paint8_linear_4059_1459)"/>
<path d="M2121.3 14.2803C2314.3 38.2803 2281.78 227.28 2281.78 227.28H2063.3L2027.3 188.28L2082.3 172.28V141.28L2159.3 163.28L2078.3 66.2803L2121.3 65.2803V14.2803Z" fill="url(#paint9_linear_4059_1459)"/>
<path d="M2121.3 14.2803C2314.3 38.2803 2281.78 227.28 2281.78 227.28H2063.3L2027.3 188.28L2082.3 172.28V141.28L2159.3 163.28L2078.3 66.2803L2121.3 65.2803V14.2803Z" fill="url(#paint10_linear_4059_1459)"/>
<path d="M2121.3 14.2803C2314.3 38.2803 2281.78 227.28 2281.78 227.28H2063.3L2027.3 188.28L2082.3 172.28V141.28L2159.3 163.28L2078.3 66.2803L2121.3 65.2803V14.2803Z" fill="url(#paint11_linear_4059_1459)"/>
<path d="M2121.3 14.2803C2314.3 38.2803 2281.78 227.28 2281.78 227.28H2063.3L2027.3 188.28L2082.3 172.28V141.28L2159.3 163.28L2078.3 66.2803L2121.3 65.2803V14.2803Z" fill="url(#paint12_linear_4059_1459)"/>
<path d="M2121.3 14.2803C2314.3 38.2803 2281.78 227.28 2281.78 227.28H2063.3L2027.3 188.28L2082.3 172.28V141.28L2159.3 163.28L2078.3 66.2803L2121.3 65.2803V14.2803Z" fill="url(#paint13_linear_4059_1459)"/>
<path d="M2121.3 14.2803C2314.3 38.2803 2281.78 227.28 2281.78 227.28H2063.3L2027.3 188.28L2082.3 172.28V141.28L2159.3 163.28L2078.3 66.2803L2121.3 65.2803V14.2803Z" fill="url(#paint14_linear_4059_1459)"/>
<path d="M2121.3 14.2803C2314.3 38.2803 2281.78 227.28 2281.78 227.28H2063.3L2027.3 188.28L2082.3 172.28V141.28L2159.3 163.28L2078.3 66.2803L2121.3 65.2803V14.2803Z" fill="url(#paint15_linear_4059_1459)"/>
<path d="M2142.3 40.2803C2142.3 40.2803 2252.3 42.2803 2275.3 141.28H2177.69C2177.69 141.28 2148.3 126.28 2142.3 40.2803Z" fill="#60636C"/>
<path d="M2156.71 111.46C2156.71 111.46 2218.86 114.28 2241.08 141.28H2177.69C2177.69 141.28 2163.13 129.65 2156.71 111.46Z" fill="#415151"/>
<path d="M2056 74.5H1879.3V157.02H2056V74.5Z" fill="url(#paint16_linear_4059_1459)"/>
<path d="M1888.3 84.27V140.27H1960.39V84.27H1888.3Z" fill="url(#paint17_linear_4059_1459)"/>
<path d="M1974.04 84.27V140.27H2046.13V84.27H1974.04Z" fill="url(#paint18_linear_4059_1459)"/>
<path d="M1538.95 74.5H1362.25V157.02H1538.95V74.5Z" fill="url(#paint19_linear_4059_1459)"/>
<path d="M1371.25 84.27V140.27H1443.34V84.27H1371.25Z" fill="url(#paint20_linear_4059_1459)"/>
<path d="M1456.99 84.27V140.27H1529.08V84.27H1456.99Z" fill="url(#paint21_linear_4059_1459)"/>
<path d="M1235.3 74.5H955.69V157.02H1235.3V74.5Z" fill="url(#paint22_linear_4059_1459)"/>
<path d="M967.69 83.2002V139.2H1039.78V83.2002H967.69Z" fill="url(#paint23_linear_4059_1459)"/>
<path d="M1062.43 83.2002V139.2H1134.52V83.2002H1062.43Z" fill="url(#paint24_linear_4059_1459)"/>
<path d="M1154.3 83.2002V139.2H1226.39V83.2002H1154.3Z" fill="url(#paint25_linear_4059_1459)"/>
<path d="M1753.28 74.5H1665.3V157.02H1753.28V74.5Z" fill="url(#paint26_linear_4059_1459)"/>
<path d="M1673.73 83.9302V139.93H1745.82V83.9302H1673.73Z" fill="url(#paint27_linear_4059_1459)"/>
<path d="M832.97 74.5H553.36V157.02H832.97V74.5Z" fill="url(#paint28_linear_4059_1459)"/>
<path d="M565.36 83.2002V139.2H637.45V83.2002H565.36Z" fill="url(#paint29_linear_4059_1459)"/>
<path d="M660.101 83.2002V139.2H732.191V83.2002H660.101Z" fill="url(#paint30_linear_4059_1459)"/>
<path d="M751.971 83.2002V139.2H824.061V83.2002H751.971Z" fill="url(#paint31_linear_4059_1459)"/>
<path fill-rule="evenodd" clip-rule="evenodd" d="M2147.49 211.91C2146.79 212.77 2145.81 213.26 2144.57 213.26C2142.57 213.31 2140.84 211.58 2140.73 209.53C2140.84 207.37 2142.46 205.69 2144.46 205.64C2145.7 205.64 2146.89 206.23 2147.59 207.15L2154.18 207.04C2153.15 202.66 2149.1 199.53 2144.45 199.64C2140.34 199.69 2137.8 202.29 2137.37 202.99C2136.83 202.29 2134.34 199.75 2130.13 199.86C2124.73 199.91 2120.4 204.35 2120.51 209.75C2120.56 215.1 2125 219.42 2130.4 219.37C2134.78 219.32 2137.16 216.56 2137.59 216.13C2138.02 216.56 2140.56 219.21 2144.72 219.16C2149.31 219.11 2153.15 216.08 2154.18 211.81H2154.13L2147.48 211.92L2147.49 211.91ZM2130.36 213.42C2128.2 213.47 2126.47 211.74 2126.41 209.64C2126.41 207.53 2128.09 205.81 2130.19 205.75C2132.3 205.7 2134.03 207.37 2134.14 209.64C2134.09 211.69 2132.41 213.42 2130.36 213.42ZM2179.54 209.75C2179.97 206.72 2182.51 205.8 2185.21 205.8C2187.37 205.8 2190.24 206.23 2190.18 208.93C2190.18 209.42 2190.07 210.23 2189.96 210.93L2188.88 215.74C2188.77 216.17 2188.72 216.93 2188.72 217.36C2188.72 217.58 2188.77 217.85 2188.83 218.06H2185.53V216.87C2184.67 217.9 2183.26 218.38 2181.91 218.38C2179.26 218.38 2178.02 216.92 2178.02 215.25C2178.02 212.93 2179.75 211.52 2182.61 211.2C2185.69 210.82 2187.15 210.98 2187.15 209.42C2187.15 208.29 2185.91 207.96 2185.04 207.96C2183.91 207.96 2182.82 208.55 2182.61 209.74H2179.53L2179.54 209.75ZM2235.2 205.8C2238.5 205.8 2240.77 207.42 2240.77 210.88C2240.77 215.04 2238.18 218.39 2233.8 218.39C2230.5 218.39 2228.34 216.66 2228.34 213.26C2228.34 209.21 2230.93 205.8 2235.2 205.8ZM2216.93 206.12H2220.12L2219.8 207.58L2219.85 207.63C2220.61 206.33 2221.96 205.79 2223.42 205.79C2226.28 205.79 2227.96 207.63 2227.96 210.49C2227.96 214.44 2225.91 218.38 2221.47 218.38C2220.07 218.38 2218.61 217.79 2218.12 216.49H2218.07L2216.77 222.27H2213.53L2216.93 206.11V206.12ZM2164.02 204.61H2158.83L2159.48 201.58H2173.26L2172.61 204.61H2167.69L2164.83 218.07H2161.21L2164.02 204.61ZM2233.95 215.9C2236.44 215.9 2237.46 212.93 2237.46 210.87C2237.46 209.3 2236.81 208.28 2235.08 208.28C2232.65 208.28 2231.62 211.2 2231.62 213.25C2231.62 214.66 2232.43 215.9 2233.94 215.9H2233.95ZM2218.71 213.31C2218.71 214.88 2219.52 215.9 2221.09 215.9C2223.58 215.9 2224.66 213.04 2224.66 210.93C2224.66 209.47 2223.9 208.28 2222.34 208.28C2219.91 208.28 2218.72 211.25 2218.72 213.31H2218.71ZM2211.9 209.58C2211.9 208.61 2211.31 207.96 2210.06 207.96C2208.93 207.96 2208.06 208.28 2208.06 209.15C2208.06 209.69 2208.44 210.01 2209.52 210.39L2211.2 210.88C2212.93 211.47 2214.33 212.34 2214.33 214.34C2214.33 217.31 2211.41 218.39 2208.65 218.39C2206.33 218.39 2203.57 217.47 2203.57 214.66V214.17H2206.6V214.55C2206.6 215.69 2207.84 216.17 2208.98 216.17C2209.95 216.17 2211.03 215.85 2211.03 214.76C2211.03 213.9 2210.6 213.68 2209.84 213.41L2207.35 212.65C2205.68 212.11 2204.76 211.46 2204.76 209.57C2204.76 206.76 2207.73 205.79 2210.06 205.79C2212.65 205.79 2214.98 206.55 2214.98 209.57H2211.9V209.58ZM2192.77 206.12H2195.9L2195.52 207.79H2195.57C2196.65 206.44 2198.06 205.79 2199.73 205.79C2202 205.79 2203.24 206.92 2203.24 208.98C2203.24 209.47 2202.97 210.66 2202.92 211.03L2201.41 218.06H2198.17L2199.63 211.03C2199.68 210.7 2199.79 209.9 2199.79 209.57C2199.79 208.87 2198.98 208.38 2198.22 208.38C2196.22 208.38 2195.25 210.06 2194.87 211.68L2193.52 218.06H2190.28L2192.77 206.12ZM2186.5 212.33C2185.64 212.82 2184.66 212.82 2183.74 212.92C2182.44 213.03 2181.31 213.35 2181.31 214.87C2181.31 215.73 2182.12 216.17 2183.09 216.17C2185.14 216.17 2185.79 214.76 2186.17 213.47L2186.49 212.34L2186.5 212.33ZM2171.31 206.12H2174.44L2173.95 208.28H2174C2174.76 206.66 2176.38 205.79 2178.11 205.79C2178.49 205.79 2178.81 205.79 2179.14 205.84L2178.49 209.03C2178 208.92 2177.52 208.81 2177.08 208.81C2174.54 208.81 2173.68 210.7 2173.19 212.76L2172.11 218.06H2168.81L2171.3 206.12H2171.31Z" fill="white"/>
<path fill-rule="evenodd" clip-rule="evenodd" d="M1447.16 46.6301C1446.22 47.7801 1444.93 48.4301 1443.28 48.4301C1440.62 48.5001 1438.32 46.2001 1438.17 43.4701C1438.31 40.5901 1440.47 38.3601 1443.13 38.2901C1444.78 38.2901 1446.37 39.0801 1447.3 40.3001L1456.07 40.1601C1454.7 34.3301 1449.31 30.1601 1443.12 30.3101C1437.65 30.3801 1434.27 33.8301 1433.7 34.7701C1432.98 33.8401 1429.67 30.4501 1424.06 30.6001C1416.87 30.6701 1411.11 36.5701 1411.26 43.7601C1411.33 50.8801 1417.23 56.6301 1424.42 56.5601C1430.25 56.4901 1433.41 52.8201 1433.99 52.2401C1434.57 52.8201 1437.95 56.3401 1443.48 56.2701C1449.59 56.2001 1454.7 52.1701 1456.07 46.4901H1456L1447.15 46.6301H1447.16ZM1424.36 48.6401C1421.48 48.7101 1419.18 46.4101 1419.11 43.6101C1419.11 40.8001 1421.34 38.5101 1424.14 38.4301C1426.94 38.3601 1429.25 40.5901 1429.39 43.6101C1429.32 46.3401 1427.09 48.6401 1424.36 48.6401ZM1489.81 43.7501C1490.39 39.7201 1493.77 38.5001 1497.36 38.5001C1500.24 38.5001 1504.05 39.0801 1503.98 42.6701C1503.98 43.3201 1503.84 44.4001 1503.69 45.3301L1502.25 51.7301C1502.11 52.3101 1502.03 53.3101 1502.03 53.8901C1502.03 54.1801 1502.1 54.5401 1502.17 54.8301H1497.78V53.2501C1496.63 54.6201 1494.76 55.2601 1492.96 55.2601C1489.43 55.2601 1487.78 53.3201 1487.78 51.0901C1487.78 48.0001 1490.08 46.1301 1493.89 45.7001C1497.99 45.2001 1499.93 45.4101 1499.93 43.3301C1499.93 41.8201 1498.28 41.3901 1497.13 41.3901C1495.62 41.3901 1494.18 42.1801 1493.89 43.7601H1489.79L1489.81 43.7501ZM1563.89 38.5001C1568.28 38.5001 1571.3 40.6601 1571.3 45.2601C1571.3 50.8001 1567.85 55.2601 1562.02 55.2601C1557.63 55.2601 1554.76 52.9601 1554.76 48.4301C1554.76 43.0401 1558.21 38.5001 1563.89 38.5001ZM1539.58 38.9301H1543.82L1543.39 40.8701L1543.46 40.9401C1544.47 39.2101 1546.27 38.4901 1548.21 38.4901C1552.02 38.4901 1554.25 40.9401 1554.25 44.7501C1554.25 50.0001 1551.52 55.2501 1545.62 55.2501C1543.75 55.2501 1541.81 54.4601 1541.16 52.7301H1541.09L1539.36 60.4301H1535.04L1539.57 38.9301H1539.58ZM1469.17 36.9201H1462.27L1463.13 32.8901H1481.47L1480.61 36.9201H1474.07L1470.26 54.8301H1465.44L1469.18 36.9201H1469.17ZM1562.24 51.9501C1565.55 51.9501 1566.91 47.9901 1566.91 45.2601C1566.91 43.1701 1566.05 41.8101 1563.75 41.8101C1560.51 41.8101 1559.15 45.6901 1559.15 48.4301C1559.15 50.3001 1560.23 51.9501 1562.24 51.9501ZM1541.96 48.5001C1541.96 50.5901 1543.04 51.9501 1545.12 51.9501C1548.43 51.9501 1549.87 48.1401 1549.87 45.3301C1549.87 43.3901 1548.86 41.8101 1546.78 41.8101C1543.54 41.8101 1541.96 45.7701 1541.96 48.5001ZM1532.9 43.5401C1532.9 42.2501 1532.11 41.3801 1530.46 41.3801C1528.95 41.3801 1527.8 41.8101 1527.8 42.9601C1527.8 43.6801 1528.3 44.1101 1529.74 44.6101L1531.97 45.2601C1534.27 46.0501 1536.14 47.2001 1536.14 49.8601C1536.14 53.8201 1532.26 55.2501 1528.59 55.2501C1525.5 55.2501 1521.83 54.0301 1521.83 50.2901V49.6401H1525.86V50.1401C1525.86 51.6501 1527.51 52.3001 1529.02 52.3001C1530.32 52.3001 1531.75 51.8701 1531.75 50.4301C1531.75 49.2801 1531.17 48.9901 1530.17 48.6301L1526.86 47.6201C1524.63 46.9001 1523.41 46.0401 1523.41 43.5201C1523.41 39.7801 1527.37 38.4901 1530.46 38.4901C1533.91 38.4901 1537 39.5001 1537 43.5201H1532.9V43.5401ZM1507.44 38.9401H1511.61L1511.11 41.1701H1511.18C1512.62 39.3701 1514.49 38.5101 1516.72 38.5101C1519.74 38.5101 1521.39 40.0201 1521.39 42.7501C1521.39 43.4001 1521.03 44.9801 1520.96 45.4801L1518.94 54.8301H1514.63L1516.57 45.4801C1516.64 45.0501 1516.79 43.9701 1516.79 43.5401C1516.79 42.6101 1515.71 41.9601 1514.7 41.9601C1512.04 41.9601 1510.75 44.1901 1510.24 46.3501L1508.44 54.8401H1504.12L1507.43 38.9501L1507.44 38.9401ZM1499.1 47.2101C1497.95 47.8601 1496.66 47.8601 1495.43 48.0001C1493.7 48.1401 1492.19 48.5801 1492.19 50.5901C1492.19 51.7401 1493.27 52.3201 1494.56 52.3201C1497.29 52.3201 1498.16 50.4501 1498.66 48.7201L1499.09 47.2101H1499.1ZM1478.89 38.9401H1483.06L1482.41 41.8201H1482.48C1483.49 39.6601 1485.64 38.5101 1487.95 38.5101C1488.45 38.5101 1488.88 38.5101 1489.32 38.5801L1488.46 42.8201C1487.81 42.6801 1487.17 42.5301 1486.59 42.5301C1483.21 42.5301 1482.06 45.0501 1481.41 47.7801L1479.97 54.8301H1475.58L1478.89 38.9301V38.9401Z" fill="url(#paint32_linear_4059_1459)"/>
<mask id="mask0_4059_1459" style="mask-type:luminance" maskUnits="userSpaceOnUse" x="530" y="145" width="1493" height="83">
<path d="M2022.8 145.28H530.3V227.78H2022.8V145.28Z" fill="white"/>
</mask>
<g mask="url(#mask0_4059_1459)">
<path d="M530.3 171.51C530.3 171.51 813.06 181.64 986.53 230.28C986.53 230.28 1477.25 97.5303 2010.99 230.28" stroke="#7F4D46" stroke-width="6" stroke-miterlimit="10"/>
</g>
<path fill-rule="evenodd" clip-rule="evenodd" d="M485.38 44.8298C484.44 45.9798 483.15 46.6298 481.5 46.6298C478.84 46.6998 476.54 44.3998 476.39 41.6698C476.53 38.7898 478.69 36.5598 481.35 36.4898C483 36.4898 484.59 37.2798 485.52 38.4998L494.29 38.3598C492.92 32.5298 487.53 28.3598 481.34 28.5098C475.87 28.5798 472.49 32.0298 471.92 32.9698C471.2 32.0398 467.89 28.6498 462.28 28.7998C455.09 28.8698 449.33 34.7698 449.48 41.9598C449.55 49.0798 455.45 54.8298 462.64 54.7598C468.47 54.6898 471.63 51.0198 472.21 50.4398C472.79 51.0198 476.17 54.5398 481.7 54.4698C487.81 54.3998 492.92 50.3698 494.29 44.6898H494.22L485.37 44.8298H485.38ZM462.58 46.8398C459.7 46.9098 457.4 44.6098 457.33 41.8098C457.33 38.9998 459.56 36.7098 462.36 36.6298C465.16 36.5598 467.47 38.7898 467.61 41.8098C467.54 44.5398 465.31 46.8398 462.58 46.8398ZM528.03 41.9498C528.61 37.9198 531.99 36.6998 535.58 36.6998C538.46 36.6998 542.27 37.2798 542.2 40.8698C542.2 41.5198 542.06 42.5998 541.91 43.5298L540.47 49.9298C540.33 50.5098 540.25 51.5098 540.25 52.0898C540.25 52.3798 540.32 52.7398 540.39 53.0298H536V51.4498C534.85 52.8198 532.98 53.4598 531.18 53.4598C527.65 53.4598 526 51.5198 526 49.2898C526 46.1998 528.3 44.3298 532.11 43.8998C536.21 43.3998 538.15 43.6098 538.15 41.5298C538.15 40.0198 536.5 39.5898 535.35 39.5898C533.84 39.5898 532.4 40.3798 532.11 41.9598H528.01L528.03 41.9498ZM602.11 36.6998C606.5 36.6998 609.52 38.8598 609.52 43.4598C609.52 48.9998 606.07 53.4598 600.24 53.4598C595.85 53.4598 592.98 51.1598 592.98 46.6298C592.98 41.2398 596.43 36.6998 602.11 36.6998ZM577.8 37.1298H582.04L581.61 39.0698L581.68 39.1398C582.69 37.4098 584.49 36.6898 586.43 36.6898C590.24 36.6898 592.47 39.1398 592.47 42.9498C592.47 48.1998 589.74 53.4498 583.84 53.4498C581.97 53.4498 580.03 52.6598 579.38 50.9298H579.31L577.58 58.6298H573.26L577.79 37.1298H577.8ZM507.39 35.1198H500.49L501.35 31.0898H519.69L518.83 35.1198H512.29L508.48 53.0298H503.66L507.4 35.1198H507.39ZM600.46 50.1498C603.77 50.1498 605.13 46.1898 605.13 43.4598C605.13 41.3698 604.27 40.0098 601.97 40.0098C598.73 40.0098 597.37 43.8898 597.37 46.6298C597.37 48.4998 598.45 50.1498 600.46 50.1498ZM580.18 46.6998C580.18 48.7898 581.26 50.1498 583.34 50.1498C586.65 50.1498 588.09 46.3398 588.09 43.5298C588.09 41.5898 587.08 40.0098 585 40.0098C581.76 40.0098 580.18 43.9698 580.18 46.6998ZM571.12 41.7398C571.12 40.4498 570.33 39.5798 568.68 39.5798C567.17 39.5798 566.02 40.0098 566.02 41.1598C566.02 41.8798 566.52 42.3098 567.96 42.8098L570.19 43.4598C572.49 44.2498 574.36 45.3998 574.36 48.0598C574.36 52.0198 570.48 53.4498 566.81 53.4498C563.72 53.4498 560.05 52.2298 560.05 48.4898V47.8398H564.08V48.3398C564.08 49.8498 565.73 50.4998 567.24 50.4998C568.54 50.4998 569.97 50.0698 569.97 48.6298C569.97 47.4798 569.39 47.1898 568.39 46.8298L565.08 45.8198C562.85 45.0998 561.63 44.2398 561.63 41.7198C561.63 37.9798 565.59 36.6898 568.68 36.6898C572.13 36.6898 575.22 37.6998 575.22 41.7198H571.12V41.7398ZM545.66 37.1398H549.83L549.33 39.3698H549.4C550.84 37.5698 552.71 36.7098 554.94 36.7098C557.96 36.7098 559.61 38.2198 559.61 40.9498C559.61 41.5998 559.25 43.1798 559.18 43.6798L557.16 53.0298H552.85L554.79 43.6798C554.86 43.2498 555.01 42.1698 555.01 41.7398C555.01 40.8098 553.93 40.1598 552.92 40.1598C550.26 40.1598 548.97 42.3898 548.46 44.5498L546.66 53.0398H542.34L545.65 37.1498L545.66 37.1398ZM537.32 45.4098C536.17 46.0598 534.88 46.0598 533.65 46.1998C531.92 46.3398 530.41 46.7798 530.41 48.7898C530.41 49.9398 531.49 50.5198 532.78 50.5198C535.51 50.5198 536.38 48.6498 536.88 46.9198L537.31 45.4098H537.32ZM517.11 37.1398H521.28L520.63 40.0198H520.7C521.71 37.8598 523.86 36.7098 526.17 36.7098C526.67 36.7098 527.1 36.7098 527.54 36.7798L526.68 41.0198C526.03 40.8798 525.39 40.7298 524.81 40.7298C521.43 40.7298 520.28 43.2498 519.63 45.9798L518.19 53.0298H513.8L517.11 37.1298V37.1398Z" fill="url(#paint33_linear_4059_1459)"/>
<path d="M1862.3 74.5H1769.34V227.28H1862.3V74.5Z" fill="url(#paint34_linear_4059_1459)"/>
<path d="M1781.34 84.83V172.38H1804.82V84.5L1781.34 84.83Z" fill="url(#paint35_linear_4059_1459)"/>
<path d="M1827.95 84.83V172.38H1851.43V84.5L1827.95 84.83Z" fill="url(#paint36_linear_4059_1459)"/>
<path d="M1345 74.5H1252.04V227.28H1345V74.5Z" fill="url(#paint37_linear_4059_1459)"/>
<path d="M1264.04 84.83V172.38H1287.52V84.5L1264.04 84.83Z" fill="url(#paint38_linear_4059_1459)"/>
<path d="M1310.65 84.83V172.38H1334.12V84.5L1310.65 84.83Z" fill="url(#paint39_linear_4059_1459)"/>
<path d="M940.35 74.5H847.39V227.28H940.35V74.5Z" fill="url(#paint40_linear_4059_1459)"/>
<path d="M859.39 84.83V172.38H882.86V84.5L859.39 84.83Z" fill="url(#paint41_linear_4059_1459)"/>
<path d="M905.989 84.83V172.38H929.469V84.5L905.989 84.83Z" fill="url(#paint42_linear_4059_1459)"/>
<path d="M530.74 73.5H437.78V227.5H530.74V73.5Z" fill="url(#paint43_linear_4059_1459)"/>
<path d="M449.78 83.9098V172.16H473.25V83.5698L449.78 83.9098Z" fill="url(#paint44_linear_4059_1459)"/>
<path d="M496.391 83.9098V172.16H519.861V83.5698L496.391 83.9098Z" fill="url(#paint45_linear_4059_1459)"/>
<path d="M1648.91 74.5H1555.95V227.28H1648.91V74.5Z" fill="url(#paint46_linear_4059_1459)"/>
<path d="M1614.56 84.83V172.38H1638.04V84.5L1614.56 84.83Z" fill="url(#paint47_linear_4059_1459)"/>
<path d="M1103.69 12.96V0H1169.95V13.08" fill="url(#paint48_linear_4059_1459)"/>
<path d="M544 14.96V2H610.26V15.08" fill="url(#paint49_linear_4059_1459)"/>
<path d="M320 12.96V0H386.26V13.08" fill="url(#paint50_linear_4059_1459)"/>
<path d="M224 12.96V0H290.26V13.08" fill="url(#paint51_linear_4059_1459)"/>
<path d="M1322.3 12.96V0H1506.3V13.08" fill="url(#paint52_linear_4059_1459)"/>
<path d="M767 12.96V0H951V13.08" fill="url(#paint53_linear_4059_1459)"/>
<path d="M1678.3 12.96V0H1744.56V13.08" fill="url(#paint54_linear_4059_1459)"/>
<path d="M1927.65 13.0003V4.28027H1971.3V13.0803" fill="url(#paint55_linear_4059_1459)"/>
<path d="M2001.26 13.0003V4.28027H2044.91V13.0803" fill="url(#paint56_linear_4059_1459)"/>
<path d="M162.546 15C-30.4541 39 2.06592 228 2.06592 228H220.546L256.546 189L201.546 173V142L124.546 164L205.546 67L162.546 66V15Z" fill="url(#paint57_linear_4059_1459)"/>
<path d="M141.546 41C141.546 41 31.5459 43 8.5459 142H106.156C106.156 142 135.546 127 141.546 41Z" fill="#60636C"/>
<path fill-rule="evenodd" clip-rule="evenodd" d="M136.356 212.63C137.056 213.49 138.036 213.98 139.276 213.98C141.276 214.03 143.006 212.3 143.116 210.25C143.006 208.09 141.386 206.41 139.386 206.36C138.146 206.36 136.956 206.95 136.256 207.87L129.666 207.76C130.696 203.38 134.746 200.25 139.396 200.36C143.506 200.41 146.046 203.01 146.476 203.71C147.016 203.01 149.506 200.47 153.716 200.58C159.116 200.63 163.446 205.07 163.336 210.47C163.286 215.82 158.846 220.14 153.446 220.09C149.066 220.04 146.686 217.28 146.256 216.85C145.826 217.28 143.286 219.93 139.126 219.88C134.536 219.83 130.696 216.8 129.666 212.53H129.716L136.366 212.64L136.356 212.63ZM153.486 214.14C155.646 214.19 157.376 212.46 157.436 210.36C157.436 208.25 155.756 206.53 153.656 206.47C151.546 206.42 149.816 208.09 149.706 210.36C149.756 212.41 151.436 214.14 153.486 214.14ZM104.306 210.47C103.876 207.44 101.336 206.52 98.6359 206.52C96.4759 206.52 93.6058 206.95 93.6658 209.65C93.6658 210.14 93.7759 210.95 93.8859 211.65L94.9658 216.46C95.0758 216.89 95.1259 217.65 95.1259 218.08C95.1259 218.3 95.0759 218.57 95.0159 218.78H98.3158V217.59C99.1758 218.62 100.586 219.1 101.936 219.1C104.586 219.1 105.826 217.64 105.826 215.97C105.826 213.65 104.096 212.24 101.236 211.92C98.1559 211.54 96.6958 211.7 96.6958 210.14C96.6958 209.01 97.9358 208.68 98.8058 208.68C99.9358 208.68 101.026 209.27 101.236 210.46H104.316L104.306 210.47ZM48.6459 206.52C45.3459 206.52 43.0758 208.14 43.0758 211.6C43.0758 215.76 45.6658 219.11 50.0458 219.11C53.3458 219.11 55.5059 217.38 55.5059 213.98C55.5059 209.93 52.9159 206.52 48.6459 206.52ZM66.9158 206.84H63.7259L64.0458 208.3L63.9959 208.35C63.2359 207.05 61.8858 206.51 60.4258 206.51C57.5658 206.51 55.8859 208.35 55.8859 211.21C55.8859 215.16 57.9359 219.1 62.3759 219.1C63.7759 219.1 65.2359 218.51 65.7259 217.21H65.7759L67.0758 222.99H70.3158L66.9158 206.83V206.84ZM119.826 205.33H125.016L124.366 202.3H110.586L111.236 205.33H116.156L119.016 218.79H122.636L119.826 205.33ZM49.8959 216.62C47.4059 216.62 46.3859 213.65 46.3859 211.59C46.3859 210.02 47.0359 209 48.7659 209C51.1959 209 52.2259 211.92 52.2259 213.97C52.2259 215.38 51.4159 216.62 49.9059 216.62H49.8959ZM65.1359 214.03C65.1359 215.6 64.3259 216.62 62.7559 216.62C60.2659 216.62 59.1858 213.76 59.1858 211.65C59.1858 210.19 59.9459 209 61.5059 209C63.9359 209 65.1259 211.97 65.1259 214.03H65.1359ZM71.9458 210.3C71.9458 209.33 72.5358 208.68 73.7858 208.68C74.9158 208.68 75.7858 209 75.7858 209.87C75.7858 210.41 75.4058 210.73 74.3258 211.11L72.6459 211.6C70.9159 212.19 69.5159 213.06 69.5159 215.06C69.5159 218.03 72.4358 219.11 75.1958 219.11C77.5158 219.11 80.2759 218.19 80.2759 215.38V214.89H77.2459V215.27C77.2459 216.41 76.0059 216.89 74.8659 216.89C73.8959 216.89 72.8158 216.57 72.8158 215.48C72.8158 214.62 73.2459 214.4 74.0059 214.13L76.4959 213.37C78.1659 212.83 79.0858 212.18 79.0858 210.29C79.0858 207.48 76.1158 206.51 73.7858 206.51C71.1958 206.51 68.8659 207.27 68.8659 210.29H71.9458V210.3ZM91.0758 206.84H87.9458L88.3258 208.51H88.2759C87.1959 207.16 85.7859 206.51 84.1159 206.51C81.8459 206.51 80.6059 207.64 80.6059 209.7C80.6059 210.19 80.8758 211.38 80.9258 211.75L82.4358 218.78H85.6758L84.2158 211.75C84.1658 211.42 84.0558 210.62 84.0558 210.29C84.0558 209.59 84.8659 209.1 85.6259 209.1C87.6259 209.1 88.5959 210.78 88.9759 212.4L90.3258 218.78H93.5658L91.0758 206.84ZM97.3458 213.05C98.2058 213.54 99.1859 213.54 100.106 213.64C101.406 213.75 102.536 214.07 102.536 215.59C102.536 216.45 101.726 216.89 100.756 216.89C98.7059 216.89 98.0558 215.48 97.6758 214.19L97.3559 213.06L97.3458 213.05ZM112.536 206.84H109.406L109.896 209H109.846C109.086 207.38 107.466 206.51 105.736 206.51C105.356 206.51 105.036 206.51 104.706 206.56L105.356 209.75C105.846 209.64 106.326 209.53 106.766 209.53C109.306 209.53 110.166 211.42 110.656 213.48L111.736 218.78H115.036L112.546 206.84H112.536Z" fill="white"/>
<defs>
<radialGradient id="paint0_radial_4059_1459" cx="0" cy="0" r="1" gradientUnits="userSpaceOnUse" gradientTransform="translate(1953.94 225.18) scale(20)">
<stop offset="0.5" stop-color="#583E4B"/>
<stop offset="1" stop-color="#2A2414"/>
</radialGradient>
<radialGradient id="paint1_radial_4059_1459" cx="0" cy="0" r="1" gradientUnits="userSpaceOnUse" gradientTransform="translate(1879.44 0.499695) scale(0.5)">
<stop offset="0.5" stop-color="#583E4B"/>
<stop offset="1" stop-color="#2A2414"/>
</radialGradient>
<radialGradient id="paint2_radial_4059_1459" cx="0" cy="0" r="1" gradientUnits="userSpaceOnUse" gradientTransform="translate(1224.33 0.499695) scale(0.5)">
<stop offset="0.5" stop-color="#583E4B"/>
<stop offset="1" stop-color="#2A2414"/>
</radialGradient>
<radialGradient id="paint3_radial_4059_1459" cx="0" cy="0" r="1" gradientUnits="userSpaceOnUse" gradientTransform="translate(1149.83 0.499695) scale(0.5)">
<stop offset="0.5" stop-color="#583E4B"/>
<stop offset="1" stop-color="#2A2414"/>
</radialGradient>
<radialGradient id="paint4_radial_4059_1459" cx="0" cy="0" r="1" gradientUnits="userSpaceOnUse" gradientTransform="translate(650.3 0.499695) scale(0.5)">
<stop offset="0.5" stop-color="#583E4B"/>
<stop offset="1" stop-color="#2A2414"/>
</radialGradient>
<radialGradient id="paint5_radial_4059_1459" cx="0" cy="0" r="1" gradientUnits="userSpaceOnUse" gradientTransform="translate(575.8 0.499695) scale(0.5)">
<stop offset="0.5" stop-color="#583E4B"/>
<stop offset="1" stop-color="#2A2414"/>
</radialGradient>
<linearGradient id="paint6_linear_4059_1459" x1="313.35" y1="-0.500006" x2="313.35" y2="-0.500006" gradientUnits="userSpaceOnUse">
<stop stop-color="#464F4C"/>
<stop offset="1" stop-color="#656563"/>
</linearGradient>
<linearGradient id="paint7_linear_4059_1459" x1="270.05" y1="-0.499991" x2="270.05" y2="-0.499991" gradientUnits="userSpaceOnUse">
<stop stop-color="#7F8078"/>
<stop offset="1" stop-color="#959186"/>
</linearGradient>
<linearGradient id="paint8_linear_4059_1459" x1="355.79" y1="-0.499991" x2="355.79" y2="-0.499991" gradientUnits="userSpaceOnUse">
<stop stop-color="#7F8078"/>
<stop offset="1" stop-color="#959186"/>
</linearGradient>
<linearGradient id="paint9_linear_4059_1459" x1="2155.57" y1="120.78" x2="2155.57" y2="-135.76" gradientUnits="userSpaceOnUse">
<stop stop-color="#D2233C"/>
<stop offset="1" stop-color="#EF233C"/>
</linearGradient>
<linearGradient id="paint10_linear_4059_1459" x1="2155.57" y1="120.78" x2="2155.57" y2="-135.76" gradientUnits="userSpaceOnUse">
<stop stop-color="#D2233C"/>
<stop offset="1" stop-color="#EF233C"/>
</linearGradient>
<linearGradient id="paint11_linear_4059_1459" x1="2155.57" y1="120.78" x2="2155.57" y2="-135.76" gradientUnits="userSpaceOnUse">
<stop stop-color="#D2233C"/>
<stop offset="1" stop-color="#EF233C"/>
</linearGradient>
<linearGradient id="paint12_linear_4059_1459" x1="2155.57" y1="120.78" x2="2155.57" y2="-135.76" gradientUnits="userSpaceOnUse">
<stop stop-color="#D2233C"/>
<stop offset="1" stop-color="#EF233C"/>
</linearGradient>
<linearGradient id="paint13_linear_4059_1459" x1="2155.57" y1="120.78" x2="2155.57" y2="-135.76" gradientUnits="userSpaceOnUse">
<stop stop-color="#D2233C"/>
<stop offset="1" stop-color="#EF233C"/>
</linearGradient>
<linearGradient id="paint14_linear_4059_1459" x1="2155.57" y1="120.78" x2="2155.57" y2="-135.76" gradientUnits="userSpaceOnUse">
<stop stop-color="#D2233C"/>
<stop offset="1" stop-color="#EF233C"/>
</linearGradient>
<linearGradient id="paint15_linear_4059_1459" x1="2155.57" y1="120.78" x2="2155.57" y2="-135.76" gradientUnits="userSpaceOnUse">
<stop stop-color="#D2233C"/>
<stop offset="1" stop-color="#EF233C"/>
</linearGradient>
<linearGradient id="paint16_linear_4059_1459" x1="1967.65" y1="157.02" x2="1967.65" y2="74.5" gradientUnits="userSpaceOnUse">
<stop stop-color="#464F4C"/>
<stop offset="1" stop-color="#656563"/>
</linearGradient>
<linearGradient id="paint17_linear_4059_1459" x1="1924.34" y1="140.27" x2="1924.34" y2="84.27" gradientUnits="userSpaceOnUse">
<stop stop-color="#7F8078"/>
<stop offset="1" stop-color="#959186"/>
</linearGradient>
<linearGradient id="paint18_linear_4059_1459" x1="2010.08" y1="8.54628e-06" x2="2010.08" y2="8.54628e-06" gradientUnits="userSpaceOnUse">
<stop stop-color="#7F8078"/>
<stop offset="1" stop-color="#959186"/>
</linearGradient>
<linearGradient id="paint19_linear_4059_1459" x1="1450.6" y1="-6.1675e-06" x2="1450.6" y2="-6.1675e-06" gradientUnits="userSpaceOnUse">
<stop stop-color="#464F4C"/>
<stop offset="1" stop-color="#656563"/>
</linearGradient>
<linearGradient id="paint20_linear_4059_1459" x1="1407.3" y1="8.54628e-06" x2="1407.3" y2="8.54628e-06" gradientUnits="userSpaceOnUse">
<stop stop-color="#7F8078"/>
<stop offset="1" stop-color="#959186"/>
</linearGradient>
<linearGradient id="paint21_linear_4059_1459" x1="1493.04" y1="8.54628e-06" x2="1493.04" y2="8.54628e-06" gradientUnits="userSpaceOnUse">
<stop stop-color="#7F8078"/>
<stop offset="1" stop-color="#959186"/>
</linearGradient>
<linearGradient id="paint22_linear_4059_1459" x1="1095.49" y1="-6.1675e-06" x2="1095.49" y2="-6.1675e-06" gradientUnits="userSpaceOnUse">
<stop stop-color="#464F4C"/>
<stop offset="1" stop-color="#656563"/>
</linearGradient>
<linearGradient id="paint23_linear_4059_1459" x1="1003.73" y1="139.2" x2="1003.73" y2="83.2002" gradientUnits="userSpaceOnUse">
<stop stop-color="#7F8078"/>
<stop offset="1" stop-color="#959186"/>
</linearGradient>
<linearGradient id="paint24_linear_4059_1459" x1="1098.47" y1="139.2" x2="1098.47" y2="83.2002" gradientUnits="userSpaceOnUse">
<stop stop-color="#7F8078"/>
<stop offset="1" stop-color="#959186"/>
</linearGradient>
<linearGradient id="paint25_linear_4059_1459" x1="1190.34" y1="139.2" x2="1190.34" y2="83.2002" gradientUnits="userSpaceOnUse">
<stop stop-color="#7F8078"/>
<stop offset="1" stop-color="#959186"/>
</linearGradient>
<linearGradient id="paint26_linear_4059_1459" x1="1709.29" y1="-6.1675e-06" x2="1709.29" y2="-6.1675e-06" gradientUnits="userSpaceOnUse">
<stop stop-color="#464F4C"/>
<stop offset="1" stop-color="#656563"/>
</linearGradient>
<linearGradient id="paint27_linear_4059_1459" x1="1709.78" y1="139.93" x2="1709.78" y2="83.9302" gradientUnits="userSpaceOnUse">
<stop stop-color="#7F8078"/>
<stop offset="1" stop-color="#959186"/>
</linearGradient>
<linearGradient id="paint28_linear_4059_1459" x1="693.17" y1="-6.1675e-06" x2="693.17" y2="-6.1675e-06" gradientUnits="userSpaceOnUse">
<stop stop-color="#464F4C"/>
<stop offset="1" stop-color="#656563"/>
</linearGradient>
<linearGradient id="paint29_linear_4059_1459" x1="601.41" y1="139.2" x2="601.41" y2="83.2002" gradientUnits="userSpaceOnUse">
<stop stop-color="#7F8078"/>
<stop offset="1" stop-color="#959186"/>
</linearGradient>
<linearGradient id="paint30_linear_4059_1459" x1="696.151" y1="139.2" x2="696.151" y2="83.2002" gradientUnits="userSpaceOnUse">
<stop stop-color="#7F8078"/>
<stop offset="1" stop-color="#959186"/>
</linearGradient>
<linearGradient id="paint31_linear_4059_1459" x1="788.021" y1="139.2" x2="788.021" y2="83.2002" gradientUnits="userSpaceOnUse">
<stop stop-color="#7F8078"/>
<stop offset="1" stop-color="#959186"/>
</linearGradient>
<linearGradient id="paint32_linear_4059_1459" x1="1491.29" y1="60.4401" x2="1491.29" y2="30.3001" gradientUnits="userSpaceOnUse">
<stop stop-color="#D2233C"/>
<stop offset="1" stop-color="#EF233C"/>
</linearGradient>
<linearGradient id="paint33_linear_4059_1459" x1="529.5" y1="58.6398" x2="529.5" y2="28.4998" gradientUnits="userSpaceOnUse">
<stop stop-color="#D2233C"/>
<stop offset="1" stop-color="#EF233C"/>
</linearGradient>
<linearGradient id="paint34_linear_4059_1459" x1="1815.82" y1="227.28" x2="1815.82" y2="9.143e-06" gradientUnits="userSpaceOnUse">
<stop stop-color="#464F4C"/>
<stop offset="1" stop-color="#656563"/>
</linearGradient>
<linearGradient id="paint35_linear_4059_1459" x1="1793.08" y1="172.38" x2="1793.08" y2="84.5" gradientUnits="userSpaceOnUse">
<stop stop-color="#6A6A62"/>
<stop offset="1" stop-color="#91928A"/>
</linearGradient>
<linearGradient id="paint36_linear_4059_1459" x1="1839.69" y1="-2.27745e-06" x2="1839.69" y2="-2.27745e-06" gradientUnits="userSpaceOnUse">
<stop stop-color="#6A6A62"/>
<stop offset="1" stop-color="#91928A"/>
</linearGradient>
<linearGradient id="paint37_linear_4059_1459" x1="1298.52" y1="227.28" x2="1298.52" y2="9.143e-06" gradientUnits="userSpaceOnUse">
<stop stop-color="#464F4C"/>
<stop offset="1" stop-color="#656563"/>
</linearGradient>
<linearGradient id="paint38_linear_4059_1459" x1="1275.78" y1="-2.27745e-06" x2="1275.78" y2="-2.27745e-06" gradientUnits="userSpaceOnUse">
<stop stop-color="#6A6A62"/>
<stop offset="1" stop-color="#91928A"/>
</linearGradient>
<linearGradient id="paint39_linear_4059_1459" x1="1322.39" y1="-2.27745e-06" x2="1322.39" y2="-2.27745e-06" gradientUnits="userSpaceOnUse">
<stop stop-color="#6A6A62"/>
<stop offset="1" stop-color="#91928A"/>
</linearGradient>
<linearGradient id="paint40_linear_4059_1459" x1="893.86" y1="227.28" x2="893.86" y2="9.143e-06" gradientUnits="userSpaceOnUse">
<stop stop-color="#464F4C"/>
<stop offset="1" stop-color="#656563"/>
</linearGradient>
<linearGradient id="paint41_linear_4059_1459" x1="871.12" y1="-2.27745e-06" x2="871.12" y2="-2.27745e-06" gradientUnits="userSpaceOnUse">
<stop stop-color="#6A6A62"/>
<stop offset="1" stop-color="#91928A"/>
</linearGradient>
<linearGradient id="paint42_linear_4059_1459" x1="917.729" y1="-2.27745e-06" x2="917.729" y2="-2.27745e-06" gradientUnits="userSpaceOnUse">
<stop stop-color="#6A6A62"/>
<stop offset="1" stop-color="#91928A"/>
</linearGradient>
<linearGradient id="paint43_linear_4059_1459" x1="484.25" y1="227.5" x2="484.25" y2="73.5" gradientUnits="userSpaceOnUse">
<stop stop-color="#464F4C"/>
<stop offset="1" stop-color="#656563"/>
</linearGradient>
<linearGradient id="paint44_linear_4059_1459" x1="461.52" y1="172.16" x2="461.52" y2="83.5698" gradientUnits="userSpaceOnUse">
<stop stop-color="#6A6A62"/>
<stop offset="1" stop-color="#91928A"/>
</linearGradient>
<linearGradient id="paint45_linear_4059_1459" x1="508.121" y1="172.16" x2="508.121" y2="83.5698" gradientUnits="userSpaceOnUse">
<stop stop-color="#6A6A62"/>
<stop offset="1" stop-color="#91928A"/>
</linearGradient>
<linearGradient id="paint46_linear_4059_1459" x1="1602.43" y1="227.28" x2="1602.43" y2="9.143e-06" gradientUnits="userSpaceOnUse">
<stop stop-color="#464F4C"/>
<stop offset="1" stop-color="#656563"/>
</linearGradient>
<linearGradient id="paint47_linear_4059_1459" x1="1626.3" y1="-2.27745e-06" x2="1626.3" y2="-2.27745e-06" gradientUnits="userSpaceOnUse">
<stop stop-color="#6A6A62"/>
<stop offset="1" stop-color="#91928A"/>
</linearGradient>
<linearGradient id="paint48_linear_4059_1459" x1="1136.82" y1="13.08" x2="1136.82" y2="0" gradientUnits="userSpaceOnUse">
<stop stop-color="#4C5447"/>
<stop offset="1" stop-color="#4A3D1B"/>
</linearGradient>
<linearGradient id="paint49_linear_4059_1459" x1="577.13" y1="15.08" x2="577.13" y2="2" gradientUnits="userSpaceOnUse">
<stop stop-color="#4C5447"/>
<stop offset="1" stop-color="#4A3D1B"/>
</linearGradient>
<linearGradient id="paint50_linear_4059_1459" x1="353.13" y1="13.08" x2="353.13" y2="0" gradientUnits="userSpaceOnUse">
<stop stop-color="#4C5447"/>
<stop offset="1" stop-color="#4A3D1B"/>
</linearGradient>
<linearGradient id="paint51_linear_4059_1459" x1="257.13" y1="13.08" x2="257.13" y2="0" gradientUnits="userSpaceOnUse">
<stop stop-color="#4C5447"/>
<stop offset="1" stop-color="#4A3D1B"/>
</linearGradient>
<linearGradient id="paint52_linear_4059_1459" x1="1414.3" y1="0" x2="1414.3" y2="0" gradientUnits="userSpaceOnUse">
<stop stop-color="#4C5447"/>
<stop offset="1" stop-color="#4A3D1B"/>
</linearGradient>
<linearGradient id="paint53_linear_4059_1459" x1="859" y1="0" x2="859" y2="0" gradientUnits="userSpaceOnUse">
<stop stop-color="#4C5447"/>
<stop offset="1" stop-color="#4A3D1B"/>
</linearGradient>
<linearGradient id="paint54_linear_4059_1459" x1="1711.43" y1="0" x2="1711.43" y2="0" gradientUnits="userSpaceOnUse">
<stop stop-color="#4C5447"/>
<stop offset="1" stop-color="#4A3D1B"/>
</linearGradient>
<linearGradient id="paint55_linear_4059_1459" x1="1949.47" y1="0.000273999" x2="1949.47" y2="4.28027" gradientUnits="userSpaceOnUse">
<stop stop-color="#4C5447"/>
<stop offset="1" stop-color="#4A3D1B"/>
</linearGradient>
<linearGradient id="paint56_linear_4059_1459" x1="2023.08" y1="0.000273999" x2="2023.08" y2="4.28027" gradientUnits="userSpaceOnUse">
<stop stop-color="#4C5447"/>
<stop offset="1" stop-color="#4A3D1B"/>
</linearGradient>
<linearGradient id="paint57_linear_4059_1459" x1="128.276" y1="121.5" x2="128.276" y2="-135.04" gradientUnits="userSpaceOnUse">
<stop stop-color="#D2233C"/>
<stop offset="1" stop-color="#EF233C"/>
</linearGradient>
<clipPath id="clip0_4059_1459">
<rect width="2146" height="212.911" fill="white" transform="translate(53 15.0889)"/>
</clipPath>
</defs>
</svg>
