<svg viewBox="0 0 1922 148" fill="none" xmlns="http://www.w3.org/2000/svg">
    <g filter="url(#filter0_d_4025_3074)">
        <rect x="1" width="1920" height="132" fill="#FFC571" />
    </g>
    <rect x="1" y="22" width="1920" height="1" fill="black" />
    <rect x="1" y="108" width="1920" height="1" fill="black" />
    <rect width="53" height="28" rx="6" transform="matrix(-1 0 0 1 106 33)" fill="#154657" />
    <path d="M100.5 36.0009C103.291 35.9237 104.068 36.7636 104 39.5009" stroke="white" />
    <path d="M100.5 36.0009C103.291 35.9237 104.068 36.7636 104 39.5009" stroke="url(#paint0_linear_4025_3074)" />
    <path d="M100.496 58.5001C103.287 58.5773 104.064 57.7374 103.996 55.0001" stroke="white" />
    <path d="M100.496 58.5001C103.287 58.5773 104.064 57.7374 103.996 55.0001" stroke="url(#paint1_linear_4025_3074)" />
    <path d="M65 33H59C55.6863 33 53 35.6863 53 39V55C53 58.3137 55.6863 61 59 61H65V33Z" fill="#0A373C" />
    <rect width="9" height="21" rx="1" transform="matrix(-1 0 0 1 98 37)" fill="#D1E8F8" />
    <path d="M98 42.5V41V40L89 44V46.5L98 42.5Z" fill="url(#paint2_linear_4025_3074)" />
    <path d="M98 50.5V49V48L89 52V54.5L98 50.5Z" fill="url(#paint3_linear_4025_3074)" />
    <circle cx="1.5" cy="1.5" r="1.5" transform="matrix(-1 0 0 1 95 32)" fill="#154657" />
    <circle cx="1.5" cy="1.5" r="1.5" transform="matrix(-1 0 0 1 95 32)" fill="#154657" />
    <circle cx="1.5" cy="1.5" r="1.5" transform="matrix(-1 0 0 1 95 32)" fill="#154657" />
    <circle cx="1.5" cy="1.5" r="1.5" transform="matrix(-1 0 0 1 95 59)" fill="#154657" />
    <circle cx="1.5" cy="1.5" r="1.5" transform="matrix(-1 0 0 1 95 59)" fill="#154657" />
    <circle cx="1.5" cy="1.5" r="1.5" transform="matrix(-1 0 0 1 95 59)" fill="#154657" />
    <rect width="53" height="28" rx="6" transform="matrix(-1 0 0 1 322 67)" fill="#3A89A5" />
    <path d="M316.5 70.0009C319.291 69.9237 320.068 70.7636 320 73.5009" stroke="white" />
    <path d="M316.5 70.0009C319.291 69.9237 320.068 70.7636 320 73.5009" stroke="url(#paint4_linear_4025_3074)" />
    <path d="M316.496 92.5001C319.287 92.5773 320.064 91.7374 319.996 89.0001" stroke="white" />
    <path d="M316.496 92.5001C319.287 92.5773 320.064 91.7374 319.996 89.0001" stroke="url(#paint5_linear_4025_3074)" />
    <path d="M281 67H275C271.686 67 269 69.6863 269 73V89C269 92.3137 271.686 95 275 95H281V67Z" fill="#27748F" />
    <rect width="9" height="21" rx="1" transform="matrix(-1 0 0 1 314 71)" fill="#D1E8F8" />
    <path d="M314 76.5V75V74L305 78V80.5L314 76.5Z" fill="url(#paint6_linear_4025_3074)" />
    <path d="M314 84.5V83V82L305 86V88.5L314 84.5Z" fill="url(#paint7_linear_4025_3074)" />
    <circle cx="1.5" cy="1.5" r="1.5" transform="matrix(-1 0 0 1 311 66)" fill="#3A89A5" />
    <circle cx="1.5" cy="1.5" r="1.5" transform="matrix(-1 0 0 1 311 66)" fill="#3A89A5" />
    <circle cx="1.5" cy="1.5" r="1.5" transform="matrix(-1 0 0 1 311 66)" fill="#3A89A5" />
    <circle cx="1.5" cy="1.5" r="1.5" transform="matrix(-1 0 0 1 311 93)" fill="#3A89A5" />
    <circle cx="1.5" cy="1.5" r="1.5" transform="matrix(-1 0 0 1 311 93)" fill="#3A89A5" />
    <circle cx="1.5" cy="1.5" r="1.5" transform="matrix(-1 0 0 1 311 93)" fill="#3A89A5" />
    <rect width="53" height="28" rx="6" transform="matrix(-1 0 0 1 1599 39)" fill="#A5503A" />
    <path d="M1593.5 42.0009C1596.29 41.9237 1597.07 42.7636 1597 45.5009" stroke="white" />
    <path d="M1593.5 42.0009C1596.29 41.9237 1597.07 42.7636 1597 45.5009" stroke="url(#paint8_linear_4025_3074)" />
    <path d="M1593.5 64.5001C1596.29 64.5773 1597.06 63.7374 1597 61.0001" stroke="white" />
    <path d="M1593.5 64.5001C1596.29 64.5773 1597.06 63.7374 1597 61.0001" stroke="url(#paint9_linear_4025_3074)" />
    <path d="M1558 39H1552C1548.69 39 1546 41.6863 1546 45V61C1546 64.3137 1548.69 67 1552 67H1558V39Z"
        fill="#8B3621" />
    <rect width="9" height="21" rx="1" transform="matrix(-1 0 0 1 1591 43)" fill="#D1E8F8" />
    <path d="M1591 48.5V47V46L1582 50V52.5L1591 48.5Z" fill="url(#paint10_linear_4025_3074)" />
    <path d="M1591 56.5V55V54L1582 58V60.5L1591 56.5Z" fill="url(#paint11_linear_4025_3074)" />
    <circle cx="1.5" cy="1.5" r="1.5" transform="matrix(-1 0 0 1 1588 38)" fill="#A5503A" />
    <circle cx="1.5" cy="1.5" r="1.5" transform="matrix(-1 0 0 1 1588 38)" fill="#A5503A" />
    <circle cx="1.5" cy="1.5" r="1.5" transform="matrix(-1 0 0 1 1588 38)" fill="#A5503A" />
    <circle cx="1.5" cy="1.5" r="1.5" transform="matrix(-1 0 0 1 1588 65)" fill="#A5503A" />
    <circle cx="1.5" cy="1.5" r="1.5" transform="matrix(-1 0 0 1 1588 65)" fill="#A5503A" />
    <circle cx="1.5" cy="1.5" r="1.5" transform="matrix(-1 0 0 1 1588 65)" fill="#A5503A" />
    <rect width="53" height="28" rx="6" transform="matrix(-1 0 0 1 1887 70)" fill="#47A53A" />
    <path d="M1881.5 73.0009C1884.29 72.9237 1885.07 73.7636 1885 76.5009" stroke="white" />
    <path d="M1881.5 73.0009C1884.29 72.9237 1885.07 73.7636 1885 76.5009" stroke="url(#paint12_linear_4025_3074)" />
    <path d="M1881.5 95.5001C1884.29 95.5773 1885.06 94.7374 1885 92.0001" stroke="white" />
    <path d="M1881.5 95.5001C1884.29 95.5773 1885.06 94.7374 1885 92.0001" stroke="url(#paint13_linear_4025_3074)" />
    <path d="M1846 70H1840C1836.69 70 1834 72.6863 1834 76V92C1834 95.3137 1836.69 98 1840 98H1846V70Z"
        fill="#328328" />
    <rect width="9" height="21" rx="1" transform="matrix(-1 0 0 1 1879 74)" fill="#D1E8F8" />
    <path d="M1879 79.5V78V77L1870 81V83.5L1879 79.5Z" fill="url(#paint14_linear_4025_3074)" />
    <path d="M1879 87.5V86V85L1870 89V91.5L1879 87.5Z" fill="url(#paint15_linear_4025_3074)" />
    <circle cx="1.5" cy="1.5" r="1.5" transform="matrix(-1 0 0 1 1876 69)" fill="#47A53A" />
    <circle cx="1.5" cy="1.5" r="1.5" transform="matrix(-1 0 0 1 1876 69)" fill="#47A53A" />
    <circle cx="1.5" cy="1.5" r="1.5" transform="matrix(-1 0 0 1 1876 69)" fill="#47A53A" />
    <circle cx="1.5" cy="1.5" r="1.5" transform="matrix(-1 0 0 1 1876 96)" fill="#47A53A" />
    <circle cx="1.5" cy="1.5" r="1.5" transform="matrix(-1 0 0 1 1876 96)" fill="#47A53A" />
    <circle cx="1.5" cy="1.5" r="1.5" transform="matrix(-1 0 0 1 1876 96)" fill="#47A53A" />
    <defs>
        <filter id="filter0_d_4025_3074" x="0" y="0" width="1922" height="148" filterUnits="userSpaceOnUse"
            color-interpolation-filters="sRGB">
            <feFlood flood-opacity="0" result="BackgroundImageFix" />
            <feColorMatrix in="SourceAlpha" type="matrix" values="0 0 0 0 0 0 0 0 0 0 0 0 0 0 0 0 0 0 127 0"
                result="hardAlpha" />
            <feOffset dy="15" />
            <feGaussianBlur stdDeviation="0.5" />
            <feComposite in2="hardAlpha" operator="out" />
            <feColorMatrix type="matrix" values="0 0 0 0 0 0 0 0 0 0 0 0 0 0 0 0 0 0 0.25 0" />
            <feBlend mode="normal" in2="BackgroundImageFix" result="effect1_dropShadow_4025_3074" />
            <feBlend mode="normal" in="SourceGraphic" in2="effect1_dropShadow_4025_3074" result="shape" />
        </filter>
        <linearGradient id="paint0_linear_4025_3074" x1="102.252" y1="35.9961" x2="102.252" y2="39.5009"
            gradientUnits="userSpaceOnUse">
            <stop stop-color="white" stop-opacity="0" />
            <stop offset="1" stop-color="#ADE7F1" />
        </linearGradient>
        <linearGradient id="paint1_linear_4025_3074" x1="102.248" y1="58.5049" x2="102.248" y2="55.0001"
            gradientUnits="userSpaceOnUse">
            <stop stop-color="white" stop-opacity="0" />
            <stop offset="1" stop-color="#ADE7F1" />
        </linearGradient>
        <linearGradient id="paint2_linear_4025_3074" x1="93.5" y1="40" x2="93.5" y2="46.5"
            gradientUnits="userSpaceOnUse">
            <stop stop-color="#E2E2E2" />
            <stop offset="1" stop-color="#AFD8F5" />
        </linearGradient>
        <linearGradient id="paint3_linear_4025_3074" x1="93.5" y1="48" x2="93.5" y2="54.5"
            gradientUnits="userSpaceOnUse">
            <stop stop-color="#E2E2E2" />
            <stop offset="1" stop-color="#AFD8F5" />
        </linearGradient>
        <linearGradient id="paint4_linear_4025_3074" x1="318.252" y1="69.9961" x2="318.252" y2="73.5009"
            gradientUnits="userSpaceOnUse">
            <stop stop-color="white" stop-opacity="0" />
            <stop offset="1" stop-color="#ADE7F1" />
        </linearGradient>
        <linearGradient id="paint5_linear_4025_3074" x1="318.248" y1="92.5049" x2="318.248" y2="89.0001"
            gradientUnits="userSpaceOnUse">
            <stop stop-color="white" stop-opacity="0" />
            <stop offset="1" stop-color="#ADE7F1" />
        </linearGradient>
        <linearGradient id="paint6_linear_4025_3074" x1="309.5" y1="74" x2="309.5" y2="80.5"
            gradientUnits="userSpaceOnUse">
            <stop stop-color="#E2E2E2" />
            <stop offset="1" stop-color="#AFD8F5" />
        </linearGradient>
        <linearGradient id="paint7_linear_4025_3074" x1="309.5" y1="82" x2="309.5" y2="88.5"
            gradientUnits="userSpaceOnUse">
            <stop stop-color="#E2E2E2" />
            <stop offset="1" stop-color="#AFD8F5" />
        </linearGradient>
        <linearGradient id="paint8_linear_4025_3074" x1="1595.25" y1="41.9961" x2="1595.25" y2="45.5009"
            gradientUnits="userSpaceOnUse">
            <stop stop-color="white" stop-opacity="0" />
            <stop offset="1" stop-color="#ADE7F1" />
        </linearGradient>
        <linearGradient id="paint9_linear_4025_3074" x1="1595.25" y1="64.5049" x2="1595.25" y2="61.0001"
            gradientUnits="userSpaceOnUse">
            <stop stop-color="white" stop-opacity="0" />
            <stop offset="1" stop-color="#ADE7F1" />
        </linearGradient>
        <linearGradient id="paint10_linear_4025_3074" x1="1586.5" y1="46" x2="1586.5" y2="52.5"
            gradientUnits="userSpaceOnUse">
            <stop stop-color="#E2E2E2" />
            <stop offset="1" stop-color="#AFD8F5" />
        </linearGradient>
        <linearGradient id="paint11_linear_4025_3074" x1="1586.5" y1="54" x2="1586.5" y2="60.5"
            gradientUnits="userSpaceOnUse">
            <stop stop-color="#E2E2E2" />
            <stop offset="1" stop-color="#AFD8F5" />
        </linearGradient>
        <linearGradient id="paint12_linear_4025_3074" x1="1883.25" y1="72.9961" x2="1883.25" y2="76.5009"
            gradientUnits="userSpaceOnUse">
            <stop stop-color="white" stop-opacity="0" />
            <stop offset="1" stop-color="#ADE7F1" />
        </linearGradient>
        <linearGradient id="paint13_linear_4025_3074" x1="1883.25" y1="95.5049" x2="1883.25" y2="92.0001"
            gradientUnits="userSpaceOnUse">
            <stop stop-color="white" stop-opacity="0" />
            <stop offset="1" stop-color="#ADE7F1" />
        </linearGradient>
        <linearGradient id="paint14_linear_4025_3074" x1="1874.5" y1="77" x2="1874.5" y2="83.5"
            gradientUnits="userSpaceOnUse">
            <stop stop-color="#E2E2E2" />
            <stop offset="1" stop-color="#AFD8F5" />
        </linearGradient>
        <linearGradient id="paint15_linear_4025_3074" x1="1874.5" y1="85" x2="1874.5" y2="91.5"
            gradientUnits="userSpaceOnUse">
            <stop stop-color="#E2E2E2" />
            <stop offset="1" stop-color="#AFD8F5" />
        </linearGradient>
    </defs>
</svg>