<svg width="336" height="157" viewBox="0 0 336 157" fill="none" xmlns="http://www.w3.org/2000/svg">
<g filter="url(#filter0_d_4458_5890)">
<rect x="56.2227" y="0.0350342" width="20.0889" height="31.6955" fill="#191C42"/>
</g>
<g filter="url(#filter1_d_4458_5890)">
<rect x="281.062" y="0.0350342" width="20.0889" height="31.6955" fill="#191C42"/>
</g>
<g filter="url(#filter2_d_4458_5890)">
<rect x="0.591797" y="31.7302" width="330.694" height="119.825" fill="#434C83"/>
</g>
<rect x="118.807" y="46.419" width="203.207" height="98.1788" fill="#191C42"/>
<rect x="128.851" y="61.8799" width="182.345" height="21.6457" fill="#191C42"/>
<rect x="137.35" y="55.6956" width="166.12" height="21.6457" fill="white"/>
<rect x="137.35" y="85.0718" width="166.12" height="21.6457" fill="white"/>
<rect x="137.35" y="114.448" width="166.12" height="21.6457" fill="white"/>
<g filter="url(#filter3_di_4458_5890)">
<ellipse cx="31.6827" cy="31.6914" rx="31.6827" ry="31.6914" transform="matrix(0.869555 0.493837 -0.493438 0.869781 44.3096 50.3649)" fill="white"/>
</g>
<path d="M35.3604 87.7775L55.0629 97.4408L72.0612 76.5681" stroke="#191C42" stroke-width="3.86002"/>
<g filter="url(#filter4_d_4458_5890)">
<path d="M145.137 72.1916C144.803 72.1916 144.476 72.1351 144.157 72.0221C143.843 71.914 143.555 71.747 143.295 71.521L143.951 70.7251C144.108 70.8577 144.287 70.9633 144.489 71.042C144.69 71.1206 144.906 71.1599 145.137 71.1599C145.481 71.1599 145.793 71.069 146.073 70.8872C146.353 70.7005 146.577 70.4598 146.744 70.165C146.916 69.8653 147.002 69.5459 147.002 69.2069V61.6826H148.033V69.2069C148.033 69.7375 147.903 70.2288 147.643 70.6808C147.382 71.1328 147.034 71.4989 146.596 71.7789C146.159 72.054 145.673 72.1916 145.137 72.1916ZM153.256 61.6826H154.539L158.297 72H157.199L156.396 69.7891H151.407L150.603 72H149.505L153.256 61.6826ZM151.783 68.7574H156.013L153.898 62.9502L151.783 68.7574ZM159.674 72V61.6826H160.794L166.241 70.1355V61.6826H167.272V72H166.159L160.706 63.5471V72H159.674ZM173.396 72V62.7143H172.291L172.585 61.6826H174.428V72H173.396ZM176.641 72L181.991 62.7143H175.896V61.6826H183.185V62.7143L177.82 72H176.641ZM187.9 67.0624H192.617V68.0941H187.9V67.0624ZM201.934 72.1916C201.109 72.1916 200.397 71.9902 199.797 71.5873C199.198 71.1844 198.736 70.644 198.412 69.966C198.092 69.2831 197.933 68.5265 197.933 67.6962V61.6826H198.964V67.6962C198.964 68.325 199.08 68.9023 199.311 69.428C199.542 69.9537 199.878 70.3738 200.32 70.6882C200.763 71.0027 201.301 71.1599 201.934 71.1599C202.583 71.1599 203.126 71.0027 203.563 70.6882C204.005 70.3689 204.339 69.9463 204.565 69.4207C204.791 68.895 204.904 68.3201 204.904 67.6962V61.6826H205.936V67.6962C205.936 68.3201 205.843 68.9048 205.656 69.4501C205.474 69.9906 205.209 70.4671 204.86 70.8798C204.516 71.2925 204.096 71.6143 203.6 71.8452C203.109 72.0762 202.553 72.1916 201.934 72.1916ZM212.496 72.1916C211.799 72.1916 211.143 72.054 210.529 71.7789C209.914 71.4989 209.374 71.1132 208.907 70.6219C208.44 70.1306 208.074 69.5631 207.809 68.9195C207.544 68.271 207.411 67.5783 207.411 66.8413C207.411 66.1043 207.544 65.4141 207.809 64.7705C208.074 64.1219 208.44 63.552 208.907 63.0607C209.374 62.5694 209.914 62.1862 210.529 61.9111C211.143 61.631 211.799 61.491 212.496 61.491C213.199 61.491 213.857 61.631 214.471 61.9111C215.085 62.1862 215.626 62.5694 216.093 63.0607C216.559 63.552 216.923 64.1219 217.183 64.7705C217.449 65.4141 217.581 66.1043 217.581 66.8413C217.581 67.5783 217.449 68.271 217.183 68.9195C216.923 69.5631 216.559 70.1306 216.093 70.6219C215.626 71.1132 215.085 71.4989 214.471 71.7789C213.857 72.054 213.199 72.1916 212.496 72.1916ZM212.496 71.1599C213.061 71.1599 213.587 71.0469 214.073 70.8209C214.565 70.59 214.994 70.2755 215.363 69.8776C215.736 69.4796 216.026 69.0202 216.233 68.4995C216.444 67.9787 216.549 67.426 216.549 66.8413C216.549 66.2517 216.444 65.6966 216.233 65.1758C216.021 64.6501 215.729 64.1907 215.356 63.7977C214.987 63.3997 214.557 63.0877 214.066 62.8617C213.58 62.6357 213.056 62.5227 212.496 62.5227C211.931 62.5227 211.403 62.6382 210.912 62.8691C210.425 63.0951 209.995 63.4071 209.622 63.805C209.254 64.203 208.964 64.6624 208.752 65.1831C208.546 65.7039 208.443 66.2566 208.443 66.8413C208.443 67.4358 208.549 67.9934 208.76 68.5142C208.971 69.035 209.261 69.4943 209.629 69.8923C210.003 70.2903 210.433 70.6022 210.919 70.8282C211.41 71.0493 211.936 71.1599 212.496 71.1599ZM226.262 61.6826V62.7143H222.725V72H221.693V62.7143H218.163V61.6826H226.262ZM235.546 61.6826V62.7143H232.009V72H230.977V62.7143H227.447V61.6826H235.546ZM239.201 61.6826H240.484L244.242 72H243.144L242.341 69.7891H237.351L236.548 72H235.45L239.201 61.6826ZM237.727 68.7574H241.957L239.842 62.9502L237.727 68.7574ZM252.067 61.6826H253.099V72H252.067V66.9887H246.651V72H245.619V61.6826H246.651V65.957H252.067V61.6826ZM258.33 61.6826H259.613L263.371 72H262.273L261.47 69.7891H256.481L255.677 72H254.579L258.33 61.6826ZM256.857 68.7574H261.087L258.972 62.9502L256.857 68.7574ZM269.034 72.1916C268.337 72.1916 267.681 72.054 267.067 71.7789C266.452 71.4989 265.912 71.1157 265.445 70.6293C264.983 70.138 264.62 69.568 264.355 68.9195C264.094 68.271 263.964 67.5783 263.964 66.8413C263.964 66.1043 264.094 65.4116 264.355 64.7631C264.62 64.1146 264.983 63.5471 265.445 63.0607C265.912 62.5694 266.452 62.1862 267.067 61.9111C267.681 61.631 268.337 61.491 269.034 61.491C269.869 61.491 270.638 61.6851 271.341 62.0732C272.044 62.4613 272.626 62.9772 273.088 63.6208L272.174 64.1146C271.81 63.6282 271.348 63.2425 270.788 62.9575C270.233 62.6677 269.648 62.5227 269.034 62.5227C268.469 62.5227 267.941 62.6382 267.45 62.8691C266.963 63.0951 266.536 63.4071 266.168 63.805C265.799 64.203 265.512 64.6624 265.305 65.1831C265.099 65.7039 264.996 66.2566 264.996 66.8413C264.996 67.4358 265.099 67.9934 265.305 68.5142C265.517 69.035 265.806 69.4943 266.175 69.8923C266.548 70.2903 266.978 70.6022 267.465 70.8282C267.956 71.0493 268.479 71.1599 269.034 71.1599C269.673 71.1599 270.265 71.0149 270.81 70.7251C271.361 70.4303 271.815 70.0471 272.174 69.5754L273.088 70.0692C272.626 70.7128 272.044 71.2287 271.341 71.6168C270.638 72 269.869 72.1916 269.034 72.1916ZM281.233 72H279.899L276.517 67.3645L275.64 68.4184V72H274.608V61.6826H275.64V66.8118L279.936 61.6826H281.285L277.195 66.5539L281.233 72ZM286.162 72L291.513 62.7143H285.418V61.6826H292.707V62.7143L287.342 72H286.162Z" fill="#1A2399"/>
</g>
<g filter="url(#filter5_d_4458_5890)">
<path d="M142.012 101.533C142.121 101.7 142.278 101.828 142.484 101.916C142.681 102.014 142.912 102.063 143.177 102.063C143.403 102.063 143.624 101.96 143.84 101.754C144.066 101.557 144.179 101.218 144.179 100.737V89.6826H145.358V100.884C145.358 101.287 145.304 101.636 145.196 101.931C145.098 102.226 144.95 102.471 144.754 102.668C144.557 102.864 144.317 103.007 144.032 103.095C143.757 103.193 143.447 103.243 143.103 103.243C142.848 103.243 142.602 103.198 142.366 103.11C142.121 103.031 141.914 102.933 141.747 102.815C141.57 102.707 141.443 102.604 141.364 102.506L142.012 101.533ZM148.708 96.9048L149.15 95.7256H153.719L154.161 96.9048H148.708ZM151.405 92.0114L149.666 96.1089L149.548 96.3742L148.015 100H146.615L151.405 89.1667L156.195 100H154.795L153.291 96.4626L153.173 96.1678L151.405 92.0114ZM165.262 89.6826H166.515V100.516L158.703 92.3209V100H157.45V89.1667L165.262 97.3617V89.6826ZM173.298 91.7166V90.4196L176.835 89.5352V100H175.582V91.0386L173.298 91.7166ZM179.933 92.1735C179.933 91.6822 180.056 91.24 180.302 90.847C180.557 90.4441 180.896 90.1248 181.319 89.8889C181.751 89.6531 182.237 89.5352 182.778 89.5352C183.318 89.5352 183.8 89.6531 184.222 89.8889C184.654 90.1248 184.993 90.4441 185.239 90.847C185.495 91.24 185.622 91.6822 185.622 92.1735C185.622 92.5764 185.554 92.94 185.416 93.2642C185.278 93.5786 185.082 93.8489 184.826 94.0749C184.581 94.3009 184.281 94.4728 183.927 94.5907C183.583 94.7086 183.2 94.7676 182.778 94.7676C182.355 94.7676 181.967 94.7086 181.613 94.5907C181.269 94.4728 180.97 94.3009 180.714 94.0749C180.469 93.8489 180.277 93.5786 180.139 93.2642C180.002 92.94 179.933 92.5764 179.933 92.1735ZM181.127 92.3209C181.127 92.6452 181.201 92.9301 181.348 93.1758C181.505 93.4214 181.707 93.613 181.952 93.7506C182.208 93.8882 182.483 93.957 182.778 93.957C183.072 93.957 183.343 93.8882 183.588 93.7506C183.844 93.613 184.045 93.4214 184.193 93.1758C184.35 92.9301 184.428 92.6452 184.428 92.3209C184.428 91.9966 184.355 91.7068 184.207 91.4513C184.07 91.1958 183.878 90.9993 183.633 90.8617C183.387 90.7143 183.102 90.6406 182.778 90.6406C182.463 90.6406 182.178 90.7143 181.923 90.8617C181.677 90.9993 181.481 91.1958 181.333 91.4513C181.196 91.7068 181.127 91.9966 181.127 92.3209ZM179.565 97.1996C179.565 96.7279 179.648 96.3103 179.815 95.9467C179.992 95.5733 180.228 95.2638 180.523 95.0182C180.827 94.7627 181.171 94.5711 181.554 94.4433C181.947 94.3156 182.355 94.2517 182.778 94.2517C183.2 94.2517 183.603 94.3156 183.986 94.4433C184.379 94.5711 184.723 94.7627 185.018 95.0182C185.323 95.2638 185.558 95.5733 185.726 95.9467C185.902 96.3103 185.991 96.7279 185.991 97.1996C185.991 97.6024 185.907 97.9807 185.74 98.3345C185.583 98.6882 185.357 99.0027 185.062 99.2778C184.777 99.5529 184.438 99.7691 184.045 99.9263C183.662 100.074 183.24 100.147 182.778 100.147C182.316 100.147 181.888 100.074 181.495 99.9263C181.112 99.7691 180.773 99.5529 180.478 99.2778C180.193 99.0027 179.967 98.6882 179.8 98.3345C179.643 97.9807 179.565 97.6024 179.565 97.1996ZM180.758 97.0522C180.758 97.4747 180.852 97.8333 181.038 98.1281C181.235 98.4229 181.486 98.6489 181.79 98.8061C182.105 98.9633 182.434 99.042 182.778 99.042C183.122 99.042 183.446 98.9633 183.75 98.8061C184.065 98.6489 184.315 98.4229 184.502 98.1281C184.699 97.8333 184.797 97.4747 184.797 97.0522C184.797 96.6788 184.699 96.3447 184.502 96.0499C184.315 95.7453 184.065 95.5046 183.75 95.3277C183.446 95.1508 183.122 95.0624 182.778 95.0624C182.434 95.0624 182.105 95.1508 181.79 95.3277C181.486 95.5046 181.235 95.7453 181.038 96.0499C180.852 96.3447 180.758 96.6788 180.758 97.0522ZM191.293 97.0522V95.9467H194.24V97.0522H191.293ZM199.838 89.6826H201.091V96.61C201.091 97.3175 201.282 97.8874 201.665 98.3197C202.049 98.7521 202.609 98.9683 203.346 98.9683C204.083 98.9683 204.643 98.7521 205.026 98.3197C205.409 97.8874 205.601 97.3175 205.601 96.61V89.6826H206.854V96.61C206.854 97.121 206.77 97.5926 206.603 98.025C206.446 98.4573 206.21 98.8307 205.896 99.1451C205.591 99.4596 205.223 99.7052 204.79 99.8821C204.358 100.059 203.876 100.147 203.346 100.147C202.815 100.147 202.334 100.059 201.901 99.8821C201.469 99.7052 201.096 99.4596 200.781 99.1451C200.477 98.8307 200.241 98.4573 200.074 98.025C199.916 97.5926 199.838 97.121 199.838 96.61V89.6826ZM209.875 94.8413C209.875 95.6176 210.042 96.3103 210.376 96.9195C210.72 97.5287 211.187 98.0102 211.776 98.364C212.366 98.7177 213.034 98.8946 213.781 98.8946C214.537 98.8946 215.205 98.7177 215.785 98.364C216.375 98.0102 216.837 97.5287 217.171 96.9195C217.515 96.3103 217.687 95.6176 217.687 94.8413C217.687 94.065 217.515 93.3723 217.171 92.7631C216.837 92.1539 216.375 91.6724 215.785 91.3186C215.205 90.9649 214.537 90.788 213.781 90.788C213.034 90.788 212.366 90.9649 211.776 91.3186C211.187 91.6724 210.72 92.1539 210.376 92.7631C210.042 93.3723 209.875 94.065 209.875 94.8413ZM208.548 94.8413C208.548 94.0847 208.676 93.387 208.932 92.7483C209.197 92.0998 209.565 91.5397 210.037 91.0681C210.509 90.5866 211.064 90.2132 211.702 89.9479C212.341 89.6728 213.034 89.5352 213.781 89.5352C214.537 89.5352 215.23 89.6728 215.859 89.9479C216.498 90.2132 217.053 90.5866 217.524 91.0681C217.996 91.5397 218.36 92.0998 218.615 92.7483C218.88 93.387 219.013 94.0847 219.013 94.8413C219.013 95.5881 218.88 96.2857 218.615 96.9343C218.36 97.5828 217.996 98.1478 217.524 98.6293C217.053 99.1009 216.498 99.4743 215.859 99.7494C215.23 100.015 214.537 100.147 213.781 100.147C213.034 100.147 212.341 100.015 211.702 99.7494C211.064 99.4743 210.509 99.1009 210.037 98.6293C209.565 98.1478 209.197 97.5828 208.932 96.9343C208.676 96.2857 208.548 95.5881 208.548 94.8413ZM219.304 90.8617V89.6826H225.863V90.8617H223.21V100H221.957V90.8617H219.304ZM226.602 90.8617V89.6826H233.161V90.8617H230.508V100H229.255V90.8617H226.602ZM234.005 96.9048L234.447 95.7256H239.016L239.458 96.9048H234.005ZM236.702 92.0114L234.963 96.1089L234.845 96.3742L233.312 100H231.912L236.702 89.1667L241.492 100H240.092L238.588 96.4626L238.47 96.1678L236.702 92.0114ZM243.44 94.9887V93.8096H250.515V94.9887H243.44ZM249.675 89.6826H250.927V100H249.675V89.6826ZM242.747 89.6826H244V100H242.747V89.6826ZM254.271 96.9048L254.713 95.7256H259.282L259.724 96.9048H254.271ZM256.968 92.0114L255.229 96.1089L255.111 96.3742L253.578 100H252.178L256.968 89.1667L261.758 100H260.358L258.855 96.4626L258.737 96.1678L256.968 92.0114ZM263.304 94.8413C263.304 95.6372 263.481 96.3398 263.835 96.949C264.198 97.5582 264.67 98.0348 265.25 98.3787C265.83 98.7226 266.458 98.8946 267.136 98.8946C267.628 98.8946 268.075 98.8307 268.478 98.703C268.89 98.5752 269.264 98.3983 269.598 98.1723C269.932 97.9365 270.217 97.6663 270.453 97.3617V99.0125C270.02 99.3957 269.549 99.6807 269.038 99.8673C268.527 100.054 267.893 100.147 267.136 100.147C266.419 100.147 265.746 100.02 265.117 99.7642C264.498 99.4989 263.953 99.1304 263.481 98.6587C263.009 98.1773 262.641 97.6123 262.376 96.9637C262.11 96.3152 261.978 95.6077 261.978 94.8413C261.978 94.0749 262.11 93.3674 262.376 92.7189C262.641 92.0703 263.009 91.5103 263.481 91.0386C263.953 90.5571 264.498 90.1886 265.117 89.9332C265.746 89.6679 266.419 89.5352 267.136 89.5352C267.893 89.5352 268.527 89.6286 269.038 89.8153C269.549 90.0019 270.02 90.2869 270.453 90.6701V92.3209C270.217 92.0163 269.932 91.751 269.598 91.525C269.264 91.2892 268.89 91.1074 268.478 90.9796C268.075 90.8519 267.628 90.788 267.136 90.788C266.458 90.788 265.83 90.96 265.25 91.3039C264.67 91.6478 264.198 92.1244 263.835 92.7336C263.481 93.333 263.304 94.0356 263.304 94.8413ZM272.657 89.6826H273.91V100H272.657V89.6826ZM277.963 89.6826H279.511L275.045 94.517L279.732 100H278.184L273.527 94.5465L277.963 89.6826ZM284.673 90.8617V89.6826H291.895L286.958 100H285.646L290.023 90.8617H284.673Z" fill="#191C42"/>
</g>
<g filter="url(#filter6_d_4458_5890)">
<path d="M144.167 130.147C143.833 130.147 143.489 130.103 143.135 130.015C142.791 129.936 142.531 129.848 142.354 129.749C142.354 129.484 142.388 129.288 142.457 129.16C142.536 129.032 142.634 128.968 142.752 128.968C142.791 128.968 142.958 129.012 143.253 129.101C143.548 129.189 143.862 129.234 144.196 129.234C145.356 129.234 145.935 128.59 145.935 127.303V119.683H146.997V127.303C146.997 128.187 146.741 128.885 146.23 129.396C145.729 129.897 145.041 130.147 144.167 130.147ZM156.117 130C155.851 128.782 155.601 127.784 155.365 127.008H150.354C150.118 127.784 149.867 128.782 149.602 130H148.511C149.022 127.897 149.577 126.03 150.177 124.399C150.776 122.758 151.488 121.186 152.314 119.683H153.419C154.235 121.176 154.942 122.743 155.542 124.384C156.141 126.016 156.696 127.887 157.207 130H156.117ZM155.114 126.124C154.515 124.217 153.763 122.429 152.859 120.759C151.955 122.429 151.203 124.217 150.604 126.124H155.114ZM166.274 127.981C166.274 128.285 166.283 128.644 166.303 129.057C166.323 129.332 166.332 129.514 166.332 129.602C166.332 129.867 166.205 130 165.949 130H165.212V129.204C165.212 128.634 165.021 128.089 164.637 127.568L159.759 121.142V130H158.698V119.683H159.552C159.68 119.683 159.778 119.702 159.847 119.742C159.926 119.771 160.014 119.85 160.113 119.977L165.212 126.684V119.683H166.274V127.981ZM177.037 129.189V130H172.556V129.189H174.354V120.906C174.099 121.122 173.804 121.314 173.47 121.481C173.146 121.638 172.861 121.717 172.615 121.717C172.438 121.717 172.3 121.672 172.202 121.584C172.114 121.486 172.07 121.373 172.07 121.245C172.07 121.147 172.094 121.058 172.143 120.98C172.536 120.94 172.954 120.813 173.396 120.596C173.838 120.37 174.256 120.066 174.649 119.683H175.312V129.189H177.037ZM182.21 119.683C183.458 119.683 184.357 120.081 184.907 120.876C185.457 121.672 185.733 122.699 185.733 123.957C185.733 125.087 185.507 126.124 185.055 127.067C184.612 128 184.018 128.742 183.271 129.293C182.534 129.833 181.753 130.103 180.928 130.103C180.436 130.103 180.191 129.828 180.191 129.278C181.321 129.278 182.269 128.944 183.035 128.276C183.812 127.598 184.332 126.694 184.598 125.564C184.322 125.79 183.974 125.981 183.551 126.138C183.129 126.296 182.701 126.374 182.269 126.374C181.591 126.374 180.996 126.242 180.485 125.976C179.984 125.701 179.596 125.318 179.321 124.827C179.046 124.325 178.908 123.746 178.908 123.087C178.908 122.449 179.051 121.869 179.336 121.348C179.631 120.827 180.028 120.42 180.53 120.125C181.031 119.83 181.591 119.683 182.21 119.683ZM182.269 125.505C182.799 125.505 183.271 125.401 183.684 125.195C184.106 124.979 184.465 124.689 184.76 124.325C184.77 124.247 184.774 124.124 184.774 123.957C184.774 122.955 184.578 122.139 184.185 121.51C183.792 120.872 183.124 120.552 182.18 120.552C181.443 120.552 180.874 120.798 180.471 121.289C180.068 121.771 179.866 122.37 179.866 123.087C179.866 123.903 180.073 124.512 180.485 124.915C180.898 125.308 181.493 125.505 182.269 125.505ZM191.362 125.033H196.668V125.917H191.362V125.033ZM206.607 130.147C205.261 130.147 204.258 129.833 203.6 129.204C202.951 128.565 202.627 127.598 202.627 126.3V119.683H203.688V126.448C203.688 127.401 203.924 128.104 204.396 128.556C204.868 129.008 205.604 129.234 206.607 129.234C207.619 129.234 208.356 129.012 208.818 128.57C209.279 128.118 209.51 127.411 209.51 126.448V119.683H210.572V126.3C210.572 127.617 210.252 128.59 209.614 129.219C208.975 129.838 207.973 130.147 206.607 130.147ZM216.806 130.147C215.421 130.147 214.355 129.686 213.608 128.762C212.871 127.838 212.502 126.512 212.502 124.782C212.502 123.092 212.871 121.795 213.608 120.891C214.355 119.987 215.421 119.535 216.806 119.535C218.192 119.535 219.253 119.987 219.99 120.891C220.737 121.795 221.11 123.092 221.11 124.782C221.11 126.512 220.737 127.838 219.99 128.762C219.253 129.686 218.192 130.147 216.806 130.147ZM216.806 129.204C217.868 129.204 218.668 128.836 219.209 128.099C219.749 127.352 220.019 126.246 220.019 124.782C220.019 121.913 218.948 120.479 216.806 120.479C214.664 120.479 213.593 121.913 213.593 124.782C213.593 126.246 213.863 127.352 214.404 128.099C214.944 128.836 215.745 129.204 216.806 129.204ZM229.463 119.683C229.502 119.859 229.522 119.977 229.522 120.036C229.522 120.203 229.477 120.336 229.389 120.434C229.301 120.523 229.168 120.567 228.991 120.567H226.279V130H225.218V120.567H222.034V119.683H229.463ZM237.336 119.683C237.375 119.859 237.395 119.977 237.395 120.036C237.395 120.203 237.351 120.336 237.262 120.434C237.174 120.523 237.041 120.567 236.864 120.567H234.152V130H233.091V120.567H229.907V119.683H237.336ZM244.652 130C244.387 128.782 244.136 127.784 243.9 127.008H238.889C238.653 127.784 238.403 128.782 238.137 130H237.047C237.558 127.897 238.113 126.03 238.712 124.399C239.312 122.758 240.024 121.186 240.849 119.683H241.955C242.77 121.176 243.478 122.743 244.077 124.384C244.677 126.016 245.232 127.887 245.743 130H244.652ZM243.65 126.124C243.05 124.217 242.299 122.429 241.395 120.759C240.491 122.429 239.739 124.217 239.14 126.124H243.65ZM254.721 119.683V130H253.659V125.136H248.294V130H247.233V119.683H248.294V124.252H253.659V119.683H254.721ZM263.81 130C263.545 128.782 263.294 127.784 263.058 127.008H258.047C257.811 127.784 257.561 128.782 257.295 130H256.205C256.716 127.897 257.271 126.03 257.87 124.399C258.47 122.758 259.182 121.186 260.007 119.683H261.113C261.928 121.176 262.636 122.743 263.235 124.384C263.835 126.016 264.39 127.887 264.901 130H263.81ZM262.808 126.124C262.208 124.217 261.457 122.429 260.553 120.759C259.649 122.429 258.897 124.217 258.298 126.124H262.808ZM270.312 130.147C268.907 130.147 267.816 129.686 267.04 128.762C266.273 127.838 265.89 126.531 265.89 124.841C265.89 123.141 266.273 121.835 267.04 120.921C267.806 119.997 268.897 119.535 270.312 119.535C270.882 119.535 271.412 119.633 271.904 119.83C272.395 120.017 272.817 120.297 273.171 120.67C273.112 120.857 273.029 120.999 272.921 121.098C272.813 121.196 272.69 121.245 272.552 121.245C272.415 121.245 272.287 121.201 272.169 121.112C271.638 120.7 271.009 120.493 270.282 120.493C269.201 120.493 268.381 120.862 267.821 121.599C267.261 122.336 266.981 123.417 266.981 124.841C266.981 126.256 267.261 127.332 267.821 128.069C268.381 128.806 269.201 129.175 270.282 129.175C270.744 129.175 271.157 129.111 271.52 128.983C271.894 128.855 272.262 128.644 272.626 128.349C272.754 128.359 272.862 128.413 272.95 128.511C273.039 128.6 273.083 128.713 273.083 128.85C273.083 129.076 272.95 129.288 272.685 129.484C272.429 129.681 272.085 129.843 271.653 129.971C271.231 130.088 270.783 130.147 270.312 130.147ZM282.526 129.956C282.33 130.064 282.118 130.118 281.892 130.118C281.716 130.118 281.573 130.084 281.465 130.015C281.367 129.956 281.264 129.843 281.155 129.676L278.915 126.05C278.689 125.686 278.448 125.446 278.193 125.328C277.947 125.2 277.554 125.136 277.014 125.136H276.439V130H275.378V119.683H276.439V124.222H277.309C277.485 124.222 277.618 124.227 277.706 124.237L281.185 119.683H282.408L278.65 124.532C279.062 124.758 279.456 125.161 279.829 125.74L282.526 129.956ZM293.421 119.683V120.184C292.34 122.011 291.583 123.579 291.151 124.886C290.728 126.183 290.478 127.534 290.399 128.939L290.34 130H289.869C289.446 130 289.24 129.784 289.25 129.351L289.264 128.836C289.304 127.539 289.589 126.168 290.119 124.723C290.66 123.269 291.387 121.874 292.301 120.537H288.041C287.628 120.537 287.422 120.356 287.422 119.992C287.422 119.904 287.437 119.801 287.466 119.683H293.421Z" fill="#1A2399"/>
</g>
<defs>
<filter id="filter0_d_4458_5890" x="56.2227" y="0.0350342" width="23.1769" height="31.6956" filterUnits="userSpaceOnUse" color-interpolation-filters="sRGB">
<feFlood flood-opacity="0" result="BackgroundImageFix"/>
<feColorMatrix in="SourceAlpha" type="matrix" values="0 0 0 0 0 0 0 0 0 0 0 0 0 0 0 0 0 0 127 0" result="hardAlpha"/>
<feOffset dx="3.08802"/>
<feComposite in2="hardAlpha" operator="out"/>
<feColorMatrix type="matrix" values="0 0 0 0 0.0645295 0 0 0 0 0.0510937 0 0 0 0 0.454167 0 0 0 1 0"/>
<feBlend mode="normal" in2="BackgroundImageFix" result="effect1_dropShadow_4458_5890"/>
<feBlend mode="normal" in="SourceGraphic" in2="effect1_dropShadow_4458_5890" result="shape"/>
</filter>
<filter id="filter1_d_4458_5890" x="281.062" y="0.0350342" width="23.1769" height="31.6956" filterUnits="userSpaceOnUse" color-interpolation-filters="sRGB">
<feFlood flood-opacity="0" result="BackgroundImageFix"/>
<feColorMatrix in="SourceAlpha" type="matrix" values="0 0 0 0 0 0 0 0 0 0 0 0 0 0 0 0 0 0 127 0" result="hardAlpha"/>
<feOffset dx="3.08802"/>
<feComposite in2="hardAlpha" operator="out"/>
<feColorMatrix type="matrix" values="0 0 0 0 0.0645295 0 0 0 0 0.0510937 0 0 0 0 0.454167 0 0 0 1 0"/>
<feBlend mode="normal" in2="BackgroundImageFix" result="effect1_dropShadow_4458_5890"/>
<feBlend mode="normal" in="SourceGraphic" in2="effect1_dropShadow_4458_5890" result="shape"/>
</filter>
<filter id="filter2_d_4458_5890" x="0.591797" y="31.7302" width="335.325" height="124.457" filterUnits="userSpaceOnUse" color-interpolation-filters="sRGB">
<feFlood flood-opacity="0" result="BackgroundImageFix"/>
<feColorMatrix in="SourceAlpha" type="matrix" values="0 0 0 0 0 0 0 0 0 0 0 0 0 0 0 0 0 0 127 0" result="hardAlpha"/>
<feOffset dx="4.63203" dy="4.63203"/>
<feComposite in2="hardAlpha" operator="out"/>
<feColorMatrix type="matrix" values="0 0 0 0 0.0509804 0 0 0 0 0.054902 0 0 0 0 0.137255 0 0 0 1 0"/>
<feBlend mode="normal" in2="BackgroundImageFix" result="effect1_dropShadow_4458_5890"/>
<feBlend mode="normal" in="SourceGraphic" in2="effect1_dropShadow_4458_5890" result="shape"/>
</filter>
<filter id="filter3_di_4458_5890" x="20.6771" y="60.3305" width="67.2292" height="64.9461" filterUnits="userSpaceOnUse" color-interpolation-filters="sRGB">
<feFlood flood-opacity="0" result="BackgroundImageFix"/>
<feColorMatrix in="SourceAlpha" type="matrix" values="0 0 0 0 0 0 0 0 0 0 0 0 0 0 0 0 0 0 127 0" result="hardAlpha"/>
<feOffset dx="-3.86002" dy="-1.54401"/>
<feComposite in2="hardAlpha" operator="out"/>
<feColorMatrix type="matrix" values="0 0 0 0 0.0980392 0 0 0 0 0.109804 0 0 0 0 0.258824 0 0 0 1 0"/>
<feBlend mode="normal" in2="BackgroundImageFix" result="effect1_dropShadow_4458_5890"/>
<feBlend mode="normal" in="SourceGraphic" in2="effect1_dropShadow_4458_5890" result="shape"/>
<feColorMatrix in="SourceAlpha" type="matrix" values="0 0 0 0 0 0 0 0 0 0 0 0 0 0 0 0 0 0 127 0" result="hardAlpha"/>
<feOffset dx="1.54401" dy="-3.08802"/>
<feComposite in2="hardAlpha" operator="arithmetic" k2="-1" k3="1"/>
<feColorMatrix type="matrix" values="0 0 0 0 0.522222 0 0 0 0 0.558941 0 0 0 0 0.783333 0 0 0 1 0"/>
<feBlend mode="normal" in2="shape" result="effect2_innerShadow_4458_5890"/>
</filter>
<filter id="filter4_d_4458_5890" x="143.295" y="61.491" width="150.412" height="11.7007" filterUnits="userSpaceOnUse" color-interpolation-filters="sRGB">
<feFlood flood-opacity="0" result="BackgroundImageFix"/>
<feColorMatrix in="SourceAlpha" type="matrix" values="0 0 0 0 0 0 0 0 0 0 0 0 0 0 0 0 0 0 127 0" result="hardAlpha"/>
<feOffset dx="1" dy="1"/>
<feComposite in2="hardAlpha" operator="out"/>
<feColorMatrix type="matrix" values="0 0 0 0 0 0 0 0 0 0 0 0 0 0 0 0 0 0 0.25 0"/>
<feBlend mode="normal" in2="BackgroundImageFix" result="effect1_dropShadow_4458_5890"/>
<feBlend mode="normal" in="SourceGraphic" in2="effect1_dropShadow_4458_5890" result="shape"/>
</filter>
<filter id="filter5_d_4458_5890" x="141.364" y="89.1667" width="151.531" height="15.0758" filterUnits="userSpaceOnUse" color-interpolation-filters="sRGB">
<feFlood flood-opacity="0" result="BackgroundImageFix"/>
<feColorMatrix in="SourceAlpha" type="matrix" values="0 0 0 0 0 0 0 0 0 0 0 0 0 0 0 0 0 0 127 0" result="hardAlpha"/>
<feOffset dx="1" dy="1"/>
<feComposite in2="hardAlpha" operator="out"/>
<feColorMatrix type="matrix" values="0 0 0 0 0 0 0 0 0 0 0 0 0 0 0 0 0 0 0.25 0"/>
<feBlend mode="normal" in2="BackgroundImageFix" result="effect1_dropShadow_4458_5890"/>
<feBlend mode="normal" in="SourceGraphic" in2="effect1_dropShadow_4458_5890" result="shape"/>
</filter>
<filter id="filter6_d_4458_5890" x="142.354" y="119.535" width="152.067" height="11.6122" filterUnits="userSpaceOnUse" color-interpolation-filters="sRGB">
<feFlood flood-opacity="0" result="BackgroundImageFix"/>
<feColorMatrix in="SourceAlpha" type="matrix" values="0 0 0 0 0 0 0 0 0 0 0 0 0 0 0 0 0 0 127 0" result="hardAlpha"/>
<feOffset dx="1" dy="1"/>
<feComposite in2="hardAlpha" operator="out"/>
<feColorMatrix type="matrix" values="0 0 0 0 0 0 0 0 0 0 0 0 0 0 0 0 0 0 0.25 0"/>
<feBlend mode="normal" in2="BackgroundImageFix" result="effect1_dropShadow_4458_5890"/>
<feBlend mode="normal" in="SourceGraphic" in2="effect1_dropShadow_4458_5890" result="shape"/>
</filter>
</defs>
</svg>
