<svg viewBox="0 0 1583 1041" fill="none" xmlns="http://www.w3.org/2000/svg">
    <path d="M78 1027.34C172.606 937.566 623.319 420.394 686.798 350.342H1582.5L1583 731.342L78 1027.34Z"
        fill="#9EBEBD" />
    <rect x="669.046" width="482.133" height="21.6457" fill="#CECECE" />
    <path d="M1141.96 471.987L1113.49 483.799L1583 731.342V660.967L1141.96 471.987Z" fill="#6A9B9B" />
    <path d="M694.158 37.1072L670.592 21.646H1151.18V37.1072H694.158Z" fill="#9A9A9A" />
    <g filter="url(#filter0_d_4331_5778)">
        <path d="M1113.32 482.014V37.1077H1144.23V482.014C1132.67 485.782 1125.86 485.432 1113.32 482.014Z"
            fill="#CECECE" />
    </g>
    <rect x="1113.32" y="270.572" width="248.926" height="30.906" transform="rotate(-90 1113.32 270.572)"
        fill="#CECECE" />
    <g filter="url(#filter1_d_4331_5778)">
        <rect x="726.223" y="29.377" width="20.0889" height="31.6955" fill="#191C42" />
    </g>
    <g filter="url(#filter2_d_4331_5778)">
        <rect x="951.062" y="29.377" width="20.0889" height="31.6955" fill="#191C42" />
    </g>
    <g filter="url(#filter3_d_4331_5778)">
        <rect x="670.592" y="61.072" width="330.694" height="119.825" fill="#434C83" />
    </g>
    <rect x="788.807" y="75.7607" width="203.207" height="98.1788" fill="#191C42" />
    <rect x="798.851" y="91.2217" width="182.345" height="21.6457" fill="#191C42" />
    <rect x="807.35" y="85.0374" width="166.12" height="21.6457" fill="white" />
    <rect x="807.35" y="114.414" width="166.12" height="21.6457" fill="white" />
    <rect x="807.35" y="143.79" width="166.12" height="21.6457" fill="white" />
    <g filter="url(#filter4_di_4331_5778)">
        <ellipse cx="31.6827" cy="31.6914" rx="31.6827" ry="31.6914"
            transform="matrix(0.869555 0.493837 -0.493438 0.869781 714.31 79.7065)" fill="white" />
    </g>
    <path d="M705.36 117.119L725.063 126.783L742.061 105.91" stroke="#191C42" stroke-width="3.86002" />
    <g filter="url(#filter5_d_4331_5778)">
        <path d="M1114.09 143.79L992.013 19.3269H1025.21L1114.09 111.112V143.79Z" fill="#CECECE" />
    </g>
    <ellipse cx="1039.6" cy="585.222" rx="51.5073" ry="12.505" fill="#6A9B9B" />
    <path
        d="M735.055 560.712L717.053 468.675H765.06L796.654 531.2H806.065L780.562 486.182H815.567L843.919 531.135C846.938 531.058 852.194 530.916 859.073 530.727L828.069 476.678H850.27L888.9 529.898C891.882 529.815 894.947 529.729 898.079 529.641L850.27 457.67H873.575L925.526 528.869C927.706 528.807 929.893 528.745 932.083 528.683L880.576 457.67H898.079L960.587 527.877L970.589 527.593L904.079 457.67H926.583L984.091 514.193L996.242 526.865C998.256 526.807 1000.21 526.752 1002.09 526.698L1010.59 535.702L1004.89 535.884L1031.1 563.213H1005.59L979.531 536.693L969.884 537.001L996.593 563.213H960.587L939.584 537.967L932.356 538.229L950.586 563.213H923.582L905.346 539.208L895.905 539.55L913.081 563.213H880.576L862.574 540.758L850.27 541.204L862.574 560.712H819.567L808.566 535.702H798.929L811.566 560.712H735.055Z"
        fill="#80ABA8" />
    <path d="M879.576 485.682L958.087 483.181L951.586 475.677H879.576V485.682Z" fill="#80ABA8" />
    <g filter="url(#filter6_d_4331_5778)">
        <rect width="7.70465" height="124.227"
            transform="matrix(0.998516 0.0544564 -0.0544281 0.998518 813.514 313.612)" fill="#6086A2" />
    </g>
    <g filter="url(#filter7_d_4331_5778)">
        <rect width="8.64549" height="147.311" transform="matrix(0.996921 0.0784083 -0.0783677 0.996925 875.09 315.613)"
            fill="#6086A2" />
    </g>
    <rect x="730.628" y="459.832" width="145.155" height="19.8465" fill="#8EAABF" />
    <path
        d="M730.628 479.678H875.783C875.783 483.14 872.977 485.946 869.515 485.946H736.895C733.434 485.946 730.628 483.14 730.628 479.678Z"
        fill="#6590A0" />
    <path d="M801.639 390.369H772.399L834.012 456.698H881.004L801.639 390.369Z" fill="#357DAF" />
    <rect x="834.012" y="456.698" width="46.9925" height="13.5792" fill="#154B6D" />
    <path d="M890.403 375.223L894.058 325.085L905.545 326.13L901.89 376.79L890.403 375.223Z" fill="#154B6D" />
    <path d="M884.138 437.374L886.748 393.503H897.713L895.103 438.941L884.138 437.374Z" fill="#154B6D" />
    <path d="M791.196 377.312V351.198L886.748 393.503L884.137 437.374L791.196 377.312Z" fill="#357DAF" />
    <path d="M796.94 338.141V315.684L894.058 325.085L890.403 375.223L796.94 338.141Z" fill="#357DAF" />
    <path d="M772.399 401.859V390.369L834.012 456.698V470.277L772.399 401.859Z" fill="#256791" />
    <path d="M768.222 390.369H740.549L776.576 456.698H823.569L768.222 390.369Z" fill="#357DAF" />
    <rect x="776.576" y="456.698" width="46.9925" height="13.5792" fill="#154B6D" />
    <path d="M740.549 407.082V390.369L776.576 456.698V469.755L740.549 407.082Z" fill="#256791" />
    <path d="M735.328 389.848H717.053L725.407 456.699H772.4L735.328 389.848Z" fill="#357DAF" />
    <rect x="725.407" y="456.698" width="46.9925" height="13.5792" fill="#154B6D" />
    <path d="M886.748 393.503L791.196 351.199L800.073 350.677L897.713 393.503H886.748Z" fill="#256790" />
    <path
        d="M748.381 485.946H766.134V549.663C766.134 552.548 763.795 554.886 760.911 554.886H753.604C750.719 554.886 748.381 552.548 748.381 549.663V485.946Z"
        fill="url(#paint0_linear_4331_5778)" />
    <path
        d="M834.012 485.946H851.764V549.663C851.764 552.548 849.426 554.886 846.542 554.886H839.234C836.35 554.886 834.012 552.548 834.012 549.663V485.946Z"
        fill="url(#paint1_linear_4331_5778)" />
    <path
        d="M990.092 584.359V460.708C1018.42 465.153 1034.3 465.681 1062.62 460.708V584.359C1037.53 594.026 1021.82 594.534 990.092 584.359Z"
        fill="#145278" />
    <path
        d="M990.092 579.226V460.708L1034.64 464.08C1034.64 464.08 1046.95 576.439 1028.93 582.7C1010.9 588.96 1006.98 584.228 990.092 579.226Z"
        fill="#216B9C" />
    <ellipse cx="1026.6" cy="459.747" rx="36.5052" ry="10.5662" fill="#529ACC" />
    <ellipse cx="1026.02" cy="459.748" rx="20.8601" ry="4.80283" fill="#246B9F" />
    <rect x="994.661" y="507.775" width="7.99534" height="51.8706" rx="3.99767" fill="#498CB9" />
    <rect x="994.661" y="564.449" width="7.99534" height="10.5662" rx="3.99767" fill="#498CB9" />
    <path d="M151.873 1011.34L724.724 350.342H652.242L15.9082 1037.34L151.873 1011.34Z" fill="#D9D9D9" />
    <path d="M151.5 1012.12L724.723 350.342H652.242L0 1040.12L151.5 1012.12Z" fill="#F3C358" />
    <path d="M130.378 1015.98L715.226 350.342H660.24L35.5 1033.62L130.378 1015.98Z" fill="#FFE397" />
    <path d="M48.007 1031.34L669 350.342H659.999L31 1034.34L48.007 1031.34Z" fill="#F2B838" />
    <g filter="url(#filter8_d_4331_5778)">
        <path
            d="M815.137 101.533C814.803 101.533 814.476 101.477 814.157 101.364C813.843 101.256 813.555 101.089 813.295 100.863L813.951 100.067C814.108 100.2 814.287 100.305 814.489 100.384C814.69 100.462 814.906 100.502 815.137 100.502C815.481 100.502 815.793 100.411 816.073 100.229C816.353 100.042 816.577 99.8016 816.744 99.5068C816.916 99.2071 817.002 98.8877 817.002 98.5487V91.0244H818.033V98.5487C818.033 99.0793 817.903 99.5706 817.643 100.023C817.382 100.475 817.034 100.841 816.596 101.121C816.159 101.396 815.673 101.533 815.137 101.533ZM823.256 91.0244H824.539L828.297 101.342H827.199L826.396 99.1309H821.407L820.603 101.342H819.505L823.256 91.0244ZM821.783 98.0992H826.013L823.898 92.292L821.783 98.0992ZM829.674 101.342V91.0244H830.794L836.241 99.4773V91.0244H837.272V101.342H836.159L830.706 92.8889V101.342H829.674ZM843.396 101.342V92.0561H842.291L842.585 91.0244H844.428V101.342H843.396ZM846.641 101.342L851.991 92.0561H845.896V91.0244H853.185V92.0561L847.82 101.342H846.641ZM857.9 96.4042H862.617V97.4359H857.9V96.4042ZM871.934 101.533C871.109 101.533 870.397 101.332 869.797 100.929C869.198 100.526 868.736 99.9858 868.412 99.3078C868.092 98.6249 867.933 97.8683 867.933 97.038V91.0244H868.964V97.038C868.964 97.6668 869.08 98.2441 869.311 98.7698C869.542 99.2955 869.878 99.7156 870.32 100.03C870.763 100.344 871.301 100.502 871.934 100.502C872.583 100.502 873.126 100.344 873.563 100.03C874.005 99.7107 874.339 99.2881 874.565 98.7624C874.791 98.2368 874.904 97.6619 874.904 97.038V91.0244H875.936V97.038C875.936 97.6619 875.843 98.2466 875.656 98.7919C875.474 99.3324 875.209 99.8089 874.86 100.222C874.516 100.634 874.096 100.956 873.6 101.187C873.109 101.418 872.553 101.533 871.934 101.533ZM882.496 101.533C881.799 101.533 881.143 101.396 880.529 101.121C879.914 100.841 879.374 100.455 878.907 99.9637C878.44 99.4724 878.074 98.9049 877.809 98.2613C877.544 97.6128 877.411 96.9201 877.411 96.1831C877.411 95.4461 877.544 94.7559 877.809 94.1122C878.074 93.4637 878.44 92.8938 878.907 92.4025C879.374 91.9112 879.914 91.528 880.529 91.2529C881.143 90.9728 881.799 90.8328 882.496 90.8328C883.199 90.8328 883.857 90.9728 884.471 91.2529C885.085 91.528 885.626 91.9112 886.093 92.4025C886.559 92.8938 886.923 93.4637 887.183 94.1122C887.449 94.7559 887.581 95.4461 887.581 96.1831C887.581 96.9201 887.449 97.6128 887.183 98.2613C886.923 98.9049 886.559 99.4724 886.093 99.9637C885.626 100.455 885.085 100.841 884.471 101.121C883.857 101.396 883.199 101.533 882.496 101.533ZM882.496 100.502C883.061 100.502 883.587 100.389 884.073 100.163C884.565 99.9318 884.994 99.6173 885.363 99.2194C885.736 98.8214 886.026 98.362 886.233 97.8413C886.444 97.3205 886.549 96.7678 886.549 96.1831C886.549 95.5935 886.444 95.0384 886.233 94.5176C886.021 93.9919 885.729 93.5325 885.356 93.1395C884.987 92.7415 884.557 92.4295 884.066 92.2035C883.58 91.9775 883.056 91.8645 882.496 91.8645C881.931 91.8645 881.403 91.98 880.912 92.2109C880.425 92.4369 879.995 92.7489 879.622 93.1468C879.254 93.5448 878.964 94.0042 878.752 94.5249C878.546 95.0457 878.443 95.5984 878.443 96.1831C878.443 96.7776 878.549 97.3352 878.76 97.856C878.971 98.3768 879.261 98.8361 879.629 99.2341C880.003 99.6321 880.433 99.944 880.919 100.17C881.41 100.391 881.936 100.502 882.496 100.502ZM896.262 91.0244V92.0561H892.725V101.342H891.693V92.0561H888.163V91.0244H896.262ZM905.546 91.0244V92.0561H902.009V101.342H900.977V92.0561H897.447V91.0244H905.546ZM909.201 91.0244H910.484L914.242 101.342H913.144L912.341 99.1309H907.351L906.548 101.342H905.45L909.201 91.0244ZM907.727 98.0992H911.957L909.842 92.292L907.727 98.0992ZM922.067 91.0244H923.099V101.342H922.067V96.3305H916.651V101.342H915.619V91.0244H916.651V95.2987H922.067V91.0244ZM928.33 91.0244H929.613L933.371 101.342H932.273L931.47 99.1309H926.481L925.677 101.342H924.579L928.33 91.0244ZM926.857 98.0992H931.087L928.972 92.292L926.857 98.0992ZM939.034 101.533C938.337 101.533 937.681 101.396 937.067 101.121C936.452 100.841 935.912 100.457 935.445 99.9711C934.983 99.4798 934.62 98.9098 934.355 98.2613C934.094 97.6128 933.964 96.9201 933.964 96.1831C933.964 95.4461 934.094 94.7534 934.355 94.1049C934.62 93.4564 934.983 92.8889 935.445 92.4025C935.912 91.9112 936.452 91.528 937.067 91.2529C937.681 90.9728 938.337 90.8328 939.034 90.8328C939.869 90.8328 940.638 91.0269 941.341 91.415C942.044 91.8031 942.626 92.319 943.088 92.9626L942.174 93.4564C941.81 92.97 941.348 92.5843 940.788 92.2993C940.233 92.0095 939.648 91.8645 939.034 91.8645C938.469 91.8645 937.941 91.98 937.45 92.2109C936.963 92.4369 936.536 92.7489 936.168 93.1468C935.799 93.5448 935.512 94.0042 935.305 94.5249C935.099 95.0457 934.996 95.5984 934.996 96.1831C934.996 96.7776 935.099 97.3352 935.305 97.856C935.517 98.3768 935.806 98.8361 936.175 99.2341C936.548 99.6321 936.978 99.944 937.465 100.17C937.956 100.391 938.479 100.502 939.034 100.502C939.673 100.502 940.265 100.357 940.81 100.067C941.361 99.7721 941.815 99.3889 942.174 98.9172L943.088 99.411C942.626 100.055 942.044 100.57 941.341 100.959C940.638 101.342 939.869 101.533 939.034 101.533ZM951.233 101.342H949.899L946.517 96.7063L945.64 97.7602V101.342H944.608V91.0244H945.64V96.1536L949.936 91.0244H951.285L947.195 95.8957L951.233 101.342ZM956.162 101.342L961.513 92.0561H955.418V91.0244H962.707V92.0561L957.342 101.342H956.162Z"
            fill="#1A2399" />
    </g>
    <g filter="url(#filter9_d_4331_5778)">
        <path
            d="M812.012 130.875C812.121 131.042 812.278 131.169 812.484 131.258C812.681 131.356 812.912 131.405 813.177 131.405C813.403 131.405 813.624 131.302 813.84 131.096C814.066 130.899 814.179 130.56 814.179 130.079V119.024H815.358V130.226C815.358 130.629 815.304 130.978 815.196 131.273C815.098 131.567 814.95 131.813 814.754 132.01C814.557 132.206 814.317 132.349 814.032 132.437C813.757 132.535 813.447 132.584 813.103 132.584C812.848 132.584 812.602 132.54 812.366 132.452C812.121 132.373 811.914 132.275 811.747 132.157C811.57 132.049 811.443 131.946 811.364 131.847L812.012 130.875ZM818.708 126.247L819.15 125.067H823.719L824.161 126.247H818.708ZM821.405 121.353L819.666 125.451L819.548 125.716L818.015 129.342H816.615L821.405 118.509L826.195 129.342H824.795L823.291 125.804L823.173 125.51L821.405 121.353ZM835.262 119.024H836.515V129.858L828.703 121.663V129.342H827.45V118.509L835.262 126.703V119.024ZM843.298 121.058V119.761L846.835 118.877V129.342H845.582V120.38L843.298 121.058ZM849.933 121.515C849.933 121.024 850.056 120.582 850.302 120.189C850.557 119.786 850.896 119.467 851.319 119.231C851.751 118.995 852.237 118.877 852.778 118.877C853.318 118.877 853.8 118.995 854.222 119.231C854.654 119.467 854.993 119.786 855.239 120.189C855.495 120.582 855.622 121.024 855.622 121.515C855.622 121.918 855.554 122.282 855.416 122.606C855.278 122.92 855.082 123.191 854.826 123.417C854.581 123.643 854.281 123.815 853.927 123.933C853.583 124.05 853.2 124.109 852.778 124.109C852.355 124.109 851.967 124.05 851.613 123.933C851.269 123.815 850.97 123.643 850.714 123.417C850.469 123.191 850.277 122.92 850.139 122.606C850.002 122.282 849.933 121.918 849.933 121.515ZM851.127 121.663C851.127 121.987 851.201 122.272 851.348 122.518C851.505 122.763 851.707 122.955 851.952 123.092C852.208 123.23 852.483 123.299 852.778 123.299C853.072 123.299 853.343 123.23 853.588 123.092C853.844 122.955 854.045 122.763 854.193 122.518C854.35 122.272 854.428 121.987 854.428 121.663C854.428 121.338 854.355 121.049 854.207 120.793C854.07 120.538 853.878 120.341 853.633 120.204C853.387 120.056 853.102 119.982 852.778 119.982C852.463 119.982 852.178 120.056 851.923 120.204C851.677 120.341 851.481 120.538 851.333 120.793C851.196 121.049 851.127 121.338 851.127 121.663ZM849.565 126.541C849.565 126.07 849.648 125.652 849.815 125.289C849.992 124.915 850.228 124.606 850.523 124.36C850.827 124.104 851.171 123.913 851.554 123.785C851.947 123.657 852.355 123.594 852.778 123.594C853.2 123.594 853.603 123.657 853.986 123.785C854.379 123.913 854.723 124.104 855.018 124.36C855.323 124.606 855.558 124.915 855.726 125.289C855.902 125.652 855.991 126.07 855.991 126.541C855.991 126.944 855.907 127.323 855.74 127.676C855.583 128.03 855.357 128.344 855.062 128.62C854.777 128.895 854.438 129.111 854.045 129.268C853.662 129.415 853.24 129.489 852.778 129.489C852.316 129.489 851.888 129.415 851.495 129.268C851.112 129.111 850.773 128.895 850.478 128.62C850.193 128.344 849.967 128.03 849.8 127.676C849.643 127.323 849.565 126.944 849.565 126.541ZM850.758 126.394C850.758 126.816 850.852 127.175 851.038 127.47C851.235 127.765 851.486 127.991 851.79 128.148C852.105 128.305 852.434 128.384 852.778 128.384C853.122 128.384 853.446 128.305 853.75 128.148C854.065 127.991 854.315 127.765 854.502 127.47C854.699 127.175 854.797 126.816 854.797 126.394C854.797 126.021 854.699 125.686 854.502 125.392C854.315 125.087 854.065 124.846 853.75 124.669C853.446 124.493 853.122 124.404 852.778 124.404C852.434 124.404 852.105 124.493 851.79 124.669C851.486 124.846 851.235 125.087 851.038 125.392C850.852 125.686 850.758 126.021 850.758 126.394ZM861.293 126.394V125.289H864.24V126.394H861.293ZM869.838 119.024H871.091V125.952C871.091 126.659 871.282 127.229 871.665 127.662C872.049 128.094 872.609 128.31 873.346 128.31C874.083 128.31 874.643 128.094 875.026 127.662C875.409 127.229 875.601 126.659 875.601 125.952V119.024H876.854V125.952C876.854 126.463 876.77 126.934 876.603 127.367C876.446 127.799 876.21 128.172 875.896 128.487C875.591 128.801 875.223 129.047 874.79 129.224C874.358 129.401 873.876 129.489 873.346 129.489C872.815 129.489 872.334 129.401 871.901 129.224C871.469 129.047 871.096 128.801 870.781 128.487C870.477 128.172 870.241 127.799 870.074 127.367C869.916 126.934 869.838 126.463 869.838 125.952V119.024ZM879.875 124.183C879.875 124.959 880.042 125.652 880.376 126.261C880.72 126.871 881.187 127.352 881.776 127.706C882.366 128.059 883.034 128.236 883.781 128.236C884.537 128.236 885.205 128.059 885.785 127.706C886.375 127.352 886.837 126.871 887.171 126.261C887.515 125.652 887.687 124.959 887.687 124.183C887.687 123.407 887.515 122.714 887.171 122.105C886.837 121.496 886.375 121.014 885.785 120.66C885.205 120.307 884.537 120.13 883.781 120.13C883.034 120.13 882.366 120.307 881.776 120.66C881.187 121.014 880.72 121.496 880.376 122.105C880.042 122.714 879.875 123.407 879.875 124.183ZM878.548 124.183C878.548 123.426 878.676 122.729 878.932 122.09C879.197 121.442 879.565 120.882 880.037 120.41C880.509 119.928 881.064 119.555 881.702 119.29C882.341 119.015 883.034 118.877 883.781 118.877C884.537 118.877 885.23 119.015 885.859 119.29C886.498 119.555 887.053 119.928 887.524 120.41C887.996 120.882 888.36 121.442 888.615 122.09C888.88 122.729 889.013 123.426 889.013 124.183C889.013 124.93 888.88 125.628 888.615 126.276C888.36 126.925 887.996 127.49 887.524 127.971C887.053 128.443 886.498 128.816 885.859 129.091C885.23 129.357 884.537 129.489 883.781 129.489C883.034 129.489 882.341 129.357 881.702 129.091C881.064 128.816 880.509 128.443 880.037 127.971C879.565 127.49 879.197 126.925 878.932 126.276C878.676 125.628 878.548 124.93 878.548 124.183ZM889.304 120.204V119.024H895.863V120.204H893.21V129.342H891.957V120.204H889.304ZM896.602 120.204V119.024H903.161V120.204H900.508V129.342H899.255V120.204H896.602ZM904.005 126.247L904.447 125.067H909.016L909.458 126.247H904.005ZM906.702 121.353L904.963 125.451L904.845 125.716L903.312 129.342H901.912L906.702 118.509L911.492 129.342H910.092L908.588 125.804L908.47 125.51L906.702 121.353ZM913.44 124.33V123.151H920.515V124.33H913.44ZM919.675 119.024H920.927V129.342H919.675V119.024ZM912.747 119.024H914V129.342H912.747V119.024ZM924.271 126.247L924.713 125.067H929.282L929.724 126.247H924.271ZM926.968 121.353L925.229 125.451L925.111 125.716L923.578 129.342H922.178L926.968 118.509L931.758 129.342H930.358L928.855 125.804L928.737 125.51L926.968 121.353ZM933.304 124.183C933.304 124.979 933.481 125.682 933.835 126.291C934.198 126.9 934.67 127.377 935.25 127.72C935.83 128.064 936.458 128.236 937.136 128.236C937.628 128.236 938.075 128.172 938.478 128.045C938.89 127.917 939.264 127.74 939.598 127.514C939.932 127.278 940.217 127.008 940.453 126.703V128.354C940.02 128.737 939.549 129.022 939.038 129.209C938.527 129.396 937.893 129.489 937.136 129.489C936.419 129.489 935.746 129.361 935.117 129.106C934.498 128.841 933.953 128.472 933.481 128.001C933.009 127.519 932.641 126.954 932.376 126.306C932.11 125.657 931.978 124.95 931.978 124.183C931.978 123.417 932.11 122.709 932.376 122.061C932.641 121.412 933.009 120.852 933.481 120.38C933.953 119.899 934.498 119.53 935.117 119.275C935.746 119.01 936.419 118.877 937.136 118.877C937.893 118.877 938.527 118.97 939.038 119.157C939.549 119.344 940.02 119.629 940.453 120.012V121.663C940.217 121.358 939.932 121.093 939.598 120.867C939.264 120.631 938.89 120.449 938.478 120.321C938.075 120.194 937.628 120.13 937.136 120.13C936.458 120.13 935.83 120.302 935.25 120.646C934.67 120.99 934.198 121.466 933.835 122.075C933.481 122.675 933.304 123.377 933.304 124.183ZM942.657 119.024H943.91V129.342H942.657V119.024ZM947.963 119.024H949.511L945.045 123.859L949.732 129.342H948.184L943.527 123.888L947.963 119.024ZM954.673 120.204V119.024H961.895L956.958 129.342H955.646L960.023 120.204H954.673Z"
            fill="#191C42" />
    </g>
    <g filter="url(#filter10_d_4331_5778)">
        <path
            d="M814.167 159.489C813.833 159.489 813.489 159.445 813.135 159.357C812.791 159.278 812.531 159.189 812.354 159.091C812.354 158.826 812.388 158.629 812.457 158.502C812.536 158.374 812.634 158.31 812.752 158.31C812.791 158.31 812.958 158.354 813.253 158.443C813.548 158.531 813.862 158.575 814.196 158.575C815.356 158.575 815.935 157.932 815.935 156.645V149.024H816.997V156.645C816.997 157.529 816.741 158.227 816.23 158.737C815.729 159.239 815.041 159.489 814.167 159.489ZM826.117 159.342C825.851 158.123 825.601 157.126 825.365 156.35H820.354C820.118 157.126 819.867 158.123 819.602 159.342H818.511C819.022 157.239 819.577 155.372 820.177 153.741C820.776 152.1 821.488 150.528 822.314 149.024H823.419C824.235 150.518 824.942 152.085 825.542 153.726C826.141 155.357 826.696 157.229 827.207 159.342H826.117ZM825.114 155.465C824.515 153.559 823.763 151.771 822.859 150.1C821.955 151.771 821.203 153.559 820.604 155.465H825.114ZM836.274 157.323C836.274 157.627 836.283 157.986 836.303 158.398C836.323 158.674 836.332 158.855 836.332 158.944C836.332 159.209 836.205 159.342 835.949 159.342H835.212V158.546C835.212 157.976 835.021 157.431 834.637 156.91L829.759 150.484V159.342H828.698V149.024H829.552C829.68 149.024 829.778 149.044 829.847 149.083C829.926 149.113 830.014 149.191 830.113 149.319L835.212 156.025V149.024H836.274V157.323ZM847.037 158.531V159.342H842.556V158.531H844.354V150.248C844.099 150.464 843.804 150.656 843.47 150.823C843.146 150.98 842.861 151.058 842.615 151.058C842.438 151.058 842.3 151.014 842.202 150.926C842.114 150.827 842.07 150.714 842.07 150.587C842.07 150.488 842.094 150.4 842.143 150.321C842.536 150.282 842.954 150.154 843.396 149.938C843.838 149.712 844.256 149.408 844.649 149.024H845.312V158.531H847.037ZM852.21 149.024C853.458 149.024 854.357 149.422 854.907 150.218C855.457 151.014 855.733 152.041 855.733 153.299C855.733 154.429 855.507 155.465 855.055 156.409C854.612 157.342 854.018 158.084 853.271 158.634C852.534 159.175 851.753 159.445 850.928 159.445C850.436 159.445 850.191 159.17 850.191 158.62C851.321 158.62 852.269 158.285 853.035 157.617C853.812 156.939 854.332 156.035 854.598 154.905C854.322 155.131 853.974 155.323 853.551 155.48C853.129 155.637 852.701 155.716 852.269 155.716C851.591 155.716 850.996 155.583 850.485 155.318C849.984 155.043 849.596 154.66 849.321 154.168C849.046 153.667 848.908 153.087 848.908 152.429C848.908 151.79 849.051 151.211 849.336 150.69C849.631 150.169 850.028 149.761 850.53 149.467C851.031 149.172 851.591 149.024 852.21 149.024ZM852.269 154.846C852.799 154.846 853.271 154.743 853.684 154.537C854.106 154.321 854.465 154.031 854.76 153.667C854.77 153.589 854.774 153.466 854.774 153.299C854.774 152.296 854.578 151.481 854.185 150.852C853.792 150.213 853.124 149.894 852.18 149.894C851.443 149.894 850.874 150.14 850.471 150.631C850.068 151.112 849.866 151.712 849.866 152.429C849.866 153.245 850.073 153.854 850.485 154.257C850.898 154.65 851.493 154.846 852.269 154.846ZM861.362 154.375H866.668V155.259H861.362V154.375ZM876.607 159.489C875.261 159.489 874.258 159.175 873.6 158.546C872.951 157.907 872.627 156.939 872.627 155.642V149.024H873.688V155.79C873.688 156.743 873.924 157.445 874.396 157.897C874.868 158.349 875.604 158.575 876.607 158.575C877.619 158.575 878.356 158.354 878.818 157.912C879.279 157.46 879.51 156.753 879.51 155.79V149.024H880.572V155.642C880.572 156.959 880.252 157.932 879.614 158.561C878.975 159.18 877.973 159.489 876.607 159.489ZM886.806 159.489C885.421 159.489 884.355 159.027 883.608 158.104C882.871 157.18 882.502 155.854 882.502 154.124C882.502 152.434 882.871 151.137 883.608 150.233C884.355 149.329 885.421 148.877 886.806 148.877C888.192 148.877 889.253 149.329 889.99 150.233C890.737 151.137 891.11 152.434 891.11 154.124C891.11 155.854 890.737 157.18 889.99 158.104C889.253 159.027 888.192 159.489 886.806 159.489ZM886.806 158.546C887.868 158.546 888.668 158.177 889.209 157.44C889.749 156.694 890.019 155.588 890.019 154.124C890.019 151.255 888.948 149.82 886.806 149.82C884.664 149.82 883.593 151.255 883.593 154.124C883.593 155.588 883.863 156.694 884.404 157.44C884.944 158.177 885.745 158.546 886.806 158.546ZM899.463 149.024C899.502 149.201 899.522 149.319 899.522 149.378C899.522 149.545 899.477 149.678 899.389 149.776C899.301 149.865 899.168 149.909 898.991 149.909H896.279V159.342H895.218V149.909H892.034V149.024H899.463ZM907.336 149.024C907.375 149.201 907.395 149.319 907.395 149.378C907.395 149.545 907.351 149.678 907.262 149.776C907.174 149.865 907.041 149.909 906.864 149.909H904.152V159.342H903.091V149.909H899.907V149.024H907.336ZM914.652 159.342C914.387 158.123 914.136 157.126 913.9 156.35H908.889C908.653 157.126 908.403 158.123 908.137 159.342H907.047C907.558 157.239 908.113 155.372 908.712 153.741C909.312 152.1 910.024 150.528 910.849 149.024H911.955C912.77 150.518 913.478 152.085 914.077 153.726C914.677 155.357 915.232 157.229 915.743 159.342H914.652ZM913.65 155.465C913.05 153.559 912.299 151.771 911.395 150.1C910.491 151.771 909.739 153.559 909.14 155.465H913.65ZM924.721 149.024V159.342H923.659V154.478H918.294V159.342H917.233V149.024H918.294V153.594H923.659V149.024H924.721ZM933.81 159.342C933.545 158.123 933.294 157.126 933.058 156.35H928.047C927.811 157.126 927.561 158.123 927.295 159.342H926.205C926.716 157.239 927.271 155.372 927.87 153.741C928.47 152.1 929.182 150.528 930.007 149.024H931.113C931.928 150.518 932.636 152.085 933.235 153.726C933.835 155.357 934.39 157.229 934.901 159.342H933.81ZM932.808 155.465C932.208 153.559 931.457 151.771 930.553 150.1C929.649 151.771 928.897 153.559 928.298 155.465H932.808ZM940.312 159.489C938.907 159.489 937.816 159.027 937.04 158.104C936.273 157.18 935.89 155.873 935.89 154.183C935.89 152.483 936.273 151.176 937.04 150.262C937.806 149.339 938.897 148.877 940.312 148.877C940.882 148.877 941.412 148.975 941.904 149.172C942.395 149.358 942.817 149.639 943.171 150.012C943.112 150.199 943.029 150.341 942.921 150.439C942.813 150.538 942.69 150.587 942.552 150.587C942.415 150.587 942.287 150.543 942.169 150.454C941.638 150.041 941.009 149.835 940.282 149.835C939.201 149.835 938.381 150.204 937.821 150.94C937.261 151.677 936.981 152.758 936.981 154.183C936.981 155.598 937.261 156.674 937.821 157.411C938.381 158.148 939.201 158.516 940.282 158.516C940.744 158.516 941.157 158.453 941.52 158.325C941.894 158.197 942.262 157.986 942.626 157.691C942.754 157.701 942.862 157.755 942.95 157.853C943.039 157.942 943.083 158.055 943.083 158.192C943.083 158.418 942.95 158.629 942.685 158.826C942.429 159.022 942.085 159.185 941.653 159.312C941.231 159.43 940.783 159.489 940.312 159.489ZM952.526 159.298C952.33 159.406 952.118 159.46 951.892 159.46C951.716 159.46 951.573 159.425 951.465 159.357C951.367 159.298 951.264 159.185 951.155 159.018L948.915 155.392C948.689 155.028 948.448 154.787 948.193 154.669C947.947 154.542 947.554 154.478 947.014 154.478H946.439V159.342H945.378V149.024H946.439V153.564H947.309C947.485 153.564 947.618 153.569 947.706 153.579L951.185 149.024H952.408L948.65 153.874C949.062 154.1 949.456 154.502 949.829 155.082L952.526 159.298ZM963.421 149.024V149.526C962.34 151.353 961.583 152.92 961.151 154.227C960.728 155.524 960.478 156.875 960.399 158.281L960.34 159.342H959.869C959.446 159.342 959.24 159.126 959.25 158.693L959.264 158.177C959.304 156.88 959.589 155.51 960.119 154.065C960.66 152.611 961.387 151.216 962.301 149.879H958.041C957.628 149.879 957.422 149.697 957.422 149.334C957.422 149.245 957.437 149.142 957.466 149.024H963.421Z"
            fill="#1A2399" />
    </g>
    <defs>
        <filter id="filter0_d_4331_5778" x="1113.32" y="37.1077" width="37.6613" height="447.603"
            filterUnits="userSpaceOnUse" color-interpolation-filters="sRGB">
            <feFlood flood-opacity="0" result="BackgroundImageFix" />
            <feColorMatrix in="SourceAlpha" type="matrix" values="0 0 0 0 0 0 0 0 0 0 0 0 0 0 0 0 0 0 127 0"
                result="hardAlpha" />
            <feOffset dx="6.75504" />
            <feComposite in2="hardAlpha" operator="out" />
            <feColorMatrix type="matrix" values="0 0 0 0 0.662745 0 0 0 0 0.639216 0 0 0 0 0.764706 0 0 0 1 0" />
            <feBlend mode="normal" in2="BackgroundImageFix" result="effect1_dropShadow_4331_5778" />
            <feBlend mode="normal" in="SourceGraphic" in2="effect1_dropShadow_4331_5778" result="shape" />
        </filter>
        <filter id="filter1_d_4331_5778" x="726.223" y="29.377" width="23.1769" height="31.6956"
            filterUnits="userSpaceOnUse" color-interpolation-filters="sRGB">
            <feFlood flood-opacity="0" result="BackgroundImageFix" />
            <feColorMatrix in="SourceAlpha" type="matrix" values="0 0 0 0 0 0 0 0 0 0 0 0 0 0 0 0 0 0 127 0"
                result="hardAlpha" />
            <feOffset dx="3.08802" />
            <feComposite in2="hardAlpha" operator="out" />
            <feColorMatrix type="matrix" values="0 0 0 0 0.0645295 0 0 0 0 0.0510937 0 0 0 0 0.454167 0 0 0 1 0" />
            <feBlend mode="normal" in2="BackgroundImageFix" result="effect1_dropShadow_4331_5778" />
            <feBlend mode="normal" in="SourceGraphic" in2="effect1_dropShadow_4331_5778" result="shape" />
        </filter>
        <filter id="filter2_d_4331_5778" x="951.062" y="29.377" width="23.1769" height="31.6956"
            filterUnits="userSpaceOnUse" color-interpolation-filters="sRGB">
            <feFlood flood-opacity="0" result="BackgroundImageFix" />
            <feColorMatrix in="SourceAlpha" type="matrix" values="0 0 0 0 0 0 0 0 0 0 0 0 0 0 0 0 0 0 127 0"
                result="hardAlpha" />
            <feOffset dx="3.08802" />
            <feComposite in2="hardAlpha" operator="out" />
            <feColorMatrix type="matrix" values="0 0 0 0 0.0645295 0 0 0 0 0.0510937 0 0 0 0 0.454167 0 0 0 1 0" />
            <feBlend mode="normal" in2="BackgroundImageFix" result="effect1_dropShadow_4331_5778" />
            <feBlend mode="normal" in="SourceGraphic" in2="effect1_dropShadow_4331_5778" result="shape" />
        </filter>
        <filter id="filter3_d_4331_5778" x="670.592" y="61.072" width="335.325" height="124.456"
            filterUnits="userSpaceOnUse" color-interpolation-filters="sRGB">
            <feFlood flood-opacity="0" result="BackgroundImageFix" />
            <feColorMatrix in="SourceAlpha" type="matrix" values="0 0 0 0 0 0 0 0 0 0 0 0 0 0 0 0 0 0 127 0"
                result="hardAlpha" />
            <feOffset dx="4.63203" dy="4.63203" />
            <feComposite in2="hardAlpha" operator="out" />
            <feColorMatrix type="matrix" values="0 0 0 0 0.0509804 0 0 0 0 0.054902 0 0 0 0 0.137255 0 0 0 1 0" />
            <feBlend mode="normal" in2="BackgroundImageFix" result="effect1_dropShadow_4331_5778" />
            <feBlend mode="normal" in="SourceGraphic" in2="effect1_dropShadow_4331_5778" result="shape" />
        </filter>
        <filter id="filter4_di_4331_5778" x="690.677" y="89.6721" width="67.2292" height="64.9461"
            filterUnits="userSpaceOnUse" color-interpolation-filters="sRGB">
            <feFlood flood-opacity="0" result="BackgroundImageFix" />
            <feColorMatrix in="SourceAlpha" type="matrix" values="0 0 0 0 0 0 0 0 0 0 0 0 0 0 0 0 0 0 127 0"
                result="hardAlpha" />
            <feOffset dx="-3.86002" dy="-1.54401" />
            <feComposite in2="hardAlpha" operator="out" />
            <feColorMatrix type="matrix" values="0 0 0 0 0.0980392 0 0 0 0 0.109804 0 0 0 0 0.258824 0 0 0 1 0" />
            <feBlend mode="normal" in2="BackgroundImageFix" result="effect1_dropShadow_4331_5778" />
            <feBlend mode="normal" in="SourceGraphic" in2="effect1_dropShadow_4331_5778" result="shape" />
            <feColorMatrix in="SourceAlpha" type="matrix" values="0 0 0 0 0 0 0 0 0 0 0 0 0 0 0 0 0 0 127 0"
                result="hardAlpha" />
            <feOffset dx="1.54401" dy="-3.08802" />
            <feComposite in2="hardAlpha" operator="arithmetic" k2="-1" k3="1" />
            <feColorMatrix type="matrix" values="0 0 0 0 0.522222 0 0 0 0 0.558941 0 0 0 0 0.783333 0 0 0 1 0" />
            <feBlend mode="normal" in2="shape" result="effect2_innerShadow_4331_5778" />
        </filter>
        <filter id="filter5_d_4331_5778" x="990.469" y="19.3269" width="123.622" height="127.551"
            filterUnits="userSpaceOnUse" color-interpolation-filters="sRGB">
            <feFlood flood-opacity="0" result="BackgroundImageFix" />
            <feColorMatrix in="SourceAlpha" type="matrix" values="0 0 0 0 0 0 0 0 0 0 0 0 0 0 0 0 0 0 127 0"
                result="hardAlpha" />
            <feOffset dx="-1.54401" dy="3.08802" />
            <feComposite in2="hardAlpha" operator="out" />
            <feColorMatrix type="matrix" values="0 0 0 0 0.603922 0 0 0 0 0.603922 0 0 0 0 0.603922 0 0 0 1 0" />
            <feBlend mode="normal" in2="BackgroundImageFix" result="effect1_dropShadow_4331_5778" />
            <feBlend mode="normal" in="SourceGraphic" in2="effect1_dropShadow_4331_5778" result="shape" />
        </filter>
        <filter id="filter6_d_4331_5778" x="806.752" y="313.612" width="19.6778" height="124.462"
            filterUnits="userSpaceOnUse" color-interpolation-filters="sRGB">
            <feFlood flood-opacity="0" result="BackgroundImageFix" />
            <feColorMatrix in="SourceAlpha" type="matrix" values="0 0 0 0 0 0 0 0 0 0 0 0 0 0 0 0 0 0 127 0"
                result="hardAlpha" />
            <feOffset dx="5.22275" />
            <feComposite in2="hardAlpha" operator="out" />
            <feColorMatrix type="matrix" values="0 0 0 0 0.396078 0 0 0 0 0.564706 0 0 0 0 0.627451 0 0 0 1 0" />
            <feBlend mode="normal" in2="BackgroundImageFix" result="effect1_dropShadow_4331_5778" />
            <feBlend mode="normal" in="SourceGraphic" in2="effect1_dropShadow_4331_5778" result="shape" />
        </filter>
        <filter id="filter7_d_4331_5778" x="863.546" y="315.613" width="25.3858" height="147.536"
            filterUnits="userSpaceOnUse" color-interpolation-filters="sRGB">
            <feFlood flood-opacity="0" result="BackgroundImageFix" />
            <feColorMatrix in="SourceAlpha" type="matrix" values="0 0 0 0 0 0 0 0 0 0 0 0 0 0 0 0 0 0 127 0"
                result="hardAlpha" />
            <feOffset dx="5.22275" />
            <feComposite in2="hardAlpha" operator="out" />
            <feColorMatrix type="matrix" values="0 0 0 0 0.396078 0 0 0 0 0.564706 0 0 0 0 0.627451 0 0 0 1 0" />
            <feBlend mode="normal" in2="BackgroundImageFix" result="effect1_dropShadow_4331_5778" />
            <feBlend mode="normal" in="SourceGraphic" in2="effect1_dropShadow_4331_5778" result="shape" />
        </filter>
        <filter id="filter8_d_4331_5778" x="813.295" y="90.8328" width="150.412" height="11.7007"
            filterUnits="userSpaceOnUse" color-interpolation-filters="sRGB">
            <feFlood flood-opacity="0" result="BackgroundImageFix" />
            <feColorMatrix in="SourceAlpha" type="matrix" values="0 0 0 0 0 0 0 0 0 0 0 0 0 0 0 0 0 0 127 0"
                result="hardAlpha" />
            <feOffset dx="1" dy="1" />
            <feComposite in2="hardAlpha" operator="out" />
            <feColorMatrix type="matrix" values="0 0 0 0 0 0 0 0 0 0 0 0 0 0 0 0 0 0 0.25 0" />
            <feBlend mode="normal" in2="BackgroundImageFix" result="effect1_dropShadow_4331_5778" />
            <feBlend mode="normal" in="SourceGraphic" in2="effect1_dropShadow_4331_5778" result="shape" />
        </filter>
        <filter id="filter9_d_4331_5778" x="811.364" y="118.509" width="151.531" height="15.0759"
            filterUnits="userSpaceOnUse" color-interpolation-filters="sRGB">
            <feFlood flood-opacity="0" result="BackgroundImageFix" />
            <feColorMatrix in="SourceAlpha" type="matrix" values="0 0 0 0 0 0 0 0 0 0 0 0 0 0 0 0 0 0 127 0"
                result="hardAlpha" />
            <feOffset dx="1" dy="1" />
            <feComposite in2="hardAlpha" operator="out" />
            <feColorMatrix type="matrix" values="0 0 0 0 0 0 0 0 0 0 0 0 0 0 0 0 0 0 0.25 0" />
            <feBlend mode="normal" in2="BackgroundImageFix" result="effect1_dropShadow_4331_5778" />
            <feBlend mode="normal" in="SourceGraphic" in2="effect1_dropShadow_4331_5778" result="shape" />
        </filter>
        <filter id="filter10_d_4331_5778" x="812.354" y="148.877" width="152.067" height="11.6123"
            filterUnits="userSpaceOnUse" color-interpolation-filters="sRGB">
            <feFlood flood-opacity="0" result="BackgroundImageFix" />
            <feColorMatrix in="SourceAlpha" type="matrix" values="0 0 0 0 0 0 0 0 0 0 0 0 0 0 0 0 0 0 127 0"
                result="hardAlpha" />
            <feOffset dx="1" dy="1" />
            <feComposite in2="hardAlpha" operator="out" />
            <feColorMatrix type="matrix" values="0 0 0 0 0 0 0 0 0 0 0 0 0 0 0 0 0 0 0.25 0" />
            <feBlend mode="normal" in2="BackgroundImageFix" result="effect1_dropShadow_4331_5778" />
            <feBlend mode="normal" in="SourceGraphic" in2="effect1_dropShadow_4331_5778" result="shape" />
        </filter>
        <linearGradient id="paint0_linear_4331_5778" x1="757.257" y1="485.946" x2="757.257" y2="554.886"
            gradientUnits="userSpaceOnUse">
            <stop stop-color="#8AAABB" />
            <stop offset="1" stop-color="#648F9F" />
        </linearGradient>
        <linearGradient id="paint1_linear_4331_5778" x1="842.888" y1="485.946" x2="842.888" y2="554.886"
            gradientUnits="userSpaceOnUse">
            <stop stop-color="#8AAABB" />
            <stop offset="1" stop-color="#618EA3" />
        </linearGradient>
    </defs>
</svg>