<svg viewBox="0 0 1637 1405" fill="none" xmlns="http://www.w3.org/2000/svg">

<!-- platform -->
    <!-- floor -->
    <g id="floor">
        <path d="M131 1385C225.606 1295.22 676.319 778.052 739.798 708H1635.5L1636 1089L131 1385Z" fill="#9EBEBD"/>
        <path d="M204.873 1369L777.724 708H705.242L68.9082 1395L204.873 1369Z" fill="#D9D9D9"/>
        <path d="M204.5 1369.78L777.723 708H705.242L53 1397.78L204.5 1369.78Z" fill="#F3C358"/>
        <path d="M183.378 1373.64L768.226 708H713.24L88.5 1391.28L183.378 1373.64Z" fill="#FFE397"/>
        <path d="M101.007 1389L722 708H712.999L84 1392L101.007 1389Z" fill="#F2B838"/>
        <path d="M55.5 1394.5L704.5 708H674.5L0.5 1405L55.5 1394.5Z" fill="#E89F02"/>
    </g>

    <!-- objects -->
    <g id="objects">
        <!-- Sign Pole-->
        <g id="signPole">
            <path d="M1194.96 829.645L1166.49 841.457L1636 1089V1018.62L1194.96 829.645Z" fill="#6A9B9B"/>
            <path d="M747.158 394.765L723.592 379.304H1204.18V394.765H747.158Z" fill="#9A9A9A"/>
            <g filter="url(#filter0_d_4458_5778)">
            <path d="M1166.32 839.673V394.766H1197.23V839.673C1185.67 843.44 1178.86 843.09 1166.32 839.673Z" fill="#CECECE"/>
            </g>
            <rect x="1166.32" y="628.231" width="248.926" height="30.906" transform="rotate(-90 1166.32 628.231)" fill="#CECECE"/>
            <g filter="url(#filter1_d_4458_5778)">
            <path d="M1167.09 501.448L1045.01 376.985H1078.21L1167.09 468.771V501.448Z" fill="#CECECE"/>
            </g>
            <rect x="722.046" y="357.658" width="482.133" height="21.6457" fill="#CECECE"/>
        </g>

        <!-- Sign-->
        <g id="sign">
            <g filter="url(#filter2_d_4458_5778)">
            <rect x="779.223" y="387.035" width="20.0889" height="31.6955" fill="#191C42"/>
            </g>
            <g filter="url(#filter3_d_4458_5778)">
            <rect x="1004.06" y="387.035" width="20.0889" height="31.6955" fill="#191C42"/>
            </g>
            <g filter="url(#filter4_d_4458_5778)">
            <rect x="723.592" y="418.73" width="330.694" height="119.825" fill="#434C83"/>
            </g>
            <rect x="841.807" y="433.419" width="203.207" height="98.1788" fill="#191C42"/>
            <rect x="851.851" y="448.88" width="182.345" height="21.6457" fill="#191C42"/>
            <rect x="860.35" y="442.696" width="166.12" height="21.6457" fill="white"/>
            <rect x="860.35" y="472.072" width="166.12" height="21.6457" fill="white"/>
            <rect x="860.35" y="501.448" width="166.12" height="21.6457" fill="white"/>
            <g filter="url(#filter5_di_4458_5778)">
            <ellipse cx="31.6827" cy="31.6914" rx="31.6827" ry="31.6914" transform="matrix(0.869555 0.493837 -0.493438 0.869781 767.31 437.365)" fill="white"/>
            </g>
            <path d="M758.36 474.778L778.063 484.441L795.061 463.568" stroke="#191C42" stroke-width="3.86002"/>
            <g filter="url(#filter6_d_4458_5778)">
            <path d="M868.137 459.192C867.803 459.192 867.476 459.135 867.157 459.022C866.843 458.914 866.555 458.747 866.295 458.521L866.951 457.725C867.108 457.858 867.287 457.963 867.489 458.042C867.69 458.121 867.906 458.16 868.137 458.16C868.481 458.16 868.793 458.069 869.073 457.887C869.353 457.7 869.577 457.46 869.744 457.165C869.916 456.865 870.002 456.546 870.002 456.207V448.683H871.033V456.207C871.033 456.738 870.903 457.229 870.643 457.681C870.382 458.133 870.034 458.499 869.596 458.779C869.159 459.054 868.673 459.192 868.137 459.192ZM876.256 448.683H877.539L881.297 459H880.199L879.396 456.789H874.407L873.603 459H872.505L876.256 448.683ZM874.783 455.757H879.013L876.898 449.95L874.783 455.757ZM882.674 459V448.683H883.794L889.241 457.135V448.683H890.272V459H889.159L883.706 450.547V459H882.674ZM896.396 459V449.714H895.291L895.585 448.683H897.428V459H896.396ZM899.641 459L904.991 449.714H898.896V448.683H906.185V449.714L900.82 459H899.641ZM910.9 454.062H915.617V455.094H910.9V454.062ZM924.934 459.192C924.109 459.192 923.397 458.99 922.797 458.587C922.198 458.184 921.736 457.644 921.412 456.966C921.092 456.283 920.933 455.526 920.933 454.696V448.683H921.964V454.696C921.964 455.325 922.08 455.902 922.311 456.428C922.542 456.954 922.878 457.374 923.32 457.688C923.763 458.003 924.301 458.16 924.934 458.16C925.583 458.16 926.126 458.003 926.563 457.688C927.005 457.369 927.339 456.946 927.565 456.421C927.791 455.895 927.904 455.32 927.904 454.696V448.683H928.936V454.696C928.936 455.32 928.843 455.905 928.656 456.45C928.474 456.991 928.209 457.467 927.86 457.88C927.516 458.293 927.096 458.614 926.6 458.845C926.109 459.076 925.553 459.192 924.934 459.192ZM935.496 459.192C934.799 459.192 934.143 459.054 933.529 458.779C932.914 458.499 932.374 458.113 931.907 457.622C931.44 457.131 931.074 456.563 930.809 455.92C930.544 455.271 930.411 454.578 930.411 453.841C930.411 453.104 930.544 452.414 930.809 451.77C931.074 451.122 931.44 450.552 931.907 450.061C932.374 449.569 932.914 449.186 933.529 448.911C934.143 448.631 934.799 448.491 935.496 448.491C936.199 448.491 936.857 448.631 937.471 448.911C938.085 449.186 938.626 449.569 939.093 450.061C939.559 450.552 939.923 451.122 940.183 451.77C940.449 452.414 940.581 453.104 940.581 453.841C940.581 454.578 940.449 455.271 940.183 455.92C939.923 456.563 939.559 457.131 939.093 457.622C938.626 458.113 938.085 458.499 937.471 458.779C936.857 459.054 936.199 459.192 935.496 459.192ZM935.496 458.16C936.061 458.16 936.587 458.047 937.073 457.821C937.565 457.59 937.994 457.276 938.363 456.878C938.736 456.48 939.026 456.02 939.233 455.499C939.444 454.979 939.549 454.426 939.549 453.841C939.549 453.252 939.444 452.697 939.233 452.176C939.021 451.65 938.729 451.191 938.356 450.798C937.987 450.4 937.557 450.088 937.066 449.862C936.58 449.636 936.056 449.523 935.496 449.523C934.931 449.523 934.403 449.638 933.912 449.869C933.425 450.095 932.995 450.407 932.622 450.805C932.254 451.203 931.964 451.662 931.752 452.183C931.546 452.704 931.443 453.257 931.443 453.841C931.443 454.436 931.549 454.993 931.76 455.514C931.971 456.035 932.261 456.494 932.629 456.892C933.003 457.29 933.433 457.602 933.919 457.828C934.41 458.049 934.936 458.16 935.496 458.16ZM949.262 448.683V449.714H945.725V459H944.693V449.714H941.163V448.683H949.262ZM958.546 448.683V449.714H955.009V459H953.977V449.714H950.447V448.683H958.546ZM962.201 448.683H963.484L967.242 459H966.144L965.341 456.789H960.351L959.548 459H958.45L962.201 448.683ZM960.727 455.757H964.957L962.842 449.95L960.727 455.757ZM975.067 448.683H976.099V459H975.067V453.989H969.651V459H968.619V448.683H969.651V452.957H975.067V448.683ZM981.33 448.683H982.613L986.371 459H985.273L984.47 456.789H979.481L978.677 459H977.579L981.33 448.683ZM979.857 455.757H984.087L981.972 449.95L979.857 455.757ZM992.034 459.192C991.337 459.192 990.681 459.054 990.067 458.779C989.452 458.499 988.912 458.116 988.445 457.629C987.983 457.138 987.62 456.568 987.355 455.92C987.094 455.271 986.964 454.578 986.964 453.841C986.964 453.104 987.094 452.412 987.355 451.763C987.62 451.115 987.983 450.547 988.445 450.061C988.912 449.569 989.452 449.186 990.067 448.911C990.681 448.631 991.337 448.491 992.034 448.491C992.869 448.491 993.638 448.685 994.341 449.073C995.044 449.461 995.626 449.977 996.088 450.621L995.174 451.115C994.81 450.628 994.348 450.242 993.788 449.958C993.233 449.668 992.648 449.523 992.034 449.523C991.469 449.523 990.941 449.638 990.45 449.869C989.963 450.095 989.536 450.407 989.168 450.805C988.799 451.203 988.512 451.662 988.305 452.183C988.099 452.704 987.996 453.257 987.996 453.841C987.996 454.436 988.099 454.993 988.305 455.514C988.517 456.035 988.806 456.494 989.175 456.892C989.548 457.29 989.978 457.602 990.465 457.828C990.956 458.049 991.479 458.16 992.034 458.16C992.673 458.16 993.265 458.015 993.81 457.725C994.361 457.43 994.815 457.047 995.174 456.575L996.088 457.069C995.626 457.713 995.044 458.229 994.341 458.617C993.638 459 992.869 459.192 992.034 459.192ZM1004.23 459H1002.9L999.517 454.365L998.64 455.418V459H997.608V448.683H998.64V453.812L1002.94 448.683H1004.28L1000.19 453.554L1004.23 459ZM1009.16 459L1014.51 449.714H1008.42V448.683H1015.71V449.714L1010.34 459H1009.16Z" fill="#1A2399"/>
            </g>
            <g filter="url(#filter7_d_4458_5778)">
            <path d="M865.012 488.533C865.121 488.7 865.278 488.828 865.484 488.916C865.681 489.014 865.912 489.063 866.177 489.063C866.403 489.063 866.624 488.96 866.84 488.754C867.066 488.557 867.179 488.218 867.179 487.737V476.683H868.358V487.884C868.358 488.287 868.304 488.636 868.196 488.931C868.098 489.226 867.95 489.471 867.754 489.668C867.557 489.864 867.317 490.007 867.032 490.095C866.757 490.193 866.447 490.243 866.103 490.243C865.848 490.243 865.602 490.198 865.366 490.11C865.121 490.031 864.914 489.933 864.747 489.815C864.57 489.707 864.443 489.604 864.364 489.506L865.012 488.533ZM871.708 483.905L872.15 482.726H876.719L877.161 483.905H871.708ZM874.405 479.011L872.666 483.109L872.548 483.374L871.015 487H869.615L874.405 476.167L879.195 487H877.795L876.291 483.463L876.173 483.168L874.405 479.011ZM888.262 476.683H889.515V487.516L881.703 479.321V487H880.45V476.167L888.262 484.362V476.683ZM896.298 478.717V477.42L899.835 476.535V487H898.582V478.039L896.298 478.717ZM902.933 479.174C902.933 478.682 903.056 478.24 903.302 477.847C903.557 477.444 903.896 477.125 904.319 476.889C904.751 476.653 905.237 476.535 905.778 476.535C906.318 476.535 906.8 476.653 907.222 476.889C907.654 477.125 907.993 477.444 908.239 477.847C908.495 478.24 908.622 478.682 908.622 479.174C908.622 479.576 908.554 479.94 908.416 480.264C908.278 480.579 908.082 480.849 907.826 481.075C907.581 481.301 907.281 481.473 906.927 481.591C906.583 481.709 906.2 481.768 905.778 481.768C905.355 481.768 904.967 481.709 904.613 481.591C904.269 481.473 903.97 481.301 903.714 481.075C903.469 480.849 903.277 480.579 903.139 480.264C903.002 479.94 902.933 479.576 902.933 479.174ZM904.127 479.321C904.127 479.645 904.201 479.93 904.348 480.176C904.505 480.421 904.707 480.613 904.952 480.751C905.208 480.888 905.483 480.957 905.778 480.957C906.072 480.957 906.343 480.888 906.588 480.751C906.844 480.613 907.045 480.421 907.193 480.176C907.35 479.93 907.428 479.645 907.428 479.321C907.428 478.997 907.355 478.707 907.207 478.451C907.07 478.196 906.878 477.999 906.633 477.862C906.387 477.714 906.102 477.641 905.778 477.641C905.463 477.641 905.178 477.714 904.923 477.862C904.677 477.999 904.481 478.196 904.333 478.451C904.196 478.707 904.127 478.997 904.127 479.321ZM902.565 484.2C902.565 483.728 902.648 483.31 902.815 482.947C902.992 482.573 903.228 482.264 903.523 482.018C903.827 481.763 904.171 481.571 904.554 481.443C904.947 481.316 905.355 481.252 905.778 481.252C906.2 481.252 906.603 481.316 906.986 481.443C907.379 481.571 907.723 481.763 908.018 482.018C908.323 482.264 908.558 482.573 908.726 482.947C908.902 483.31 908.991 483.728 908.991 484.2C908.991 484.602 908.907 484.981 908.74 485.334C908.583 485.688 908.357 486.003 908.062 486.278C907.777 486.553 907.438 486.769 907.045 486.926C906.662 487.074 906.24 487.147 905.778 487.147C905.316 487.147 904.888 487.074 904.495 486.926C904.112 486.769 903.773 486.553 903.478 486.278C903.193 486.003 902.967 485.688 902.8 485.334C902.643 484.981 902.565 484.602 902.565 484.2ZM903.758 484.052C903.758 484.475 903.852 484.833 904.038 485.128C904.235 485.423 904.486 485.649 904.79 485.806C905.105 485.963 905.434 486.042 905.778 486.042C906.122 486.042 906.446 485.963 906.75 485.806C907.065 485.649 907.315 485.423 907.502 485.128C907.699 484.833 907.797 484.475 907.797 484.052C907.797 483.679 907.699 483.345 907.502 483.05C907.315 482.745 907.065 482.505 906.75 482.328C906.446 482.151 906.122 482.062 905.778 482.062C905.434 482.062 905.105 482.151 904.79 482.328C904.486 482.505 904.235 482.745 904.038 483.05C903.852 483.345 903.758 483.679 903.758 484.052ZM914.293 484.052V482.947H917.24V484.052H914.293ZM922.838 476.683H924.091V483.61C924.091 484.317 924.282 484.887 924.665 485.32C925.049 485.752 925.609 485.968 926.346 485.968C927.083 485.968 927.643 485.752 928.026 485.32C928.409 484.887 928.601 484.317 928.601 483.61V476.683H929.854V483.61C929.854 484.121 929.77 484.593 929.603 485.025C929.446 485.457 929.21 485.831 928.896 486.145C928.591 486.46 928.223 486.705 927.79 486.882C927.358 487.059 926.876 487.147 926.346 487.147C925.815 487.147 925.334 487.059 924.901 486.882C924.469 486.705 924.096 486.46 923.781 486.145C923.477 485.831 923.241 485.457 923.074 485.025C922.916 484.593 922.838 484.121 922.838 483.61V476.683ZM932.875 481.841C932.875 482.618 933.042 483.31 933.376 483.92C933.72 484.529 934.187 485.01 934.776 485.364C935.366 485.718 936.034 485.895 936.781 485.895C937.537 485.895 938.205 485.718 938.785 485.364C939.375 485.01 939.837 484.529 940.171 483.92C940.515 483.31 940.687 482.618 940.687 481.841C940.687 481.065 940.515 480.372 940.171 479.763C939.837 479.154 939.375 478.672 938.785 478.319C938.205 477.965 937.537 477.788 936.781 477.788C936.034 477.788 935.366 477.965 934.776 478.319C934.187 478.672 933.72 479.154 933.376 479.763C933.042 480.372 932.875 481.065 932.875 481.841ZM931.548 481.841C931.548 481.085 931.676 480.387 931.932 479.748C932.197 479.1 932.565 478.54 933.037 478.068C933.509 477.587 934.064 477.213 934.702 476.948C935.341 476.673 936.034 476.535 936.781 476.535C937.537 476.535 938.23 476.673 938.859 476.948C939.498 477.213 940.053 477.587 940.524 478.068C940.996 478.54 941.36 479.1 941.615 479.748C941.88 480.387 942.013 481.085 942.013 481.841C942.013 482.588 941.88 483.286 941.615 483.934C941.36 484.583 940.996 485.148 940.524 485.629C940.053 486.101 939.498 486.474 938.859 486.749C938.23 487.015 937.537 487.147 936.781 487.147C936.034 487.147 935.341 487.015 934.702 486.749C934.064 486.474 933.509 486.101 933.037 485.629C932.565 485.148 932.197 484.583 931.932 483.934C931.676 483.286 931.548 482.588 931.548 481.841ZM942.304 477.862V476.683H948.863V477.862H946.21V487H944.957V477.862H942.304ZM949.602 477.862V476.683H956.161V477.862H953.508V487H952.255V477.862H949.602ZM957.005 483.905L957.447 482.726H962.016L962.458 483.905H957.005ZM959.702 479.011L957.963 483.109L957.845 483.374L956.312 487H954.912L959.702 476.167L964.492 487H963.092L961.588 483.463L961.47 483.168L959.702 479.011ZM966.44 481.989V480.81H973.515V481.989H966.44ZM972.675 476.683H973.927V487H972.675V476.683ZM965.747 476.683H967V487H965.747V476.683ZM977.271 483.905L977.713 482.726H982.282L982.724 483.905H977.271ZM979.968 479.011L978.229 483.109L978.111 483.374L976.578 487H975.178L979.968 476.167L984.758 487H983.358L981.855 483.463L981.737 483.168L979.968 479.011ZM986.304 481.841C986.304 482.637 986.481 483.34 986.835 483.949C987.198 484.558 987.67 485.035 988.25 485.379C988.83 485.723 989.458 485.895 990.136 485.895C990.628 485.895 991.075 485.831 991.478 485.703C991.89 485.575 992.264 485.398 992.598 485.172C992.932 484.937 993.217 484.666 993.453 484.362V486.012C993.02 486.396 992.549 486.681 992.038 486.867C991.527 487.054 990.893 487.147 990.136 487.147C989.419 487.147 988.746 487.02 988.117 486.764C987.498 486.499 986.953 486.13 986.481 485.659C986.009 485.177 985.641 484.612 985.376 483.964C985.11 483.315 984.978 482.608 984.978 481.841C984.978 481.075 985.11 480.367 985.376 479.719C985.641 479.07 986.009 478.51 986.481 478.039C986.953 477.557 987.498 477.189 988.117 476.933C988.746 476.668 989.419 476.535 990.136 476.535C990.893 476.535 991.527 476.629 992.038 476.815C992.549 477.002 993.02 477.287 993.453 477.67V479.321C993.217 479.016 992.932 478.751 992.598 478.525C992.264 478.289 991.89 478.107 991.478 477.98C991.075 477.852 990.628 477.788 990.136 477.788C989.458 477.788 988.83 477.96 988.25 478.304C987.67 478.648 987.198 479.124 986.835 479.734C986.481 480.333 986.304 481.036 986.304 481.841ZM995.657 476.683H996.91V487H995.657V476.683ZM1000.96 476.683H1002.51L998.045 481.517L1002.73 487H1001.18L996.527 481.547L1000.96 476.683ZM1007.67 477.862V476.683H1014.9L1009.96 487H1008.65L1013.02 477.862H1007.67Z" fill="#191C42"/>
            </g>
            <g filter="url(#filter8_d_4458_5778)">
            <path d="M867.167 517.147C866.833 517.147 866.489 517.103 866.135 517.015C865.791 516.936 865.531 516.848 865.354 516.749C865.354 516.484 865.388 516.288 865.457 516.16C865.536 516.032 865.634 515.968 865.752 515.968C865.791 515.968 865.958 516.012 866.253 516.101C866.548 516.189 866.862 516.234 867.196 516.234C868.356 516.234 868.935 515.59 868.935 514.303V506.683H869.997V514.303C869.997 515.187 869.741 515.885 869.23 516.396C868.729 516.897 868.041 517.147 867.167 517.147ZM879.117 517C878.851 515.782 878.601 514.784 878.365 514.008H873.354C873.118 514.784 872.867 515.782 872.602 517H871.511C872.022 514.897 872.577 513.03 873.177 511.399C873.776 509.758 874.488 508.186 875.314 506.683H876.419C877.235 508.176 877.942 509.743 878.542 511.384C879.141 513.016 879.696 514.887 880.207 517H879.117ZM878.114 513.124C877.515 511.217 876.763 509.429 875.859 507.759C874.955 509.429 874.203 511.217 873.604 513.124H878.114ZM889.274 514.981C889.274 515.285 889.283 515.644 889.303 516.057C889.323 516.332 889.332 516.514 889.332 516.602C889.332 516.867 889.205 517 888.949 517H888.212V516.204C888.212 515.634 888.021 515.089 887.637 514.568L882.759 508.142V517H881.698V506.683H882.552C882.68 506.683 882.778 506.702 882.847 506.742C882.926 506.771 883.014 506.85 883.113 506.977L888.212 513.684V506.683H889.274V514.981ZM900.037 516.189V517H895.556V516.189H897.354V507.906C897.099 508.122 896.804 508.314 896.47 508.481C896.146 508.638 895.861 508.717 895.615 508.717C895.438 508.717 895.3 508.672 895.202 508.584C895.114 508.486 895.07 508.373 895.07 508.245C895.07 508.147 895.094 508.058 895.143 507.98C895.536 507.94 895.954 507.813 896.396 507.596C896.838 507.37 897.256 507.066 897.649 506.683H898.312V516.189H900.037ZM905.21 506.683C906.458 506.683 907.357 507.081 907.907 507.876C908.457 508.672 908.733 509.699 908.733 510.957C908.733 512.087 908.507 513.124 908.055 514.067C907.612 515 907.018 515.742 906.271 516.293C905.534 516.833 904.753 517.103 903.928 517.103C903.436 517.103 903.191 516.828 903.191 516.278C904.321 516.278 905.269 515.944 906.035 515.276C906.812 514.598 907.332 513.694 907.598 512.564C907.322 512.79 906.974 512.981 906.551 513.138C906.129 513.296 905.701 513.374 905.269 513.374C904.591 513.374 903.996 513.242 903.485 512.976C902.984 512.701 902.596 512.318 902.321 511.827C902.046 511.325 901.908 510.746 901.908 510.087C901.908 509.449 902.051 508.869 902.336 508.348C902.631 507.827 903.028 507.42 903.53 507.125C904.031 506.83 904.591 506.683 905.21 506.683ZM905.269 512.505C905.799 512.505 906.271 512.401 906.684 512.195C907.106 511.979 907.465 511.689 907.76 511.325C907.77 511.247 907.774 511.124 907.774 510.957C907.774 509.955 907.578 509.139 907.185 508.51C906.792 507.872 906.124 507.552 905.18 507.552C904.443 507.552 903.874 507.798 903.471 508.289C903.068 508.771 902.866 509.37 902.866 510.087C902.866 510.903 903.073 511.512 903.485 511.915C903.898 512.308 904.493 512.505 905.269 512.505ZM914.362 512.033H919.668V512.917H914.362V512.033ZM929.607 517.147C928.261 517.147 927.258 516.833 926.6 516.204C925.951 515.565 925.627 514.598 925.627 513.3V506.683H926.688V513.448C926.688 514.401 926.924 515.104 927.396 515.556C927.868 516.008 928.604 516.234 929.607 516.234C930.619 516.234 931.356 516.012 931.818 515.57C932.279 515.118 932.51 514.411 932.51 513.448V506.683H933.572V513.3C933.572 514.617 933.252 515.59 932.614 516.219C931.975 516.838 930.973 517.147 929.607 517.147ZM939.806 517.147C938.421 517.147 937.355 516.686 936.608 515.762C935.871 514.838 935.502 513.512 935.502 511.782C935.502 510.092 935.871 508.795 936.608 507.891C937.355 506.987 938.421 506.535 939.806 506.535C941.192 506.535 942.253 506.987 942.99 507.891C943.737 508.795 944.11 510.092 944.11 511.782C944.11 513.512 943.737 514.838 942.99 515.762C942.253 516.686 941.192 517.147 939.806 517.147ZM939.806 516.204C940.868 516.204 941.668 515.836 942.209 515.099C942.749 514.352 943.019 513.246 943.019 511.782C943.019 508.913 941.948 507.479 939.806 507.479C937.664 507.479 936.593 508.913 936.593 511.782C936.593 513.246 936.863 514.352 937.404 515.099C937.944 515.836 938.745 516.204 939.806 516.204ZM952.463 506.683C952.502 506.859 952.522 506.977 952.522 507.036C952.522 507.203 952.477 507.336 952.389 507.434C952.301 507.523 952.168 507.567 951.991 507.567H949.279V517H948.218V507.567H945.034V506.683H952.463ZM960.336 506.683C960.375 506.859 960.395 506.977 960.395 507.036C960.395 507.203 960.351 507.336 960.262 507.434C960.174 507.523 960.041 507.567 959.864 507.567H957.152V517H956.091V507.567H952.907V506.683H960.336ZM967.652 517C967.387 515.782 967.136 514.784 966.9 514.008H961.889C961.653 514.784 961.403 515.782 961.137 517H960.047C960.558 514.897 961.113 513.03 961.712 511.399C962.312 509.758 963.024 508.186 963.849 506.683H964.955C965.77 508.176 966.478 509.743 967.077 511.384C967.677 513.016 968.232 514.887 968.743 517H967.652ZM966.65 513.124C966.05 511.217 965.299 509.429 964.395 507.759C963.491 509.429 962.739 511.217 962.14 513.124H966.65ZM977.721 506.683V517H976.659V512.136H971.294V517H970.233V506.683H971.294V511.252H976.659V506.683H977.721ZM986.81 517C986.545 515.782 986.294 514.784 986.058 514.008H981.047C980.811 514.784 980.561 515.782 980.295 517H979.205C979.716 514.897 980.271 513.03 980.87 511.399C981.47 509.758 982.182 508.186 983.007 506.683H984.113C984.928 508.176 985.636 509.743 986.235 511.384C986.835 513.016 987.39 514.887 987.901 517H986.81ZM985.808 513.124C985.208 511.217 984.457 509.429 983.553 507.759C982.649 509.429 981.897 511.217 981.298 513.124H985.808ZM993.312 517.147C991.907 517.147 990.816 516.686 990.04 515.762C989.273 514.838 988.89 513.531 988.89 511.841C988.89 510.141 989.273 508.835 990.04 507.921C990.806 506.997 991.897 506.535 993.312 506.535C993.882 506.535 994.412 506.633 994.904 506.83C995.395 507.017 995.817 507.297 996.171 507.67C996.112 507.857 996.029 507.999 995.921 508.098C995.813 508.196 995.69 508.245 995.552 508.245C995.415 508.245 995.287 508.201 995.169 508.112C994.638 507.7 994.009 507.493 993.282 507.493C992.201 507.493 991.381 507.862 990.821 508.599C990.261 509.336 989.981 510.417 989.981 511.841C989.981 513.256 990.261 514.332 990.821 515.069C991.381 515.806 992.201 516.175 993.282 516.175C993.744 516.175 994.157 516.111 994.52 515.983C994.894 515.855 995.262 515.644 995.626 515.349C995.754 515.359 995.862 515.413 995.95 515.511C996.039 515.6 996.083 515.713 996.083 515.85C996.083 516.076 995.95 516.288 995.685 516.484C995.429 516.681 995.085 516.843 994.653 516.971C994.231 517.088 993.783 517.147 993.312 517.147ZM1005.53 516.956C1005.33 517.064 1005.12 517.118 1004.89 517.118C1004.72 517.118 1004.57 517.084 1004.46 517.015C1004.37 516.956 1004.26 516.843 1004.16 516.676L1001.92 513.05C1001.69 512.686 1001.45 512.446 1001.19 512.328C1000.95 512.2 1000.55 512.136 1000.01 512.136H999.439V517H998.378V506.683H999.439V511.222H1000.31C1000.49 511.222 1000.62 511.227 1000.71 511.237L1004.18 506.683H1005.41L1001.65 511.532C1002.06 511.758 1002.46 512.161 1002.83 512.74L1005.53 516.956ZM1016.42 506.683V507.184C1015.34 509.011 1014.58 510.579 1014.15 511.886C1013.73 513.183 1013.48 514.534 1013.4 515.939L1013.34 517H1012.87C1012.45 517 1012.24 516.784 1012.25 516.351L1012.26 515.836C1012.3 514.539 1012.59 513.168 1013.12 511.723C1013.66 510.269 1014.39 508.874 1015.3 507.537H1011.04C1010.63 507.537 1010.42 507.356 1010.42 506.992C1010.42 506.904 1010.44 506.801 1010.47 506.683H1016.42Z" fill="#1A2399"/>
            </g>
        </g>

        <!-- Bench -->
        <g id="bench"> 
            <path d="M788.055 918.37L770.053 826.333H818.06L849.654 888.858H859.065L833.562 843.84H868.567L896.919 888.793C899.938 888.716 905.194 888.574 912.073 888.386L881.069 834.336H903.27L941.9 887.557C944.882 887.473 947.947 887.387 951.079 887.299L903.27 815.328H926.575L978.526 886.527C980.706 886.465 982.893 886.403 985.083 886.342L933.576 815.328H951.079L1013.59 885.535L1023.59 885.252L957.079 815.328H979.583L1037.09 871.851L1049.24 884.523C1051.26 884.466 1053.21 884.41 1055.09 884.356L1063.59 893.36L1057.89 893.542L1084.1 920.871H1058.59L1032.53 894.351L1022.88 894.659L1049.59 920.871H1013.59L992.584 895.625L985.356 895.887L1003.59 920.871H976.582L958.346 896.866L948.905 897.208L966.081 920.871H933.576L915.574 898.416L903.27 898.862L915.574 918.37H872.567L861.566 893.36H851.929L864.566 918.37H788.055Z" fill="#80ABA8"/>
            <path d="M932.576 843.34L1011.09 840.839L1004.59 833.336H932.576V843.34Z" fill="#80ABA8"/>
            <g filter="url(#filter9_d_4458_5778)">
            <rect width="7.70465" height="124.227" transform="matrix(0.998516 0.0544564 -0.0544281 0.998518 866.514 671.27)" fill="#6086A2"/>
            </g>
            <g filter="url(#filter10_d_4458_5778)">
            <rect width="8.64549" height="147.311" transform="matrix(0.996921 0.0784083 -0.0783677 0.996925 928.09 673.271)" fill="#6086A2"/>
            </g>
            <rect x="783.628" y="817.49" width="145.155" height="19.8465" fill="#8EAABF"/>
            <path d="M783.628 837.336H928.783C928.783 840.798 925.977 843.604 922.515 843.604H789.895C786.434 843.604 783.628 840.798 783.628 837.336Z" fill="#6590A0"/>
            <path d="M854.639 748.027H825.399L887.012 814.356H934.004L854.639 748.027Z" fill="#357DAF"/>
            <rect x="887.012" y="814.356" width="46.9925" height="13.5792" fill="#154B6D"/>
            <path d="M943.403 732.881L947.058 682.743L958.545 683.788L954.89 734.448L943.403 732.881Z" fill="#154B6D"/>
            <path d="M937.138 795.032L939.748 751.161H950.713L948.103 796.599L937.138 795.032Z" fill="#154B6D"/>
            <path d="M844.196 734.97V708.856L939.748 751.161L937.137 795.032L844.196 734.97Z" fill="#357DAF"/>
            <path d="M849.94 695.8V673.342L947.058 682.743L943.403 732.881L849.94 695.8Z" fill="#357DAF"/>
            <path d="M825.399 759.518V748.027L887.012 814.356V827.936L825.399 759.518Z" fill="#256791"/>
            <path d="M821.222 748.027H793.549L829.576 814.356H876.569L821.222 748.027Z" fill="#357DAF"/>
            <rect x="829.576" y="814.356" width="46.9925" height="13.5792" fill="#154B6D"/>
            <path d="M793.549 764.74V748.027L829.576 814.356V827.413L793.549 764.74Z" fill="#256791"/>
            <path d="M788.328 747.506H770.053L778.407 814.357H825.4L788.328 747.506Z" fill="#357DAF"/>
            <rect x="778.407" y="814.356" width="46.9925" height="13.5792" fill="#154B6D"/>
            <path d="M939.748 751.161L844.196 708.857L853.073 708.335L950.713 751.161H939.748Z" fill="#256790"/>
            <path d="M801.381 843.604H819.134V907.321C819.134 910.206 816.795 912.544 813.911 912.544H806.604C803.719 912.544 801.381 910.206 801.381 907.321V843.604Z" fill="url(#paint0_linear_4458_5778)"/>
            <path d="M887.012 843.604H904.764V907.321C904.764 910.206 902.426 912.544 899.542 912.544H892.234C889.35 912.544 887.012 910.206 887.012 907.321V843.604Z" fill="url(#paint1_linear_4458_5778)"/>
        </g>

        <!-- Trash -->
        <g id="trash">
            <ellipse cx="1092.6" cy="942.88" rx="51.5073" ry="12.505" fill="#6A9B9B"/>
            <path d="M1043.09 942.017V818.366C1071.42 822.811 1087.3 823.339 1115.62 818.366V942.017C1090.53 951.684 1074.82 952.192 1043.09 942.017Z" fill="#145278"/>
            <path d="M1043.09 936.884V818.366L1087.64 821.739C1087.64 821.739 1099.95 934.097 1081.93 940.358C1063.9 946.619 1059.98 941.886 1043.09 936.884Z" fill="#216B9C"/>
            <ellipse cx="1079.6" cy="817.405" rx="36.5052" ry="10.5662" fill="#529ACC"/>
            <ellipse cx="1079.02" cy="817.406" rx="20.8601" ry="4.80283" fill="#246B9F"/>
            <rect x="1047.66" y="865.433" width="7.99534" height="51.8706" rx="3.99767" fill="#498CB9"/>
            <rect x="1047.66" y="922.107" width="7.99534" height="10.5662" rx="3.99767" fill="#498CB9"/>
        </g>
    </g>

    <!-- ceiling -->
    <g id="ceiling">
        <path d="M397 0L780.636 156.087H808.215L508.607 0H397Z" fill="#FAD188"/>
        <path d="M508.607 0L808.215 156.087L811.61 153.117V145.486L550.199 0H508.607Z" fill="#7E8087"/>
        <path d="M550.198 0L811.61 145.486V153.117L808.215 156.087L836.228 171.782L918.131 176.443L630.409 0H550.198Z" fill="#CDCDCF"/>
        <path d="M630.409 0L918.131 176.443L1321.71 202.739H1349.72L1504.19 178.145L1146.44 181.537L1063.27 170.937L1601.38 161.604L1636.18 152.271L937.652 156.087L911.342 139.546L1636.18 142.516V133.183L900.312 130.213L877.82 115.363H1636.18V105.608L860.413 106.041L831.131 91.1915L1636.18 92.037V85.2515L816.284 85.6743L785.723 71.6806L1636.18 72.1034V62.348L773.001 58.9552L750.508 49.1998L1636.18 50.4789V42.8371L742.44 43.2599L718.678 29.2663H1636.18V16.5409L697.877 17.3863L670.721 0H630.409Z" fill="#9A9AA4"/>
        <path d="M911.342 139.546L1636.18 142.516V152.271L937.652 156.086L911.342 139.546Z" fill="#ACACB4"/>
        <path d="M860.413 106.042L831.131 91.1918L1636.18 92.0372V105.608L860.413 106.042Z" fill="#ADADB5"/>
        <path d="M773.001 58.9554L750.508 49.2L1636.18 42.8373L773.001 58.9554Z" fill="#ABACB1"/>
        <path d="M1636.18 62.3481V42.8373L750.508 49.2L773.001 58.9554" fill="#ABACB1"/>
        <path d="M670.721 0H1636.18V16.5409L697.877 17.3863L670.721 0Z" fill="#ADADB7"/>
        <path d="M718.678 29.2664L742.439 43.26L1636.18 42.8372V29.2664H718.678Z" fill="#73737D"/>
        <path d="M785.723 71.6808L816.284 85.6744L1636.18 85.2517V72.1035L785.723 71.6808Z" fill="#707078"/>
        <path d="M877.819 115.363L900.312 130.213L1636.18 133.183V115.363H877.819Z" fill="#707078"/>
        <path d="M1063.27 170.937L1146.44 181.538L1504.19 178.145L1601.38 161.604L1063.27 170.937Z" fill="#ACACB4"/>
        <path d="M1210.03 0H1190.51L1261.62 198.826L1270.29 199.347" fill="#707078"/>
        <path d="M1330.9 202.739H1348.74L1636.18 33.9272V0H1524.14L1330.9 202.739Z" fill="#CDCCD4"/>
        <path d="M1348.74 202.739L1636.18 33.9271V50.3271L1366.81 200.04L1348.74 202.739Z" fill="#707078"/>
    </g>

    <!-- poles -->
    <g id = "poles">
        <path d="M1310.5 779.895V197.536C1327.7 192.593 1337.18 193.055 1353.93 197.536V779.895C1336.97 784.075 1327.46 784.253 1310.5 779.895Z" fill="#949BA1"/>
        <path d="M1310.5 780.113V197.65C1322.92 192.707 1329.77 193.169 1341.87 197.65V780.113C1329.62 784.294 1322.75 784.471 1310.5 780.113Z" fill="#9AA6B2"/>
        <path d="M1310.5 781.834V482.661C1326.59 486.662 1336.64 487.689 1353.93 482.661V781.672C1336.97 783.819 1327.46 784.071 1310.5 781.834Z" fill="#23699A"/>
        <path d="M1341.87 782.518V485.522L1353.93 482.785V781.625L1353.71 781.653C1349.53 782.187 1346.95 782.518 1341.87 782.518Z" fill="#1D4662"/>
        <path d="M1353.83 764.885L1310.82 781.892L1636 869.5V811.784L1353.83 764.885Z" fill="#6A9B9B"/>
        <path d="M1353.93 760.967C1341.3 772.915 1332.02 778.883 1310.5 781.857C1327.15 784.55 1337.28 785.278 1353.93 782.194V760.967Z" fill="#1D4662"/>
        <rect x="1310.5" y="647.083" width="43.433" height="10.1081" fill="#183E58" fill-opacity="0.8"/>
        <rect x="1296.9" y="506.917" width="75.5356" height="140.913" fill="#939393"/>
        <rect x="1304.8" y="517.032" width="59.7249" height="121.292" fill="white" stroke="#676767" stroke-width="3.22145"/>
        <path d="M1297.6 648.441L1296.9 507.525L1292 514.693L1292.35 649.653L1297.6 648.441Z" fill="#676767" stroke="#676767" stroke-width="0.644291"/>
        <path d="M1292 649.956L1297.94 647.831H1372.43L1369.28 649.653L1292 649.956Z" fill="#676767"/>
        <path d="M1528.01 897L1485 914.007L1636.02 975.844V913.844L1528.01 897Z" fill="#6A9B9B"/>
        <path d="M1485.2 910.615V55.2227C1491.25 47.9632 1533.29 48.6416 1539.18 55.2227L1500.48 910.615C1494.51 916.756 1491.17 917.016 1485.2 910.615Z" fill="#949BA1"/>
        <path d="M1500.38 909.61L1494.37 52.4801C1510.13 45.22 1524.85 47.5745 1540.2 54.1561V909.61C1524.65 915.752 1515.93 916.012 1500.38 909.61Z" fill="#9AA6B2"/>
        <path d="M1485.2 913.309V473.95C1505.57 479.827 1518.3 481.334 1540.2 473.95V913.072C1518.72 916.224 1506.68 916.595 1485.2 913.309Z" fill="#23699A"/>
        <path d="M1524.92 914.314V478.152L1540.2 474.132V913.002L1539.93 913.043C1534.63 913.829 1531.36 914.314 1524.92 914.314Z" fill="#1D4662"/>
        <path d="M1539.9 881.288C1523.9 899.106 1512.15 908.007 1484.9 912.442C1505.98 916.457 1518.82 917.544 1539.9 912.945V881.288Z" fill="#1D4662"/>
        <rect x="1484.9" y="711.446" width="55.0027" height="15.0747" fill="#183E58" fill-opacity="0.8"/>
        <rect x="1472.07" y="500.627" width="95.6568" height="210.151" fill="#939393"/>
        <rect x="1482.21" y="515.486" width="75.3591" height="181.339" fill="white" stroke="#676767" stroke-width="4.35492"/>
        <path d="M1472.95 711.688L1472.07 501.533L1465.87 512.223L1466.31 713.496L1472.95 711.688Z" fill="#676767" stroke="#676767" stroke-width="0.870985"/>
        <path d="M1465.87 713.949L1473.39 710.778H1567.72L1563.74 713.496L1465.87 713.949Z" fill="#1D4662"/>
    </g>



<defs>
<filter id="filter0_d_4458_5778" x="1166.32" y="394.766" width="37.6613" height="447.603" filterUnits="userSpaceOnUse" color-interpolation-filters="sRGB">
<feFlood flood-opacity="0" result="BackgroundImageFix"/>
<feColorMatrix in="SourceAlpha" type="matrix" values="0 0 0 0 0 0 0 0 0 0 0 0 0 0 0 0 0 0 127 0" result="hardAlpha"/>
<feOffset dx="6.75504"/>
<feComposite in2="hardAlpha" operator="out"/>
<feColorMatrix type="matrix" values="0 0 0 0 0.662745 0 0 0 0 0.639216 0 0 0 0 0.764706 0 0 0 1 0"/>
<feBlend mode="normal" in2="BackgroundImageFix" result="effect1_dropShadow_4458_5778"/>
<feBlend mode="normal" in="SourceGraphic" in2="effect1_dropShadow_4458_5778" result="shape"/>
</filter>
<filter id="filter1_d_4458_5778" x="1043.47" y="376.985" width="123.622" height="127.551" filterUnits="userSpaceOnUse" color-interpolation-filters="sRGB">
<feFlood flood-opacity="0" result="BackgroundImageFix"/>
<feColorMatrix in="SourceAlpha" type="matrix" values="0 0 0 0 0 0 0 0 0 0 0 0 0 0 0 0 0 0 127 0" result="hardAlpha"/>
<feOffset dx="-1.54401" dy="3.08802"/>
<feComposite in2="hardAlpha" operator="out"/>
<feColorMatrix type="matrix" values="0 0 0 0 0.603922 0 0 0 0 0.603922 0 0 0 0 0.603922 0 0 0 1 0"/>
<feBlend mode="normal" in2="BackgroundImageFix" result="effect1_dropShadow_4458_5778"/>
<feBlend mode="normal" in="SourceGraphic" in2="effect1_dropShadow_4458_5778" result="shape"/>
</filter>
<filter id="filter2_d_4458_5778" x="779.223" y="387.035" width="23.1769" height="31.6956" filterUnits="userSpaceOnUse" color-interpolation-filters="sRGB">
<feFlood flood-opacity="0" result="BackgroundImageFix"/>
<feColorMatrix in="SourceAlpha" type="matrix" values="0 0 0 0 0 0 0 0 0 0 0 0 0 0 0 0 0 0 127 0" result="hardAlpha"/>
<feOffset dx="3.08802"/>
<feComposite in2="hardAlpha" operator="out"/>
<feColorMatrix type="matrix" values="0 0 0 0 0.0645295 0 0 0 0 0.0510937 0 0 0 0 0.454167 0 0 0 1 0"/>
<feBlend mode="normal" in2="BackgroundImageFix" result="effect1_dropShadow_4458_5778"/>
<feBlend mode="normal" in="SourceGraphic" in2="effect1_dropShadow_4458_5778" result="shape"/>
</filter>
<filter id="filter3_d_4458_5778" x="1004.06" y="387.035" width="23.1769" height="31.6956" filterUnits="userSpaceOnUse" color-interpolation-filters="sRGB">
<feFlood flood-opacity="0" result="BackgroundImageFix"/>
<feColorMatrix in="SourceAlpha" type="matrix" values="0 0 0 0 0 0 0 0 0 0 0 0 0 0 0 0 0 0 127 0" result="hardAlpha"/>
<feOffset dx="3.08802"/>
<feComposite in2="hardAlpha" operator="out"/>
<feColorMatrix type="matrix" values="0 0 0 0 0.0645295 0 0 0 0 0.0510937 0 0 0 0 0.454167 0 0 0 1 0"/>
<feBlend mode="normal" in2="BackgroundImageFix" result="effect1_dropShadow_4458_5778"/>
<feBlend mode="normal" in="SourceGraphic" in2="effect1_dropShadow_4458_5778" result="shape"/>
</filter>
<filter id="filter4_d_4458_5778" x="723.592" y="418.73" width="335.325" height="124.457" filterUnits="userSpaceOnUse" color-interpolation-filters="sRGB">
<feFlood flood-opacity="0" result="BackgroundImageFix"/>
<feColorMatrix in="SourceAlpha" type="matrix" values="0 0 0 0 0 0 0 0 0 0 0 0 0 0 0 0 0 0 127 0" result="hardAlpha"/>
<feOffset dx="4.63203" dy="4.63203"/>
<feComposite in2="hardAlpha" operator="out"/>
<feColorMatrix type="matrix" values="0 0 0 0 0.0509804 0 0 0 0 0.054902 0 0 0 0 0.137255 0 0 0 1 0"/>
<feBlend mode="normal" in2="BackgroundImageFix" result="effect1_dropShadow_4458_5778"/>
<feBlend mode="normal" in="SourceGraphic" in2="effect1_dropShadow_4458_5778" result="shape"/>
</filter>
<filter id="filter5_di_4458_5778" x="743.677" y="447.331" width="67.2292" height="64.9461" filterUnits="userSpaceOnUse" color-interpolation-filters="sRGB">
<feFlood flood-opacity="0" result="BackgroundImageFix"/>
<feColorMatrix in="SourceAlpha" type="matrix" values="0 0 0 0 0 0 0 0 0 0 0 0 0 0 0 0 0 0 127 0" result="hardAlpha"/>
<feOffset dx="-3.86002" dy="-1.54401"/>
<feComposite in2="hardAlpha" operator="out"/>
<feColorMatrix type="matrix" values="0 0 0 0 0.0980392 0 0 0 0 0.109804 0 0 0 0 0.258824 0 0 0 1 0"/>
<feBlend mode="normal" in2="BackgroundImageFix" result="effect1_dropShadow_4458_5778"/>
<feBlend mode="normal" in="SourceGraphic" in2="effect1_dropShadow_4458_5778" result="shape"/>
<feColorMatrix in="SourceAlpha" type="matrix" values="0 0 0 0 0 0 0 0 0 0 0 0 0 0 0 0 0 0 127 0" result="hardAlpha"/>
<feOffset dx="1.54401" dy="-3.08802"/>
<feComposite in2="hardAlpha" operator="arithmetic" k2="-1" k3="1"/>
<feColorMatrix type="matrix" values="0 0 0 0 0.522222 0 0 0 0 0.558941 0 0 0 0 0.783333 0 0 0 1 0"/>
<feBlend mode="normal" in2="shape" result="effect2_innerShadow_4458_5778"/>
</filter>
<filter id="filter6_d_4458_5778" x="866.295" y="448.491" width="150.412" height="11.7007" filterUnits="userSpaceOnUse" color-interpolation-filters="sRGB">
<feFlood flood-opacity="0" result="BackgroundImageFix"/>
<feColorMatrix in="SourceAlpha" type="matrix" values="0 0 0 0 0 0 0 0 0 0 0 0 0 0 0 0 0 0 127 0" result="hardAlpha"/>
<feOffset dx="1" dy="1"/>
<feComposite in2="hardAlpha" operator="out"/>
<feColorMatrix type="matrix" values="0 0 0 0 0 0 0 0 0 0 0 0 0 0 0 0 0 0 0.25 0"/>
<feBlend mode="normal" in2="BackgroundImageFix" result="effect1_dropShadow_4458_5778"/>
<feBlend mode="normal" in="SourceGraphic" in2="effect1_dropShadow_4458_5778" result="shape"/>
</filter>
<filter id="filter7_d_4458_5778" x="864.364" y="476.167" width="151.531" height="15.0758" filterUnits="userSpaceOnUse" color-interpolation-filters="sRGB">
<feFlood flood-opacity="0" result="BackgroundImageFix"/>
<feColorMatrix in="SourceAlpha" type="matrix" values="0 0 0 0 0 0 0 0 0 0 0 0 0 0 0 0 0 0 127 0" result="hardAlpha"/>
<feOffset dx="1" dy="1"/>
<feComposite in2="hardAlpha" operator="out"/>
<feColorMatrix type="matrix" values="0 0 0 0 0 0 0 0 0 0 0 0 0 0 0 0 0 0 0.25 0"/>
<feBlend mode="normal" in2="BackgroundImageFix" result="effect1_dropShadow_4458_5778"/>
<feBlend mode="normal" in="SourceGraphic" in2="effect1_dropShadow_4458_5778" result="shape"/>
</filter>
<filter id="filter8_d_4458_5778" x="865.354" y="506.535" width="152.067" height="11.6122" filterUnits="userSpaceOnUse" color-interpolation-filters="sRGB">
<feFlood flood-opacity="0" result="BackgroundImageFix"/>
<feColorMatrix in="SourceAlpha" type="matrix" values="0 0 0 0 0 0 0 0 0 0 0 0 0 0 0 0 0 0 127 0" result="hardAlpha"/>
<feOffset dx="1" dy="1"/>
<feComposite in2="hardAlpha" operator="out"/>
<feColorMatrix type="matrix" values="0 0 0 0 0 0 0 0 0 0 0 0 0 0 0 0 0 0 0.25 0"/>
<feBlend mode="normal" in2="BackgroundImageFix" result="effect1_dropShadow_4458_5778"/>
<feBlend mode="normal" in="SourceGraphic" in2="effect1_dropShadow_4458_5778" result="shape"/>
</filter>
<filter id="filter9_d_4458_5778" x="859.752" y="671.27" width="19.6778" height="124.462" filterUnits="userSpaceOnUse" color-interpolation-filters="sRGB">
<feFlood flood-opacity="0" result="BackgroundImageFix"/>
<feColorMatrix in="SourceAlpha" type="matrix" values="0 0 0 0 0 0 0 0 0 0 0 0 0 0 0 0 0 0 127 0" result="hardAlpha"/>
<feOffset dx="5.22275"/>
<feComposite in2="hardAlpha" operator="out"/>
<feColorMatrix type="matrix" values="0 0 0 0 0.396078 0 0 0 0 0.564706 0 0 0 0 0.627451 0 0 0 1 0"/>
<feBlend mode="normal" in2="BackgroundImageFix" result="effect1_dropShadow_4458_5778"/>
<feBlend mode="normal" in="SourceGraphic" in2="effect1_dropShadow_4458_5778" result="shape"/>
</filter>
<filter id="filter10_d_4458_5778" x="916.546" y="673.271" width="25.3858" height="147.536" filterUnits="userSpaceOnUse" color-interpolation-filters="sRGB">
<feFlood flood-opacity="0" result="BackgroundImageFix"/>
<feColorMatrix in="SourceAlpha" type="matrix" values="0 0 0 0 0 0 0 0 0 0 0 0 0 0 0 0 0 0 127 0" result="hardAlpha"/>
<feOffset dx="5.22275"/>
<feComposite in2="hardAlpha" operator="out"/>
<feColorMatrix type="matrix" values="0 0 0 0 0.396078 0 0 0 0 0.564706 0 0 0 0 0.627451 0 0 0 1 0"/>
<feBlend mode="normal" in2="BackgroundImageFix" result="effect1_dropShadow_4458_5778"/>
<feBlend mode="normal" in="SourceGraphic" in2="effect1_dropShadow_4458_5778" result="shape"/>
</filter>
<linearGradient id="paint0_linear_4458_5778" x1="810.257" y1="843.604" x2="810.257" y2="912.544" gradientUnits="userSpaceOnUse">
<stop stop-color="#8AAABB"/>
<stop offset="1" stop-color="#648F9F"/>
</linearGradient>
<linearGradient id="paint1_linear_4458_5778" x1="895.888" y1="843.604" x2="895.888" y2="912.544" gradientUnits="userSpaceOnUse">
<stop stop-color="#8AAABB"/>
<stop offset="1" stop-color="#618EA3"/>
</linearGradient>
</defs>

</svg>
