<svg width="100%" height="100%" viewBox="0 0 116 28" fill="none" xmlns="http://www.w3.org/2000/svg">
    <path
        d="M23.4873 8.71449C22.9526 6.87665 22.0535 5.56497 20.8008 5.56497C19.1298 5.56497 16.8401 10.2478 16.8401 10.2478L16.6913 10.2155L16.7312 9.68829C16.7376 9.58715 16.7441 9.38055 16.7517 9.12015C16.784 7.85906 16.77 6.59796 16.7139 5.33901L16.6643 4.24146C16.6643 4.2221 16.6471 4.20703 16.6277 4.20703H15.4957C15.4763 4.20703 15.4601 4.2221 15.4591 4.24146L15.4095 5.33901C15.3523 6.59903 15.3383 7.86013 15.3717 9.12015C15.3782 9.38055 15.3858 9.58822 15.3922 9.68829L15.4321 10.2155L15.2833 10.2478C15.2833 10.2478 12.9936 5.56497 11.3226 5.56497C10.071 5.56497 9.17187 6.87665 8.63608 8.71449C6.17919 8.79412 4.20312 10.7277 4.20312 13.0993C4.20312 15.4708 6.17919 17.4045 8.63608 17.4841C9.17079 19.3219 10.0699 20.6336 11.3226 20.6336C12.9936 20.6336 15.2833 15.9508 15.2833 15.9508L15.4321 15.983L15.3922 16.5103C15.3858 16.6114 15.3793 16.818 15.3717 17.0784C15.3394 18.3395 15.3534 19.6006 15.4095 20.8606L15.4591 21.9582C15.4591 21.9776 15.4763 21.9926 15.4957 21.9926H16.6277C16.6471 21.9926 16.6633 21.9776 16.6643 21.9582L16.7139 20.8606C16.7711 19.6006 16.7851 18.3395 16.7517 17.0784C16.7452 16.818 16.7376 16.6104 16.7312 16.5103L16.6913 15.983L16.8401 15.9508C16.8401 15.9508 19.1298 20.6336 20.8008 20.6336C22.0524 20.6336 22.9515 19.3219 23.4873 17.4841C25.9442 17.4045 27.9203 15.4708 27.9203 13.0993C27.9203 10.7277 25.9442 8.79412 23.4873 8.71449ZM8.30943 16.0132C6.80662 15.7915 5.64879 14.5713 5.64879 13.0993C5.64879 11.6273 6.80662 10.4071 8.30943 10.1854C8.15311 11.1119 8.07657 12.1072 8.07657 13.0993C8.07657 14.0914 8.15311 15.0867 8.30943 16.0132ZM11.0973 7.09077C11.1997 7.02191 11.3226 7.0359 11.4358 7.094C12.0363 7.41681 14.2236 10.8289 14.2236 10.9451L14.118 11.0581C13.4625 10.604 11.7991 9.47417 10.0699 8.94369C10.3868 7.9376 10.776 7.3049 11.0962 7.09077H11.0973ZM11.4358 19.1057C11.3226 19.1638 11.1997 19.1788 11.0973 19.1089C10.7771 18.8948 10.3879 18.262 10.071 17.256C11.8002 16.7255 13.4636 15.5957 14.1191 15.1416L14.2247 15.2546C14.2247 15.3708 12.0373 18.7828 11.4369 19.1057H11.4358ZM14.8715 13.18C14.6893 13.2822 10.7113 15.6183 9.73892 15.8571C9.60417 15.0652 9.51684 14.1463 9.51684 13.0993C9.51684 12.0523 9.60417 11.1334 9.73892 10.3414C10.7102 10.5814 14.6893 12.9174 14.8715 13.0186V13.1789V13.18ZM20.6887 7.09508C20.8019 7.03697 20.9248 7.02191 21.0272 7.09185C21.3474 7.30598 21.7366 7.93868 22.0535 8.94476C20.3243 9.47524 18.6609 10.6051 18.0054 11.0591L17.8998 10.9462C17.8998 10.83 20.0871 7.41789 20.6876 7.09508H20.6887ZM21.0272 19.11C20.9248 19.1788 20.8019 19.1648 20.6887 19.1067C20.0882 18.7828 17.9009 15.3719 17.9009 15.2556L18.0065 15.1427C18.662 15.5967 20.3254 16.7266 22.0546 17.257C21.7376 18.2631 21.3485 18.8958 21.0283 19.11H21.0272ZM22.3845 15.8582C21.4132 15.6183 17.4341 13.2822 17.2519 13.1811V13.0207C17.4341 12.9185 21.4121 10.5825 22.3845 10.3436C22.5192 11.1355 22.6066 12.0545 22.6066 13.1014C22.6066 14.1484 22.5192 15.0673 22.3845 15.8593V15.8582ZM23.8151 16.0142C23.9714 15.0878 24.0479 14.0925 24.0479 13.1004C24.0479 12.1083 23.9714 11.1129 23.8151 10.1865C25.3179 10.4082 26.4757 11.6284 26.4757 13.1004C26.4757 14.5724 25.3179 15.7926 23.8151 16.0142ZM52.7618 6.25901H54.8489V8.34219H52.7618V6.25901ZM94.1375 10.9548C93.371 10.5147 92.5204 10.293 91.5825 10.293C90.6446 10.293 89.794 10.5147 89.0275 10.9548C88.2632 11.4013 87.6627 11.9985 87.2239 12.7485C86.7884 13.5017 86.5695 14.312 86.5695 15.1868C86.5695 16.0616 86.783 16.874 87.2056 17.625C87.6293 18.3783 88.2244 18.9787 88.9909 19.4188H88.9876C89.7541 19.8589 90.6187 20.0805 91.5814 20.0805C92.5441 20.0805 93.4087 19.8556 94.1752 19.4069C94.9417 18.9582 95.5368 18.361 95.9605 17.6132C96.3841 16.8686 96.5965 16.0616 96.5965 15.1868C96.5965 14.312 96.3777 13.4996 95.9389 12.7485C95.5034 11.9953 94.9029 11.3949 94.1353 10.9548H94.1375ZM94.0814 16.6502C93.8205 17.1053 93.4745 17.4658 93.0357 17.7316H93.0422C92.6034 17.9973 92.1215 18.1275 91.5879 18.1275C91.0542 18.1275 90.5724 17.9973 90.1336 17.7316C89.6959 17.4658 89.3488 17.1053 89.0879 16.6502C88.827 16.195 88.6965 15.7345 88.6965 15.19C88.6965 14.6455 88.8238 14.1527 89.076 13.704C89.3272 13.2553 89.6797 12.9035 90.1207 12.6431C90.5648 12.3827 91.0499 12.2525 91.5836 12.2525C92.1172 12.2525 92.6056 12.3859 93.0465 12.6431C93.4906 12.9035 93.8399 13.2553 94.0911 13.704C94.3434 14.1527 94.4706 14.6703 94.4706 15.19C94.4706 15.7097 94.3401 16.195 94.0793 16.6502H94.0814ZM83.3742 6.25901H85.4613V19.9094H83.3742V6.25901ZM112.008 10.4673L108.514 19.9094H106.427L104.139 13.2284L101.85 19.9094H99.7627L96.2688 10.4673H98.4421L100.855 17.3324L103.174 10.4673H105.208L107.509 17.3324L109.94 10.4673H112.009H112.008ZM43.6038 6.25901L37.9429 19.9094H35.6628L30.002 6.25901H32.3769L36.8509 17.3205L41.3248 6.25901H43.6049H43.6038ZM81.355 6.25901H81.9857V8.0409H81.4973C81.0294 8.0409 80.6564 8.1711 80.3815 8.4315C80.1066 8.6919 79.919 9.09003 79.8274 9.63449L79.6808 10.4684H81.9857V12.2686H79.3649L78.0238 19.9105H78.0195L77.8697 20.7617C77.6886 21.772 77.2832 22.5317 76.6525 23.0342H76.6558C76.0219 23.5399 75.2489 23.7939 74.3369 23.7939C73.6534 23.7939 73.1791 23.7874 72.9128 23.7767L73.2265 21.9948H74.1946C74.6625 21.9948 75.0355 21.8646 75.3104 21.6042C75.5853 21.3438 75.7718 20.9446 75.8645 20.4012L77.2918 12.2686H75.7459V10.4684H77.6077L77.8212 9.27403C77.999 8.26364 78.4044 7.50397 79.0383 7.00146L79.035 6.99824C79.6657 6.49251 80.4419 6.25901 81.3539 6.25901H81.355ZM52.7618 10.4673H54.8489V19.9094H52.7618V10.4673ZM49.27 10.9548C48.5035 10.5147 47.6529 10.293 46.715 10.293C45.7771 10.293 44.9265 10.5147 44.1601 10.9548C43.3936 11.4013 42.7952 11.9985 42.3565 12.7485C41.9209 13.5017 41.7021 14.312 41.7021 15.1868C41.7021 16.0616 41.9155 16.874 42.3381 17.625C42.7618 18.3783 43.3569 18.9787 44.1234 19.4188H44.1202C44.8867 19.8589 45.7545 20.0805 46.714 20.0805C47.6734 20.0805 48.538 19.8556 49.3045 19.4069C50.071 18.9582 50.6661 18.361 51.0898 17.6132C51.5135 16.8686 51.7258 16.0616 51.7258 15.1868C51.7258 14.312 51.5102 13.4996 51.0714 12.7485C50.6359 11.9953 50.0354 11.3949 49.2679 10.9548H49.27ZM49.214 16.6502C48.9531 17.1053 48.607 17.4658 48.1693 17.7316H48.1747C47.737 17.9973 47.2541 18.1275 46.7204 18.1275C46.1868 18.1275 45.7049 17.9973 45.2661 17.7316C44.8284 17.4658 44.4813 17.1053 44.2215 16.6502C43.9606 16.195 43.8302 15.7345 43.8302 15.19C43.8302 14.6455 43.9574 14.1527 44.2086 13.704C44.4608 13.2553 44.8101 12.9035 45.2543 12.6431C45.6984 12.3827 46.1836 12.2525 46.7172 12.2525C47.2508 12.2525 47.7392 12.3859 48.1801 12.6431C48.6243 12.9035 48.9736 13.2553 49.2258 13.704C49.477 14.1527 49.6042 14.6703 49.6042 15.19C49.6042 15.7097 49.4738 16.195 49.2129 16.6502H49.214ZM74.7282 17.4034C74.7908 17.2495 74.85 17.0956 74.8996 16.9396H72.8125C72.7478 17.0634 72.6702 17.1785 72.584 17.2915C72.3414 17.6014 72.0363 17.8446 71.6633 18.021C71.2903 18.1986 70.9141 18.2459 70.4581 18.2459C69.9395 18.2459 69.4512 18.1243 68.9951 17.8854C68.5359 17.6433 68.1715 17.3205 67.8912 16.9073C67.6519 16.5555 67.5096 16.166 67.4675 15.7431H75.0915C75.1422 14.7327 74.988 13.8105 74.6355 12.9831H74.6323C74.2765 12.1556 73.7321 11.5025 72.9979 11.0204C72.2638 10.5384 71.3841 10.2995 70.36 10.2995C69.4361 10.2995 68.5952 10.5179 67.8427 10.9526C67.0902 11.3895 66.4984 11.9781 66.0661 12.7173C65.6338 13.4587 65.4203 14.2722 65.4203 15.1556C65.4203 15.3568 65.4322 15.5515 65.4559 15.7442C65.527 16.4177 65.7286 17.044 66.0574 17.6293C66.4811 18.3826 67.0762 18.9798 67.8427 19.4231C68.6092 19.8632 69.4803 20.0881 70.4537 20.0881C71.4779 20.0881 72.3576 19.8492 73.0917 19.3671C73.8259 18.8851 74.3714 18.2319 74.7261 17.4045L74.7282 17.4034ZM67.681 13.8751C67.8438 13.364 68.1435 12.9379 68.5747 12.6043C69.0038 12.2708 69.587 12.1018 70.3211 12.1018C70.7804 12.1018 71.1911 12.19 71.5674 12.3676C71.9404 12.5451 72.2455 12.7872 72.488 13.0971C72.7274 13.4049 72.8934 13.7557 72.9796 14.1495H67.6001C67.6239 14.058 67.6508 13.9666 67.6799 13.8751H67.681ZM58.4011 13.7008C58.1704 14.1495 58.0572 14.6402 58.0572 15.1696C58.0572 15.699 58.1726 16.1896 58.4011 16.6383C58.6286 17.087 58.9488 17.4389 59.3606 17.6993C59.7692 17.9597 60.237 18.0899 60.7556 18.0899C61.2741 18.0899 61.7151 17.9834 62.0848 17.7682C62.4524 17.5519 62.7241 17.2624 62.902 16.8966H65.1821C64.9805 17.4636 64.6872 17.9877 64.3088 18.46C63.9272 18.9324 63.4324 19.3144 62.8255 19.6071C62.2153 19.8998 61.5081 20.045 60.6963 20.045C59.8112 20.045 58.9994 19.8287 58.2653 19.3919C57.5279 18.9539 56.9533 18.3664 56.5361 17.6186C56.1157 16.874 55.9087 16.0584 55.9087 15.1717C55.9087 14.2851 56.1189 13.4727 56.5361 12.7248C56.9533 11.9802 57.5311 11.3895 58.2653 10.9515C58.9994 10.5168 59.808 10.2984 60.6963 10.2984C61.507 10.2984 62.2153 10.4437 62.8255 10.7353C63.4356 11.0247 63.9294 11.4089 64.3088 11.8823C64.6872 12.3547 64.9783 12.8787 65.1821 13.4458H62.902C62.7241 13.0788 62.4514 12.7894 62.0848 12.5742C61.7172 12.359 61.2741 12.2525 60.7556 12.2525C60.237 12.2525 59.7724 12.3859 59.3606 12.6431C58.9488 12.9035 58.6297 13.2553 58.4011 13.704V13.7008Z"
        fill="#1F2428" />
</svg>